<svg width="128" height="121" viewBox="0 0 128 121" fill="none" xmlns="http://www.w3.org/2000/svg">
<path fill-rule="evenodd" clip-rule="evenodd" d="M62.7858 0.244266C79.5982 -2.07192 93.3777 12.5414 105.221 24.6979C116.862 36.6469 128.42 50.4594 127.952 67.1353C127.492 83.5187 115.546 96.8258 102.903 107.255C91.5764 116.598 77.4547 121.519 62.7858 120.89C48.7555 120.288 36.6308 113.094 25.9667 103.956C14.1189 93.8044 -0.999649 82.7027 0.0519837 67.1353C1.08841 51.7929 20.1077 46.1905 30.6267 34.9744C41.8468 23.0108 46.5379 2.48267 62.7858 0.244266Z" fill="#F8E296"/>
<path d="M20.637 83.4315C22.0168 82.7206 23.6388 82.6284 25.1686 82.8812C25.9901 83.0181 26.8459 83.263 27.4068 83.8818C27.9676 84.5006 28.0703 85.5854 27.4278 86.1147C27.046 86.4306 26.5141 86.478 26.0191 86.4728C24.821 86.4596 23.4913 86.2489 22.5355 86.9678C21.9878 87.3812 21.6244 88.0632 20.974 88.2659C20.3237 88.4687 19.6127 88.0869 19.2757 87.5102C18.9642 86.9103 18.8954 86.2136 19.0835 85.5643C19.1606 85.1132 19.3409 84.6859 19.6104 84.3159C19.8799 83.946 20.2312 83.6433 20.637 83.4315Z" fill="#C5A32B"/>
<path d="M17.48 77.3383C18.3226 78.5416 19.9604 78.1414 20.7213 77.4094C21.4823 76.6774 21.8009 75.6083 22.0932 74.5946C22.7594 72.2748 23.4334 69.855 22.9358 67.4852C22.8171 66.7694 22.5027 66.1005 22.0274 65.5525C21.7871 65.2816 21.4799 65.0787 21.1366 64.9641C20.7932 64.8495 20.4257 64.8272 20.0709 64.8994C19.2441 65.118 18.7333 65.9264 18.3621 66.6979C17.2684 68.9688 16.6954 71.4553 16.6848 73.9758C16.6848 75.1476 16.819 76.3772 17.4747 77.3462" fill="#C5A32B"/>
<path d="M15.1654 79.0654C16.0817 77.9779 16.2555 76.3954 15.8474 75.0341C15.4393 73.6727 14.5308 72.5168 13.4618 71.5715C12.2144 70.462 10.7629 69.606 9.18823 69.0516C8.57881 68.8045 7.92288 68.6931 7.26605 68.7251C6.938 68.7437 6.61947 68.8422 6.33816 69.012C6.05685 69.1818 5.82129 69.4178 5.65195 69.6993C5.20168 70.5577 5.63352 71.5978 6.09958 72.4483C6.92175 73.9442 7.86028 75.3731 8.90649 76.7219C9.74909 77.8067 10.7128 78.8758 11.9951 79.355C13.2775 79.8342 14.6098 79.7895 15.3023 78.91" fill="#C5A32B"/>
<path d="M17.4246 95.4911C17.4684 95.3125 17.4939 95.1299 17.501 94.9461C17.5378 94.5459 17.5878 94.0482 17.6458 93.4531C17.7193 92.7176 17.8309 91.9863 17.9802 91.2624C18.1751 90.3819 18.4393 89.5182 18.7701 88.6793C19.0969 87.8419 19.5401 87.0547 20.0867 86.341C20.5328 85.7606 21.1032 85.2873 21.7561 84.956C22.2009 84.7397 22.6773 84.5957 23.1674 84.5295C23.3514 84.522 23.534 84.4955 23.7125 84.4505C23.5287 84.4299 23.3433 84.4299 23.1595 84.4505C22.652 84.489 22.1554 84.6173 21.6929 84.8296C21.0069 85.1542 20.4049 85.6327 19.934 86.2278C19.3635 86.9515 18.903 87.7553 18.5674 88.6134C18.228 89.4665 17.9637 90.3476 17.7774 91.2466C17.6357 91.9791 17.5381 92.7194 17.4852 93.4636C17.4378 94.0982 17.422 94.6117 17.4114 94.9672C17.3969 95.1418 17.4013 95.3175 17.4246 95.4911Z" fill="#263238"/>
<path d="M17.5273 94.3431C17.5372 94.2556 17.5372 94.1673 17.5273 94.0798V93.3531C17.5273 92.7238 17.5273 91.8127 17.5589 90.6884C17.6142 88.437 17.8222 86.0146 18.183 82.5994C18.5358 79.3896 19.0124 75.6506 19.5153 73.2229C19.6207 72.6699 19.7313 72.1696 19.8313 71.7378C19.9314 71.3059 20.013 70.9241 20.0946 70.6187C20.1763 70.3133 20.221 70.0921 20.2658 69.9157C20.2918 69.8301 20.3069 69.7417 20.3105 69.6523C20.2702 69.7269 20.2401 69.8067 20.221 69.8893C20.1657 70.071 20.0973 70.3027 20.0104 70.5845C19.9235 70.8662 19.8208 71.2586 19.7128 71.6956C19.6049 72.1327 19.4785 72.6251 19.36 73.1755C18.7399 76.0451 18.2723 78.9456 17.9592 81.8648C17.5853 85.2878 17.4167 88.4028 17.4009 90.6568C17.4009 91.7864 17.4009 92.7001 17.4404 93.3294C17.4589 93.6243 17.4747 93.856 17.4852 94.0535C17.486 94.1515 17.5002 94.2489 17.5273 94.3431Z" fill="#263238"/>
<path d="M17.5405 88.3341C17.5606 88.0817 17.5606 87.8281 17.5405 87.5757C17.4976 86.8877 17.4203 86.2022 17.3088 85.5219C17.1437 84.513 16.9213 83.5143 16.6426 82.5307C16.314 81.3232 15.8932 80.1427 15.384 78.9996C14.5123 76.8846 13.2632 74.9458 11.6976 73.2779C11.4263 72.9928 11.1379 72.7246 10.8339 72.4748C10.6996 72.3642 10.5838 72.2509 10.4627 72.1641L10.1283 71.9323C9.93333 71.7767 9.72643 71.6367 9.50947 71.5137C9.47261 71.5611 10.4126 72.1167 11.6002 73.3779C13.108 75.0612 14.3181 76.989 15.1786 79.0786C15.675 80.2187 16.0955 81.3904 16.4372 82.586C16.7637 83.6866 16.9823 84.6924 17.1455 85.5482C17.3088 86.404 17.393 87.0991 17.4483 87.5836C17.4614 87.8356 17.4922 88.0864 17.5405 88.3341Z" fill="#263238"/>
<path d="M11.7344 98.9351L12.3348 107.185H22.9331L23.5361 98.9351H11.7344Z" fill="#263238"/>
<path d="M24.8 95.6831H10.7102V98.935H24.8V95.6831Z" fill="#263238"/>
<path d="M10.7102 106.869V107.769H11.3711H24.5683V106.869H10.7102Z" fill="#455A64"/>
<path d="M12.0215 109.357L11.3711 107.77H24.0627L23.3044 109.357H12.0215Z" fill="#455A64"/>
<path d="M23.3386 101.645C23.3255 101.671 23.3086 101.696 23.2886 101.718C23.2465 101.776 23.1964 101.845 23.1306 101.929L22.5145 102.719L22.4855 102.756L22.4592 102.719L20.9425 100.612H21.0294L19.5364 102.719L19.489 102.785L19.4363 102.724L17.6669 100.618H17.7696C17.738 100.654 17.7038 100.697 17.6722 100.739L16.0923 102.724L16.0396 102.79L15.9922 102.721L14.4966 100.615H14.5835C13.8489 101.455 13.2222 102.166 12.7403 102.721L12.7087 102.758L12.685 102.716C12.4401 102.311 12.2479 101.984 12.1084 101.75C12.0478 101.645 11.9978 101.56 11.9609 101.487C11.9409 101.458 11.9249 101.427 11.9135 101.394C11.9135 101.394 11.9372 101.421 11.9767 101.476L12.14 101.724L12.7456 102.674H12.6877L14.4966 100.552L14.544 100.499L14.5835 100.557L16.0923 102.664H15.987L17.5668 100.676L17.6643 100.554L17.7169 100.491L17.7669 100.552C18.3884 101.292 18.9834 102.005 19.5338 102.658H19.4337L20.9425 100.552L20.9873 100.491L21.0294 100.552L22.5145 102.674H22.4618L23.1043 101.908L23.2754 101.708C23.3158 101.653 23.3369 101.632 23.3386 101.645Z" fill="#E0E0E0"/>
<path d="M23.6836 98.8798C23.6836 98.9167 21.0267 98.9456 17.7538 98.9456C14.4808 98.9456 11.8214 98.9167 11.8214 98.8798C11.8214 98.8429 14.4755 98.814 17.7538 98.814C21.032 98.814 23.6836 98.8429 23.6836 98.8798Z" fill="#455A64"/>
<path d="M24.2181 107.859C24.2181 107.896 21.3216 107.925 17.7722 107.925C14.2227 107.925 11.3263 107.896 11.3263 107.859C11.3263 107.822 14.2227 107.793 17.7722 107.793C21.3216 107.793 24.2181 107.822 24.2181 107.859Z" fill="#263238"/>
<path d="M96.6921 74.5527H121.32C122.376 74.5527 123.39 74.9725 124.137 75.7196C124.884 76.4667 125.304 77.4801 125.304 78.5367V109.507H92.7161V78.5367C92.7161 77.4814 93.1348 76.4693 93.8802 75.7224C94.6256 74.9755 95.6369 74.5548 96.6921 74.5527Z" fill="#455A64"/>
<path d="M122.56 74.7319C122.599 74.7319 122.628 82.5128 122.628 92.1105C122.628 101.708 122.599 109.489 122.56 109.489C122.52 109.489 122.492 101.708 122.492 92.1105C122.492 82.5128 122.523 74.7319 122.56 74.7319Z" fill="#263238"/>
<path d="M106.503 36.6069C109.5 40.8976 111.219 45.9504 111.459 51.1786C111.611 54.6807 111.14 58.4118 112.802 61.4978C115.187 65.9268 120.345 65.7767 121.925 70.5505C122.613 72.6281 121.346 77.1965 121.004 79.3583C120.617 81.8124 122.118 83.8741 121.731 86.3308C121.375 88.5821 119.69 90.1884 117.668 91.2363C115.867 92.1685 114.202 92.1948 112.33 91.418C108.76 89.9408 105.79 88.382 103.249 85.4751C99.6781 81.3937 98.5985 75.7325 97.9824 70.353C96.6378 58.4563 96.9097 46.4322 98.7908 34.6084" fill="#263238"/>
<path d="M114.137 91.9212C114.174 91.9092 114.212 91.8996 114.25 91.8923C114.326 91.8738 114.442 91.8554 114.59 91.8106C115.7 91.5086 116.696 90.8825 117.449 90.0122C117.733 89.6804 117.949 89.2968 118.086 88.8826C118.218 88.4113 118.293 87.926 118.31 87.437C118.329 86.3092 118.214 85.1831 117.968 84.0824C117.739 82.887 117.441 81.6126 117.352 80.2302C117.308 79.5244 117.359 78.8161 117.502 78.1237C117.667 77.4044 117.89 76.6999 118.171 76.0172C118.457 75.3167 118.709 74.6022 118.924 73.8764C119.147 73.1345 119.21 72.3536 119.108 71.5856C118.985 70.8214 118.693 70.0944 118.252 69.4581C117.822 68.8388 117.32 68.2715 116.759 67.7676C115.672 66.7512 114.495 65.9244 113.489 64.9712C111.694 63.3108 110.247 61.3115 109.228 59.0888C108.834 58.2379 108.506 57.3575 108.249 56.4557C108.123 56.0634 108.049 55.6842 107.959 55.3419C107.87 54.9996 107.83 54.6783 107.772 54.394C107.691 53.8173 107.628 53.3723 107.612 53.0774C107.612 52.9299 107.591 52.8141 107.585 52.7298C107.58 52.6456 107.585 52.6113 107.585 52.6113C107.585 52.6113 107.585 52.6508 107.604 52.7298C107.622 52.8088 107.628 52.9273 107.646 53.0748C107.67 53.3776 107.741 53.8226 107.83 54.3913C107.891 54.6757 107.957 54.9917 108.028 55.3366C108.099 55.6816 108.196 56.0502 108.328 56.4425C108.592 57.3354 108.924 58.2068 109.321 59.0493C110.346 61.2518 111.792 63.2323 113.578 64.879C114.579 65.8112 115.759 66.6459 116.857 67.6675C117.425 68.1789 117.933 68.7541 118.371 69.3817C118.823 70.0354 119.123 70.7822 119.248 71.5672C119.353 72.3536 119.289 73.1534 119.061 73.9133C118.855 74.6611 118.568 75.3694 118.302 76.0646C118.024 76.7391 117.801 77.4347 117.633 78.1447C117.491 78.8275 117.441 79.5262 117.483 80.2223C117.554 81.5862 117.86 82.8554 118.086 84.0587C118.329 85.1688 118.438 86.3037 118.413 87.4396C118.391 87.9369 118.311 88.4299 118.176 88.9089C118.03 89.3305 117.805 89.7208 117.515 90.0596C117.05 90.5984 116.485 91.0412 115.851 91.363C115.455 91.5729 115.035 91.7321 114.6 91.837C114.448 91.8768 114.293 91.905 114.137 91.9212Z" fill="#455A64"/>
<path d="M65.1105 101.329L77.7495 95.3282C77.7495 95.3282 82.6708 71.4326 83.603 69.6395C84.5351 67.8463 88.4216 66.2954 88.4216 66.2954L87.7712 98.6512L86.6126 106.121L68.7916 107.809L65.1105 101.329Z" fill="#C5A32B"/>
<path d="M54.3279 106.99C54.2568 106.99 53.9066 107.206 54.1988 107.762C54.4911 108.317 56.6345 110.153 57.2638 109.513C57.8931 108.873 56.932 108.094 56.932 108.094L54.3279 106.99Z" fill="#FFBE9D"/>
<path d="M57.0215 108.117C57.0215 108.117 59.6072 108.444 60.5999 108.823C61.6821 109.234 62.9987 108.952 63.8834 108.354C64.3862 108.02 64.8553 107.637 65.2842 107.212L68.5809 107.159C69.0548 106.604 69.3658 105.929 69.4792 105.208C69.5926 104.487 69.504 103.749 69.2234 103.075C69.0469 102.606 68.7923 102.171 68.4703 101.787C68.078 101.364 67.4592 101.021 66.3902 100.837L62.4747 101.682C62.4747 101.682 56.4185 101.248 55.3284 101.759C55.3284 101.759 53.9724 102.562 53.5537 102.899C53.3957 103.028 52.9138 104.571 53.9013 105.374C53.9013 105.374 53.0429 106.056 53.5089 106.669L53.7301 106.933C53.7301 106.933 53.1535 107.68 53.451 108.007C53.7485 108.333 56.3474 109.85 57.2717 109.492C58.1959 109.134 57.4323 108.268 57.0215 108.11" fill="#FFBE9D"/>
<path d="M54.5517 104.039C54.661 104.071 54.7682 104.109 54.8729 104.154C55.0757 104.231 55.3732 104.341 55.7471 104.46C55.9314 104.52 56.1368 104.581 56.3606 104.639C56.5844 104.697 56.8241 104.747 57.0742 104.829C57.3463 104.903 57.5924 105.052 57.7851 105.258C57.8914 105.372 57.965 105.513 57.9984 105.665C58.0317 105.817 58.0235 105.976 57.9747 106.124C57.9129 106.273 57.8 106.395 57.6561 106.469C57.5208 106.535 57.3744 106.576 57.2243 106.59C56.9488 106.606 56.6723 106.591 56.4001 106.545C55.9443 106.472 55.4965 106.355 55.0625 106.198C54.6912 106.066 54.399 105.934 54.1962 105.855C54.0889 105.817 53.9857 105.767 53.8881 105.708C53.9982 105.737 54.1064 105.773 54.212 105.816C54.4174 105.89 54.7149 106.003 55.0862 106.124C55.515 106.27 55.9554 106.378 56.4028 106.448C56.6639 106.489 56.9288 106.501 57.1927 106.485C57.3292 106.473 57.4623 106.435 57.585 106.374C57.7043 106.312 57.7976 106.209 57.8483 106.085C57.8909 105.957 57.8992 105.82 57.8724 105.688C57.8456 105.555 57.7847 105.433 57.6956 105.331C57.5162 105.139 57.2876 105 57.0347 104.929C56.7925 104.847 56.5502 104.794 56.329 104.731C56.1078 104.668 55.8998 104.602 55.7155 104.539C55.3416 104.41 55.0493 104.276 54.8492 104.199C54.7452 104.155 54.6456 104.101 54.5517 104.039Z" fill="#EB996E"/>
<path d="M54.7834 102.172C54.8924 102.202 54.9989 102.241 55.102 102.288C55.3074 102.367 55.6023 102.48 55.9709 102.601C56.3396 102.722 56.7846 102.864 57.2875 102.978C57.5634 103.021 57.8256 103.127 58.0537 103.288C58.1746 103.389 58.2543 103.53 58.2775 103.686C58.3006 103.843 58.2778 104.003 58.2117 104.147C58.1448 104.284 58.0501 104.406 57.9336 104.505C57.8171 104.604 57.6814 104.677 57.535 104.721C57.2693 104.807 56.9869 104.83 56.7108 104.787C56.2617 104.697 55.8212 104.568 55.3943 104.402L54.5227 104.097C54.4146 104.063 54.309 104.021 54.2067 103.973C54.3186 103.992 54.4287 104.02 54.5359 104.057L55.418 104.321C55.8471 104.473 56.2872 104.593 56.7345 104.679C56.9953 104.716 57.2611 104.693 57.5113 104.61C57.6444 104.569 57.7676 104.502 57.8731 104.411C57.9787 104.32 58.0644 104.209 58.1248 104.084C58.187 103.964 58.2081 103.827 58.1848 103.694C58.1614 103.562 58.095 103.44 57.9958 103.349C57.7803 103.199 57.5337 103.099 57.2743 103.057C56.7714 102.93 56.3264 102.793 55.9578 102.656C55.5891 102.519 55.2995 102.393 55.0994 102.309C54.9905 102.272 54.8848 102.226 54.7834 102.172Z" fill="#EB996E"/>
<path d="M56.0288 102.698C55.9749 102.526 55.9353 102.35 55.9103 102.172C55.851 102.001 55.8078 101.824 55.7813 101.645C55.9069 101.782 55.9885 101.954 56.0157 102.137C56.0815 102.318 56.0862 102.515 56.0288 102.698Z" fill="#EB996E"/>
<path d="M65.1474 102.782L62.8434 101.908C62.8434 101.908 56.4475 98.9223 56.3396 99.0856C56.2316 99.2488 55.884 99.2277 55.9604 100.007C56.0367 100.787 59.7626 102.361 59.8811 102.64C59.9996 102.919 59.8021 104.278 61.1792 105.255C62.5564 106.232 63.549 106.256 63.549 106.256" fill="#FFBE9D"/>
<path d="M63.5491 106.232H63.4885L63.3305 106.216C63.1277 106.184 62.9279 106.136 62.7328 106.072C62.0148 105.827 61.3512 105.445 60.779 104.947C60.3915 104.584 60.1172 104.117 59.9891 103.602C59.923 103.318 59.8773 103.031 59.8522 102.741C59.8477 102.707 59.8398 102.675 59.8285 102.643C59.8135 102.618 59.7928 102.596 59.7679 102.58C59.7078 102.536 59.6454 102.496 59.581 102.459C59.452 102.383 59.3177 102.309 59.1755 102.235C58.6225 101.938 58.0301 101.64 57.435 101.298C57.1299 101.126 56.8338 100.939 56.5476 100.737C56.3995 100.633 56.2603 100.517 56.1316 100.389C56.0631 100.324 56.0038 100.249 55.9552 100.168C55.9291 100.123 55.9112 100.074 55.9025 100.023C55.8973 99.9761 55.8973 99.9284 55.9025 99.8811C55.8815 99.6904 55.9153 99.4977 55.9999 99.3255C56.0523 99.2442 56.1214 99.1751 56.2027 99.1228C56.2357 99.1014 56.2658 99.0757 56.2922 99.0464C56.2922 99.0464 56.2922 99.0464 56.3133 99.0227C56.3261 99.013 56.342 99.0083 56.358 99.0096C56.3729 99.0079 56.3879 99.0079 56.4028 99.0096L56.4739 99.028C56.8188 99.1333 57.1374 99.2729 57.456 99.4045C58.088 99.6678 58.691 99.9311 59.265 100.194C60.4157 100.721 61.4426 101.19 62.3063 101.595C62.5222 101.693 62.7249 101.795 62.9198 101.88L63.4833 102.101L64.3864 102.459L64.9552 102.688L65.1 102.751C65.1342 102.751 65.15 102.772 65.15 102.775C65.15 102.778 65.1316 102.775 65.0974 102.759L64.9473 102.709L64.3706 102.496L63.4596 102.172L62.8908 101.959C62.6907 101.877 62.4879 101.777 62.272 101.68L59.2229 100.302C58.6462 100.039 58.0432 99.7758 57.4113 99.5125C57.0953 99.3835 56.7741 99.2492 56.4423 99.1412L56.3844 99.1281H56.3633C56.3633 99.1281 56.3633 99.1122 56.3633 99.1017C56.437 99.1491 56.3817 99.1175 56.3975 99.1281C56.3661 99.1669 56.3288 99.2007 56.2869 99.2281C56.2167 99.2712 56.1573 99.3297 56.1132 99.3993C56.039 99.554 56.0098 99.7264 56.0289 99.8969C56.0272 99.9793 56.0462 100.061 56.0842 100.134C56.1282 100.207 56.1813 100.274 56.2422 100.334C56.3667 100.457 56.5015 100.569 56.645 100.668C56.9294 100.874 57.227 101.053 57.5219 101.224C58.1143 101.566 58.7015 101.866 59.2571 102.164C59.3967 102.24 59.5204 102.314 59.6652 102.396C59.7332 102.434 59.7991 102.477 59.8627 102.522C59.9011 102.548 59.9319 102.583 59.9522 102.625C59.9656 102.663 59.9744 102.703 59.9786 102.743C60.0036 103.03 60.0466 103.315 60.1076 103.596C60.228 104.098 60.4893 104.555 60.8607 104.913C61.4218 105.409 62.0711 105.796 62.775 106.053C62.9666 106.121 63.1628 106.174 63.3621 106.214C63.4306 106.23 63.4833 106.235 63.5201 106.24L63.5491 106.232Z" fill="#EB996E"/>
<path d="M56.4949 106.532C56.5798 106.543 56.6625 106.567 56.7398 106.603C56.9561 106.69 57.1591 106.807 57.3427 106.951C57.4707 107.051 57.5873 107.165 57.6903 107.291C57.7551 107.361 57.805 107.445 57.8371 107.535C57.8692 107.625 57.8828 107.721 57.8773 107.817C57.8562 107.926 57.8051 108.027 57.7297 108.108C57.6543 108.19 57.5577 108.249 57.4507 108.278C57.2307 108.338 56.9977 108.331 56.7819 108.257C56.0495 108.04 55.339 107.755 54.6596 107.406C54.455 107.3 54.2563 107.182 54.0645 107.054C53.9908 107.011 53.9227 106.96 53.8618 106.901C53.9401 106.932 54.0151 106.971 54.0856 107.017C54.2278 107.098 54.4331 107.212 54.6938 107.338C55.3743 107.663 56.0785 107.936 56.8003 108.154C56.9971 108.222 57.2097 108.231 57.4112 108.178C57.4998 108.155 57.5803 108.107 57.6439 108.041C57.7075 107.976 57.7518 107.893 57.7719 107.804C57.7777 107.719 57.7668 107.634 57.7396 107.554C57.7125 107.474 57.6698 107.399 57.614 107.335C57.5173 107.213 57.4079 107.1 57.2874 107.001C57.0441 106.812 56.7778 106.654 56.4949 106.532Z" fill="#EB996E"/>
<g opacity="0.3">
<path d="M86.5231 106.121C84.4534 99.1408 82.6287 90.1513 80.559 83.1709C79.8007 89.6142 80.7486 98.1218 81.9335 104.499C82.0731 105.247 82.1363 105.979 82.7235 106.471L86.5231 106.121Z" fill="black"/>
</g>
<path d="M83.1342 101.329C83.1052 101.329 83.0184 100.874 82.7366 100.176C82.5709 99.7694 82.3728 99.3767 82.1442 99.0018C81.8587 98.5467 81.5326 98.1184 81.1699 97.7221C80.8018 97.33 80.3981 96.973 79.9639 96.6556C79.608 96.398 79.231 96.1708 78.837 95.9763C78.1629 95.6445 77.71 95.5234 77.7179 95.4971C77.8276 95.5099 77.9354 95.5355 78.0391 95.5734C78.1639 95.6049 78.2862 95.6454 78.4051 95.6946C78.5665 95.751 78.7247 95.8161 78.8791 95.8894C79.2845 96.0751 79.6723 96.2972 80.0377 96.553C80.4832 96.8701 80.8968 97.2299 81.2726 97.6273C81.6407 98.0336 81.9687 98.4745 82.2521 98.9438C82.4796 99.3271 82.6725 99.7298 82.8288 100.147C82.8999 100.324 82.942 100.489 82.9867 100.634C83.0273 100.757 83.059 100.883 83.0815 101.011C83.1093 101.115 83.1269 101.222 83.1342 101.329Z" fill="#263238"/>
<path d="M87.0786 65.9692C87.0786 65.9692 80.4616 80.7541 80.4616 83.4768C80.4616 86.1994 85.4198 105.05 85.4198 105.05C85.3724 105.8 85.1802 109.558 85.1802 109.558L112.983 109.655L113.407 103.678L111.238 97.9827L113.405 81.8811C113.405 81.8811 114.863 72.5335 114.984 69.9188C115.148 66.6485 104.068 62.8568 104.37 62.4039L102.459 59.834L91.5023 68.7313L89.3352 62.475L86.739 64.9264L87.0786 65.9692Z" fill="#C5A32B"/>
<path d="M105.287 69.903C102.277 74.9928 96.7711 84.2667 96.7711 84.2667L86.9022 95.5207C86.9022 95.5207 86.2571 101.237 87.5473 102.991C88.8375 104.744 91.052 105.943 91.052 105.943C91.052 105.943 93.6561 105.943 96.966 103.175C100.276 100.408 109.405 88.9721 109.405 88.9721L112.541 85.1883C112.541 85.1883 116.28 76.004 115.582 71.3302C115.319 69.5265 114.545 68.7787 113.523 67.9519C110.95 65.8796 106.969 67.0566 105.287 69.903Z" fill="#C5A32B"/>
<path d="M113.702 82.002C113.689 82.0381 113.673 82.0733 113.655 82.1073C113.621 82.181 113.57 82.2784 113.51 82.4075C113.378 82.6708 113.178 83.0526 112.904 83.5371C112.359 84.5087 111.511 85.8805 110.405 87.5368C109.85 88.3636 109.231 89.2615 108.549 90.2147C107.867 91.1679 107.093 92.15 106.456 93.298C105.819 94.4461 105.239 95.6995 104.542 96.9528C103.825 98.2515 102.984 99.4781 102.032 100.615C101.08 101.758 99.9593 102.749 98.7091 103.554C97.5376 104.302 96.229 104.808 94.8595 105.044C93.62 105.264 92.3474 105.21 91.131 104.886C90.5805 104.738 90.05 104.523 89.5511 104.247C89.0868 104.002 88.6507 103.707 88.2504 103.367C87.8833 103.063 87.5544 102.716 87.2709 102.332C87.0155 101.992 86.7983 101.625 86.6231 101.237C86.3524 100.613 86.175 99.9532 86.0965 99.2779C86.0512 98.852 86.0363 98.4235 86.0517 97.9955C86.0517 97.8534 86.0675 97.7322 86.0728 97.6611C86.0701 97.6234 86.0701 97.5856 86.0728 97.5479C86.0756 97.5856 86.0756 97.6234 86.0728 97.6611C86.0728 97.7428 86.0728 97.8534 86.0728 97.9955C86.0677 98.4214 86.0906 98.8471 86.1412 99.27C86.2297 99.9381 86.4141 100.59 86.6889 101.205C86.8659 101.585 87.0831 101.946 87.3367 102.28C87.6189 102.656 87.9461 102.996 88.3109 103.293C88.7076 103.626 89.1393 103.915 89.5985 104.154C90.0906 104.424 90.613 104.633 91.1547 104.778C92.3586 105.093 93.6165 105.141 94.8411 104.921C96.1922 104.684 97.4829 104.181 98.638 103.441C99.8769 102.641 100.988 101.658 101.932 100.526C102.879 99.3963 103.714 98.1776 104.426 96.887C105.123 95.6415 105.687 94.3776 106.348 93.2349C106.993 92.1677 107.696 91.1366 108.454 90.1462C109.139 89.1983 109.771 88.303 110.321 87.4815C111.438 85.8358 112.296 84.4718 112.854 83.5107C113.136 83.0289 113.344 82.6523 113.481 82.3943L113.642 82.0994C113.658 82.0647 113.678 82.032 113.702 82.002Z" fill="#263238"/>
<path d="M86.3966 95.0176C86.3966 95.036 86.2571 95.1229 86.0754 95.3257C85.8335 95.5823 85.6845 95.9126 85.652 96.2638C85.6196 96.615 85.7056 96.967 85.8963 97.2636C86.0359 97.4953 86.1597 97.6086 86.1597 97.6244C86.1597 97.6402 85.9938 97.5506 85.82 97.3189C85.593 97.0117 85.4871 96.6317 85.5225 96.2514C85.558 95.8711 85.7323 95.5171 86.0122 95.2572C86.1142 95.1415 86.2478 95.0582 86.3966 95.0176Z" fill="#263238"/>
<path d="M88.2214 98.0033C88.2743 98.0103 88.3264 98.0227 88.3768 98.0402L88.5611 98.0902L88.8244 98.1376C89.3714 98.2097 89.9277 98.1575 90.4517 97.9849C91.2314 97.7238 91.9486 97.3043 92.5582 96.7526C93.2827 96.0572 93.9396 95.2945 94.5199 94.4749C95.1094 93.6486 95.7885 92.8901 96.5447 92.2131C96.9028 91.9129 97.253 91.6469 97.5453 91.3599C97.8237 91.1045 98.0476 90.7956 98.2036 90.4515C98.3082 90.2002 98.3492 89.9269 98.323 89.6559C98.2969 89.385 98.2043 89.1246 98.0535 88.898C97.9263 88.742 97.7626 88.6199 97.5769 88.5425C97.6292 88.5523 97.6803 88.5673 97.7296 88.5872C97.8715 88.6508 97.9968 88.7464 98.0956 88.8664C98.2625 89.0982 98.3683 89.3683 98.4033 89.6518C98.4382 89.9352 98.4013 90.2229 98.2958 90.4884C98.1389 90.8477 97.9115 91.1718 97.627 91.4416C97.3294 91.7365 96.9766 92.0103 96.6264 92.3105C95.8826 92.9866 95.2135 93.7404 94.6305 94.5592C94.0432 95.3859 93.3765 96.1531 92.6398 96.85C92.0173 97.4048 91.2854 97.8229 90.4912 98.077C89.9523 98.2457 89.3812 98.2845 88.8244 98.1902L88.5611 98.1297C88.4874 98.1086 88.4268 98.0823 88.3794 98.0665C88.3244 98.0518 88.2714 98.0306 88.2214 98.0033Z" fill="#263238"/>
<path d="M106.627 68.3389C106.594 68.394 106.557 68.4467 106.516 68.4968C106.429 68.6074 106.319 68.7602 106.179 68.9366C105.879 69.3105 105.466 69.8687 104.96 70.5639C103.672 72.3903 102.499 74.2961 101.45 76.2698C100.207 78.5764 99.1805 80.7172 98.3932 82.2444C98.0035 83.0106 97.6822 83.6268 97.4479 84.0481L97.1925 84.5299C97.1638 84.5876 97.1294 84.6423 97.0898 84.6932C97.1096 84.6321 97.1352 84.5731 97.1661 84.5168L97.4137 84.0191L98.3168 82.1996C99.0804 80.6592 100.097 78.5133 101.34 76.2014C102.39 74.2212 103.578 72.3172 104.894 70.5033C105.421 69.816 105.834 69.2631 106.148 68.8997L106.506 68.4758C106.541 68.4259 106.582 68.38 106.627 68.3389Z" fill="#263238"/>
<g opacity="0.3">
<path d="M86.0807 97.5478C87.363 98.243 88.7744 98.1693 90.2068 97.8902C91.653 97.6011 92.9552 96.8217 93.8932 95.6836C93.6765 96.9511 93.0828 98.1238 92.1896 99.0487C91.2785 99.9414 89.9567 100.457 88.7033 100.228C87.4499 99.9993 86.1808 98.8196 86.0702 97.5478" fill="black"/>
</g>
<g opacity="0.3">
<path d="M98.2194 89.9486C99.0333 91.2035 99.3174 92.7295 99.0093 94.1932C100.097 92.5291 100.352 90.4226 100.063 88.4556C99.7729 86.4887 98.9698 84.6323 98.0798 82.855C98.0798 82.855 97.1003 84.5138 97.0898 84.6982C97.0424 85.6566 97.3952 87.4577 97.5795 88.3977C97.8254 88.6338 98.0088 88.9272 98.1131 89.2517C98.2175 89.5762 98.2395 89.9216 98.1773 90.2567" fill="black"/>
</g>
<g opacity="0.3">
<path d="M90.4306 104.436C93.0479 106.477 96.9318 106.572 99.794 104.897C102.551 103.283 104.249 100.376 105.824 97.5978C108.265 93.2953 111.24 87.9738 112.983 83.3447C112.983 83.3447 108.099 90.0092 106.627 92.8819C105.646 94.8239 104.532 96.6961 103.293 98.4852C101.892 100.501 99.9973 102.124 97.7902 103.2C95.5831 104.275 93.1373 104.767 90.686 104.628" fill="black"/>
</g>
<path d="M85.1801 109.545C85.1759 109.517 85.1759 109.49 85.1801 109.463C85.1801 109.4 85.1801 109.321 85.1801 109.223C85.1801 108.999 85.1986 108.697 85.2144 108.31C85.2512 107.52 85.3012 106.387 85.3644 105.037V105.068C84.8931 103.488 84.3402 101.571 83.7661 99.5018C83.0078 96.7581 82.3679 94.2619 81.9361 92.4476C81.7228 91.5418 81.5543 90.8046 81.449 90.2937C81.399 90.0489 81.3595 89.8514 81.3305 89.7066C81.3149 89.638 81.3035 89.5685 81.2963 89.4985C81.3229 89.5631 81.3432 89.6301 81.3568 89.6987L81.5016 90.2832C81.6307 90.8098 81.8097 91.5313 82.0283 92.4239C82.4838 94.2329 83.1395 96.7238 83.8978 99.4649C84.4692 101.535 85.0142 103.451 85.4777 105.034V105.052C85.396 106.403 85.3276 107.528 85.2775 108.328C85.2512 108.71 85.2302 109.015 85.2144 109.239C85.2144 109.334 85.1985 109.413 85.1933 109.476C85.1918 109.499 85.1874 109.522 85.1801 109.545Z" fill="#263238"/>
<path d="M112.991 67.7988C112.991 67.8198 112.707 67.7198 112.251 67.6066C111.657 67.4568 111.049 67.3685 110.437 67.3433C109.825 67.3265 109.212 67.3741 108.61 67.4854C108.146 67.5723 107.865 67.6513 107.859 67.6303C107.918 67.5926 107.982 67.5642 108.049 67.546C108.226 67.4849 108.406 67.4331 108.589 67.3907C109.192 67.2497 109.812 67.1878 110.432 67.2063C111.056 67.2251 111.676 67.3242 112.275 67.5012C112.454 67.5534 112.63 67.6167 112.802 67.6908C112.933 67.7567 112.991 67.7883 112.991 67.7988Z" fill="#263238"/>
<path d="M104.189 62.9385C104.17 62.9864 104.146 63.0322 104.118 63.0754L103.894 63.4519C103.696 63.7784 103.404 64.2419 103.033 64.8185C102.288 65.9587 101.221 67.5148 99.9599 69.1684C98.9462 70.5034 97.964 71.7015 97.1609 72.6389L97.103 72.7047L97.0687 72.6257C96.6843 71.7884 96.3683 71.0933 96.1392 70.5903C96.0366 70.3586 95.9549 70.169 95.8891 70.0242C95.8567 69.9594 95.8312 69.8915 95.8127 69.8215C95.855 69.8809 95.8912 69.9444 95.9207 70.011C95.9918 70.1532 96.0813 70.3376 96.1972 70.564C96.4368 71.0617 96.7686 71.7489 97.1662 72.581L97.0766 72.5678C97.8666 71.6199 98.8382 70.4192 99.852 69.0868C101.111 67.4332 102.185 65.8902 102.951 64.7632L103.849 63.423L104.094 63.0596C104.12 63.0152 104.152 62.9745 104.189 62.9385Z" fill="#263238"/>
<path d="M110.59 105.402C110.55 105.402 110.671 104.031 110.853 102.348C111.035 100.665 111.222 99.3068 111.259 99.312C111.295 99.3173 111.174 100.681 110.995 102.364C110.816 104.046 110.621 105.405 110.59 105.402Z" fill="#263238"/>
<path d="M91.5312 105.042C91.6809 105.801 91.7855 106.567 91.8446 107.338C91.9512 108.103 92.0101 108.875 92.021 109.647C91.8729 108.889 91.7683 108.122 91.7077 107.351C91.6042 106.586 91.5453 105.815 91.5312 105.042Z" fill="#263238"/>
<path d="M105.595 74.9689C105.582 74.9167 105.557 74.8682 105.522 74.8276C105.486 74.7871 105.442 74.7555 105.392 74.7357C105.342 74.7158 105.288 74.7083 105.234 74.7136C105.181 74.7189 105.129 74.7369 105.084 74.7662L105.065 74.782C105.024 74.8188 104.993 74.8658 104.976 74.9182C104.958 74.9706 104.954 75.0268 104.965 75.0811C104.976 75.1354 105 75.1859 105.036 75.2278C105.072 75.2697 105.119 75.3015 105.171 75.32C105.223 75.3385 105.279 75.3431 105.334 75.3334C105.388 75.3237 105.439 75.2999 105.482 75.2645C105.524 75.229 105.557 75.1832 105.576 75.1314C105.595 75.0795 105.601 75.0236 105.592 74.9689H105.595Z" fill="white"/>
<path d="M102.848 68.2756C102.836 68.2233 102.811 68.1749 102.775 68.1343C102.74 68.0937 102.695 68.0622 102.645 68.0423C102.595 68.0225 102.541 68.0149 102.488 68.0202C102.434 68.0255 102.383 68.0436 102.338 68.0728L102.322 68.0886C102.281 68.1255 102.25 68.1724 102.232 68.2248C102.214 68.2773 102.211 68.3334 102.221 68.3877C102.232 68.442 102.256 68.4926 102.293 68.5345C102.329 68.5764 102.375 68.6081 102.427 68.6266C102.479 68.6451 102.535 68.6498 102.59 68.64C102.644 68.6303 102.695 68.6065 102.738 68.5711C102.78 68.5357 102.813 68.4898 102.832 68.438C102.852 68.3862 102.857 68.3302 102.848 68.2756Z" fill="white"/>
<path d="M96.5474 73.6657C96.5346 73.6135 96.5095 73.565 96.4742 73.5244C96.4389 73.4838 96.3943 73.4523 96.3443 73.4325C96.2943 73.4126 96.2403 73.405 96.1867 73.4103C96.1332 73.4156 96.0817 73.4337 96.0366 73.463H96.0208C95.9795 73.4997 95.9485 73.5465 95.9307 73.5988C95.913 73.6511 95.9092 73.7072 95.9197 73.7614C95.9301 73.8157 95.9545 73.8663 95.9904 73.9082C96.0264 73.9502 96.0726 73.9821 96.1246 74.0008C96.1765 74.0195 96.2325 74.0244 96.2869 74.015C96.3414 74.0055 96.3924 73.9821 96.4351 73.947C96.4777 73.9118 96.5105 73.8662 96.5302 73.8146C96.5499 73.763 96.5558 73.7072 96.5474 73.6526V73.6657Z" fill="white"/>
<path d="M89.7354 70.9588C89.723 70.9066 89.6983 70.8582 89.6632 70.8175C89.6281 70.7769 89.5838 70.7453 89.534 70.7255C89.4842 70.7056 89.4303 70.698 89.3769 70.7033C89.3235 70.7086 89.2722 70.7267 89.2272 70.7561L89.2088 70.7719C89.1675 70.8087 89.1365 70.8556 89.1189 70.9081C89.1013 70.9605 89.0976 71.0166 89.1082 71.0709C89.1189 71.1252 89.1435 71.1758 89.1796 71.2177C89.2158 71.2596 89.2622 71.2914 89.3143 71.3099C89.3665 71.3284 89.4225 71.333 89.477 71.3233C89.5314 71.3135 89.5824 71.2898 89.6249 71.2543C89.6674 71.2189 89.6999 71.173 89.7193 71.1212C89.7387 71.0694 89.7443 71.0134 89.7354 70.9588Z" fill="white"/>
<path d="M88.5321 68.2912C88.5193 68.2389 88.4942 68.1905 88.4589 68.1499C88.4236 68.1093 88.3791 68.0778 88.3291 68.058C88.279 68.0381 88.225 68.0305 88.1715 68.0358C88.1179 68.0411 88.0664 68.0592 88.0213 68.0885L88.0029 68.1043C87.9604 68.141 87.9283 68.1883 87.9098 68.2414C87.8913 68.2944 87.8871 68.3514 87.8975 68.4066C87.9079 68.4618 87.9326 68.5133 87.9691 68.556C88.0056 68.5987 88.0527 68.631 88.1057 68.6498C88.1586 68.6686 88.2156 68.6732 88.2708 68.6631C88.3261 68.653 88.3778 68.6286 88.4207 68.5923C88.4635 68.556 88.4962 68.5091 88.5153 68.4563C88.5344 68.4035 88.5393 68.3465 88.5295 68.2912H88.5321Z" fill="white"/>
<path d="M89.0561 65.2106C89.0433 65.1584 89.0182 65.1099 88.9829 65.0693C88.9476 65.0288 88.9031 64.9972 88.8531 64.9774C88.803 64.9575 88.749 64.9499 88.6955 64.9553C88.6419 64.9606 88.5904 64.9786 88.5453 65.0079L88.5269 65.0211C88.4856 65.0578 88.4546 65.1046 88.4368 65.1569C88.4191 65.2092 88.4153 65.2653 88.4258 65.3195C88.4362 65.3738 88.4606 65.4244 88.4965 65.4663C88.5325 65.5083 88.5787 65.5402 88.6307 65.5589C88.6827 65.5776 88.7386 65.5825 88.793 65.5731C88.8475 65.5636 88.8985 65.5402 88.9412 65.5051C88.9838 65.4699 89.0166 65.4243 89.0363 65.3727C89.056 65.3211 89.0619 65.2652 89.0535 65.2106H89.0561Z" fill="white"/>
<path d="M85.2829 69.4499C85.2701 69.3976 85.245 69.3492 85.2097 69.3086C85.1743 69.268 85.1298 69.2365 85.0798 69.2166C85.0298 69.1968 84.9758 69.1892 84.9222 69.1945C84.8687 69.1998 84.8172 69.2179 84.772 69.2471L84.7536 69.2603C84.7123 69.297 84.6813 69.3438 84.6636 69.3962C84.6458 69.4485 84.642 69.5045 84.6525 69.5588C84.663 69.613 84.6874 69.6636 84.7233 69.7056C84.7592 69.7476 84.8054 69.7795 84.8574 69.7982C84.9094 69.8169 84.9653 69.8218 85.0198 69.8123C85.0742 69.8029 85.1253 69.7794 85.1679 69.7443C85.2105 69.7092 85.2433 69.6636 85.263 69.612C85.2827 69.5604 85.2886 69.5045 85.2802 69.4499H85.2829Z" fill="white"/>
<path d="M94.0327 70.6717C94.0203 70.6195 93.9956 70.5711 93.9605 70.5304C93.9254 70.4898 93.8811 70.4582 93.8313 70.4384C93.7815 70.4185 93.7276 70.4109 93.6742 70.4162C93.6208 70.4215 93.5695 70.4396 93.5245 70.469L93.5061 70.4848C93.4648 70.5216 93.4338 70.5685 93.4162 70.621C93.3986 70.6734 93.3949 70.7295 93.4056 70.7838C93.4162 70.8381 93.4408 70.8887 93.4769 70.9306C93.5131 70.9725 93.5595 71.0042 93.6116 71.0228C93.6638 71.0413 93.7198 71.0459 93.7743 71.0361C93.8287 71.0264 93.8797 71.0027 93.9222 70.9672C93.9647 70.9318 93.9972 70.8859 94.0166 70.8341C94.036 70.7823 94.0416 70.7263 94.0327 70.6717Z" fill="white"/>
<path d="M86.6231 76.1672C86.6103 76.1149 86.5852 76.0665 86.5499 76.0259C86.5145 75.9853 86.47 75.9538 86.42 75.9339C86.37 75.9141 86.316 75.9065 86.2624 75.9118C86.2089 75.9171 86.1574 75.9352 86.1123 75.9644H86.0938C86.0525 76.0011 86.0215 76.048 86.0038 76.1003C85.9861 76.1526 85.9822 76.2087 85.9927 76.2629C86.0032 76.3171 86.0276 76.3677 86.0635 76.4097C86.0994 76.4517 86.1457 76.4836 86.1976 76.5023C86.2496 76.521 86.3056 76.5259 86.36 76.5164C86.4144 76.507 86.4655 76.4836 86.5081 76.4484C86.5508 76.4133 86.5835 76.3677 86.6032 76.3161C86.6229 76.2645 86.6289 76.2086 86.6204 76.154L86.6231 76.1672Z" fill="white"/>
<path d="M79.8507 91.9709C79.838 91.9186 79.8129 91.8702 79.7775 91.8296C79.7422 91.789 79.6977 91.7575 79.6477 91.7376C79.5977 91.7178 79.5436 91.7102 79.4901 91.7155C79.4365 91.7208 79.385 91.7389 79.3399 91.7681L79.3241 91.7813C79.2828 91.818 79.2518 91.8648 79.2341 91.9172C79.2163 91.9695 79.2125 92.0255 79.223 92.0798C79.2335 92.134 79.2579 92.1846 79.2938 92.2266C79.3297 92.2685 79.3759 92.3005 79.4279 92.3192C79.4799 92.3379 79.5358 92.3428 79.5903 92.3333C79.6447 92.3239 79.6958 92.3004 79.7384 92.2653C79.781 92.2302 79.8138 92.1846 79.8335 92.133C79.8532 92.0813 79.8591 92.0255 79.8507 91.9709Z" fill="white"/>
<path d="M82.2679 82.8552C82.2551 82.8029 82.23 82.7545 82.1947 82.7139C82.1594 82.6733 82.1149 82.6418 82.0648 82.6219C82.0148 82.6021 81.9608 82.5945 81.9073 82.5998C81.8537 82.6051 81.8022 82.6231 81.7571 82.6524L81.7387 82.6682C81.6974 82.705 81.6664 82.752 81.6488 82.8044C81.6311 82.8569 81.6275 82.913 81.6381 82.9673C81.6487 83.0216 81.6733 83.0722 81.7095 83.1141C81.7456 83.1559 81.792 83.1877 81.8442 83.2062C81.8963 83.2247 81.9524 83.2293 82.0068 83.2196C82.0613 83.2099 82.1123 83.1861 82.1548 83.1507C82.1973 83.1153 82.2298 83.0694 82.2492 83.0176C82.2685 82.9658 82.2741 82.9098 82.2653 82.8552H82.2679Z" fill="white"/>
<path d="M100.089 66.8508C100.076 66.7985 100.051 66.7501 100.016 66.7095C99.9804 66.6689 99.9358 66.6374 99.8858 66.6175C99.8358 66.5977 99.7818 66.5901 99.7282 66.5954C99.6747 66.6007 99.6232 66.6187 99.5781 66.648L99.5596 66.6612C99.5184 66.6979 99.4873 66.7447 99.4696 66.797C99.4519 66.8494 99.4481 66.9054 99.4585 66.9596C99.469 67.0139 99.4934 67.0645 99.5293 67.1065C99.5653 67.1484 99.6115 67.1803 99.6634 67.199C99.7154 67.2178 99.7714 67.2226 99.8258 67.2132C99.8803 67.2037 99.9313 67.1803 99.9739 67.1452C100.017 67.1101 100.049 67.0645 100.069 67.0128C100.089 66.9612 100.095 66.9054 100.086 66.8508H100.089Z" fill="white"/>
<path d="M108.578 84.9987C108.565 84.9465 108.54 84.898 108.505 84.8574C108.47 84.8169 108.425 84.7853 108.375 84.7655C108.325 84.7456 108.271 84.738 108.217 84.7433C108.164 84.7487 108.112 84.7667 108.067 84.796L108.049 84.8118C108.006 84.8486 107.974 84.8958 107.956 84.9489C107.937 85.0019 107.933 85.0589 107.943 85.1141C107.954 85.1693 107.979 85.2208 108.015 85.2635C108.052 85.3062 108.099 85.3386 108.152 85.3574C108.205 85.3762 108.262 85.3807 108.317 85.3706C108.372 85.3606 108.424 85.3361 108.467 85.2999C108.51 85.2636 108.542 85.2167 108.561 85.1638C108.58 85.111 108.585 85.0541 108.575 84.9987H108.578Z" fill="white"/>
<path d="M111.888 69.3817C111.876 69.3295 111.851 69.281 111.816 69.2404C111.781 69.1998 111.736 69.1682 111.687 69.1483C111.637 69.1284 111.583 69.1208 111.529 69.1262C111.476 69.1315 111.425 69.1496 111.38 69.1789L111.361 69.1921C111.32 69.2288 111.289 69.2756 111.271 69.3279C111.254 69.3803 111.25 69.4363 111.26 69.4905C111.271 69.5448 111.295 69.5954 111.331 69.6373C111.367 69.6793 111.413 69.7112 111.465 69.7299C111.517 69.7486 111.573 69.7535 111.628 69.7441C111.682 69.7346 111.733 69.7112 111.776 69.6761C111.818 69.641 111.851 69.5954 111.871 69.5437C111.89 69.4921 111.896 69.4363 111.888 69.3817Z" fill="white"/>
<path d="M110.59 79.6086C110.577 79.5563 110.552 79.5079 110.517 79.4673C110.481 79.4267 110.437 79.3952 110.387 79.3753C110.337 79.3555 110.283 79.3479 110.229 79.3532C110.176 79.3585 110.124 79.3766 110.079 79.4058L110.061 79.4216C110.018 79.4584 109.986 79.5057 109.967 79.5588C109.949 79.6118 109.945 79.6688 109.955 79.724C109.966 79.7792 109.99 79.8307 110.027 79.8734C110.063 79.9161 110.11 79.9484 110.163 79.9672C110.216 79.986 110.273 79.9906 110.329 79.9805C110.384 79.9704 110.435 79.946 110.478 79.9097C110.521 79.8734 110.554 79.8265 110.573 79.7737C110.592 79.7208 110.597 79.6639 110.587 79.6086H110.59Z" fill="white"/>
<path d="M103.162 86.9943C103.149 86.9421 103.124 86.8936 103.089 86.853C103.053 86.8125 103.009 86.7809 102.959 86.7611C102.909 86.7412 102.855 86.7336 102.801 86.7389C102.748 86.7443 102.696 86.7623 102.651 86.7916L102.632 86.8074C102.591 86.8442 102.56 86.8912 102.543 86.9436C102.525 86.996 102.521 87.0522 102.532 87.1065C102.543 87.1607 102.567 87.2113 102.603 87.2532C102.639 87.2951 102.686 87.3269 102.738 87.3454C102.79 87.3639 102.846 87.3685 102.901 87.3588C102.955 87.349 103.006 87.3253 103.049 87.2899C103.091 87.2544 103.124 87.2086 103.143 87.1567C103.162 87.1049 103.168 87.0489 103.159 86.9943H103.162Z" fill="white"/>
<path d="M103.475 80.8435C103.462 80.7912 103.437 80.7427 103.402 80.7022C103.367 80.6616 103.322 80.63 103.272 80.6102C103.222 80.5904 103.168 80.5828 103.114 80.5881C103.061 80.5934 103.009 80.6114 102.964 80.6407L102.946 80.6565C102.903 80.6933 102.871 80.7406 102.853 80.7936C102.834 80.8467 102.83 80.9036 102.84 80.9589C102.851 81.0141 102.876 81.0656 102.912 81.1083C102.949 81.1509 102.996 81.1833 103.049 81.2021C103.102 81.2209 103.159 81.2255 103.214 81.2154C103.269 81.2053 103.321 81.1809 103.364 81.1446C103.406 81.1083 103.439 81.0614 103.458 81.0085C103.477 80.9557 103.482 80.8988 103.472 80.8435H103.475Z" fill="white"/>
<path d="M107.954 69.4339C107.942 69.3817 107.917 69.3333 107.882 69.2926C107.847 69.252 107.802 69.2204 107.753 69.2006C107.703 69.1807 107.649 69.1731 107.596 69.1784C107.542 69.1837 107.491 69.2018 107.446 69.2312L107.427 69.247C107.386 69.2838 107.355 69.3307 107.338 69.3832C107.32 69.4356 107.316 69.4917 107.327 69.546C107.338 69.6003 107.362 69.6509 107.398 69.6928C107.434 69.7347 107.481 69.7665 107.533 69.785C107.585 69.8035 107.641 69.8081 107.696 69.7984C107.75 69.7886 107.801 69.7649 107.844 69.7294C107.886 69.694 107.919 69.6481 107.938 69.5963C107.957 69.5445 107.963 69.4885 107.954 69.4339Z" fill="white"/>
<path d="M101.932 63.4779C101.92 63.4257 101.895 63.3772 101.86 63.3366C101.825 63.296 101.78 63.2644 101.731 63.2445C101.681 63.2246 101.627 63.217 101.574 63.2224C101.52 63.2277 101.469 63.2458 101.424 63.2751L101.405 63.2883C101.364 63.325 101.333 63.3718 101.315 63.4241C101.298 63.4765 101.294 63.5325 101.304 63.5867C101.315 63.641 101.339 63.6916 101.375 63.7335C101.411 63.7755 101.457 63.8074 101.509 63.8261C101.561 63.8448 101.617 63.8497 101.672 63.8403C101.726 63.8308 101.777 63.8074 101.82 63.7723C101.862 63.7372 101.895 63.6915 101.915 63.6399C101.935 63.5883 101.94 63.5325 101.932 63.4779Z" fill="white"/>
<path d="M101.703 73.0809C101.691 73.0283 101.666 72.9795 101.631 72.9385C101.596 72.8976 101.551 72.8658 101.501 72.8459C101.45 72.8259 101.396 72.8185 101.342 72.8241C101.289 72.8297 101.237 72.8483 101.192 72.8782L101.176 72.8913C101.135 72.928 101.104 72.9749 101.086 73.0272C101.069 73.0795 101.065 73.1356 101.075 73.1898C101.086 73.244 101.11 73.2946 101.146 73.3366C101.182 73.3786 101.228 73.4105 101.28 73.4292C101.332 73.4479 101.388 73.4528 101.443 73.4433C101.497 73.4339 101.548 73.4105 101.591 73.3753C101.633 73.3402 101.666 73.2946 101.686 73.243C101.705 73.1914 101.711 73.1355 101.703 73.0809Z" fill="white"/>
<path d="M94.0037 102.374C93.9907 102.324 93.9661 102.277 93.9318 102.238C93.8974 102.198 93.8543 102.167 93.8059 102.148C93.7576 102.128 93.7052 102.12 93.6531 102.124C93.6011 102.128 93.5507 102.145 93.506 102.172L93.4876 102.185C93.4463 102.222 93.4153 102.268 93.3976 102.321C93.3799 102.373 93.376 102.429 93.3865 102.483C93.397 102.538 93.4214 102.588 93.4573 102.63C93.4932 102.672 93.5394 102.704 93.5914 102.723C93.6434 102.741 93.6994 102.746 93.7538 102.737C93.8082 102.727 93.8593 102.704 93.9019 102.669C93.9446 102.634 93.9773 102.588 93.997 102.537C94.0167 102.485 94.0226 102.429 94.0142 102.374H94.0037Z" fill="white"/>
<path d="M85.1696 97.5559C85.1568 97.5036 85.1317 97.4551 85.0964 97.4146C85.0611 97.374 85.0165 97.3425 84.9665 97.3226C84.9165 97.3028 84.8625 97.2952 84.8089 97.3005C84.7554 97.3058 84.7039 97.3238 84.6588 97.3531L84.6403 97.3689C84.599 97.4057 84.5681 97.4527 84.5504 97.5051C84.5328 97.5576 84.5291 97.6137 84.5398 97.668C84.5504 97.7223 84.575 97.7728 84.6111 97.8147C84.6473 97.8566 84.6937 97.8884 84.7458 97.9069C84.798 97.9254 84.854 97.93 84.9085 97.9203C84.963 97.9106 85.0139 97.8868 85.0564 97.8514C85.0989 97.816 85.1315 97.7701 85.1508 97.7183C85.1702 97.6665 85.1758 97.6105 85.167 97.5559H85.1696Z" fill="white"/>
<path d="M78.026 99.9177C78.0132 99.8654 77.9881 99.817 77.9528 99.7764C77.9174 99.7358 77.8729 99.7043 77.8229 99.6844C77.7729 99.6646 77.7189 99.657 77.6653 99.6623C77.6118 99.6676 77.5603 99.6856 77.5151 99.7149L77.4993 99.7281C77.4581 99.7648 77.427 99.8116 77.4093 99.8639C77.3916 99.9163 77.3878 99.9723 77.3982 100.027C77.4087 100.081 77.4331 100.131 77.469 100.173C77.5049 100.215 77.5512 100.247 77.6031 100.266C77.6551 100.285 77.7111 100.29 77.7655 100.28C77.8199 100.271 77.871 100.247 77.9136 100.212C77.9563 100.177 77.9891 100.131 78.0087 100.08C78.0284 100.028 78.0344 99.9723 78.026 99.9177Z" fill="white"/>
<path d="M77.2624 103.986C77.2496 103.934 77.2245 103.885 77.1892 103.845C77.1538 103.804 77.1093 103.773 77.0593 103.753C77.0093 103.733 76.9553 103.725 76.9017 103.731C76.8482 103.736 76.7967 103.754 76.7515 103.783L76.7331 103.796C76.6918 103.833 76.6608 103.88 76.6431 103.932C76.6253 103.985 76.6215 104.041 76.632 104.095C76.6425 104.149 76.6669 104.2 76.7028 104.242C76.7387 104.284 76.7849 104.316 76.8369 104.334C76.8889 104.353 76.9448 104.358 76.9993 104.348C77.0537 104.339 77.1048 104.316 77.1474 104.28C77.19 104.245 77.2228 104.2 77.2425 104.148C77.2622 104.096 77.2681 104.041 77.2597 103.986H77.2624Z" fill="white"/>
<path d="M83.9584 105.347C83.9456 105.295 83.9205 105.247 83.8852 105.206C83.8499 105.165 83.8053 105.134 83.7553 105.114C83.7053 105.094 83.6513 105.087 83.5977 105.092C83.5442 105.097 83.4927 105.115 83.4476 105.145L83.4318 105.16C83.3905 105.197 83.3595 105.244 83.3419 105.297C83.3242 105.349 83.3206 105.405 83.3312 105.459C83.3419 105.514 83.3665 105.564 83.4026 105.606C83.4387 105.648 83.4851 105.68 83.5373 105.698C83.5894 105.717 83.6455 105.722 83.6999 105.712C83.7544 105.702 83.8054 105.678 83.8479 105.643C83.8904 105.607 83.9229 105.562 83.9423 105.51C83.9617 105.458 83.9672 105.402 83.9584 105.347Z" fill="white"/>
<path d="M81.7202 96.2365C81.7075 96.1843 81.6824 96.1358 81.647 96.0952C81.6117 96.0546 81.5672 96.0231 81.5172 96.0033C81.4672 95.9834 81.4131 95.9758 81.3596 95.9811C81.306 95.9864 81.2545 96.0045 81.2094 96.0338L81.191 96.0496C81.1485 96.0863 81.1164 96.1336 81.0979 96.1867C81.0794 96.2397 81.0752 96.2967 81.0856 96.3519C81.096 96.4071 81.1207 96.4586 81.1572 96.5013C81.1938 96.544 81.2408 96.5764 81.2938 96.5951C81.3467 96.6139 81.4037 96.6185 81.459 96.6084C81.5142 96.5983 81.5659 96.5739 81.6088 96.5376C81.6517 96.5014 81.6843 96.4544 81.7034 96.4016C81.7225 96.3488 81.7274 96.2918 81.7176 96.2365H81.7202Z" fill="white"/>
<path d="M89.9356 98.5541C89.9234 98.5015 89.8986 98.4526 89.8634 98.4117C89.8281 98.3707 89.7835 98.3389 89.7333 98.319C89.6831 98.2991 89.6288 98.2916 89.5751 98.2972C89.5213 98.3029 89.4698 98.3214 89.4248 98.3513L89.409 98.3645C89.3677 98.4012 89.3367 98.448 89.319 98.5003C89.3012 98.5527 89.2974 98.6087 89.3079 98.6629C89.3184 98.7172 89.3428 98.7678 89.3787 98.8098C89.4146 98.8517 89.4608 98.8836 89.5128 98.9023C89.5648 98.9211 89.6207 98.9259 89.6752 98.9165C89.7296 98.907 89.7807 98.8836 89.8233 98.8485C89.8659 98.8134 89.8987 98.7678 89.9184 98.7161C89.9381 98.6645 89.944 98.6087 89.9356 98.5541Z" fill="white"/>
<path d="M109.465 96.2237C109.454 96.1711 109.429 96.1222 109.394 96.0812C109.359 96.0403 109.315 96.0084 109.265 95.9885C109.215 95.9685 109.161 95.961 109.107 95.9667C109.053 95.9723 109.002 95.9909 108.957 96.0209L108.939 96.0341C108.898 96.0708 108.866 96.1176 108.849 96.1699C108.831 96.2222 108.827 96.2783 108.838 96.3325C108.848 96.3868 108.873 96.4374 108.908 96.4793C108.944 96.5213 108.991 96.5532 109.043 96.5719C109.095 96.5906 109.151 96.5955 109.205 96.5861C109.259 96.5766 109.31 96.5532 109.353 96.5181C109.396 96.4829 109.429 96.4373 109.448 96.3857C109.468 96.3341 109.474 96.2783 109.465 96.2237Z" fill="white"/>
<path d="M97.382 107.801C97.3693 107.749 97.3442 107.701 97.3089 107.66C97.2735 107.62 97.229 107.588 97.179 107.568C97.129 107.548 97.0749 107.541 97.0214 107.546C96.9679 107.551 96.9164 107.569 96.8712 107.599L96.8528 107.615C96.8115 107.651 96.7805 107.698 96.7629 107.751C96.7453 107.803 96.7416 107.859 96.7522 107.914C96.7629 107.968 96.7875 108.018 96.8236 108.06C96.8597 108.102 96.9062 108.134 96.9583 108.153C97.0104 108.171 97.0665 108.176 97.1209 108.166C97.1754 108.156 97.2264 108.132 97.2689 108.097C97.3114 108.062 97.3439 108.016 97.3633 107.964C97.3827 107.912 97.3882 107.856 97.3794 107.801H97.382Z" fill="white"/>
<path d="M102.535 101.355C102.523 101.303 102.498 101.255 102.463 101.214C102.428 101.173 102.383 101.142 102.334 101.122C102.284 101.102 102.23 101.094 102.176 101.1C102.123 101.105 102.072 101.123 102.027 101.153L102.008 101.168C101.967 101.205 101.936 101.252 101.919 101.305C101.901 101.357 101.897 101.413 101.908 101.467C101.919 101.522 101.943 101.572 101.979 101.614C102.015 101.656 102.062 101.688 102.114 101.706C102.166 101.725 102.222 101.729 102.277 101.72C102.331 101.71 102.382 101.686 102.425 101.651C102.467 101.615 102.5 101.57 102.519 101.518C102.538 101.466 102.544 101.41 102.535 101.355Z" fill="white"/>
<path d="M105.597 106.598C105.586 106.546 105.562 106.497 105.527 106.456C105.493 106.415 105.449 106.382 105.4 106.361C105.35 106.341 105.296 106.332 105.243 106.336C105.189 106.34 105.138 106.357 105.092 106.385L105.076 106.401C105.035 106.438 105.004 106.485 104.986 106.537C104.969 106.589 104.965 106.646 104.975 106.7C104.986 106.754 105.011 106.805 105.047 106.847C105.083 106.889 105.129 106.92 105.182 106.939C105.234 106.957 105.29 106.962 105.344 106.952C105.399 106.942 105.45 106.919 105.492 106.883C105.535 106.848 105.567 106.802 105.587 106.75C105.606 106.698 105.612 106.642 105.603 106.588L105.597 106.598Z" fill="white"/>
<path d="M97.0793 79.1452C97.0665 79.0929 97.0414 79.0445 97.0061 79.0039C96.9707 78.9633 96.9262 78.9318 96.8762 78.912C96.8262 78.8921 96.7721 78.8845 96.7186 78.8898C96.6651 78.8951 96.6136 78.9132 96.5684 78.9425L96.55 78.9583C96.5087 78.9951 96.4777 79.042 96.4601 79.0945C96.4425 79.1469 96.4388 79.203 96.4494 79.2573C96.4601 79.3116 96.4847 79.3622 96.5208 79.4041C96.557 79.446 96.6034 79.4778 96.6555 79.4963C96.7076 79.5148 96.7637 79.5194 96.8182 79.5096C96.8726 79.4999 96.9236 79.4762 96.9661 79.4407C97.0086 79.4053 97.0411 79.3594 97.0605 79.3076C97.0799 79.2558 97.0854 79.1998 97.0766 79.1452H97.0793Z" fill="white"/>
<path d="M104.012 92.529C103.999 92.4767 103.974 92.4283 103.939 92.3877C103.904 92.3471 103.859 92.3156 103.809 92.2957C103.759 92.2759 103.705 92.2683 103.652 92.2736C103.598 92.2789 103.547 92.297 103.501 92.3262L103.483 92.3394C103.442 92.3761 103.411 92.4229 103.393 92.4753C103.375 92.5276 103.371 92.5836 103.382 92.6379C103.392 92.6921 103.417 92.7427 103.453 92.7847C103.489 92.8267 103.535 92.8586 103.587 92.8773C103.639 92.896 103.695 92.9009 103.749 92.8914C103.804 92.882 103.855 92.8585 103.897 92.8234C103.94 92.7883 103.973 92.7427 103.992 92.6911C104.012 92.6395 104.018 92.5836 104.01 92.529H104.012Z" fill="white"/>
<path d="M101.764 97.5979C101.751 97.5456 101.726 97.4971 101.69 97.4566C101.655 97.416 101.611 97.3844 101.561 97.3646C101.511 97.3447 101.456 97.3372 101.403 97.3425C101.349 97.3478 101.298 97.3658 101.253 97.3951L101.234 97.4083C101.193 97.445 101.162 97.4918 101.144 97.5441C101.127 97.5964 101.123 97.6525 101.133 97.7067C101.144 97.761 101.168 97.8116 101.204 97.8535C101.24 97.8955 101.286 97.9274 101.338 97.9461C101.39 97.9648 101.446 97.9697 101.5 97.9603C101.555 97.9508 101.606 97.9274 101.649 97.8923C101.691 97.8571 101.724 97.8115 101.744 97.7599C101.763 97.7083 101.769 97.6525 101.761 97.5979H101.764Z" fill="white"/>
<path d="M109.155 101.669C109.142 101.616 109.117 101.568 109.081 101.527C109.046 101.487 109.002 101.455 108.952 101.435C108.902 101.416 108.848 101.408 108.794 101.413C108.741 101.419 108.689 101.437 108.644 101.466L108.625 101.482C108.584 101.519 108.553 101.565 108.536 101.618C108.518 101.67 108.514 101.726 108.525 101.781C108.536 101.835 108.56 101.886 108.596 101.928C108.632 101.969 108.679 102.001 108.731 102.02C108.783 102.038 108.839 102.043 108.894 102.033C108.948 102.023 108.999 102 109.042 101.964C109.084 101.929 109.117 101.883 109.136 101.831C109.155 101.779 109.161 101.723 109.152 101.669H109.155Z" fill="white"/>
<path d="M88.9297 107.549C88.9175 107.496 88.8927 107.447 88.8574 107.406C88.8222 107.365 88.7776 107.334 88.7274 107.314C88.6772 107.294 88.6229 107.286 88.5692 107.292C88.5154 107.297 88.4639 107.316 88.4189 107.346L88.4005 107.359C88.3592 107.396 88.3282 107.443 88.3104 107.495C88.2927 107.547 88.2889 107.603 88.2994 107.658C88.3098 107.712 88.3342 107.762 88.3701 107.804C88.4061 107.846 88.4523 107.878 88.5043 107.897C88.5562 107.916 88.6122 107.921 88.6666 107.911C88.7211 107.902 88.7721 107.878 88.8148 107.843C88.8574 107.808 88.8902 107.762 88.9099 107.711C88.9296 107.659 88.9355 107.603 88.9271 107.549H88.9297Z" fill="white"/>
<path d="M72.0777 106.008C72.0649 105.956 72.0398 105.907 72.0045 105.867C71.9692 105.826 71.9247 105.795 71.8746 105.775C71.8246 105.755 71.7706 105.747 71.7171 105.753C71.6635 105.758 71.612 105.776 71.5669 105.805L71.5485 105.821C71.506 105.858 71.4739 105.905 71.4554 105.958C71.4369 106.011 71.4327 106.068 71.4431 106.123C71.4535 106.179 71.4782 106.23 71.5147 106.273C71.5512 106.315 71.5983 106.348 71.6513 106.367C71.7042 106.385 71.7612 106.39 71.8164 106.38C71.8717 106.37 71.9234 106.345 71.9662 106.309C72.0091 106.273 72.0418 106.226 72.0609 106.173C72.0799 106.12 72.0849 106.063 72.0751 106.008H72.0777Z" fill="white"/>
<path d="M86.9232 103.241C86.9105 103.189 86.8854 103.14 86.85 103.1C86.8147 103.059 86.7702 103.028 86.7202 103.008C86.6702 102.988 86.6161 102.98 86.5626 102.986C86.509 102.991 86.4575 103.009 86.4124 103.038L86.394 103.054C86.3515 103.091 86.3194 103.138 86.3009 103.191C86.2824 103.244 86.2782 103.301 86.2886 103.356C86.299 103.412 86.3237 103.463 86.3602 103.506C86.3968 103.548 86.4438 103.581 86.4968 103.6C86.5497 103.618 86.6067 103.623 86.662 103.613C86.7172 103.603 86.7689 103.578 86.8118 103.542C86.8547 103.506 86.8873 103.459 86.9064 103.406C86.9255 103.353 86.9304 103.296 86.9206 103.241H86.9232Z" fill="white"/>
<path d="M72.7044 100.231C72.6922 100.179 72.6674 100.13 72.6322 100.089C72.5969 100.048 72.5523 100.016 72.5021 99.9962C72.4519 99.9763 72.3976 99.9688 72.3439 99.9745C72.2901 99.9801 72.2386 99.9987 72.1936 100.029L72.1778 100.042C72.1365 100.078 72.1055 100.125 72.0878 100.178C72.07 100.23 72.0662 100.286 72.0767 100.34C72.0872 100.394 72.1116 100.445 72.1475 100.487C72.1834 100.529 72.2296 100.561 72.2816 100.58C72.3336 100.598 72.3895 100.603 72.444 100.594C72.4984 100.584 72.5495 100.561 72.5921 100.526C72.6347 100.491 72.6675 100.445 72.6872 100.393C72.7069 100.342 72.7128 100.286 72.7044 100.231Z" fill="white"/>
<path d="M96.4552 90.673C96.4424 90.6208 96.4173 90.5723 96.382 90.5317C96.3466 90.4912 96.3021 90.4596 96.2521 90.4398C96.2021 90.4199 96.1481 90.4124 96.0945 90.4177C96.041 90.423 95.9895 90.441 95.9443 90.4703L95.9259 90.4835C95.8846 90.5202 95.8536 90.567 95.8359 90.6193C95.8182 90.6716 95.8143 90.7277 95.8248 90.7819C95.8353 90.8362 95.8597 90.8867 95.8956 90.9287C95.9315 90.9707 95.9777 91.0026 96.0297 91.0213C96.0817 91.04 96.1376 91.0449 96.1921 91.0355C96.2465 91.026 96.2976 91.0026 96.3402 90.9675C96.3828 90.9323 96.4156 90.8867 96.4353 90.8351C96.455 90.7835 96.4609 90.7276 96.4525 90.673H96.4552Z" fill="white"/>
<path d="M91.4839 76.1672C91.4711 76.1149 91.446 76.0665 91.4107 76.0259C91.3753 75.9853 91.3308 75.9538 91.2808 75.9339C91.2308 75.9141 91.1767 75.9065 91.1232 75.9118C91.0697 75.9171 91.0182 75.9352 90.973 75.9644H90.9546C90.9133 76.0011 90.8823 76.048 90.8646 76.1003C90.8468 76.1526 90.843 76.2087 90.8535 76.2629C90.864 76.3171 90.8884 76.3677 90.9243 76.4097C90.9602 76.4517 91.0064 76.4836 91.0584 76.5023C91.1104 76.521 91.1663 76.5259 91.2208 76.5164C91.2752 76.507 91.3262 76.4836 91.3689 76.4484C91.4115 76.4133 91.4443 76.3677 91.464 76.3161C91.4837 76.2645 91.4896 76.2086 91.4812 76.154L91.4839 76.1672Z" fill="white"/>
<path d="M90.241 88.7429C90.2283 88.6906 90.2032 88.6422 90.1678 88.6016C90.1325 88.561 90.088 88.5295 90.038 88.5096C89.988 88.4898 89.9339 88.4822 89.8804 88.4875C89.8269 88.4928 89.7754 88.5108 89.7302 88.5401L89.7144 88.5559C89.6731 88.5928 89.6422 88.6397 89.6245 88.6921C89.6069 88.7446 89.6032 88.8007 89.6139 88.855C89.6245 88.9093 89.6491 88.9599 89.6852 89.0018C89.7214 89.0437 89.7678 89.0754 89.8199 89.0939C89.8721 89.1124 89.9281 89.117 89.9826 89.1073C90.037 89.0976 90.088 89.0738 90.1305 89.0384C90.173 89.003 90.2056 88.9571 90.2249 88.9053C90.2443 88.8535 90.2499 88.7975 90.241 88.7429Z" fill="white"/>
<path d="M88.2188 84.6433C88.206 84.591 88.1809 84.5426 88.1456 84.502C88.1102 84.4614 88.0657 84.4299 88.0157 84.41C87.9657 84.3902 87.9117 84.3826 87.8581 84.3879C87.8046 84.3932 87.7531 84.4112 87.7079 84.4405H87.6922C87.6509 84.4772 87.6198 84.524 87.6021 84.5764C87.5844 84.6287 87.5806 84.6847 87.591 84.739C87.6015 84.7932 87.6259 84.8438 87.6618 84.8858C87.6978 84.9277 87.744 84.9597 87.796 84.9784C87.8479 84.9971 87.9039 85.002 87.9583 84.9925C88.0128 84.9831 88.0638 84.9596 88.1064 84.9245C88.1491 84.8894 88.1819 84.8438 88.2016 84.7922C88.2212 84.7406 88.2272 84.6847 88.2188 84.6301V84.6433Z" fill="white"/>
<path d="M97.1635 97.5402C97.1507 97.488 97.1256 97.4395 97.0903 97.3989C97.0549 97.3584 97.0104 97.3268 96.9604 97.307C96.9104 97.2871 96.8564 97.2795 96.8028 97.2848C96.7493 97.2902 96.6978 97.3082 96.6526 97.3375L96.6342 97.3533C96.5917 97.3901 96.5597 97.4373 96.5412 97.4904C96.5227 97.5434 96.5184 97.6004 96.5288 97.6556C96.5392 97.7108 96.5639 97.7624 96.6005 97.805C96.637 97.8477 96.6841 97.8801 96.737 97.8989C96.79 97.9177 96.8469 97.9222 96.9022 97.9122C96.9575 97.9021 97.0091 97.8776 97.052 97.8414C97.0949 97.8051 97.1275 97.7582 97.1466 97.7053C97.1657 97.6525 97.1706 97.5956 97.1608 97.5402H97.1635Z" fill="white"/>
<path d="M90.8572 95.0097C90.846 94.9564 90.8219 94.9066 90.7871 94.8648C90.7523 94.8229 90.7078 94.7902 90.6574 94.7694C90.6071 94.7486 90.5525 94.7405 90.4982 94.7456C90.444 94.7508 90.3919 94.7691 90.3464 94.799L90.3279 94.8148C90.2867 94.8517 90.2557 94.8986 90.2381 94.951C90.2204 95.0035 90.2167 95.0596 90.2274 95.1139C90.238 95.1682 90.2626 95.2188 90.2988 95.2607C90.3349 95.3026 90.3813 95.3343 90.4335 95.3528C90.4856 95.3713 90.5416 95.376 90.5961 95.3662C90.6506 95.3565 90.7016 95.3327 90.744 95.2973C90.7865 95.2619 90.8191 95.216 90.8385 95.1642C90.8578 95.1124 90.8634 95.0564 90.8546 95.0018L90.8572 95.0097Z" fill="white"/>
<path d="M93.5561 81.1199C93.5437 81.0677 93.5189 81.0193 93.4839 80.9787C93.4488 80.9381 93.4045 80.9065 93.3547 80.8866C93.3048 80.8667 93.2509 80.8591 93.1976 80.8644C93.1442 80.8698 93.0928 80.8879 93.0479 80.9172L93.0295 80.9304C92.9882 80.9671 92.9572 81.0139 92.9395 81.0662C92.9217 81.1185 92.9179 81.1746 92.9284 81.2288C92.9389 81.2831 92.9632 81.3337 92.9992 81.3756C93.0351 81.4176 93.0813 81.4495 93.1333 81.4682C93.1853 81.4869 93.2412 81.4918 93.2957 81.4824C93.3501 81.4729 93.4011 81.4495 93.4438 81.4144C93.4864 81.3792 93.5192 81.3336 93.5389 81.282C93.5586 81.2304 93.5645 81.1745 93.5561 81.1199Z" fill="white"/>
<path d="M83.9584 90.9548C83.9456 90.9025 83.9205 90.8541 83.8852 90.8135C83.8499 90.7729 83.8053 90.7414 83.7553 90.7215C83.7053 90.7017 83.6513 90.6941 83.5977 90.6994C83.5442 90.7047 83.4927 90.7228 83.4476 90.752L83.4318 90.7678C83.3905 90.8047 83.3595 90.8516 83.3419 90.904C83.3242 90.9565 83.3206 91.0126 83.3312 91.0669C83.3419 91.1212 83.3665 91.1718 83.4026 91.2137C83.4387 91.2556 83.4851 91.2873 83.5373 91.3058C83.5894 91.3243 83.6455 91.329 83.6999 91.3192C83.7544 91.3095 83.8054 91.2857 83.8479 91.2503C83.8904 91.2149 83.9229 91.169 83.9423 91.1172C83.9617 91.0654 83.9672 91.0094 83.9584 90.9548Z" fill="white"/>
<path d="M98.7723 86.4416C98.7595 86.3893 98.7344 86.3409 98.6991 86.3003C98.6638 86.2597 98.6192 86.2282 98.5692 86.2083C98.5192 86.1885 98.4652 86.1809 98.4117 86.1862C98.3581 86.1915 98.3066 86.2096 98.2615 86.2388L98.243 86.252C98.2018 86.2887 98.1707 86.3355 98.153 86.3879C98.1353 86.4402 98.1315 86.4962 98.1419 86.5505C98.1524 86.6047 98.1768 86.6553 98.2127 86.6973C98.2487 86.7393 98.2949 86.7712 98.3469 86.7899C98.3988 86.8086 98.4548 86.8135 98.5092 86.804C98.5637 86.7946 98.6147 86.7711 98.6573 86.736C98.7 86.7009 98.7328 86.6553 98.7525 86.6037C98.7722 86.552 98.7781 86.4962 98.7697 86.4416H98.7723Z" fill="white"/>
<path d="M112.515 74.6555C112.502 74.6032 112.477 74.5548 112.441 74.5142C112.406 74.4736 112.361 74.4421 112.311 74.4222C112.261 74.4024 112.207 74.3948 112.154 74.4001C112.1 74.4054 112.049 74.4234 112.004 74.4527L111.985 74.4685C111.944 74.5053 111.913 74.5523 111.895 74.6047C111.878 74.6572 111.874 74.7133 111.885 74.7676C111.895 74.8219 111.92 74.8725 111.956 74.9144C111.992 74.9563 112.039 74.988 112.091 75.0065C112.143 75.025 112.199 75.0296 112.253 75.0199C112.308 75.0102 112.359 74.9864 112.401 74.951C112.444 74.9156 112.476 74.8697 112.496 74.8179C112.515 74.7661 112.521 74.7101 112.512 74.6555H112.515Z" fill="white"/>
<path d="M106.935 65.7321C106.922 65.6799 106.897 65.6314 106.862 65.5908C106.827 65.5503 106.782 65.5187 106.732 65.4989C106.682 65.479 106.628 65.4714 106.574 65.4767C106.521 65.482 106.469 65.5001 106.424 65.5294L106.406 65.5452C106.364 65.582 106.334 65.6289 106.316 65.6814C106.298 65.7338 106.295 65.79 106.305 65.8442C106.316 65.8985 106.34 65.9491 106.377 65.991C106.413 66.0329 106.459 66.0647 106.511 66.0832C106.563 66.1017 106.619 66.1063 106.674 66.0966C106.728 66.0868 106.779 66.0631 106.822 66.0277C106.864 65.9922 106.897 65.9464 106.916 65.8945C106.936 65.8427 106.941 65.7867 106.932 65.7321H106.935Z" fill="white"/>
<path d="M96.1234 66.8508C96.1107 66.7985 96.0856 66.7501 96.0502 66.7095C96.0149 66.6689 95.9704 66.6374 95.9204 66.6175C95.8704 66.5977 95.8163 66.5901 95.7628 66.5954C95.7092 66.6007 95.6578 66.6187 95.6126 66.648L95.5942 66.6612C95.5529 66.6979 95.5219 66.7447 95.5042 66.797C95.4864 66.8494 95.4826 66.9054 95.4931 66.9596C95.5035 67.0139 95.5279 67.0645 95.5639 67.1065C95.5998 67.1484 95.646 67.1803 95.698 67.199C95.75 67.2178 95.8059 67.2226 95.8604 67.2132C95.9148 67.2037 95.9658 67.1803 96.0085 67.1452C96.0511 67.1101 96.0839 67.0645 96.1036 67.0128C96.1233 66.9612 96.1292 66.9054 96.1208 66.8508H96.1234Z" fill="white"/>
<path d="M85.0932 34.8188C83.021 36.1354 82.1968 38.9028 82.5865 40.538C82.7866 41.3622 83.1605 42.1916 82.9973 43.021C82.8577 43.7399 82.339 44.3165 81.944 44.9379C81.2933 45.984 80.9943 47.2108 81.0909 48.439C81.1874 49.6672 81.6744 50.8323 82.4806 51.7638C83.2868 52.6953 84.3699 53.3445 85.5715 53.6163C86.7731 53.8881 88.0302 53.7683 89.1588 53.2744" fill="#263238"/>
<path d="M83.8662 45.6122C78.8211 34.5163 90.8229 28.9419 97.3688 30.7904C103.522 32.5283 106.148 35.5906 107.161 39.7062C108.175 43.8217 108.125 48.2849 106.511 52.2056C105.721 54.1383 104.283 56.1026 102.206 56.3449" fill="#263238"/>
<path d="M89.7776 72.7096C89.6907 67.4065 89.6275 60.1259 89.6275 60.1549C89.6275 60.1838 85.0801 59.3992 84.1243 53.4588C83.6556 50.5018 83.8057 45.6542 84.0532 41.6914C84.2796 38.1235 86.6415 33.7473 90.1962 34.1238L101.295 36.9281C101.816 36.9828 102.297 37.2314 102.644 37.6245C102.99 38.0176 103.176 38.5266 103.164 39.0504L102.443 62.0033" fill="#FFBE9D"/>
<path d="M86.0385 45.3173C86.0342 45.5146 86.1072 45.7059 86.2421 45.85C86.3769 45.9942 86.5628 46.0799 86.76 46.0888C86.8564 46.0978 86.9536 46.0874 87.0459 46.0582C87.1382 46.0289 87.2237 45.9815 87.2974 45.9187C87.371 45.8558 87.4313 45.7788 87.4747 45.6923C87.5181 45.6057 87.5437 45.5113 87.5499 45.4147C87.5536 45.2173 87.4804 45.0262 87.3458 44.8817C87.2111 44.7373 87.0256 44.6508 86.8284 44.6406C86.7319 44.632 86.6346 44.6427 86.5423 44.6722C86.45 44.7018 86.3645 44.7495 86.2909 44.8125C86.2173 44.8756 86.1571 44.9527 86.1137 45.0394C86.0704 45.1261 86.0448 45.2206 86.0385 45.3173Z" fill="#263238"/>
<path d="M93.9169 45.3175C93.9132 45.5144 93.9866 45.705 94.1214 45.8486C94.2561 45.9922 94.4416 46.0775 94.6383 46.0864C94.7347 46.0954 94.832 46.085 94.9243 46.0558C95.0166 46.0265 95.1021 45.9791 95.1757 45.9163C95.2494 45.8534 95.3097 45.7764 95.3531 45.6899C95.3964 45.6033 95.422 45.5089 95.4283 45.4123C95.4326 45.215 95.3596 45.0238 95.2247 44.8796C95.0899 44.7354 94.904 44.6497 94.7068 44.6408C94.6102 44.6318 94.5128 44.6423 94.4203 44.6717C94.3278 44.7011 94.2422 44.7488 94.1685 44.8119C94.0949 44.875 94.0346 44.9523 93.9914 45.0392C93.9481 45.126 93.9228 45.2207 93.9169 45.3175Z" fill="#263238"/>
<path d="M85.217 43.9326C85.3092 44.0353 85.9016 43.6271 86.7205 43.6692C87.5394 43.7114 88.1266 44.1274 88.2214 44.03C88.2662 43.9879 88.174 43.8062 87.9186 43.6061C87.5727 43.3475 87.1549 43.203 86.7232 43.1927C86.2965 43.1777 85.8761 43.2984 85.5225 43.5376C85.2644 43.7166 85.1723 43.8852 85.217 43.9326Z" fill="#263238"/>
<path d="M93.0058 44.1274C93.1006 44.2275 93.6773 43.7956 94.4962 43.7956C95.3151 43.7956 95.9207 44.2011 96.0076 44.1011C96.0523 44.0563 95.9549 43.8773 95.6916 43.6877C95.336 43.4419 94.9126 43.3131 94.4804 43.319C94.0539 43.319 93.6387 43.4556 93.2955 43.7087C93.0427 43.9036 92.9584 44.0826 93.0058 44.1274Z" fill="#263238"/>
<path d="M90.1936 50.4466C90.1936 50.3992 89.6881 50.3123 88.8613 50.2044C88.6506 50.1833 88.4531 50.1412 88.4189 49.999C88.4002 49.7824 88.4489 49.5653 88.5584 49.3776C88.7533 48.872 88.9613 48.3401 89.1772 47.7819C90.0383 45.5121 90.6597 43.6426 90.5675 43.6084C90.4754 43.5742 89.7039 45.3884 88.8455 47.6608L88.2504 49.267C88.1185 49.5195 88.0802 49.8105 88.1424 50.0885C88.173 50.1622 88.2199 50.228 88.2797 50.2809C88.3395 50.3339 88.4105 50.3725 88.4874 50.3939C88.6031 50.4265 88.7226 50.4433 88.8428 50.444C89.6749 50.4887 90.191 50.4914 90.1936 50.4466Z" fill="#263238"/>
<path d="M89.6275 60.155C92.4269 60.1978 95.1833 59.4631 97.5901 58.0327C97.5901 58.0327 95.5784 62.1667 89.6275 61.6111V60.155Z" fill="#EB996E"/>
<path d="M92.8031 42.9608C92.8821 43.1846 93.7036 43.0766 94.6647 43.1951C95.6258 43.3136 96.4052 43.5717 96.5342 43.3715C96.5922 43.2767 96.4552 43.0661 96.1419 42.8449C95.7227 42.5804 95.2488 42.4148 94.7561 42.3605C94.2634 42.3062 93.7648 42.3647 93.2981 42.5316C92.9453 42.679 92.7662 42.8554 92.8031 42.9608Z" fill="#263238"/>
<path d="M85.4066 41.8733C85.5514 42.0602 86.1176 41.8733 86.7969 41.8575C87.4762 41.8417 88.0529 41.9839 88.1846 41.789C88.2425 41.6942 88.153 41.5073 87.9002 41.3308C87.5645 41.1141 87.1697 41.0073 86.7706 41.0254C86.3714 41.0332 85.9844 41.1638 85.662 41.3993C85.4224 41.5863 85.3434 41.7785 85.4066 41.8733Z" fill="#263238"/>
<path d="M102.145 46.876C102.232 46.8338 105.329 45.4646 105.366 49.0246C105.403 52.5846 101.819 51.8868 101.811 51.7841C101.803 51.6814 102.145 46.876 102.145 46.876Z" fill="#FFBE9D"/>
<path d="M102.885 50.4202C102.901 50.4202 102.948 50.4623 103.054 50.5097C103.203 50.5689 103.368 50.5689 103.517 50.5097C103.891 50.3675 104.202 49.7671 104.212 49.1247C104.22 48.8197 104.158 48.5171 104.031 48.2399C103.997 48.1288 103.936 48.0278 103.854 47.9456C103.772 47.8634 103.67 47.8027 103.559 47.7686C103.488 47.7502 103.412 47.7576 103.346 47.7894C103.28 47.8212 103.226 47.8753 103.196 47.9424C103.149 48.0424 103.172 48.1135 103.154 48.1188C103.135 48.1241 103.075 48.0609 103.104 47.9134C103.122 47.8253 103.171 47.7463 103.241 47.6896C103.289 47.6521 103.344 47.6244 103.402 47.6081C103.461 47.5919 103.523 47.5873 103.583 47.5948C103.729 47.6223 103.866 47.6869 103.981 47.7823C104.095 47.8777 104.183 48.0008 104.236 48.1399C104.391 48.4465 104.469 48.7864 104.463 49.1299C104.447 49.8461 104.086 50.5228 103.573 50.6756C103.477 50.7043 103.377 50.7114 103.278 50.6964C103.18 50.6814 103.086 50.6446 103.004 50.5887C102.893 50.5071 102.875 50.4254 102.885 50.4202Z" fill="#EB996E"/>
<path d="M89.0114 32.3623C87.0313 33.3866 86.215 37.4363 87.0339 39.5112C87.8528 41.5861 90.062 42.5973 92.2396 43.0738C94.4172 43.5504 96.5527 43.6005 98.7013 43.0107C98.8487 44.4536 99.715 45.9361 101.116 46.3179C102.972 46.8208 104.842 45.1224 105.255 43.245C105.669 41.3676 105.047 39.4349 104.436 37.6101" fill="#263238"/>
<path d="M104.718 45.2779C104.718 45.2779 104.628 45.3833 104.441 45.5412C104.18 45.7624 103.907 45.969 103.623 46.16C103.198 46.4531 102.731 46.6795 102.238 46.8315C101.622 47.0257 100.959 47.0156 100.35 46.8025C99.7493 46.5607 99.2464 46.1263 98.9198 45.5676C98.6553 45.1213 98.4808 44.6275 98.4063 44.1141C98.3543 43.7727 98.3358 43.427 98.351 43.0819C98.3453 42.9557 98.3605 42.8293 98.3958 42.708C98.4353 42.708 98.3958 43.2478 98.5485 44.0878C98.6388 44.5759 98.8173 45.0434 99.0751 45.4675C99.3879 45.9823 99.8577 46.3829 100.415 46.6103C100.986 46.8074 101.604 46.8203 102.182 46.6472C102.66 46.5088 103.117 46.3041 103.538 46.0389C104.27 45.5807 104.697 45.249 104.718 45.2779Z" fill="#263238"/>
<path d="M90.4359 52.7325C90.5406 53.0412 90.6896 53.333 90.8783 53.5988C90.973 53.732 91.095 53.8433 91.2362 53.9255C91.3775 54.0077 91.5346 54.0588 91.6972 54.0754C91.8709 54.0742 92.0416 54.0301 92.1941 53.9469C92.3467 53.8638 92.4762 53.7442 92.5714 53.5988C92.7549 53.3008 92.8397 52.9525 92.8136 52.6035C92.8004 52.2901 92.6556 51.9162 92.3449 51.8794C92.2142 51.8748 92.0846 51.9038 91.9684 51.9636L90.3306 52.6272" fill="#EB996E"/>
<path d="M91.0889 54.0776C91.0889 54.0276 91.4575 54.1724 91.9631 53.9696C92.2497 53.8589 92.4852 53.646 92.624 53.3719C92.7025 53.2047 92.7449 53.0229 92.7485 52.8383C92.7522 52.6537 92.7169 52.4704 92.6451 52.3002C92.6072 52.2134 92.5595 52.1313 92.5029 52.0553C92.4371 51.9869 92.4476 51.9895 92.3791 52.0001C92.3107 52.0106 92.2027 52.0685 92.1158 52.1027L91.8525 52.2133C91.5023 52.3555 91.1837 52.4767 90.9177 52.5793C90.3911 52.7795 90.0409 52.8848 90.0251 52.8427C90.0093 52.8005 90.32 52.632 90.8361 52.3845C91.0994 52.2607 91.4022 52.1212 91.7472 51.9606L92.0105 51.8421C92.1079 51.8026 92.179 51.7604 92.3107 51.7183C92.3893 51.6922 92.4743 51.6922 92.5529 51.7183C92.6249 51.749 92.6875 51.798 92.7346 51.8605C92.9104 52.0889 93.0165 52.3632 93.0403 52.6504C93.0642 52.9376 93.0046 53.2256 92.8689 53.4799C92.7815 53.6413 92.6629 53.7837 92.5201 53.8989C92.3773 54.0142 92.213 54.1 92.0368 54.1513C91.808 54.2265 91.5627 54.2365 91.3285 54.1803C91.16 54.1513 91.0836 54.096 91.0889 54.0776Z" fill="#263238"/>
<path d="M106.145 44.4352C105.782 44.4089 102.84 44.7907 103.072 50.2544C103.288 55.3601 106.869 54.2357 108.012 52.3135C109.086 50.494 109.713 44.6854 106.145 44.4352Z" fill="#455A64"/>
<path d="M107.954 45.0806C107.946 45.0336 107.941 44.9861 107.941 44.9384C107.941 44.8305 107.941 44.6935 107.925 44.5198C107.925 44.1432 107.899 43.6166 107.88 42.9636C107.854 41.6233 107.817 39.7564 107.772 37.6052L107.838 37.6684H106.324L106.393 37.5999C106.393 38.0054 106.414 38.4346 106.427 38.8717C106.477 40.9203 106.524 42.8214 106.564 44.4302V44.4776H106.519C105.897 44.621 105.345 44.9767 104.958 45.4835C104.664 45.8764 104.452 46.324 104.333 46.8C104.255 47.1067 104.201 47.4193 104.173 47.7348C104.173 47.8428 104.16 47.927 104.157 47.9823C104.154 48.0376 104.157 48.0692 104.157 48.0692C104.154 48.0403 104.154 48.0112 104.157 47.9823C104.157 47.927 104.157 47.8428 104.157 47.7322C104.17 47.4126 104.214 47.0952 104.289 46.7842C104.399 46.2943 104.607 45.8319 104.902 45.4255C105.3 44.898 105.869 44.5255 106.511 44.3723L106.466 44.4302C106.422 42.8319 106.366 40.9229 106.308 38.8717C106.295 38.4372 106.285 38.008 106.274 37.5999V37.5288H107.925V37.5946C107.949 39.7485 107.97 41.6128 107.986 42.9557C107.986 43.6087 107.986 44.1353 107.986 44.5119C107.986 44.6856 107.986 44.8226 107.986 44.9279C107.982 44.98 107.972 45.0314 107.954 45.0806Z" fill="#455A64"/>
<path d="M106.145 37.6025C106.145 37.6025 104.607 34.0057 100.945 32.2283C99.5439 31.5306 98.0723 30.9851 96.5552 30.601C96.5552 30.601 98.6933 30.0955 102.151 31.6332C103.73 32.3336 105.31 33.2421 106.364 34.6087C107.027 35.475 107.859 37.168 107.857 37.6025H106.145Z" fill="#455A64"/>
<path d="M96.6658 81.1725C96.6658 81.1725 96.6869 81.1462 96.7317 81.1014C96.7764 81.0567 96.8449 80.9882 96.9291 80.896C97.1818 80.6288 97.4192 80.3475 97.6401 80.0534C97.9916 79.5829 98.3126 79.0904 98.6012 78.5789C98.9435 77.9812 99.3016 77.2755 99.6887 76.4882C100.465 74.9083 101.363 73.0072 102.295 70.8217C102.759 69.729 103.233 68.5678 103.707 67.3434L104.06 66.4165C104.171 66.0921 104.313 65.7791 104.484 65.4817C104.666 65.1734 104.93 64.9218 105.247 64.755C105.408 64.6663 105.59 64.6201 105.774 64.6207C105.874 64.6276 105.971 64.6623 106.053 64.7208C106.131 64.7837 106.191 64.8652 106.229 64.9577V64.9762V64.9972C106.207 65.1226 106.159 65.2419 106.087 65.3474C106.008 65.4574 105.89 65.5342 105.758 65.5634C105.505 65.5984 105.248 65.5513 105.023 65.4291C104.788 65.3193 104.596 65.1339 104.478 64.9025C104.36 64.6711 104.323 64.4069 104.373 64.152C104.427 63.89 104.581 63.6594 104.802 63.5095C105.021 63.3571 105.284 63.282 105.55 63.2962C105.688 63.2972 105.823 63.3326 105.944 63.3993C106.064 63.466 106.166 63.5618 106.24 63.678C106.277 63.7446 106.294 63.8204 106.29 63.8965C106.285 63.9726 106.259 64.0458 106.214 64.1072C106.127 64.2174 106.011 64.3012 105.879 64.3495C105.658 64.4334 105.416 64.4439 105.189 64.3794C104.962 64.3148 104.762 64.1788 104.618 63.9914C104.478 63.8003 104.417 63.5628 104.447 63.3278C104.47 63.0989 104.562 62.8822 104.71 62.7064C104.861 62.5288 105.072 62.4127 105.302 62.3799C105.419 62.3647 105.537 62.3768 105.648 62.4151C105.759 62.4535 105.86 62.5172 105.942 62.6011C106.026 62.6918 106.072 62.8118 106.069 62.9355C106.067 62.9971 106.053 63.0578 106.027 63.1136C106 63.1694 105.963 63.219 105.916 63.2594C105.83 63.3367 105.727 63.3927 105.615 63.4229C105.504 63.4531 105.387 63.4566 105.274 63.4332C105.164 63.4045 105.062 63.3531 104.973 63.2823C104.885 63.2116 104.812 63.123 104.76 63.0224C104.658 62.8337 104.593 62.6272 104.568 62.4141C104.494 62.0003 104.542 61.5737 104.707 61.1871C104.8 60.9899 104.959 60.832 105.158 60.7421C105.36 60.667 105.584 60.6746 105.782 60.7632C105.885 60.8005 105.976 60.8658 106.044 60.9518C106.113 61.0379 106.156 61.1412 106.169 61.2503C106.174 61.3618 106.145 61.4722 106.085 61.5665C106.025 61.6607 105.938 61.7342 105.834 61.7769C105.741 61.825 105.637 61.8501 105.532 61.8501C105.426 61.8501 105.322 61.825 105.229 61.7769C105.051 61.674 104.917 61.509 104.852 61.3135C104.793 61.1281 104.781 60.9306 104.818 60.7395C104.839 60.5531 104.879 60.3695 104.939 60.1918C104.999 60.0091 105.109 59.8474 105.258 59.7257C105.404 59.6086 105.574 59.525 105.755 59.4808C105.85 59.4538 105.95 59.4538 106.045 59.4808C106.136 59.5123 106.218 59.5646 106.285 59.6336C106.352 59.6994 106.405 59.7783 106.44 59.8653C106.478 59.959 106.478 60.0639 106.44 60.1576C106.398 60.2442 106.33 60.3158 106.245 60.3629C106.161 60.4099 106.065 60.4302 105.969 60.4209C105.79 60.4183 105.617 60.3603 105.474 60.255C105.201 60.0539 105.013 59.758 104.947 59.4256C104.878 59.0973 104.93 58.7553 105.092 58.4618C105.163 58.321 105.265 58.1978 105.389 58.1011C105.512 58.0078 105.656 57.9455 105.808 57.9194C105.96 57.8885 106.118 57.9108 106.256 57.9826C106.324 58.0195 106.381 58.0728 106.424 58.1376C106.466 58.2024 106.492 58.2767 106.498 58.3539C106.497 58.4992 106.448 58.6401 106.358 58.7545C106.269 58.8688 106.144 58.9502 106.003 58.9858C105.871 59.0139 105.734 59.0041 105.607 58.9575C105.48 58.9109 105.369 58.8294 105.287 58.7225C105.129 58.5321 105.036 58.2956 105.023 58.0484C105.046 57.6179 105.135 57.1934 105.287 56.7898C105.395 56.4106 105.492 56.0631 105.582 55.7523C105.758 55.1336 105.895 54.6517 105.992 54.3199C106.037 54.1593 106.074 54.0355 106.1 53.9487C106.127 53.8618 106.142 53.8223 106.142 53.8223C106.142 53.8223 106.142 53.867 106.113 53.9513C106.085 54.0355 106.058 54.1672 106.019 54.3278C105.929 54.6622 105.797 55.1467 105.632 55.7655L105.35 56.8056C105.26 57.1874 105.087 57.5955 105.105 58.0432C105.124 58.2747 105.216 58.4942 105.368 58.6698C105.441 58.7643 105.539 58.8366 105.65 58.8784C105.762 58.9203 105.883 58.9301 106 58.9068C106.118 58.8764 106.224 58.8088 106.301 58.714C106.377 58.6192 106.422 58.5021 106.427 58.3802C106.421 58.3184 106.401 58.2589 106.367 58.207C106.333 58.1551 106.286 58.1124 106.232 58.0827C106.113 58.0237 105.978 58.0061 105.848 58.0326C105.71 58.0563 105.579 58.1132 105.468 58.1985C105.358 58.2881 105.268 58.4003 105.205 58.5277C105.075 58.7977 105.04 59.1043 105.108 59.3966C105.171 59.7022 105.345 59.9734 105.597 60.1576C105.723 60.2482 105.874 60.2987 106.029 60.3024C106.102 60.3112 106.176 60.2974 106.241 60.2631C106.306 60.2287 106.359 60.1754 106.393 60.1102C106.409 60.0371 106.404 59.9609 106.38 59.8902C106.355 59.8195 106.311 59.7571 106.253 59.7099C106.199 59.6551 106.133 59.6129 106.061 59.5862C105.986 59.5665 105.907 59.5665 105.832 59.5862C105.666 59.6222 105.512 59.6998 105.384 59.8118C105.257 59.9237 105.16 60.0663 105.102 60.226C105.045 60.3967 105.007 60.5734 104.989 60.7526C104.953 60.9279 104.964 61.1095 105.021 61.2793C105.073 61.4451 105.186 61.5851 105.337 61.6716C105.413 61.7098 105.497 61.7297 105.583 61.7297C105.668 61.7297 105.753 61.7098 105.829 61.6716C105.908 61.6409 105.975 61.5869 106.022 61.5168C106.069 61.4466 106.094 61.3637 106.092 61.2793C106.081 61.1942 106.046 61.1141 105.991 61.0476C105.937 60.9812 105.865 60.931 105.784 60.9027C105.618 60.8299 105.429 60.8233 105.258 60.8843C105.09 60.9628 104.954 61.0979 104.876 61.2661C104.725 61.6298 104.682 62.0293 104.752 62.4168C104.775 62.6131 104.835 62.8034 104.929 62.9776C104.971 63.0613 105.031 63.1352 105.104 63.1946C105.177 63.254 105.262 63.2976 105.353 63.3226C105.445 63.3425 105.541 63.3402 105.633 63.316C105.724 63.2917 105.809 63.2462 105.879 63.183C105.912 63.1538 105.939 63.1182 105.958 63.0784C105.977 63.0386 105.987 62.9953 105.989 62.9513C105.991 62.9073 105.983 62.8633 105.968 62.8221C105.952 62.781 105.928 62.7434 105.898 62.7117C105.829 62.644 105.746 62.5928 105.655 62.5622C105.563 62.5317 105.466 62.5224 105.371 62.5353C105.173 62.5643 104.993 62.6656 104.865 62.8196C104.727 62.9679 104.643 63.1583 104.626 63.3602C104.608 63.5621 104.66 63.764 104.771 63.9335C104.897 64.0956 105.072 64.2132 105.27 64.2691C105.468 64.325 105.679 64.3163 105.871 64.2442C105.974 64.2018 106.065 64.1338 106.135 64.0467C106.164 64.0058 106.181 63.9572 106.184 63.9068C106.187 63.8564 106.175 63.8062 106.15 63.7623C106.087 63.6674 106.001 63.5897 105.901 63.5359C105.8 63.4822 105.688 63.4541 105.574 63.4542C105.341 63.4361 105.109 63.5009 104.92 63.6374C104.73 63.7738 104.595 63.9729 104.539 64.1994C104.496 64.4193 104.527 64.6472 104.627 64.8477C104.727 65.0481 104.89 65.2099 105.092 65.3079C105.287 65.4191 105.514 65.4634 105.737 65.4343C105.837 65.4031 105.926 65.3425 105.992 65.2604C106.058 65.1783 106.097 65.0784 106.106 64.9735V65.013C106.08 64.9403 106.034 64.8766 105.973 64.8298C105.911 64.783 105.838 64.7551 105.761 64.7497C105.597 64.7489 105.437 64.7907 105.295 64.8708C104.998 65.0261 104.751 65.2615 104.581 65.5502C104.414 65.8389 104.276 66.1431 104.168 66.4586L103.809 67.3881C103.336 68.6099 102.856 69.7579 102.388 70.8638C101.45 73.0493 100.544 74.9557 99.7545 76.5251C99.3622 77.315 98.9988 78.0128 98.6486 78.6105C98.3535 79.1203 98.0254 79.6102 97.6664 80.0771C97.3731 80.477 97.0376 80.8443 96.6658 81.1725Z" fill="white"/>
<path d="M109.329 41.8732C109.297 41.5385 109.216 41.2103 109.089 40.8989C108.706 40.0614 108.035 39.3895 107.198 39.0057C106.624 38.7461 106.006 38.5953 105.376 38.5607C104.652 38.5234 103.925 38.5783 103.214 38.724C101.706 39.0031 100.121 39.6535 98.3458 39.922C97.4807 40.0366 96.6042 40.0366 95.739 39.922C94.9358 39.8011 94.1494 39.5872 93.3955 39.2848C92.1156 38.7694 90.9517 38.003 89.9725 37.0309C89.3133 36.3808 88.7559 35.6352 88.3189 34.8191C88.2451 34.6947 88.18 34.5653 88.124 34.432L87.9976 34.1397C87.966 34.0686 87.9423 34.008 87.9213 33.9607C87.9112 33.9407 87.9041 33.9194 87.9002 33.8975C87.914 33.9152 87.9256 33.9347 87.9344 33.9554L88.0213 34.1292L88.1609 34.4136C88.2209 34.5452 88.2895 34.6727 88.3663 34.7954C88.8179 35.5941 89.3819 36.3239 90.0409 36.9624C91.5956 38.4849 93.5936 39.4743 95.7469 39.7878C96.5998 39.901 97.4639 39.901 98.3168 39.7878C100.068 39.5244 101.656 38.8767 103.183 38.6029C103.904 38.4588 104.64 38.4075 105.374 38.4501C106.017 38.4891 106.646 38.649 107.23 38.9215C108.081 39.3202 108.757 40.0172 109.128 40.8805C109.221 41.1155 109.282 41.3616 109.31 41.6125V41.8074C109.32 41.8282 109.326 41.8504 109.329 41.8732Z" fill="#455A64"/>
<path d="M105.355 36.1988C105.293 36.214 105.229 36.2246 105.166 36.2304C105.042 36.2488 104.857 36.2751 104.623 36.3173C104.154 36.3936 103.483 36.5437 102.656 36.7491C101.689 37.0098 100.704 37.2008 99.7097 37.3205C98.4875 37.4457 97.2545 37.4183 96.0391 37.2389C94.8233 37.0625 93.6327 36.7425 92.4923 36.2857C91.5574 35.9156 90.662 35.4524 89.8197 34.9033C89.4669 34.6637 89.1509 34.4425 88.8823 34.2318C88.6137 34.0212 88.3873 33.8395 88.2135 33.6762L87.8133 33.2997C87.7237 33.2128 87.6763 33.1654 87.6816 33.1602C87.7352 33.1949 87.7855 33.2346 87.8317 33.2786L88.2477 33.6341C88.4268 33.7921 88.6664 33.9606 88.9297 34.1607C89.193 34.3609 89.5195 34.5794 89.8724 34.8111C91.7494 35.9952 93.8537 36.7729 96.0497 37.094C97.2555 37.2706 98.4782 37.3007 99.6913 37.1836C100.68 37.0761 101.66 36.9001 102.625 36.6569C103.454 36.4647 104.133 36.3278 104.607 36.2646C104.844 36.233 105.029 36.2146 105.155 36.2067C105.221 36.1971 105.288 36.1945 105.355 36.1988Z" fill="#455A64"/>
<path d="M105.745 53.8406C105.71 53.8338 105.675 53.8232 105.642 53.809C105.55 53.7704 105.462 53.7237 105.379 53.6695C105.061 53.4602 104.796 53.1787 104.607 52.8479C104.337 52.3531 104.176 51.8065 104.133 51.2444C104.073 50.5646 104.073 49.8808 104.133 49.2011C104.19 48.5215 104.303 47.8478 104.47 47.1867C104.59 46.6407 104.788 46.1148 105.058 45.6253C105.252 45.2932 105.523 45.0124 105.848 44.8064C105.93 44.7518 106.019 44.7059 106.111 44.6695C106.177 44.6458 106.214 44.6352 106.214 44.6405C106.214 44.6458 106.079 44.7011 105.866 44.8511C105.568 45.069 105.322 45.3494 105.144 45.6727C104.891 46.16 104.707 46.6802 104.597 47.2183C104.437 47.8743 104.328 48.5415 104.27 49.2142C104.215 49.8854 104.215 50.56 104.27 51.2312C104.304 51.7819 104.451 52.3198 104.702 52.8111C104.876 53.1368 105.121 53.4194 105.418 53.6379C105.618 53.7774 105.753 53.8275 105.745 53.8406Z" fill="#263238"/>
<path d="M93.902 53.0274L91.1992 53.5577C90.7925 53.6375 90.5275 54.0318 90.6073 54.4386L90.6271 54.5393C90.7069 54.946 91.1012 55.211 91.5079 55.1312L94.2107 54.601C94.6174 54.5212 94.8824 54.1268 94.8026 53.7201L94.7828 53.6193C94.703 53.2126 94.3087 52.9476 93.902 53.0274Z" fill="#455A64"/>
<path d="M94.4198 53.4274L106.914 49.5093C107.062 49.4629 107.223 49.477 107.361 49.5485C107.499 49.62 107.603 49.7431 107.651 49.8911C107.675 49.9671 107.684 50.0473 107.676 50.1267C107.669 50.2061 107.645 50.2831 107.607 50.3532C107.569 50.4233 107.517 50.4849 107.454 50.5345C107.392 50.584 107.32 50.6204 107.243 50.6415L94.4672 54.0909L94.4198 53.4274Z" fill="#455A64"/>
<path d="M103.654 51.7053C103.788 51.6462 103.926 51.5978 104.068 51.5604L105.21 51.2129C105.69 51.0654 106.279 50.9074 106.901 50.7047C107.054 50.6475 107.194 50.5576 107.309 50.4414C107.423 50.3254 107.486 50.1693 107.485 50.0069C107.485 49.9271 107.459 49.8495 107.412 49.7852C107.364 49.7209 107.298 49.6732 107.222 49.6488C107.048 49.6046 106.866 49.6101 106.695 49.6646L102.948 50.8706L101.808 51.2234C101.678 51.2772 101.543 51.3204 101.405 51.3524C101.537 51.2884 101.674 51.2347 101.814 51.1918L102.941 50.7968C103.896 50.473 105.208 50.0227 106.682 49.5514C106.878 49.4946 107.086 49.4946 107.283 49.5514C107.383 49.5875 107.47 49.6532 107.532 49.7397C107.594 49.8262 107.628 49.9294 107.63 50.0359C107.63 50.233 107.553 50.4223 107.414 50.5625C107.276 50.6842 107.112 50.774 106.935 50.8258C106.29 51.0285 105.713 51.1707 105.226 51.3077L104.083 51.6157C103.943 51.659 103.8 51.6889 103.654 51.7053Z" fill="#263238"/>
<path d="M83.2369 42.1367C83.6634 43.6376 82.1388 44.9252 81.6017 46.3918C81.0751 47.8085 81.5227 49.3962 82.1625 50.7655C82.8024 52.1347 83.645 53.4302 83.9715 54.9021C84.7799 58.5358 81.4937 62.4513 82.1283 66.1192C82.3548 67.4568 82.8946 68.8524 83.3606 70.1242C83.8109 71.3235 83.8109 72.6455 83.3606 73.8448C82.6497 75.9513 81.4437 76.9387 80.5958 78.9873C80.1614 80.0405 80.1956 81.2096 80.2167 82.3419C80.2377 83.4741 80.2325 84.659 79.7269 85.6754C79.2213 86.6918 78.068 87.4765 76.9727 87.1816C77.5638 87.8438 78.3567 88.2928 79.2288 88.4589C80.1008 88.6251 81.0033 88.4991 81.7965 88.1005C83.2369 87.3316 84.0426 85.7728 84.7325 84.293C88.0713 77.1283 89.8381 76.5227 89.7354 68.618C89.7354 68.1098 89.6353 60.192 89.6353 60.192C88.9434 60.0063 88.2799 59.7272 87.6631 59.3626C83.9346 56.7874 83.7977 52.2005 83.8267 48.6432" fill="#263238"/>
<path d="M90.6886 66.1191V69.1025C90.6886 69.1025 88.3952 80.8067 87.7053 87.3079C87.0154 93.8091 86.9022 95.5259 86.9022 95.5259C86.9022 95.5259 88.5479 98.0932 91.9894 93.7327C95.4309 89.3723 96.0444 88.685 97.4215 88.6086C97.4215 88.6086 95.739 70.3269 95.8153 69.6502C95.9006 69.1703 96.1114 68.7215 96.4262 68.3494L90.6886 66.1191Z" fill="#FFBE9D"/>
<path d="M95.2018 59.3888C95.2018 59.3888 91.4549 64.3601 91.1495 65.0447C90.844 65.7293 90.6887 66.1138 90.6887 66.1138L96.4262 68.3335L102.011 62.2141L104.075 56.782L103.462 50.3571C103.462 50.3571 102.24 50.2808 102.011 51.3525C101.871 52.031 101.818 52.7249 101.856 53.4168L100.144 52.0397L97.3821 51.1997C97.3821 51.1997 96.7317 52.2688 97.8034 52.806C98.875 53.3431 99.1805 53.3326 99.1805 53.3326L100.144 55.0151L99.7229 56.9005L97.7691 55.0573C97.5799 54.8786 97.3341 54.7718 97.0744 54.7554C96.8146 54.7391 96.5574 54.8142 96.3472 54.9677L95.0833 55.8841L93.9011 55.3574L91.6076 57.4086L90.6887 58.2486C90.6887 58.2486 91.3022 59.3967 92.5318 58.8621L93.7563 58.3355L95.2018 59.3888Z" fill="#FFBE9D"/>
<path d="M90.6886 67.1274C90.6851 67.0739 90.6851 67.0202 90.6886 66.9668C90.6886 66.8614 90.7018 66.7034 90.7255 66.5007C90.7562 66.2475 90.8046 65.9967 90.8703 65.7503C90.9522 65.41 91.0873 65.0847 91.2705 64.7865C92.1289 63.47 93.4797 61.6268 95.1649 59.3597V59.4281L93.7114 58.3591H93.7615L93.0058 58.6935C92.7463 58.82 92.4768 58.9248 92.2 59.0068C91.8988 59.079 91.5818 59.0426 91.3048 58.9041C91.023 58.7592 90.789 58.5362 90.6307 58.2617L90.6096 58.2248L90.6439 58.1932C91.6286 57.2663 92.7267 56.3316 93.8536 55.331L93.8879 55.302L93.9247 55.3231L94.9437 55.9261H94.8779L96.0681 55.1361C96.2761 55.0018 96.463 54.8728 96.6869 54.7359C96.8087 54.6754 96.9449 54.6495 97.0805 54.6611C97.2161 54.6727 97.3459 54.7214 97.4557 54.8017L99.7755 56.7634L99.6676 56.8003C99.794 56.2342 99.9309 55.6206 100.068 55.0019V55.0492L99.1041 53.3667L99.1646 53.4009C99.0009 53.3786 98.8407 53.3352 98.688 53.2719C98.538 53.2166 98.3879 53.1534 98.2378 53.0876C98.0877 53.0217 97.9402 52.948 97.7928 52.8769C97.7164 52.8401 97.6427 52.79 97.569 52.7479C97.4969 52.6965 97.4299 52.6383 97.3688 52.5741C97.2804 52.4803 97.2115 52.3698 97.1663 52.2491C97.1211 52.1284 97.1005 51.9999 97.1055 51.8711C97.114 51.6194 97.1836 51.3736 97.3083 51.1549L97.3346 51.1101L97.3873 51.1259L100.147 51.9685H100.16L101.871 53.3456L101.764 53.4035C101.727 52.7217 101.775 52.0379 101.908 51.3681C101.936 51.1954 102.001 51.0306 102.097 50.8845C102.193 50.7383 102.319 50.6142 102.467 50.5203C102.761 50.3465 103.099 50.2615 103.441 50.2754H103.512V50.3333C103.728 52.6162 103.931 54.7701 104.118 56.7581V56.7713C103.354 58.7725 102.659 60.5893 102.043 62.1982L97.7191 66.9694L96.5447 68.2412C96.4104 68.3808 96.3077 68.4913 96.2366 68.5677L96.1286 68.6757C96.1286 68.6757 96.1602 68.6335 96.2261 68.5572L96.5236 68.2228L97.6822 66.9352L101.985 62.1955V62.2087L104.039 56.7739V56.8003C103.846 54.8123 103.641 52.661 103.42 50.3755L103.48 50.436C103.166 50.4232 102.855 50.5018 102.585 50.6625C102.452 50.7468 102.339 50.8586 102.253 50.9903C102.168 51.122 102.111 51.2706 102.087 51.4261C101.955 52.0835 101.908 52.7551 101.945 53.4246V53.5773L101.827 53.4825L100.089 52.0975H100.113L97.353 51.2575L97.4294 51.226C97.3184 51.4244 97.2561 51.6464 97.2477 51.8737C97.2429 51.9851 97.2605 52.0963 97.2994 52.2007C97.3383 52.3052 97.3977 52.4008 97.4742 52.4819C97.5287 52.5376 97.5877 52.5887 97.6506 52.6347C97.7217 52.6742 97.7849 52.7163 97.8586 52.7532C98.0061 52.8243 98.1509 52.898 98.2983 52.9612C98.5757 53.0965 98.8683 53.1982 99.1699 53.264H99.212L99.2278 53.2903L100.192 54.9729L100.205 54.9966V55.0229C100.065 55.6417 99.9414 56.2552 99.8019 56.8213L99.7782 56.9319L99.6913 56.8582L97.3794 54.9018C97.2896 54.8349 97.1831 54.7941 97.0716 54.7839C96.9601 54.7737 96.8479 54.7944 96.7474 54.8439C96.5526 54.9597 96.3419 55.1072 96.1418 55.2362L94.949 56.0261L94.9174 56.0472L94.8832 56.0288L93.8642 55.4232H93.9379C92.8109 56.4185 91.7103 57.3532 90.7228 58.2748L90.736 58.2064C90.8815 58.4605 91.0973 58.6671 91.3574 58.8014C91.6111 58.9305 91.9026 58.9641 92.179 58.8962C92.45 58.8169 92.7142 58.7156 92.9689 58.5934L93.7246 58.2617H93.7536L93.7773 58.2775L95.2281 59.3518L95.2676 59.3807L95.2386 59.4202C93.5455 61.6873 92.1816 63.5147 91.3127 64.8181C91.1297 65.1109 90.9921 65.4296 90.9045 65.7634C90.8374 66.0075 90.7855 66.2555 90.7492 66.506C90.7202 66.7087 90.707 66.8667 90.6991 66.9694C90.6912 67.0721 90.6886 67.1274 90.6886 67.1274Z" fill="#EB996E"/>
<path d="M97.7875 60.5394C97.7612 60.5394 97.8613 60.1339 97.9034 59.4862C97.9311 59.1086 97.8698 58.7298 97.7243 58.3802C97.5047 57.9709 97.1917 57.6191 96.8107 57.3533C96.1302 56.8317 95.4208 56.3491 94.6857 55.9077L94.0143 55.5128C93.928 55.4702 93.8467 55.4181 93.772 55.3574C93.8647 55.38 93.9535 55.4163 94.0353 55.4654C94.2039 55.5417 94.4435 55.6629 94.7331 55.8235C95.4867 56.2439 96.2084 56.7191 96.8923 57.2454C97.2906 57.5232 97.6144 57.8949 97.8349 58.3276C97.9862 58.6957 98.0424 59.0959 97.9982 59.4914C97.9757 59.7525 97.9326 60.0113 97.8692 60.2656C97.8549 60.3602 97.8274 60.4524 97.7875 60.5394Z" fill="#EB996E"/>
<path d="M101.803 58.1538C101.82 57.9219 101.852 57.6915 101.9 57.464C101.983 56.9149 102.022 56.3603 102.019 55.8051C102.012 55.2483 101.963 54.6929 101.872 54.1436C101.821 53.918 101.785 53.6893 101.764 53.459C101.86 53.6711 101.929 53.8951 101.966 54.1252C102.209 55.23 102.219 56.3735 101.995 57.4824C101.961 57.7138 101.897 57.9396 101.803 58.1538Z" fill="#EB996E"/>
<path d="M76.2328 38.6422L73.4943 33.8051C75.1902 31.0506 75.7945 27.7613 75.1884 24.5839C74.5823 21.4065 72.8096 18.5706 70.2188 16.6338C67.6281 14.6969 64.4065 13.7991 61.1874 14.1169C57.9683 14.4347 54.9845 15.945 52.8224 18.351C50.6603 20.757 49.4763 23.8847 49.5031 27.1193C49.53 30.3539 50.7657 33.4615 52.9674 35.8313C55.1691 38.2012 58.1775 39.6618 61.4015 39.9261C64.6254 40.1904 67.8316 39.2393 70.3899 37.2598L76.2328 38.6422Z" fill="white"/>
<path d="M76.2328 38.6421L70.3715 37.2993H70.3215L70.3531 37.2571L70.4005 37.3045C69.5793 37.942 68.6858 38.4803 67.7384 38.9081C66.6105 39.4128 65.416 39.7533 64.1916 39.9192C63.5131 40.0137 62.8275 40.0481 62.143 40.0219C61.7928 40.0035 61.432 39.9929 61.0713 39.964L59.9786 39.7981C56.7217 39.1534 53.8335 37.2907 51.9028 34.5898C50.825 33.0976 50.0797 31.3916 49.7173 29.5868C49.3432 27.6813 49.3954 25.7165 49.87 23.8335C50.3581 21.8652 51.3086 20.0418 52.6427 18.5146L53.1693 17.9326C53.3431 17.7378 53.5511 17.5772 53.7381 17.406C53.9247 17.2206 54.1207 17.0448 54.3252 16.8794L54.9467 16.416C55.1511 16.2644 55.3658 16.1272 55.5891 16.0052L56.2448 15.6076L56.932 15.2785C57.1557 15.1602 57.387 15.0573 57.6245 14.9704C59.4645 14.2435 61.444 13.9385 63.4174 14.0777C65.2847 14.2086 67.1004 14.7479 68.7363 15.6576C71.677 17.2941 73.8757 19.999 74.8768 23.212C75.2789 24.5793 75.4689 26.0002 75.4403 27.425C75.4059 28.6596 75.1931 29.8826 74.8083 31.0561C74.4868 32.0326 74.0511 32.9677 73.5102 33.842V33.8077L76.2249 38.6606C76.1091 38.4578 75.2296 36.9333 73.4522 33.8393V33.8235V33.8077C73.9844 32.9354 74.413 32.004 74.7293 31.0324C75.1047 29.8644 75.3113 28.6488 75.3428 27.4224C75.3658 26.0103 75.1731 24.6029 74.7714 23.2489C73.7716 20.0678 71.5886 17.3919 68.6731 15.7735C67.0521 14.8781 65.2545 14.3487 63.4069 14.2226C61.452 14.0849 59.4912 14.3881 57.6693 15.1099C57.4344 15.196 57.2057 15.298 56.9847 15.4154L56.3054 15.7445L55.655 16.1395C55.4327 16.263 55.2205 16.4038 55.0204 16.5608L54.4042 17.0189C54.1962 17.1664 54.0198 17.3586 53.8249 17.5245C53.6301 17.6904 53.4352 17.8615 53.2615 18.0511L52.7348 18.6251C51.415 20.1378 50.4745 21.943 49.9911 23.8914C49.5212 25.7554 49.4681 27.7 49.8358 29.5868C50.1948 31.371 50.931 33.0579 51.9949 34.5345C53.9117 37.2051 56.7707 39.0487 59.9944 39.6928L61.0766 39.8587C61.4347 39.8903 61.7928 39.8981 62.1298 39.9192C62.8089 39.9467 63.489 39.9149 64.1626 39.8244C66.4137 39.5263 68.5458 38.6379 70.3425 37.2492L70.5479 37.0912L70.3899 37.2993L70.3689 37.244L76.2328 38.6421Z" fill="#263238"/>
<path d="M59.6626 27.0303C59.6626 27.2386 59.6008 27.4422 59.4851 27.6155C59.3694 27.7887 59.2049 27.9237 59.0124 28.0034C58.8199 28.0831 58.6082 28.104 58.4039 28.0633C58.1996 28.0227 58.0119 27.9224 57.8646 27.7751C57.7173 27.6278 57.617 27.4401 57.5763 27.2358C57.5357 27.0315 57.5565 26.8197 57.6363 26.6272C57.716 26.4348 57.851 26.2703 58.0242 26.1546C58.1974 26.0388 58.401 25.9771 58.6093 25.9771C58.8887 25.9771 59.1566 26.088 59.3541 26.2855C59.5516 26.4831 59.6626 26.751 59.6626 27.0303Z" fill="#263238"/>
<path d="M63.865 27.0303C63.865 27.2386 63.8032 27.4422 63.6875 27.6155C63.5717 27.7887 63.4073 27.9237 63.2148 28.0034C63.0223 28.0831 62.8106 28.104 62.6063 28.0633C62.4019 28.0227 62.2143 27.9224 62.067 27.7751C61.9197 27.6278 61.8194 27.4401 61.7787 27.2358C61.7381 27.0315 61.7589 26.8197 61.8387 26.6272C61.9184 26.4348 62.0534 26.2703 62.2266 26.1546C62.3998 26.0388 62.6034 25.9771 62.8117 25.9771C63.0911 25.9771 63.359 26.088 63.5565 26.2855C63.754 26.4831 63.865 26.751 63.865 27.0303Z" fill="#263238"/>
<path d="M68.0596 26.5037C68.1643 26.684 68.2132 26.8914 68.2 27.0995C68.1867 27.3077 68.112 27.5072 67.9853 27.6728C67.8586 27.8384 67.6855 27.9627 67.4881 28.0299C67.2907 28.097 67.0777 28.1041 66.8763 28.0501C66.6748 27.9962 66.494 27.8836 66.3565 27.7267C66.2191 27.5699 66.1314 27.3757 66.1044 27.1689C66.0775 26.9621 66.1125 26.752 66.2051 26.5651C66.2977 26.3783 66.4437 26.2231 66.6245 26.1193C66.866 25.9807 67.1525 25.9433 67.4214 26.0154C67.6903 26.0874 67.9197 26.263 68.0596 26.5037Z" fill="#263238"/>
<path d="M128 109.581C128 109.621 101.232 109.65 68.2281 109.65C35.2246 109.65 8.45624 109.621 8.45624 109.581C8.45624 109.542 35.2167 109.513 68.2413 109.513C101.266 109.513 128 109.544 128 109.581Z" fill="#263238"/>
<path d="M94.1776 109.647C94.7954 108.707 95.6288 107.928 96.6084 107.374C97.588 106.821 98.6856 106.51 99.8098 106.466C103.657 106.335 105.579 109.647 105.579 109.647H94.1776Z" fill="#455A64"/>
<path d="M101.55 109.544C101.499 109.356 101.462 109.164 101.437 108.97C101.23 108.057 100.686 107.255 99.9125 106.727C99.7422 106.631 99.5778 106.526 99.4201 106.411C99.6189 106.441 99.8085 106.515 99.9757 106.627C100.395 106.872 100.755 107.207 101.028 107.609C101.302 108.011 101.482 108.469 101.556 108.949C101.597 109.145 101.595 109.348 101.55 109.544Z" fill="#263238"/>
<path d="M91.7972 109.507V109.481C91.7909 109.094 91.6325 108.724 91.356 108.453C91.0796 108.181 90.7074 108.03 90.32 108.03H57.5797C57.1879 108.03 56.8122 108.186 56.5352 108.463C56.2582 108.74 56.1025 109.116 56.1025 109.507H91.7972Z" fill="#455A64"/>
<path d="M29.1183 52.1423C29.1183 52.8321 29.645 93.951 29.645 93.951L60.1892 101.3H62.6986L61.0924 43.8979H58.7963L29.1183 52.1423Z" fill="#263238"/>
<path d="M35.5773 92.2422L26.1113 109.589H34.7637C33.2154 109.436 48.4559 109.589 48.4559 109.589L34.7637 105.958L39.0478 96.2287L38.6818 92.2422H35.5773Z" fill="#263238"/>
<path d="M35.7881 95.444L34.7638 63.1092L44.064 62.2192L45.2094 96.7421L41.889 96.9106L35.7881 95.444Z" fill="#263238"/>
<path d="M46.5101 98.0215C46.5101 98.0215 46.5101 97.9715 46.5101 97.8714C46.5101 97.7714 46.5101 97.6213 46.5101 97.429C46.5101 97.0341 46.5101 96.4574 46.5101 95.7123C46.5101 94.2087 46.497 92.0259 46.4891 89.2795C46.4891 83.7842 46.4759 76.0507 46.4654 67.0823L46.5312 67.1481H35.5379L35.6064 67.0797V68.57C35.6064 77.3173 35.6064 85.4562 35.5932 92.2392V92.2523C32.7441 97.4738 30.3822 101.808 28.7286 104.836C27.9018 106.347 27.2515 107.532 26.8065 108.343C26.5853 108.744 26.4141 109.049 26.2983 109.262C26.1824 109.476 26.1166 109.573 26.1166 109.573C26.1166 109.573 26.1719 109.462 26.2825 109.254C26.3931 109.046 26.5616 108.728 26.7749 108.325C27.2146 107.511 27.8544 106.321 28.6707 104.804L35.4905 92.197V92.226C35.4905 85.4431 35.4905 77.3041 35.4905 68.5569V66.998H46.597V67.0639C46.597 76.0323 46.5786 83.7658 46.5733 89.2611C46.5733 92.0048 46.5575 94.1903 46.5522 95.6938C46.5522 96.439 46.5522 97.0104 46.5522 97.4106C46.5522 97.6028 46.5522 97.7503 46.5522 97.853C46.5522 97.9557 46.5101 98.0215 46.5101 98.0215Z" fill="#455A64"/>
<path d="M39.0478 96.2286C39.0821 96.2417 37.7655 99.2883 36.1066 103.027C34.4478 106.766 33.0733 109.789 33.039 109.773C33.0048 109.758 34.3214 106.714 35.9802 102.972C37.6391 99.2303 39.0136 96.2128 39.0478 96.2286Z" fill="#455A64"/>
<path d="M60.1761 101.311C60.1761 101.311 60.1761 101.261 60.1761 101.163C60.1761 101.066 60.1761 100.916 60.1761 100.729C60.1761 100.342 60.1629 99.7808 60.155 99.0594C60.155 97.6111 60.1102 95.5152 60.0602 92.9242C59.9628 87.7422 59.7284 80.588 59.4414 72.686C59.1544 64.784 58.9359 57.6219 58.8621 52.4399C58.8226 49.8489 58.8042 47.7503 58.8121 46.3021C58.8121 45.5806 58.8121 45.0198 58.8121 44.6327C58.8121 44.4457 58.8121 44.3036 58.8121 44.1982C58.8121 44.0929 58.8121 44.0508 58.8121 44.0508C58.8121 44.0508 58.8121 44.1008 58.8121 44.1982C58.8121 44.2957 58.8121 44.4457 58.8121 44.6327C58.8121 45.0198 58.8121 45.5806 58.8332 46.3021C58.8332 47.7503 58.8753 49.8463 58.928 52.4373C59.0412 57.6193 59.2755 64.7814 59.5625 72.6807C59.8495 80.5801 60.0681 87.7396 60.1418 92.9215C60.1813 95.5125 60.1971 97.6111 60.1919 99.0594C60.1919 99.7808 60.1919 100.342 60.1919 100.729C60.1919 100.916 60.1919 101.061 60.1919 101.163C60.1919 101.266 60.1761 101.311 60.1761 101.311Z" fill="#455A64"/>
<path d="M44.8434 66.8428C44.8829 66.8428 44.9118 73.7205 44.9118 82.2018C44.9118 90.6831 44.8829 97.5608 44.8434 97.5608C44.8039 97.5608 44.7749 90.6857 44.7749 82.2018C44.7749 73.7179 44.8065 66.8428 44.8434 66.8428Z" fill="#455A64"/>
<path d="M28.389 106.882C28.3391 106.825 28.295 106.763 28.2573 106.698C28.2125 106.635 28.1625 106.558 28.1046 106.471C28.0349 106.368 27.9716 106.261 27.915 106.15C27.5289 105.454 27.2477 104.704 27.0803 103.925C26.8374 102.768 26.7823 101.579 26.917 100.405C27.0818 98.9665 27.4673 97.5624 28.0598 96.2417C28.3733 95.5598 28.7743 94.9216 29.2526 94.3432C29.3615 94.1998 29.4785 94.0627 29.6028 93.9325C29.7239 93.8008 29.8398 93.6691 29.9609 93.5428C30.2242 93.3031 30.4533 93.0583 30.714 92.8502C31.1944 92.4415 31.7059 92.0709 32.2438 91.7417C32.5072 91.5995 32.7468 91.4494 32.9943 91.3309C33.2418 91.2124 33.4761 91.086 33.7131 91.0018C34.4449 90.6883 35.2183 90.4825 36.0092 90.3909C36.223 90.3617 36.4386 90.3485 36.6543 90.3514C36.7297 90.3451 36.8054 90.3451 36.8808 90.3514C36.8068 90.3641 36.732 90.372 36.657 90.3751C36.4426 90.385 36.229 90.4069 36.0171 90.4409C35.2353 90.5521 34.4725 90.77 33.75 91.0887C33.5156 91.1756 33.2892 91.3072 33.0417 91.4205C32.7942 91.5337 32.5572 91.6838 32.3018 91.8365C31.772 92.1668 31.2685 92.5374 30.7956 92.945C30.5323 93.1504 30.3032 93.3953 30.0531 93.6323C29.9346 93.756 29.8187 93.8956 29.7002 94.0167C29.5791 94.1467 29.4649 94.2829 29.3579 94.4248C28.8872 94.9955 28.4925 95.6248 28.1836 96.297C27.5967 97.6039 27.2123 98.9926 27.0434 100.415C26.9036 101.577 26.9481 102.754 27.1751 103.901C27.3342 104.674 27.6001 105.421 27.965 106.121C28.0174 106.234 28.0772 106.343 28.1441 106.448L28.2836 106.682C28.3231 106.746 28.3583 106.813 28.389 106.882Z" fill="#455A64"/>
</svg>
