<svg width="357" height="277" viewBox="0 0 357 277" fill="none" xmlns="http://www.w3.org/2000/svg">
<circle cx="3.95714" cy="3.95714" r="3.95714" transform="matrix(1 0 0 -1 0 277)" fill="#C5A32B"/>
<circle cx="3.95714" cy="3.95714" r="3.95714" transform="matrix(1 0 0 -1 24.873 277)" fill="#C5A32B"/>
<circle cx="3.95714" cy="3.95714" r="3.95714" transform="matrix(1 0 0 -1 49.7471 277)" fill="#C5A32B"/>
<circle cx="3.95714" cy="3.95714" r="3.95714" transform="matrix(1 0 0 -1 74.6201 277)" fill="#C5A32B"/>
<circle cx="3.95714" cy="3.95714" r="3.95714" transform="matrix(1 0 0 -1 99.4941 277)" fill="#C5A32B"/>
<circle cx="3.95714" cy="3.95714" r="3.95714" transform="matrix(1 0 0 -1 124.367 277)" fill="#C5A32B"/>
<circle cx="3.95714" cy="3.95714" r="3.95714" transform="matrix(1 0 0 -1 149.241 277)" fill="#C5A32B"/>
<circle cx="3.95714" cy="3.95714" r="3.95714" transform="matrix(1 0 0 -1 174.114 277)" fill="#C5A32B"/>
<circle cx="3.95714" cy="3.95714" r="3.95714" transform="matrix(1 0 0 -1 198.987 277)" fill="#C5A32B"/>
<circle cx="3.95714" cy="3.95714" r="3.95714" transform="matrix(1 0 0 -1 223.861 277)" fill="#C5A32B"/>
<circle cx="3.95714" cy="3.95714" r="3.95714" transform="matrix(1 0 0 -1 248.734 277)" fill="#C5A32B"/>
<circle cx="3.95714" cy="3.95714" r="3.95714" transform="matrix(1 0 0 -1 273.608 277)" fill="#C5A32B"/>
<circle cx="3.95714" cy="3.95714" r="3.95714" transform="matrix(1 0 0 -1 298.481 277)" fill="#C5A32B"/>
<circle cx="3.95714" cy="3.95714" r="3.95714" transform="matrix(1 0 0 -1 323.355 277)" fill="#C5A32B"/>
<circle cx="3.95714" cy="3.95714" r="3.95714" transform="matrix(1 0 0 -1 348.229 277)" fill="#C5A32B"/>
<circle cx="3.95714" cy="3.95714" r="3.95714" transform="matrix(1 0 0 -1 0 257.78)" fill="#C5A32B"/>
<circle cx="3.95714" cy="3.95714" r="3.95714" transform="matrix(1 0 0 -1 24.873 257.78)" fill="#C5A32B"/>
<circle cx="3.95714" cy="3.95714" r="3.95714" transform="matrix(1 0 0 -1 49.7471 257.78)" fill="#C5A32B"/>
<circle cx="3.95714" cy="3.95714" r="3.95714" transform="matrix(1 0 0 -1 74.6201 257.78)" fill="#C5A32B"/>
<circle cx="3.95714" cy="3.95714" r="3.95714" transform="matrix(1 0 0 -1 99.4941 257.78)" fill="#C5A32B"/>
<circle cx="3.95714" cy="3.95714" r="3.95714" transform="matrix(1 0 0 -1 124.367 257.78)" fill="#C5A32B"/>
<circle cx="3.95714" cy="3.95714" r="3.95714" transform="matrix(1 0 0 -1 149.241 257.78)" fill="#C5A32B"/>
<circle cx="3.95714" cy="3.95714" r="3.95714" transform="matrix(1 0 0 -1 174.114 257.78)" fill="#C5A32B"/>
<circle cx="3.95714" cy="3.95714" r="3.95714" transform="matrix(1 0 0 -1 198.987 257.78)" fill="#C5A32B"/>
<circle cx="3.95714" cy="3.95714" r="3.95714" transform="matrix(1 0 0 -1 223.861 257.78)" fill="#C5A32B"/>
<circle cx="3.95714" cy="3.95714" r="3.95714" transform="matrix(1 0 0 -1 248.734 257.78)" fill="#C5A32B"/>
<circle cx="3.95714" cy="3.95714" r="3.95714" transform="matrix(1 0 0 -1 273.608 257.78)" fill="#C5A32B"/>
<circle cx="3.95714" cy="3.95714" r="3.95714" transform="matrix(1 0 0 -1 298.481 257.78)" fill="#C5A32B"/>
<circle cx="3.95714" cy="3.95714" r="3.95714" transform="matrix(1 0 0 -1 323.355 257.78)" fill="#C5A32B"/>
<circle cx="3.95714" cy="3.95714" r="3.95714" transform="matrix(1 0 0 -1 348.229 257.78)" fill="#C5A32B"/>
<circle cx="3.95714" cy="3.95714" r="3.95714" transform="matrix(1 0 0 -1 0 238.559)" fill="#C5A32B"/>
<circle cx="3.95714" cy="3.95714" r="3.95714" transform="matrix(1 0 0 -1 24.873 238.559)" fill="#C5A32B"/>
<circle cx="3.95714" cy="3.95714" r="3.95714" transform="matrix(1 0 0 -1 49.7471 238.559)" fill="#C5A32B"/>
<circle cx="3.95714" cy="3.95714" r="3.95714" transform="matrix(1 0 0 -1 74.6201 238.559)" fill="#C5A32B"/>
<circle cx="3.95714" cy="3.95714" r="3.95714" transform="matrix(1 0 0 -1 99.4941 238.559)" fill="#C5A32B"/>
<circle cx="3.95714" cy="3.95714" r="3.95714" transform="matrix(1 0 0 -1 124.367 238.559)" fill="#C5A32B"/>
<circle cx="3.95714" cy="3.95714" r="3.95714" transform="matrix(1 0 0 -1 149.241 238.559)" fill="#C5A32B"/>
<circle cx="3.95714" cy="3.95714" r="3.95714" transform="matrix(1 0 0 -1 174.114 238.559)" fill="#C5A32B"/>
<circle cx="3.95714" cy="3.95714" r="3.95714" transform="matrix(1 0 0 -1 198.987 238.559)" fill="#C5A32B"/>
<circle cx="3.95714" cy="3.95714" r="3.95714" transform="matrix(1 0 0 -1 223.861 238.559)" fill="#C5A32B"/>
<circle cx="3.95714" cy="3.95714" r="3.95714" transform="matrix(1 0 0 -1 248.734 238.559)" fill="#C5A32B"/>
<circle cx="3.95714" cy="3.95714" r="3.95714" transform="matrix(1 0 0 -1 273.608 238.559)" fill="#C5A32B"/>
<circle cx="3.95714" cy="3.95714" r="3.95714" transform="matrix(1 0 0 -1 298.481 238.559)" fill="#C5A32B"/>
<circle cx="3.95714" cy="3.95714" r="3.95714" transform="matrix(1 0 0 -1 323.355 238.559)" fill="#C5A32B"/>
<circle cx="3.95714" cy="3.95714" r="3.95714" transform="matrix(1 0 0 -1 348.229 238.559)" fill="#C5A32B"/>
<circle cx="3.95714" cy="3.95714" r="3.95714" transform="matrix(1 0 0 -1 0 219.339)" fill="#C5A32B"/>
<circle cx="3.95714" cy="3.95714" r="3.95714" transform="matrix(1 0 0 -1 24.873 219.339)" fill="#C5A32B"/>
<circle cx="3.95714" cy="3.95714" r="3.95714" transform="matrix(1 0 0 -1 49.7471 219.339)" fill="#C5A32B"/>
<circle cx="3.95714" cy="3.95714" r="3.95714" transform="matrix(1 0 0 -1 74.6201 219.339)" fill="#C5A32B"/>
<circle cx="3.95714" cy="3.95714" r="3.95714" transform="matrix(1 0 0 -1 99.4941 219.339)" fill="#C5A32B"/>
<circle cx="3.95714" cy="3.95714" r="3.95714" transform="matrix(1 0 0 -1 124.367 219.339)" fill="#C5A32B"/>
<circle cx="3.95714" cy="3.95714" r="3.95714" transform="matrix(1 0 0 -1 149.241 219.339)" fill="#C5A32B"/>
<circle cx="3.95714" cy="3.95714" r="3.95714" transform="matrix(1 0 0 -1 174.114 219.339)" fill="#C5A32B"/>
<circle cx="3.95714" cy="3.95714" r="3.95714" transform="matrix(1 0 0 -1 198.987 219.339)" fill="#C5A32B"/>
<circle cx="3.95714" cy="3.95714" r="3.95714" transform="matrix(1 0 0 -1 223.861 219.339)" fill="#C5A32B"/>
<circle cx="3.95714" cy="3.95714" r="3.95714" transform="matrix(1 0 0 -1 248.734 219.339)" fill="#C5A32B"/>
<circle cx="3.95714" cy="3.95714" r="3.95714" transform="matrix(1 0 0 -1 273.608 219.339)" fill="#C5A32B"/>
<circle cx="3.95714" cy="3.95714" r="3.95714" transform="matrix(1 0 0 -1 298.481 219.339)" fill="#C5A32B"/>
<circle cx="3.95714" cy="3.95714" r="3.95714" transform="matrix(1 0 0 -1 323.355 219.339)" fill="#C5A32B"/>
<circle cx="3.95714" cy="3.95714" r="3.95714" transform="matrix(1 0 0 -1 348.229 219.339)" fill="#C5A32B"/>
<circle cx="3.95714" cy="3.95714" r="3.95714" transform="matrix(1 0 0 -1 0 200.118)" fill="#C5A32B"/>
<circle cx="3.95714" cy="3.95714" r="3.95714" transform="matrix(1 0 0 -1 24.873 200.118)" fill="#C5A32B"/>
<circle cx="3.95714" cy="3.95714" r="3.95714" transform="matrix(1 0 0 -1 49.7471 200.118)" fill="#C5A32B"/>
<circle cx="3.95714" cy="3.95714" r="3.95714" transform="matrix(1 0 0 -1 74.6201 200.118)" fill="#C5A32B"/>
<circle cx="3.95714" cy="3.95714" r="3.95714" transform="matrix(1 0 0 -1 99.4941 200.118)" fill="#C5A32B"/>
<circle cx="3.95714" cy="3.95714" r="3.95714" transform="matrix(1 0 0 -1 124.367 200.118)" fill="#C5A32B"/>
<circle cx="3.95714" cy="3.95714" r="3.95714" transform="matrix(1 0 0 -1 149.241 200.118)" fill="#C5A32B"/>
<circle cx="3.95714" cy="3.95714" r="3.95714" transform="matrix(1 0 0 -1 174.114 200.118)" fill="#C5A32B"/>
<circle cx="3.95714" cy="3.95714" r="3.95714" transform="matrix(1 0 0 -1 198.987 200.118)" fill="#C5A32B"/>
<circle cx="3.95714" cy="3.95714" r="3.95714" transform="matrix(1 0 0 -1 223.861 200.118)" fill="#C5A32B"/>
<circle cx="3.95714" cy="3.95714" r="3.95714" transform="matrix(1 0 0 -1 248.734 200.118)" fill="#C5A32B"/>
<circle cx="3.95714" cy="3.95714" r="3.95714" transform="matrix(1 0 0 -1 273.608 200.118)" fill="#C5A32B"/>
<circle cx="3.95714" cy="3.95714" r="3.95714" transform="matrix(1 0 0 -1 298.481 200.118)" fill="#C5A32B"/>
<circle cx="3.95714" cy="3.95714" r="3.95714" transform="matrix(1 0 0 -1 323.355 200.118)" fill="#C5A32B"/>
<circle cx="3.95714" cy="3.95714" r="3.95714" transform="matrix(1 0 0 -1 348.229 200.118)" fill="#C5A32B"/>
<circle cx="3.95714" cy="3.95714" r="3.95714" transform="matrix(1 0 0 -1 0 180.898)" fill="#C5A32B"/>
<circle cx="3.95714" cy="3.95714" r="3.95714" transform="matrix(1 0 0 -1 24.873 180.898)" fill="#C5A32B"/>
<circle cx="3.95714" cy="3.95714" r="3.95714" transform="matrix(1 0 0 -1 49.7471 180.898)" fill="#C5A32B"/>
<circle cx="3.95714" cy="3.95714" r="3.95714" transform="matrix(1 0 0 -1 74.6201 180.898)" fill="#C5A32B"/>
<circle cx="3.95714" cy="3.95714" r="3.95714" transform="matrix(1 0 0 -1 99.4941 180.898)" fill="#C5A32B"/>
<circle cx="3.95714" cy="3.95714" r="3.95714" transform="matrix(1 0 0 -1 124.367 180.898)" fill="#C5A32B"/>
<circle cx="3.95714" cy="3.95714" r="3.95714" transform="matrix(1 0 0 -1 149.241 180.898)" fill="#C5A32B"/>
<circle cx="3.95714" cy="3.95714" r="3.95714" transform="matrix(1 0 0 -1 174.114 180.898)" fill="#C5A32B"/>
<circle cx="3.95714" cy="3.95714" r="3.95714" transform="matrix(1 0 0 -1 198.987 180.898)" fill="#C5A32B"/>
<circle cx="3.95714" cy="3.95714" r="3.95714" transform="matrix(1 0 0 -1 223.861 180.898)" fill="#C5A32B"/>
<circle cx="3.95714" cy="3.95714" r="3.95714" transform="matrix(1 0 0 -1 248.734 180.898)" fill="#C5A32B"/>
<circle cx="3.95714" cy="3.95714" r="3.95714" transform="matrix(1 0 0 -1 273.608 180.898)" fill="#C5A32B"/>
<circle cx="3.95714" cy="3.95714" r="3.95714" transform="matrix(1 0 0 -1 298.481 180.898)" fill="#C5A32B"/>
<circle cx="3.95714" cy="3.95714" r="3.95714" transform="matrix(1 0 0 -1 323.355 180.898)" fill="#C5A32B"/>
<circle cx="3.95714" cy="3.95714" r="3.95714" transform="matrix(1 0 0 -1 348.229 180.898)" fill="#C5A32B"/>
<circle cx="3.95714" cy="3.95714" r="3.95714" transform="matrix(1 0 0 -1 0 161.678)" fill="#C5A32B"/>
<circle cx="3.95714" cy="3.95714" r="3.95714" transform="matrix(1 0 0 -1 24.873 161.678)" fill="#C5A32B"/>
<circle cx="3.95714" cy="3.95714" r="3.95714" transform="matrix(1 0 0 -1 49.7471 161.678)" fill="#C5A32B"/>
<circle cx="3.95714" cy="3.95714" r="3.95714" transform="matrix(1 0 0 -1 74.6201 161.678)" fill="#C5A32B"/>
<circle cx="3.95714" cy="3.95714" r="3.95714" transform="matrix(1 0 0 -1 99.4941 161.678)" fill="#C5A32B"/>
<circle cx="3.95714" cy="3.95714" r="3.95714" transform="matrix(1 0 0 -1 124.367 161.678)" fill="#C5A32B"/>
<circle cx="3.95714" cy="3.95714" r="3.95714" transform="matrix(1 0 0 -1 149.241 161.678)" fill="#C5A32B"/>
<circle cx="3.95714" cy="3.95714" r="3.95714" transform="matrix(1 0 0 -1 174.114 161.678)" fill="#C5A32B"/>
<circle cx="3.95714" cy="3.95714" r="3.95714" transform="matrix(1 0 0 -1 198.987 161.678)" fill="#C5A32B"/>
<circle cx="3.95714" cy="3.95714" r="3.95714" transform="matrix(1 0 0 -1 223.861 161.678)" fill="#C5A32B"/>
<circle cx="3.95714" cy="3.95714" r="3.95714" transform="matrix(1 0 0 -1 248.734 161.678)" fill="#C5A32B"/>
<circle cx="3.95714" cy="3.95714" r="3.95714" transform="matrix(1 0 0 -1 273.608 161.678)" fill="#C5A32B"/>
<circle cx="3.95714" cy="3.95714" r="3.95714" transform="matrix(1 0 0 -1 298.481 161.678)" fill="#C5A32B"/>
<circle cx="3.95714" cy="3.95714" r="3.95714" transform="matrix(1 0 0 -1 323.355 161.678)" fill="#C5A32B"/>
<circle cx="3.95714" cy="3.95714" r="3.95714" transform="matrix(1 0 0 -1 348.229 161.678)" fill="#C5A32B"/>
<circle cx="3.95714" cy="3.95714" r="3.95714" transform="matrix(1 0 0 -1 0 142.457)" fill="#C5A32B"/>
<circle cx="3.95714" cy="3.95714" r="3.95714" transform="matrix(1 0 0 -1 24.873 142.457)" fill="#C5A32B"/>
<circle cx="3.95714" cy="3.95714" r="3.95714" transform="matrix(1 0 0 -1 49.7471 142.457)" fill="#C5A32B"/>
<circle cx="3.95714" cy="3.95714" r="3.95714" transform="matrix(1 0 0 -1 74.6201 142.457)" fill="#C5A32B"/>
<circle cx="3.95714" cy="3.95714" r="3.95714" transform="matrix(1 0 0 -1 99.4941 142.457)" fill="#C5A32B"/>
<circle cx="3.95714" cy="3.95714" r="3.95714" transform="matrix(1 0 0 -1 124.367 142.457)" fill="#C5A32B"/>
<circle cx="3.95714" cy="3.95714" r="3.95714" transform="matrix(1 0 0 -1 149.241 142.457)" fill="#C5A32B"/>
<circle cx="3.95714" cy="3.95714" r="3.95714" transform="matrix(1 0 0 -1 174.114 142.457)" fill="#C5A32B"/>
<circle cx="3.95714" cy="3.95714" r="3.95714" transform="matrix(1 0 0 -1 198.987 142.457)" fill="#C5A32B"/>
<circle cx="3.95714" cy="3.95714" r="3.95714" transform="matrix(1 0 0 -1 223.861 142.457)" fill="#C5A32B"/>
<circle cx="3.95714" cy="3.95714" r="3.95714" transform="matrix(1 0 0 -1 248.734 142.457)" fill="#C5A32B"/>
<circle cx="3.95714" cy="3.95714" r="3.95714" transform="matrix(1 0 0 -1 273.608 142.457)" fill="#C5A32B"/>
<circle cx="3.95714" cy="3.95714" r="3.95714" transform="matrix(1 0 0 -1 298.481 142.457)" fill="#C5A32B"/>
<circle cx="3.95714" cy="3.95714" r="3.95714" transform="matrix(1 0 0 -1 323.355 142.457)" fill="#C5A32B"/>
<circle cx="3.95714" cy="3.95714" r="3.95714" transform="matrix(1 0 0 -1 348.229 142.457)" fill="#C5A32B"/>
<circle cx="3.95714" cy="3.95714" r="3.95714" transform="matrix(1 0 0 -1 0 123.237)" fill="#C5A32B"/>
<circle cx="3.95714" cy="3.95714" r="3.95714" transform="matrix(1 0 0 -1 24.873 123.237)" fill="#C5A32B"/>
<circle cx="3.95714" cy="3.95714" r="3.95714" transform="matrix(1 0 0 -1 49.7471 123.237)" fill="#C5A32B"/>
<circle cx="3.95714" cy="3.95714" r="3.95714" transform="matrix(1 0 0 -1 74.6201 123.237)" fill="#C5A32B"/>
<circle cx="3.95714" cy="3.95714" r="3.95714" transform="matrix(1 0 0 -1 99.4941 123.237)" fill="#C5A32B"/>
<circle cx="3.95714" cy="3.95714" r="3.95714" transform="matrix(1 0 0 -1 124.367 123.237)" fill="#C5A32B"/>
<circle cx="3.95714" cy="3.95714" r="3.95714" transform="matrix(1 0 0 -1 149.241 123.237)" fill="#C5A32B"/>
<circle cx="3.95714" cy="3.95714" r="3.95714" transform="matrix(1 0 0 -1 174.114 123.237)" fill="#C5A32B"/>
<circle cx="3.95714" cy="3.95714" r="3.95714" transform="matrix(1 0 0 -1 198.987 123.237)" fill="#C5A32B"/>
<circle cx="3.95714" cy="3.95714" r="3.95714" transform="matrix(1 0 0 -1 223.861 123.237)" fill="#C5A32B"/>
<circle cx="3.95714" cy="3.95714" r="3.95714" transform="matrix(1 0 0 -1 248.734 123.237)" fill="#C5A32B"/>
<circle cx="3.95714" cy="3.95714" r="3.95714" transform="matrix(1 0 0 -1 273.608 123.237)" fill="#C5A32B"/>
<circle cx="3.95714" cy="3.95714" r="3.95714" transform="matrix(1 0 0 -1 298.481 123.237)" fill="#C5A32B"/>
<circle cx="3.95714" cy="3.95714" r="3.95714" transform="matrix(1 0 0 -1 323.355 123.237)" fill="#C5A32B"/>
<circle cx="3.95714" cy="3.95714" r="3.95714" transform="matrix(1 0 0 -1 348.229 123.237)" fill="#C5A32B"/>
<circle cx="3.95714" cy="3.95714" r="3.95714" transform="matrix(1 0 0 -1 0 104.016)" fill="#C5A32B"/>
<circle cx="3.95714" cy="3.95714" r="3.95714" transform="matrix(1 0 0 -1 24.873 104.016)" fill="#C5A32B"/>
<circle cx="3.95714" cy="3.95714" r="3.95714" transform="matrix(1 0 0 -1 49.7471 104.016)" fill="#C5A32B"/>
<circle cx="3.95714" cy="3.95714" r="3.95714" transform="matrix(1 0 0 -1 74.6201 104.016)" fill="#C5A32B"/>
<circle cx="3.95714" cy="3.95714" r="3.95714" transform="matrix(1 0 0 -1 99.4941 104.016)" fill="#C5A32B"/>
<circle cx="3.95714" cy="3.95714" r="3.95714" transform="matrix(1 0 0 -1 124.367 104.016)" fill="#C5A32B"/>
<circle cx="3.95714" cy="3.95714" r="3.95714" transform="matrix(1 0 0 -1 149.241 104.016)" fill="#C5A32B"/>
<circle cx="3.95714" cy="3.95714" r="3.95714" transform="matrix(1 0 0 -1 174.114 104.016)" fill="#C5A32B"/>
<circle cx="3.95714" cy="3.95714" r="3.95714" transform="matrix(1 0 0 -1 198.987 104.016)" fill="#C5A32B"/>
<circle cx="3.95714" cy="3.95714" r="3.95714" transform="matrix(1 0 0 -1 223.861 104.016)" fill="#C5A32B"/>
<circle cx="3.95714" cy="3.95714" r="3.95714" transform="matrix(1 0 0 -1 248.734 104.016)" fill="#C5A32B"/>
<circle cx="3.95714" cy="3.95714" r="3.95714" transform="matrix(1 0 0 -1 273.608 104.016)" fill="#C5A32B"/>
<circle cx="3.95714" cy="3.95714" r="3.95714" transform="matrix(1 0 0 -1 298.481 104.016)" fill="#C5A32B"/>
<circle cx="3.95714" cy="3.95714" r="3.95714" transform="matrix(1 0 0 -1 323.355 104.016)" fill="#C5A32B"/>
<circle cx="3.95714" cy="3.95714" r="3.95714" transform="matrix(1 0 0 -1 348.229 104.016)" fill="#C5A32B"/>
<circle cx="3.95714" cy="3.95714" r="3.95714" transform="matrix(1 0 0 -1 0 84.7959)" fill="#C5A32B"/>
<circle cx="3.95714" cy="3.95714" r="3.95714" transform="matrix(1 0 0 -1 24.873 84.7959)" fill="#C5A32B"/>
<circle cx="3.95714" cy="3.95714" r="3.95714" transform="matrix(1 0 0 -1 49.7471 84.7959)" fill="#C5A32B"/>
<circle cx="3.95714" cy="3.95714" r="3.95714" transform="matrix(1 0 0 -1 74.6201 84.7959)" fill="#C5A32B"/>
<circle cx="3.95714" cy="3.95714" r="3.95714" transform="matrix(1 0 0 -1 99.4941 84.7959)" fill="#C5A32B"/>
<circle cx="3.95714" cy="3.95714" r="3.95714" transform="matrix(1 0 0 -1 124.367 84.7959)" fill="#C5A32B"/>
<circle cx="3.95714" cy="3.95714" r="3.95714" transform="matrix(1 0 0 -1 149.241 84.7959)" fill="#C5A32B"/>
<circle cx="3.95714" cy="3.95714" r="3.95714" transform="matrix(1 0 0 -1 174.114 84.7959)" fill="#C5A32B"/>
<circle cx="3.95714" cy="3.95714" r="3.95714" transform="matrix(1 0 0 -1 198.987 84.7959)" fill="#C5A32B"/>
<circle cx="3.95714" cy="3.95714" r="3.95714" transform="matrix(1 0 0 -1 223.861 84.7959)" fill="#C5A32B"/>
<circle cx="3.95714" cy="3.95714" r="3.95714" transform="matrix(1 0 0 -1 248.734 84.7959)" fill="#C5A32B"/>
<circle cx="3.95714" cy="3.95714" r="3.95714" transform="matrix(1 0 0 -1 273.608 84.7959)" fill="#C5A32B"/>
<circle cx="3.95714" cy="3.95714" r="3.95714" transform="matrix(1 0 0 -1 298.481 84.7959)" fill="#C5A32B"/>
<circle cx="3.95714" cy="3.95714" r="3.95714" transform="matrix(1 0 0 -1 323.355 84.7959)" fill="#C5A32B"/>
<circle cx="3.95714" cy="3.95714" r="3.95714" transform="matrix(1 0 0 -1 348.229 84.7959)" fill="#C5A32B"/>
<circle cx="3.95714" cy="3.95714" r="3.95714" transform="matrix(1 0 0 -1 0 65.5755)" fill="#C5A32B"/>
<circle cx="3.95714" cy="3.95714" r="3.95714" transform="matrix(1 0 0 -1 24.873 65.5755)" fill="#C5A32B"/>
<circle cx="3.95714" cy="3.95714" r="3.95714" transform="matrix(1 0 0 -1 49.7471 65.5755)" fill="#C5A32B"/>
<circle cx="3.95714" cy="3.95714" r="3.95714" transform="matrix(1 0 0 -1 74.6201 65.5755)" fill="#C5A32B"/>
<circle cx="3.95714" cy="3.95714" r="3.95714" transform="matrix(1 0 0 -1 99.4941 65.5755)" fill="#C5A32B"/>
<circle cx="3.95714" cy="3.95714" r="3.95714" transform="matrix(1 0 0 -1 124.367 65.5755)" fill="#C5A32B"/>
<circle cx="3.95714" cy="3.95714" r="3.95714" transform="matrix(1 0 0 -1 149.241 65.5755)" fill="#C5A32B"/>
<circle cx="3.95714" cy="3.95714" r="3.95714" transform="matrix(1 0 0 -1 174.114 65.5755)" fill="#C5A32B"/>
<circle cx="3.95714" cy="3.95714" r="3.95714" transform="matrix(1 0 0 -1 198.987 65.5755)" fill="#C5A32B"/>
<circle cx="3.95714" cy="3.95714" r="3.95714" transform="matrix(1 0 0 -1 223.861 65.5755)" fill="#C5A32B"/>
<circle cx="3.95714" cy="3.95714" r="3.95714" transform="matrix(1 0 0 -1 248.734 65.5755)" fill="#C5A32B"/>
<circle cx="3.95714" cy="3.95714" r="3.95714" transform="matrix(1 0 0 -1 273.608 65.5755)" fill="#C5A32B"/>
<circle cx="3.95714" cy="3.95714" r="3.95714" transform="matrix(1 0 0 -1 298.481 65.5755)" fill="#C5A32B"/>
<circle cx="3.95714" cy="3.95714" r="3.95714" transform="matrix(1 0 0 -1 323.355 65.5755)" fill="#C5A32B"/>
<circle cx="3.95714" cy="3.95714" r="3.95714" transform="matrix(1 0 0 -1 348.229 65.5755)" fill="#C5A32B"/>
<circle cx="3.95714" cy="3.95714" r="3.95714" transform="matrix(1 0 0 -1 0 46.3551)" fill="#C5A32B"/>
<circle cx="3.95714" cy="3.95714" r="3.95714" transform="matrix(1 0 0 -1 24.873 46.3551)" fill="#C5A32B"/>
<circle cx="3.95714" cy="3.95714" r="3.95714" transform="matrix(1 0 0 -1 49.7471 46.3551)" fill="#C5A32B"/>
<circle cx="3.95714" cy="3.95714" r="3.95714" transform="matrix(1 0 0 -1 74.6201 46.3551)" fill="#C5A32B"/>
<circle cx="3.95714" cy="3.95714" r="3.95714" transform="matrix(1 0 0 -1 99.4941 46.3551)" fill="#C5A32B"/>
<circle cx="3.95714" cy="3.95714" r="3.95714" transform="matrix(1 0 0 -1 124.367 46.3551)" fill="#C5A32B"/>
<circle cx="3.95714" cy="3.95714" r="3.95714" transform="matrix(1 0 0 -1 149.241 46.3551)" fill="#C5A32B"/>
<circle cx="3.95714" cy="3.95714" r="3.95714" transform="matrix(1 0 0 -1 174.114 46.3551)" fill="#C5A32B"/>
<circle cx="3.95714" cy="3.95714" r="3.95714" transform="matrix(1 0 0 -1 198.987 46.3551)" fill="#C5A32B"/>
<circle cx="3.95714" cy="3.95714" r="3.95714" transform="matrix(1 0 0 -1 223.861 46.3551)" fill="#C5A32B"/>
<circle cx="3.95714" cy="3.95714" r="3.95714" transform="matrix(1 0 0 -1 248.734 46.3551)" fill="#C5A32B"/>
<circle cx="3.95714" cy="3.95714" r="3.95714" transform="matrix(1 0 0 -1 273.608 46.3551)" fill="#C5A32B"/>
<circle cx="3.95714" cy="3.95714" r="3.95714" transform="matrix(1 0 0 -1 298.481 46.3551)" fill="#C5A32B"/>
<circle cx="3.95714" cy="3.95714" r="3.95714" transform="matrix(1 0 0 -1 323.355 46.3551)" fill="#C5A32B"/>
<circle cx="3.95714" cy="3.95714" r="3.95714" transform="matrix(1 0 0 -1 348.229 46.3551)" fill="#C5A32B"/>
<circle cx="3.95714" cy="3.95714" r="3.95714" transform="matrix(1 0 0 -1 0 27.1347)" fill="#C5A32B"/>
<circle cx="3.95714" cy="3.95714" r="3.95714" transform="matrix(1 0 0 -1 24.873 27.1347)" fill="#C5A32B"/>
<circle cx="3.95714" cy="3.95714" r="3.95714" transform="matrix(1 0 0 -1 49.7471 27.1347)" fill="#C5A32B"/>
<circle cx="3.95714" cy="3.95714" r="3.95714" transform="matrix(1 0 0 -1 74.6201 27.1347)" fill="#C5A32B"/>
<circle cx="3.95714" cy="3.95714" r="3.95714" transform="matrix(1 0 0 -1 99.4941 27.1347)" fill="#C5A32B"/>
<circle cx="3.95714" cy="3.95714" r="3.95714" transform="matrix(1 0 0 -1 124.367 27.1347)" fill="#C5A32B"/>
<circle cx="3.95714" cy="3.95714" r="3.95714" transform="matrix(1 0 0 -1 149.241 27.1347)" fill="#C5A32B"/>
<circle cx="3.95714" cy="3.95714" r="3.95714" transform="matrix(1 0 0 -1 174.114 27.1347)" fill="#C5A32B"/>
<circle cx="3.95714" cy="3.95714" r="3.95714" transform="matrix(1 0 0 -1 198.987 27.1347)" fill="#C5A32B"/>
<circle cx="3.95714" cy="3.95714" r="3.95714" transform="matrix(1 0 0 -1 223.861 27.1347)" fill="#C5A32B"/>
<circle cx="3.95714" cy="3.95714" r="3.95714" transform="matrix(1 0 0 -1 248.734 27.1347)" fill="#C5A32B"/>
<circle cx="3.95714" cy="3.95714" r="3.95714" transform="matrix(1 0 0 -1 273.608 27.1347)" fill="#C5A32B"/>
<circle cx="3.95714" cy="3.95714" r="3.95714" transform="matrix(1 0 0 -1 298.481 27.1347)" fill="#C5A32B"/>
<circle cx="3.95714" cy="3.95714" r="3.95714" transform="matrix(1 0 0 -1 323.355 27.1347)" fill="#C5A32B"/>
<circle cx="3.95714" cy="3.95714" r="3.95714" transform="matrix(1 0 0 -1 348.229 27.1347)" fill="#C5A32B"/>
<circle cx="3.95714" cy="3.95714" r="3.95714" transform="matrix(1 0 0 -1 0 7.91428)" fill="#C5A32B"/>
<circle cx="3.95714" cy="3.95714" r="3.95714" transform="matrix(1 0 0 -1 24.873 7.91428)" fill="#C5A32B"/>
<circle cx="3.95714" cy="3.95714" r="3.95714" transform="matrix(1 0 0 -1 49.7471 7.91428)" fill="#C5A32B"/>
<circle cx="3.95714" cy="3.95714" r="3.95714" transform="matrix(1 0 0 -1 74.6201 7.91428)" fill="#C5A32B"/>
<circle cx="3.95714" cy="3.95714" r="3.95714" transform="matrix(1 0 0 -1 99.4941 7.91428)" fill="#C5A32B"/>
<circle cx="3.95714" cy="3.95714" r="3.95714" transform="matrix(1 0 0 -1 124.367 7.91428)" fill="#C5A32B"/>
<circle cx="3.95714" cy="3.95714" r="3.95714" transform="matrix(1 0 0 -1 149.241 7.91428)" fill="#C5A32B"/>
<circle cx="3.95714" cy="3.95714" r="3.95714" transform="matrix(1 0 0 -1 174.114 7.91428)" fill="#C5A32B"/>
<circle cx="3.95714" cy="3.95714" r="3.95714" transform="matrix(1 0 0 -1 198.987 7.91428)" fill="#C5A32B"/>
<circle cx="3.95714" cy="3.95714" r="3.95714" transform="matrix(1 0 0 -1 223.861 7.91428)" fill="#C5A32B"/>
<circle cx="3.95714" cy="3.95714" r="3.95714" transform="matrix(1 0 0 -1 248.734 7.91428)" fill="#C5A32B"/>
<circle cx="3.95714" cy="3.95714" r="3.95714" transform="matrix(1 0 0 -1 273.608 7.91428)" fill="#C5A32B"/>
<circle cx="3.95714" cy="3.95714" r="3.95714" transform="matrix(1 0 0 -1 298.481 7.91428)" fill="#C5A32B"/>
<circle cx="3.95714" cy="3.95714" r="3.95714" transform="matrix(1 0 0 -1 323.355 7.91428)" fill="#C5A32B"/>
<circle cx="3.95714" cy="3.95714" r="3.95714" transform="matrix(1 0 0 -1 348.229 7.91428)" fill="#C5A32B"/>
</svg>
