<svg width="104" height="81" viewBox="0 0 104 81" fill="none" xmlns="http://www.w3.org/2000/svg">
<circle cx="2.77397" cy="2.77397" r="2.77397" fill="#D9D9D9" fill-opacity="0.5"/>
<circle cx="2.77397" cy="21.637" r="2.77397" fill="#D9D9D9" fill-opacity="0.5"/>
<circle cx="2.77397" cy="40.5" r="2.77397" fill="#D9D9D9" fill-opacity="0.5"/>
<circle cx="2.77397" cy="59.363" r="2.77397" fill="#D9D9D9" fill-opacity="0.5"/>
<circle cx="2.77397" cy="78.226" r="2.77397" fill="#D9D9D9" fill-opacity="0.5"/>
<circle cx="27.1849" cy="2.77397" r="2.77397" fill="#D9D9D9" fill-opacity="0.5"/>
<circle cx="27.1849" cy="21.637" r="2.77397" fill="#D9D9D9" fill-opacity="0.5"/>
<circle cx="27.1849" cy="40.5" r="2.77397" fill="#D9D9D9" fill-opacity="0.5"/>
<circle cx="27.1849" cy="59.363" r="2.77397" fill="#D9D9D9" fill-opacity="0.5"/>
<circle cx="27.1849" cy="78.226" r="2.77397" fill="#D9D9D9" fill-opacity="0.5"/>
<circle cx="51.5959" cy="2.77397" r="2.77397" fill="#D9D9D9" fill-opacity="0.5"/>
<circle cx="51.5959" cy="21.637" r="2.77397" fill="#D9D9D9" fill-opacity="0.5"/>
<circle cx="51.5959" cy="40.5" r="2.77397" fill="#D9D9D9" fill-opacity="0.5"/>
<circle cx="51.5959" cy="59.363" r="2.77397" fill="#D9D9D9" fill-opacity="0.5"/>
<circle cx="51.5959" cy="78.226" r="2.77397" fill="#D9D9D9" fill-opacity="0.5"/>
<circle cx="76.0069" cy="2.77397" r="2.77397" fill="#D9D9D9" fill-opacity="0.5"/>
<circle cx="100.418" cy="2.77397" r="2.77397" fill="#D9D9D9" fill-opacity="0.5"/>
<circle cx="76.0069" cy="21.637" r="2.77397" fill="#D9D9D9" fill-opacity="0.5"/>
<circle cx="100.418" cy="21.637" r="2.77397" fill="#D9D9D9" fill-opacity="0.5"/>
<circle cx="76.0069" cy="40.5" r="2.77397" fill="#D9D9D9" fill-opacity="0.5"/>
<circle cx="100.418" cy="40.5" r="2.77397" fill="#D9D9D9" fill-opacity="0.5"/>
<circle cx="76.0069" cy="59.363" r="2.77397" fill="#D9D9D9" fill-opacity="0.5"/>
<circle cx="76.0069" cy="78.226" r="2.77397" fill="#D9D9D9" fill-opacity="0.5"/>
<circle cx="100.418" cy="59.363" r="2.77397" fill="#D9D9D9" fill-opacity="0.5"/>
<circle cx="100.418" cy="78.226" r="2.77397" fill="#D9D9D9" fill-opacity="0.5"/>
</svg>
