<svg xmlns="http://www.w3.org/2000/svg" width="266" height="258" fill="none"><path fill="#F5F5F5" d="M132.914 258c73.406 0 132.913-33.803 132.913-75.502 0-41.698-59.507-75.501-132.913-75.501C59.507 106.997 0 140.8 0 182.498 0 224.197 59.507 258 132.914 258Z"/><path fill="#E0E0E0" d="m104.998 132.497 33.977-18.799 41.323 23.86-33.971 18.8-41.329-23.861ZM211.641 190.105c18.991 0 34.386-8.746 34.386-19.534 0-10.788-15.395-19.534-34.386-19.534-18.99 0-34.385 8.746-34.385 19.534 0 10.788 15.395 19.534 34.385 19.534ZM162.664 219.654l-72.02-40.891-.752.438c-7.417-4.262-17.711-6.902-29.094-6.902-22.594 0-40.944 10.407-40.944 23.246 0 12.839 18.35 23.245 40.944 23.245.781 0 1.563 0 2.332-.041l48.285 27.661a11.546 11.546 0 0 0 11.4.047l39.838-22.416a2.511 2.511 0 0 0 .011-4.387Z"/><path fill="#C5A32B" d="M169.72 54.912c0-21.475-12.01-40.76-27.927-49.947-8.003-4.623-15.012-5.559-20.014-2.623l-13.425 7.695a12.86 12.86 0 0 0-.722.433l.148-.101-.219.13c-4.7 3.037-7.518 9.655-7.518 20.055 0 21.677 12.017 40.755 27.934 49.948 7.997 4.617 15.005 5.6 20.007 2.687l13.508-7.725c.154-.083.308-.171.462-.266l.237-.136c4.712-3.031 7.529-9.66 7.529-20.15Z"/><path fill="#fff" d="M146.78 82.573c11.411-5.98 12.244-26.89 1.861-46.701-10.384-19.812-28.052-31.024-39.464-25.043-11.411 5.981-12.244 26.89-1.861 46.702 10.384 19.811 28.052 31.023 39.464 25.042Z" opacity=".5"/><path fill="#C5A32B" d="M134.589 50.508c0-11.62-3.303-16.994-6.612-18.906-3.309-1.912-6.606-.343-6.606 11.247s3.303 16.994 6.606 18.906c3.303 1.912 6.612.373 6.612-11.247Z"/><path fill="#000" d="M134.589 50.508c0-11.62-3.303-16.994-6.612-18.906-3.309-1.912-6.606-.343-6.606 11.247s3.303 16.994 6.606 18.906c3.303 1.912 6.612.373 6.612-11.247Z" opacity=".3"/><path fill="#C5A32B" d="M247.08 156.483c0-21.505-12.016-40.755-27.939-49.948-7.997-4.617-15.012-5.558-20.007-2.622l-13.42 7.695c-.248.13-.491.272-.728.426l.148-.095-.219.125c-4.7 3.03-7.517 9.648-7.517 20.049 0 21.676 12.016 40.754 27.933 49.947 7.997 4.617 15.006 5.6 20.008 2.694l13.531-7.725.462-.267.237-.136c4.688-3.025 7.511-9.648 7.511-20.143Z"/><path fill="#fff" d="M224.129 184.153c11.412-5.981 12.245-26.89 1.861-46.701-10.383-19.812-28.052-31.024-39.463-25.043-11.412 5.981-12.245 26.89-1.861 46.702 10.383 19.811 28.052 31.023 39.463 25.042Z" opacity=".5"/><path fill="#C5A32B" d="M211.943 152.079c0-11.62-3.303-16.995-6.612-18.901-3.309-1.906-6.606-.349-6.606 11.247s3.303 17 6.606 18.906c3.303 1.907 6.612.373 6.612-11.252Z"/><path fill="#000" d="M211.943 152.079c0-11.62-3.303-16.995-6.612-18.901-3.309-1.906-6.606-.349-6.606 11.247s3.303 17 6.606 18.906c3.303 1.907 6.612.373 6.612-11.252Z" opacity=".3"/><path fill="#C5A32B" d="m203.52 42.34-13.81 7.908-71.796 79.953 25.388 14.656 13.804-7.914 71.796-79.953-25.382-14.65Z"/><path fill="#000" d="m215.092 64.904-71.79 79.953 13.804-7.914 71.796-79.953-13.81 7.914Z" opacity=".3"/><path fill="#fff" d="m189.71 50.248 25.382 14.656-71.79 79.953-25.388-14.656 71.796-79.953Z" opacity=".5"/><path fill="#455A64" d="m89.649 43.672 1.415 4.143c.199.597.57 1.122 1.065 1.51l3.155 2.367c1.184.865 1.628 2.776.787 3.238l-2.284 1.25a1.138 1.138 0 0 0-.409 1.183l.539 3.942c.195 1.45-1.013 1.776-2.054.54L89.039 58.5a1.835 1.835 0 0 0-1.314-.764l-2.83.083c-1.035.035-2.249-1.687-2.047-2.907l.538-3.32a2.7 2.7 0 0 0-.408-1.681l-2.285-3.89c-.84-1.432-.379-2.811.781-2.332l3.161 1.29a.781.781 0 0 0 1.066-.277l1.409-2.487c.52-.923 2-.059 2.539 1.457ZM235.461 72.789l1.415 4.143c.2.595.568 1.119 1.059 1.51l3.161 2.368c1.184.864 1.622 2.782.787 3.237l-2.29 1.255a1.126 1.126 0 0 0-.403 1.184l.539 3.942c.195 1.45-1.018 1.776-2.054.54l-2.824-3.351a1.848 1.848 0 0 0-1.32-.758l-2.823.083c-1.036 0-2.25-1.687-2.054-2.906l.544-3.321a2.698 2.698 0 0 0-.391-1.7l-2.284-3.894c-.841-1.427-.379-2.806.781-2.332l3.161 1.296a.786.786 0 0 0 1.065-.278l1.421-2.486c.491-.912 1.989-.048 2.51 1.468ZM222.095 87.558l.87 2.545c.125.368.353.693.657.935l1.953 1.456c.723.533 1.007 1.717.486 2.001l-1.397.775a.707.707 0 0 0-.255.752l.332 2.44c.124.893-.628 1.088-1.267.33l-1.776-2.071a1.12 1.12 0 0 0-.817-.468l-1.746.053c-.639 0-1.391-1.047-1.267-1.775l.332-2.054a1.704 1.704 0 0 0-.249-1.042l-1.415-2.404c-.52-.887-.236-1.74.486-1.444l1.953.8a.487.487 0 0 0 .657-.172l.876-1.54c.338-.591 1.261-.053 1.587.883ZM80.758 24.197l.87 2.545c.128.369.358.693.663.935l1.954 1.457c.716.532 1 1.716.485 2l-1.415.776a.7.7 0 0 0-.254.746l.337 2.438c.118.9-.627 1.095-1.273.332L80.38 33.36a1.141 1.141 0 0 0-.81-.474l-1.777.054c-.639 0-1.39-1.042-1.266-1.776l.331-2.054a1.616 1.616 0 0 0-.248-1.042l-1.415-2.41c-.521-.881-.231-1.734.485-1.438l1.953.8a.485.485 0 0 0 .658-.172l.876-1.545c.343-.58 1.272-.047 1.592.894Z"/><path fill="#263238" d="M73.986 105.251s-.793 34.675-6.452 43.916c-5.659 9.24-29.188 28.632-29.188 28.632l-3.996-5.369s12.644-23.34 18.427-26.211l4.523-41.158 16.686.19Z"/><path fill="#C5A32B" d="m30.047 190.164 3.101-1.332-1.343-2.557-1.758 3.889Z"/><path fill="#C5A32B" d="M28.443 179.196a7.018 7.018 0 0 0-.782 2.646l-.462 5.167 2.848 3.155 1.776-3.889-3.38-7.079Z"/><path fill="#000" d="m30.047 190.164 3.101-1.332-1.343-2.557-1.758 3.889Z" opacity=".5" style="mix-blend-mode:overlay"/><path fill="#000" d="M28.443 179.196a7.018 7.018 0 0 0-.782 2.646l-.462 5.167 2.848 3.155 1.776-3.889-3.38-7.079Z" opacity=".2" style="mix-blend-mode:overlay"/><path fill="#C5A32B" d="M38.091 165.959s1.054 5.884 6.352 6.47c0 0 .734.853-1.048 2.753-1.782 1.9-5.05 5.872-5.05 5.872s.338 6.192 2.741 8.53c1.184 1.184 2.433 2.367 3.369 3.35a1.65 1.65 0 0 1-.444 2.646 8.202 8.202 0 0 1-9.028-1.184l-.964-.846a5.37 5.37 0 0 1-1.776-3.463l-.415-3.8-3.25-4.736a2.226 2.226 0 0 1-.112-2.326c2.043-3.724 8.264-14.686 9.625-13.266Z"/><path fill="#37474F" d="M53.345 102.978s-10.761 11.187-6.854 24.725c3.907 13.537 12.65 32.13 12.65 32.13s-1.32 4.031 2.367 12.597c3.688 8.565 7.103 18.101 7.103 18.101s3.552 2.018 6.843-1.498l-9.37-70.718s7.15-5.014 6.215-13.337l-18.954-2Z"/><path fill="#C5A32B" d="m69.28 199.469 1.279 5.659 3.232 1.758-.124-4.126-4.387-3.291Z"/><path fill="#000" d="m69.28 199.469 1.279 5.659 3.232 1.758-.124-4.126-4.387-3.291Z" opacity=".2"/><path fill="#C5A32B" d="m73.79 206.886 1.629-1.071-1.752-3.055.124 4.126Z"/><path fill="#000" d="m73.79 206.886 1.629-1.071-1.752-3.055.124 4.126Z" opacity=".5"/><path fill="#C5A32B" d="M66.895 185.908s4.552 2.084 7.973-1.285l-.154-1.065s1.184-.349 1.587 1.776c.402 2.125 2.551 12.46 2.551 12.46s3.877 4.99 6.707 6.121c2.83 1.13 3.403 2.717 1.545 4.096l-.054.041a7.386 7.386 0 0 1-7.606.728l-2.196-1.047a4.271 4.271 0 0 1-1.983-1.983l-.266-.551a7.843 7.843 0 0 0-3.031-3.315l-1.622-.97a2.3 2.3 0 0 1-1.042-1.421l-2.96-12.383a1.045 1.045 0 0 1 .557-1.184l-.006-.018Z"/><path fill="#37474F" d="M70.358 146.337a1.097 1.097 0 0 1-1.063-.816 1.101 1.101 0 0 1 .512-1.238l35.285-20.41a1.104 1.104 0 0 1 1.531.387 1.107 1.107 0 0 1-.094 1.239c-.092.114-.206.21-.336.28l-35.261 20.41c-.175.099-.373.15-.574.148ZM72.062 177.414a1.088 1.088 0 0 1-.947-.551 1.102 1.102 0 0 1 .397-1.503l35.262-20.404a1.078 1.078 0 0 1 .833-.111 1.1 1.1 0 0 1 .806.916 1.098 1.098 0 0 1-.538 1.095l-35.262 20.422a1.09 1.09 0 0 1-.55.136ZM70.233 153.742a.536.536 0 0 1-.473-.272.539.539 0 0 1 .038-.611.556.556 0 0 1 .163-.141l35.516-20.552a.564.564 0 0 1 .424-.064.553.553 0 0 1 .127 1.017l-35.517 20.552a.588.588 0 0 1-.278.071ZM71.234 161.615a.556.556 0 0 1-.529-.406.55.55 0 0 1 .25-.618l35.517-20.552a.552.552 0 0 1 .739.209.554.554 0 0 1-.189.744l-35.516 20.552a.552.552 0 0 1-.272.071ZM71.234 169.523a.55.55 0 0 1-.278-1.024l35.516-20.552a.552.552 0 0 1 .739.209.554.554 0 0 1-.189.744l-35.516 20.552a.552.552 0 0 1-.272.071Z"/><path fill="#37474F" d="M103.482 158.975a.552.552 0 0 1-.55-.521l-1.776-31.331a.555.555 0 0 1 .518-.583.55.55 0 0 1 .583.518l1.776 31.337a.557.557 0 0 1-.521.592l-.03-.012ZM98.936 161.621a.551.551 0 0 1-.55-.515l-1.776-31.337a.556.556 0 0 1 .296-.57.557.557 0 0 1 .634.098.554.554 0 0 1 .165.412l1.776 31.332a.544.544 0 0 1-.515.592l-.03-.012ZM94.384 164.255a.545.545 0 0 1-.544-.521l-1.776-31.331a.544.544 0 0 1 .515-.592.542.542 0 0 1 .404.133.558.558 0 0 1 .188.382l1.776 31.337a.547.547 0 0 1-.306.536.566.566 0 0 1-.21.056h-.047ZM89.838 166.919a.55.55 0 0 1-.55-.515l-1.776-31.337a.552.552 0 0 1 .74-.594.558.558 0 0 1 .316.311.552.552 0 0 1 .04.223l1.775 31.332a.549.549 0 0 1-.521.591l-.024-.011ZM85.292 169.582a.553.553 0 0 1-.55-.52l-1.776-31.338a.546.546 0 0 1 .312-.526.54.54 0 0 1 .422-.023.54.54 0 0 1 .314.282.55.55 0 0 1 .053.208l1.776 31.337a.557.557 0 0 1-.521.592l-.03-.012ZM80.746 172.216a.546.546 0 0 1-.55-.52l-1.776-31.332a.553.553 0 0 1 .917-.445c.109.098.175.234.184.38l1.776 31.337a.556.556 0 0 1-.306.537.546.546 0 0 1-.21.055l-.035-.012ZM76.194 174.869a.556.556 0 0 1-.544-.521l-1.776-31.337a.556.556 0 0 1 .296-.57.556.556 0 0 1 .634.098.556.556 0 0 1 .165.412l1.776 31.338a.539.539 0 0 1-.515.591l-.036-.011Z"/><path fill="#C5A32B" d="M124.224 90.855 100.262 77.02v16.16l23.962 13.834 5.647-1.474v-6.719l-5.647-7.967Zm2.042 10.88a3.029 3.029 0 0 1-.964-1.021 3.031 3.031 0 0 1-.397-1.347c0-.87.592-1.22 1.361-.787a3.005 3.005 0 0 1 1.362 2.367c0 .847-.634 1.196-1.362.764v.024Z"/><path fill="#fff" d="M124.224 90.855 100.262 77.02v16.16l23.962 13.834 5.647-1.474v-6.719l-5.647-7.967Zm2.042 10.88a3.029 3.029 0 0 1-.964-1.021 3.031 3.031 0 0 1-.397-1.347c0-.87.592-1.22 1.361-.787a3.005 3.005 0 0 1 1.362 2.367c0 .847-.634 1.196-1.362.764v.024Z" opacity=".5"/><path fill="#C5A32B" d="M126.521 129.514a.59.59 0 0 1-.527-.43.593.593 0 0 1 .225-.641l4.327-2.664a9.703 9.703 0 0 0 4.599-8.216v-8.092a5.822 5.822 0 0 0-2.77-4.942l-5.973-3.676a.595.595 0 0 1-.336-.873.586.586 0 0 1 .437-.282.594.594 0 0 1 .491.172l6.014 3.676a6.984 6.984 0 0 1 3.321 5.919v8.092a10.868 10.868 0 0 1-5.15 9.199l-4.345 2.663a.581.581 0 0 1-.313.095Z"/><path fill="#000" d="M126.521 129.514a.59.59 0 0 1-.527-.43.593.593 0 0 1 .225-.641l4.327-2.664a9.703 9.703 0 0 0 4.599-8.216v-8.092a5.822 5.822 0 0 0-2.77-4.942l-5.973-3.676a.595.595 0 0 1-.336-.873.586.586 0 0 1 .437-.282.594.594 0 0 1 .491.172l6.014 3.676a6.984 6.984 0 0 1 3.321 5.919v8.092a10.868 10.868 0 0 1-5.15 9.199l-4.345 2.663a.581.581 0 0 1-.313.095Z" opacity=".9"/><path fill="#455A64" d="M118.707 201.458c0 2.539-1.776 3.552-3.978 2.297a8.791 8.791 0 0 1-3.984-6.896c0-2.54 1.776-3.552 3.984-2.297a8.796 8.796 0 0 1 3.978 6.896Z"/><path fill="#263238" d="M116.079 199.943c0 .864-.592 1.219-1.356.787a3.016 3.016 0 0 1-1.361-2.368c0-.87.592-1.219 1.361-.787a3.004 3.004 0 0 1 1.356 2.368Z"/><path fill="#263238" d="M120.518 200.411a8.8 8.8 0 0 0-3.983-6.902c-1.569-.906-2.919-.634-3.552.515a3.604 3.604 0 0 1 1.776.538 8.794 8.794 0 0 1 3.948 6.896c0 1.255-.438 2.137-1.142 2.557l1.734-.994c.746-.403 1.219-1.308 1.219-2.61Z"/><path fill="#C5A32B" d="M114.895 192.751c-2.77-1.604-5.014-.308-5.014 2.888l10.01 5.79c0-3.197-2.232-7.08-4.996-8.678Z"/><path fill="#C5A32B" d="M116.694 191.342c-2.036-1.184-3.782-.782-4.569.769.97-.12 1.951.106 2.77.639 2.764 1.599 5.014 5.482 5.014 8.678l1.775-1.403c.024-3.214-2.219-7.085-4.99-8.683Z"/><path fill="#000" d="M116.694 191.342c-2.036-1.184-3.782-.782-4.569.769.97-.12 1.951.106 2.77.639 2.764 1.599 5.014 5.482 5.014 8.678l1.775-1.403c.024-3.214-2.219-7.085-4.99-8.683Z" opacity=".5"/><path fill="#455A64" d="M147.984 218.376c0 2.539-1.776 3.551-3.983 2.296a8.782 8.782 0 0 1-3.984-6.896c0-2.539 1.776-3.551 3.984-2.296a8.799 8.799 0 0 1 3.983 6.896Z"/><path fill="#263238" d="M145.344 216.86c0 .865-.592 1.22-1.361.788a3.023 3.023 0 0 1-1.362-2.368c0-.87.592-1.22 1.362-.787.398.258.729.608.965 1.02.237.411.373.873.396 1.347Z"/><path fill="#263238" d="M149.796 217.329a8.821 8.821 0 0 0-3.978-6.902c-1.569-.906-2.924-.634-3.552.515a3.604 3.604 0 0 1 1.776.538 8.81 8.81 0 0 1 3.984 6.896c0 1.255-.438 2.137-1.143 2.557l1.729-.994c.71-.403 1.184-1.308 1.184-2.61Z"/><path fill="#C5A32B" d="M144.16 209.668c-2.77-1.604-5.013-.307-5.013 2.889l10.027 5.789c.012-3.184-2.232-7.079-5.014-8.678Z"/><path fill="#C5A32B" d="M145.972 208.26c-2.031-1.184-3.783-.782-4.564.769a4.099 4.099 0 0 1 2.764.639c2.77 1.599 5.014 5.482 5.014 8.678l1.776-1.403c.023-3.202-2.22-7.109-4.99-8.683Z"/><path fill="#000" d="M145.972 208.26c-2.031-1.184-3.783-.782-4.564.769a4.099 4.099 0 0 1 2.764.639c2.77 1.599 5.014 5.482 5.014 8.678l1.776-1.403c.023-3.202-2.22-7.109-4.99-8.683Z" opacity=".5"/><path fill="#455A64" d="M112.823 238.756c0 2.54-1.776 3.552-3.978 2.297a8.791 8.791 0 0 1-3.983-6.896c0-2.54 1.775-3.552 3.983-2.297a8.795 8.795 0 0 1 3.978 6.896Z"/><path fill="#263238" d="M110.201 237.24c0 .871-.592 1.22-1.356.788a3.016 3.016 0 0 1-1.361-2.368c0-.87.592-1.219 1.361-.787a3.03 3.03 0 0 1 1.356 2.367Z"/><path fill="#263238" d="M114.64 237.709a8.783 8.783 0 0 0-3.983-6.897c-1.569-.905-2.919-.639-3.552.51a3.604 3.604 0 0 1 1.776.538 8.805 8.805 0 0 1 3.978 6.896c0 1.255-.438 2.137-1.143 2.563l1.735-1c.716-.403 1.189-1.308 1.189-2.61Z"/><path fill="#C5A32B" d="M109.017 230.049c-2.77-1.599-5.014-.302-5.014 2.894l10.028 5.789c0-3.202-2.244-7.085-5.014-8.683Z"/><path fill="#C5A32B" d="M110.817 228.64c-2.037-1.184-3.783-.781-4.57.776a4.068 4.068 0 0 1 2.77.633c2.77 1.598 5.014 5.481 5.014 8.684l1.776-1.409c.023-3.22-2.22-7.086-4.99-8.684Z"/><path fill="#000" d="M110.817 228.64c-2.037-1.184-3.783-.781-4.57.776a4.068 4.068 0 0 1 2.77.633c2.77 1.598 5.014 5.481 5.014 8.684l1.776-1.409c.023-3.22-2.22-7.086-4.99-8.684Z" opacity=".5"/><path fill="#263238" d="M149.577 217.571a1.099 1.099 0 0 1-1.012-1.531c.095-.223.261-.41.473-.529a1.661 1.661 0 0 0 .844-1.444 1.663 1.663 0 0 0-.844-1.445l-37.079-20.806a7.964 7.964 0 0 1-4.072-6.512l-4.014-72.074a5.981 5.981 0 0 0-.873-2.782 5.983 5.983 0 0 0-2.087-2.036l-2.592-1.516a2.31 2.31 0 0 0-2.28 0l-2.177 1.214a1.102 1.102 0 0 1-1.072-1.918l2.172-1.184a4.47 4.47 0 0 1 2.238-.574 4.47 4.47 0 0 1 2.226.616l2.592 1.515a8.132 8.132 0 0 1 4.032 6.588l4.013 72.057a5.774 5.774 0 0 0 2.96 4.735l37.078 20.807a3.842 3.842 0 0 1 1.971 3.362 3.852 3.852 0 0 1-1.971 3.362 1.107 1.107 0 0 1-.526.095Z"/><path fill="#C5A32B" d="M118.565 195.912a1.66 1.66 0 0 1-.805-.214l-6.671-3.741a1.645 1.645 0 0 1 .357-3.024 1.646 1.646 0 0 1 1.253.148l6.671 3.741a1.653 1.653 0 0 1 .201 2.743 1.659 1.659 0 0 1-1.006.347Z"/><path fill="#253239" d="M121.466 196.989a1.115 1.115 0 0 1-.539-.142l-2.326-1.309a1.098 1.098 0 0 1 .265-1.97c.266-.085.554-.067.806.052l2.332 1.309a1.097 1.097 0 0 1 .524 1.237 1.096 1.096 0 0 1-1.062.823Z"/><path fill="#C5A32B" d="M148.452 212.681a1.59 1.59 0 0 1-.805-.213l-6.671-3.741a1.647 1.647 0 1 1 1.61-2.877l6.677 3.747a1.65 1.65 0 0 1 .201 2.746c-.29.222-.646.341-1.012.338Z"/><path fill="#455A64" d="M149.577 217.571a1.099 1.099 0 0 1-1.012-1.531c.095-.224.261-.41.473-.529a1.661 1.661 0 0 0 .844-1.444 1.663 1.663 0 0 0-.844-1.445 1.099 1.099 0 0 1 1.077-1.918 3.852 3.852 0 0 1 0 6.725c-.164.092-.35.141-.538.142ZM82.375 224.414c1.554-.897 1.554-3.808 0-6.5-1.555-2.692-4.075-4.148-5.63-3.25-1.554.897-1.554 3.807 0 6.5 1.555 2.692 4.076 4.147 5.63 3.25Z"/><path fill="#263238" d="M80.924 220.323c0 .871-.592 1.22-1.362.788a3.014 3.014 0 0 1-1.356-2.368c0-.87.593-1.219 1.356-.787a3.015 3.015 0 0 1 1.362 2.367Z"/><path fill="#263238" d="M85.363 220.791a8.806 8.806 0 0 0-3.983-6.897c-1.569-.905-2.924-.639-3.552.51.629.02 1.241.206 1.776.538a8.796 8.796 0 0 1 3.984 6.896c0 1.255-.438 2.137-1.143 2.563l1.729-1c.716-.403 1.19-1.308 1.19-2.61Z"/><path fill="#C5A32B" d="M79.734 213.131c-2.764-1.598-5.008-.301-5.008 2.895l10.022 5.789c0-3.202-2.244-7.085-5.014-8.684Z"/><path fill="#C5A32B" d="M81.533 211.723c-2.03-1.184-3.776-.782-4.563.775a4.051 4.051 0 0 1 2.764.633c2.77 1.599 5.014 5.482 5.014 8.684l1.775-1.409c.024-3.196-2.22-7.085-4.99-8.683Z"/><path fill="#000" d="M81.533 211.723c-2.03-1.184-3.776-.782-4.563.775a4.051 4.051 0 0 1 2.764.633c2.77 1.599 5.014 5.482 5.014 8.684l1.775-1.409c.024-3.196-2.22-7.085-4.99-8.683Z" opacity=".5"/><path fill="#455A64" d="M118.115 233.731a11.16 11.16 0 0 1-5.446-1.409l-36.463-20.463a7.961 7.961 0 0 1-4.073-6.512l-4.013-72.056a5.956 5.956 0 0 0-2.96-4.813l-2.687-1.604a2.134 2.134 0 0 1-.76-2.936c.192-.324.466-.592.796-.775l30.307-16.989a1.103 1.103 0 0 1 1.562.385 1.106 1.106 0 0 1-.133 1.263 1.09 1.09 0 0 1-.358.27l-30.189 16.941 2.61 1.527a8.163 8.163 0 0 1 4.032 6.595l3.972 72.05a5.773 5.773 0 0 0 2.96 4.736l36.469 20.463a8.987 8.987 0 0 0 8.731 0l26.566-14.893a1.099 1.099 0 0 1 1.677.816 1.093 1.093 0 0 1-.253.828 1.1 1.1 0 0 1-.347.274l-26.572 14.899a11.107 11.107 0 0 1-5.428 1.403Z"/><path fill="#C5A32B" d="M83.41 216.292a1.613 1.613 0 0 1-.811-.213l-6.671-3.741a1.653 1.653 0 0 1 1.616-2.877l6.67 3.747a1.649 1.649 0 0 1 .794 1.854 1.645 1.645 0 0 1-1.598 1.23ZM113.297 233.061a1.641 1.641 0 0 1-.805-.207l-6.677-3.747a1.654 1.654 0 0 1-.616-2.261 1.654 1.654 0 0 1 2.261-.616l6.642 3.73a1.645 1.645 0 0 1-.805 3.084v.017Z"/><path fill="#455A64" d="M118.115 233.742a11.096 11.096 0 0 1-4.143-.799 1.09 1.09 0 0 1-.642-.582 1.095 1.095 0 0 1-.021-.867 1.1 1.1 0 0 1 1.479-.593 8.875 8.875 0 0 0 3.321.645 1.092 1.092 0 0 1 .83.292 1.092 1.092 0 0 1 .352.806 1.092 1.092 0 0 1-.736 1.039 1.09 1.09 0 0 1-.446.059h.006Z"/><path fill="#C5A32B" d="M80.314 212.883a1.652 1.652 0 0 1-1.65-1.64 1.648 1.648 0 0 1 .218-.823l1.219-2.154a1.652 1.652 0 1 1 2.87 1.627l-1.225 2.155a1.645 1.645 0 0 1-1.432.835Z"/><path fill="#455A64" d="M81.936 209.473c-.19 0-.376-.051-.539-.148a1.096 1.096 0 0 1-.414-1.498l5.446-9.601a4.623 4.623 0 0 1 4.019-2.338h2.705a4.078 4.078 0 0 0 4.073-4.073 1.098 1.098 0 0 1 1.098-1.181 1.108 1.108 0 0 1 .806.351 1.101 1.101 0 0 1 .292.83 6.273 6.273 0 0 1-6.269 6.269h-2.705a2.427 2.427 0 0 0-2.107 1.225l-5.446 9.602a1.092 1.092 0 0 1-.96.562ZM69.624 141.679a1.102 1.102 0 0 1-.556-2.049l35.516-20.552a1.095 1.095 0 0 1 1.217.078 1.09 1.09 0 0 1 .421.727 1.103 1.103 0 0 1-.537 1.096l-35.517 20.552a1.096 1.096 0 0 1-.544.148ZM86.31 217.369c-.188 0-.374-.049-.538-.142l-2.333-1.308a1.093 1.093 0 0 1-.55-1.088 1.09 1.09 0 0 1 .412-.731 1.102 1.102 0 0 1 .809-.226c.143.017.281.063.407.133l2.332 1.303a1.098 1.098 0 0 1 .524 1.237 1.102 1.102 0 0 1-1.063.822Z"/><path fill="#263238" d="M111.604 158.927a.55.55 0 0 1-.551-.55v-29.84a.548.548 0 0 1 .548-.607.559.559 0 0 1 .409.182.56.56 0 0 1 .138.425v29.852a.546.546 0 0 1-.544.538ZM116.085 161.503a.547.547 0 0 1-.389-.162.547.547 0 0 1-.162-.389v-29.845a.55.55 0 0 1 1.071-.228c.024.073.032.151.024.228v29.851a.552.552 0 0 1-.544.545ZM120.572 164.06a.548.548 0 0 1-.551-.551v-29.851c0-.146.058-.286.161-.39a.554.554 0 0 1 .779 0 .554.554 0 0 1 .161.39v29.851a.55.55 0 0 1-.55.551ZM125.059 166.623a.544.544 0 0 1-.39-.161.566.566 0 0 1-.161-.39v-29.851a.55.55 0 1 1 1.101 0v29.851a.55.55 0 0 1-.55.551ZM129.545 169.18a.55.55 0 0 1-.55-.551v-29.827a.55.55 0 1 1 1.101 0v29.851a.548.548 0 0 1-.551.527ZM134.032 171.743a.55.55 0 0 1-.55-.551v-29.851a.55.55 0 1 1 1.101 0v29.851a.554.554 0 0 1-.161.39.554.554 0 0 1-.39.161ZM138.519 174.318a.55.55 0 0 1-.55-.551v-29.869a.55.55 0 1 1 1.101 0v29.828a.56.56 0 0 1-.146.416.541.541 0 0 1-.405.176ZM143.006 176.863a.55.55 0 0 1-.55-.55v-29.852a.55.55 0 1 1 1.101 0v29.852a.55.55 0 0 1-.551.55ZM147.493 179.42a.55.55 0 0 1-.551-.55v-29.851a.551.551 0 0 1 1.101 0v29.851a.55.55 0 0 1-.55.55ZM151.98 182.013a.548.548 0 0 1-.509-.34.563.563 0 0 1-.042-.211v-29.881a.55.55 0 0 1 1.101 0v29.84a.543.543 0 0 1-.145.416.55.55 0 0 1-.405.176ZM156.467 184.541a.55.55 0 0 1-.551-.551v-29.851c0-.146.058-.286.162-.389a.547.547 0 0 1 .778 0 .55.55 0 0 1 .161.389v29.851a.547.547 0 0 1-.339.51.529.529 0 0 1-.211.041ZM160.954 187.104a.555.555 0 0 1-.545-.551v-29.851a.551.551 0 0 1 1.071-.228c.024.074.032.151.024.228v29.851a.55.55 0 0 1-.55.551ZM165.47 187.104a.551.551 0 0 1-.544-.551v-27.294a.545.545 0 0 1 .138-.425.545.545 0 0 1 .633-.135.545.545 0 0 1 .3.333c.023.073.032.15.024.227v27.294a.551.551 0 0 1-.551.551ZM169.933 183.256a.54.54 0 0 1-.508-.335.54.54 0 0 1-.042-.21v-20.889a.551.551 0 1 1 1.095 0v20.889a.534.534 0 0 1-.16.385.534.534 0 0 1-.385.16ZM174.42 178.793a.55.55 0 0 1-.55-.55v-13.864a.55.55 0 1 1 1.101 0v13.864a.55.55 0 0 1-.551.55ZM178.907 174.75a.55.55 0 0 1-.55-.551v-7.257a.55.55 0 1 1 1.101 0v7.257a.55.55 0 0 1-.551.551Z"/><path fill="#263238" d="M178.931 175.259a.484.484 0 0 1-.272-.077l-73.022-41.832a.546.546 0 0 1-.312-.556.543.543 0 0 1 .423-.478.55.55 0 0 1 .434.081l73.021 41.832a.55.55 0 0 1 .002.955.54.54 0 0 1-.274.075ZM173.757 179.764a.59.59 0 0 1-.272-.072l-67.001-38.387a.546.546 0 0 1-.208-.728.565.565 0 0 1 .333-.259.538.538 0 0 1 .419.052l66.996 38.387a.541.541 0 0 1 .068.916.542.542 0 0 1-.341.108l.006-.017ZM168.963 184.493a.524.524 0 0 1-.273-.077l-61.774-35.392a.535.535 0 0 1-.26-.333.55.55 0 0 1 .053-.418.556.556 0 0 1 .751-.202l61.781 35.392a.56.56 0 0 1 .201.752.545.545 0 0 1-.479.278Z"/><path fill="#263238" d="M164.103 189.448a1.086 1.086 0 0 1-.551-.148l-56.032-32.101a1.101 1.101 0 1 1 1.095-1.912l55.334 31.704 18.279-16.817-76.04-43.566a1.105 1.105 0 0 1-.352-1.47 1.102 1.102 0 0 1 1.447-.436l77.342 44.289a1.118 1.118 0 0 1 .545.834 1.102 1.102 0 0 1-.349.93l-19.978 18.409a1.106 1.106 0 0 1-.74.284Z"/><path fill="#37474F" d="M76.088 178.544a.545.545 0 0 1-.474-.272.545.545 0 0 1 .201-.752l34.161-19.859a.552.552 0 1 1 .551.953L76.39 178.461a.584.584 0 0 1-.302.083ZM80.598 181.107a.545.545 0 0 1-.473-.272.539.539 0 0 1-.058-.418.544.544 0 0 1 .259-.334l34.161-19.859a.55.55 0 1 1 .55.947l-34.16 19.859a.526.526 0 0 1-.279.077ZM85.091 183.664a.55.55 0 0 1-.278-1.024l34.161-19.859a.55.55 0 0 1 .55.953l-34.16 19.859a.577.577 0 0 1-.273.071ZM89.578 186.228a.596.596 0 0 1-.48-.273.556.556 0 0 1 .202-.751l34.143-19.86a.55.55 0 1 1 .55.947L89.85 186.157a.52.52 0 0 1-.272.071ZM94.065 188.785a.556.556 0 0 1-.529-.406.55.55 0 0 1 .25-.618l34.161-19.86a.551.551 0 1 1 .557.953l-34.167 19.86a.552.552 0 0 1-.272.071ZM98.581 191.348a.596.596 0 0 1-.48-.272.557.557 0 0 1 .202-.752l34.161-19.86a.549.549 0 0 1 .857.388.56.56 0 0 1-.125.421.54.54 0 0 1-.176.138l-34.166 19.86a.504.504 0 0 1-.273.077ZM103.039 193.905a.535.535 0 0 1-.474-.272.554.554 0 0 1 .195-.752l34.161-19.86a.54.54 0 0 1 .418-.057.538.538 0 0 1 .334.259.55.55 0 0 1-.196.752l-34.16 19.877a.558.558 0 0 1-.278.053ZM107.525 196.468a.54.54 0 0 1-.332-.114.544.544 0 0 1-.196-.292.549.549 0 0 1 .25-.618l34.161-19.859a.55.55 0 0 1 .556.947l-34.16 19.859a.529.529 0 0 1-.279.077ZM112.012 199.025a.539.539 0 0 1-.473-.272.55.55 0 0 1 .195-.752l34.167-19.859a.54.54 0 0 1 .751.201.552.552 0 0 1-.201.752l-34.161 19.859a.586.586 0 0 1-.278.071ZM116.499 201.588a.545.545 0 0 1-.529-.406.555.555 0 0 1 .251-.618l34.167-19.859a.545.545 0 0 1 .804.612.56.56 0 0 1-.254.335l-34.161 19.859a.525.525 0 0 1-.278.077ZM120.986 204.146a.547.547 0 0 1-.272-1.025l34.16-19.859a.544.544 0 0 1 .424-.065.545.545 0 0 1 .341.259.541.541 0 0 1 .053.425.558.558 0 0 1-.267.334l-34.161 19.859a.587.587 0 0 1-.278.072ZM125.473 206.709a.555.555 0 0 1-.474-.272.553.553 0 0 1 .053-.61.558.558 0 0 1 .166-.136l34.161-19.86a.546.546 0 0 1 .437-.092.544.544 0 0 1 .433.478.528.528 0 0 1-.023.227.541.541 0 0 1-.296.334l-34.179 19.854a.534.534 0 0 1-.278.077Z"/><path fill="#C5A32B" d="m112.19 192.786-27.312-15.763v-37.44l27.312 15.769v37.434ZM112.19 192.786v-37.434l27.306-15.769v37.44l-27.306 15.763Z"/><path fill="#000" d="m112.19 192.786-27.312-15.763v-37.44l27.312 15.769v37.434Z" opacity=".5"/><path fill="#000" d="M112.19 192.786v-37.434l27.306-15.769v37.44l-27.306 15.763Z" opacity=".7"/><path fill="#C5A32B" d="m112.19 153.825-29.431-16.989 29.431-16.994 29.425 16.994-29.425 16.989Z"/><path fill="#C5A32B" d="m95.556 129.443 29.432 16.995 3.829-2.214-29.425-16.989-3.835 2.208Z"/><path fill="#fff" d="m95.556 129.443 29.432 16.995 3.829-2.214-29.425-16.989-3.835 2.208Z" opacity=".8"/><path fill="#C5A32B" d="m128.817 129.443-29.425 16.995-3.835-2.214 29.431-16.989 3.829 2.208Z"/><path fill="#fff" d="m128.817 129.443-29.425 16.995-3.835-2.214 29.431-16.989 3.829 2.208Z" opacity=".8"/><path fill="#C5A32B" d="m112.19 159.703-29.431-16.995v-5.872l29.431 16.989v5.878ZM112.19 159.703v-5.878l29.425-16.989v5.878l-29.425 16.989Z"/><path fill="#000" d="m112.19 159.703-29.431-16.995v-5.872l29.431 16.989v5.878Z" opacity=".3"/><path fill="#000" d="M112.19 159.703v-5.878l29.425-16.989v5.878l-29.425 16.989Z" opacity=".5"/><path fill="#C5A32B" d="m99.392 185.422-3.835-2.196v-39.002l3.835 2.213v38.985ZM124.987 185.422l3.83-2.196v-39.002l-3.83 2.213v38.985Z"/><path fill="#C5A32B" d="M126.231 152.262a2.626 2.626 0 0 1-1.184 2.066c-.657.385-1.184.071-1.184-.686a2.657 2.657 0 0 1 1.184-2.072c.651-.379 1.184-.071 1.184.692ZM138.655 145.088a2.639 2.639 0 0 1-1.183 2.066c-.663.379-1.184.071-1.184-.687a2.645 2.645 0 0 1 1.184-2.072c.651-.378 1.183-.071 1.183.693Z"/><path fill="#C5A32B" d="M125.035 153.263a.594.594 0 0 1-.592-.592v-8.24a9.96 9.96 0 0 1 4.806-8.494l2.913-1.776a3.862 3.862 0 0 1 5.86 3.315v8.003a.59.59 0 0 1-1.011.418.59.59 0 0 1-.173-.418v-7.974a2.703 2.703 0 0 0-1.375-2.362 2.71 2.71 0 0 0-2.733.036l-2.912 1.746a8.807 8.807 0 0 0-4.256 7.506v8.258a.596.596 0 0 1-.527.574Z"/><path fill="#000" d="M125.035 153.263a.594.594 0 0 1-.592-.592v-8.24a9.96 9.96 0 0 1 4.806-8.494l2.913-1.776a3.862 3.862 0 0 1 5.86 3.315v8.003a.59.59 0 0 1-1.011.418.59.59 0 0 1-.173-.418v-7.974a2.703 2.703 0 0 0-1.375-2.362 2.71 2.71 0 0 0-2.733.036l-2.912 1.746a8.807 8.807 0 0 0-4.256 7.506v8.258a.596.596 0 0 1-.527.574Z" opacity=".9"/><path fill="#C5A32B" d="m143.811 138.121 14.165 8.867v40.145l-14.165-8.867v-40.145ZM115.759 194.461v-40.145l28.052-16.195v40.145l-28.052 16.195Z"/><path fill="#000" d="M115.759 194.461v-40.145l28.052-16.195v40.145l-28.052 16.195Z" opacity=".3"/><path fill="#C5A32B" d="m117.79 182.605 3.918-22.955a14.37 14.37 0 0 1 6.967-10.004l14.698-8.476a5.852 5.852 0 0 1 5.498-.19 5.85 5.85 0 0 1 3.233 4.451l3.895 27.644a14.664 14.664 0 0 1-12.01 16.491l-16.403 2.842a8.504 8.504 0 0 1-7.431-2.37 8.483 8.483 0 0 1-2.086-3.429 8.477 8.477 0 0 1-.279-4.004Z"/><path fill="#fff" d="m117.79 182.605 3.918-22.955a14.37 14.37 0 0 1 6.967-10.004l14.698-8.476a5.852 5.852 0 0 1 5.498-.19 5.85 5.85 0 0 1 3.233 4.451l3.895 27.644a14.664 14.664 0 0 1-12.01 16.491l-16.403 2.842a8.504 8.504 0 0 1-7.431-2.37 8.483 8.483 0 0 1-2.086-3.429 8.477 8.477 0 0 1-.279-4.004Z" opacity=".8"/><path fill="#C5A32B" d="M129.93 203.329v-40.145l28.046-16.196v40.145l-28.046 16.196Z"/><path fill="#000" d="M129.93 203.329v-40.145l28.046-16.196v40.145l-28.046 16.196Z" opacity=".5"/><path fill="#C5A32B" d="m115.759 154.316 14.171 8.868v40.145l-14.171-8.867v-40.146Z"/><path fill="#000" d="M122.845 191.721v-32.965l7.085 4.428v40.145l-7.085-11.608Z" opacity=".3"/><path fill="#C5A32B" d="M138.934 161.757a2.638 2.638 0 0 1-1.184 2.072c-.657.379-1.184.071-1.184-.693a2.634 2.634 0 0 1 1.184-2.066c.651-.367 1.184-.071 1.184.687ZM151.364 154.583a2.626 2.626 0 0 1-1.184 2.066c-.663.384-1.183.077-1.183-.687a2.628 2.628 0 0 1 1.183-2.066c.646-.385 1.184-.071 1.184.687Z"/><path fill="#C5A32B" d="M137.738 162.757a.593.593 0 0 1-.592-.592v-8.234a9.957 9.957 0 0 1 4.812-8.5l2.913-1.746a3.867 3.867 0 0 1 3.893-.049 3.863 3.863 0 0 1 1.961 3.364v8.009a.583.583 0 0 1-.108.508.593.593 0 0 1-.933 0 .59.59 0 0 1-.107-.508V147a2.714 2.714 0 0 0-1.38-2.361 2.714 2.714 0 0 0-2.734.035l-2.913 1.746a8.805 8.805 0 0 0-4.25 7.511v8.252a.586.586 0 0 1-.169.397.585.585 0 0 1-.393.177Z"/><path fill="#000" d="M137.738 162.757a.593.593 0 0 1-.592-.592v-8.234a9.957 9.957 0 0 1 4.812-8.5l2.913-1.746a3.867 3.867 0 0 1 3.893-.049 3.863 3.863 0 0 1 1.961 3.364v8.009a.583.583 0 0 1-.108.508.593.593 0 0 1-.933 0 .59.59 0 0 1-.107-.508V147a2.714 2.714 0 0 0-1.38-2.361 2.714 2.714 0 0 0-2.734.035l-2.913 1.746a8.805 8.805 0 0 0-4.25 7.511v8.252a.586.586 0 0 1-.169.397.585.585 0 0 1-.393.177Z" opacity=".9"/><path fill="#37474F" d="M147.647 191.093a1.1 1.1 0 0 1-.533-2.065l36.434-20.038a1.101 1.101 0 0 1 1.059 1.924l-36.433 20.037a1.052 1.052 0 0 1-.527.142ZM127.669 209.497a1.09 1.09 0 0 1-.959-.592 1.095 1.095 0 0 1 .432-1.492l36.428-20.055a1.098 1.098 0 0 1 1.474.447 1.105 1.105 0 0 1-.414 1.483l-36.452 20.072a1.083 1.083 0 0 1-.509.137Z"/><path fill="#37474F" d="M154.661 194.29a.543.543 0 0 1-.402-.178.548.548 0 0 1 .029-.775l19.978-18.427a.55.55 0 0 1 .776.029.554.554 0 0 1-.03.782l-19.978 18.403a.52.52 0 0 1-.373.166ZM137.199 203.844a.536.536 0 0 1-.402-.178.539.539 0 0 1-.098-.602.558.558 0 0 1 .127-.173l19.978-18.409a.552.552 0 0 1 .746.811l-19.978 18.409a.556.556 0 0 1-.373.142ZM145.711 199.037a.536.536 0 0 1-.402-.177.549.549 0 0 1 .029-.776l19.978-18.409a.55.55 0 0 1 .6-.093.54.54 0 0 1 .316.518.552.552 0 0 1-.176.38l-19.972 18.409a.533.533 0 0 1-.373.148Z"/><path fill="#455A64" d="M127.669 209.497a1.123 1.123 0 0 1-.544-.142l-56.033-32.078a1.095 1.095 0 0 1-.409-1.497 1.1 1.1 0 0 1 1.498-.409l55.334 31.705 18.285-16.847-76.04-43.567a1.095 1.095 0 0 1-.409-1.497 1.099 1.099 0 0 1 1.498-.409l77.343 44.313a1.096 1.096 0 0 1 .555.836 1.094 1.094 0 0 1-.354.94l-19.978 18.409a1.08 1.08 0 0 1-.746.243Z"/><path fill="#455A64" d="M75.56 179.095a.54.54 0 0 1-.504-.34.55.55 0 0 1-.04-.211v-29.851a.553.553 0 0 1 .548-.608.557.557 0 0 1 .523.38.553.553 0 0 1 .024.228v29.851a.546.546 0 0 1-.55.551ZM80.054 181.658a.544.544 0 0 1-.39-.161.55.55 0 0 1-.16-.389v-29.875a.553.553 0 0 1 .547-.608.54.54 0 0 1 .409.182.551.551 0 0 1 .138.426v29.851a.546.546 0 0 1-.33.528.547.547 0 0 1-.214.046ZM84.54 184.215a.548.548 0 0 1-.51-.339.542.542 0 0 1-.04-.211v-29.852a.55.55 0 1 1 1.101 0v29.852a.55.55 0 0 1-.55.55ZM89.027 186.778a.551.551 0 0 1-.55-.55v-29.852a.55.55 0 1 1 1.1 0v29.852a.55.55 0 0 1-.55.55ZM93.514 189.335a.551.551 0 0 1-.55-.55v-29.858a.55.55 0 1 1 1.1 0v29.852a.546.546 0 0 1-.338.514.551.551 0 0 1-.212.042ZM97.99 191.898a.551.551 0 0 1-.551-.55v-29.852a.55.55 0 1 1 1.1 0v29.852a.55.55 0 0 1-.55.55ZM102.488 194.444a.55.55 0 0 1-.55-.551v-29.839a.55.55 0 1 1 1.101 0v29.851a.55.55 0 0 1-.551.539ZM106.975 197.019a.547.547 0 0 1-.389-.162.547.547 0 0 1-.162-.389v-29.845a.551.551 0 0 1 1.101 0v29.851a.55.55 0 0 1-.55.545ZM111.462 199.576a.55.55 0 0 1-.551-.551v-29.851a.55.55 0 0 1 1.101 0v29.851a.55.55 0 0 1-.55.551ZM115.949 202.139a.554.554 0 0 1-.39-.161.554.554 0 0 1-.161-.39v-29.851a.55.55 0 1 1 1.101 0v29.851a.55.55 0 0 1-.55.551ZM120.435 204.696a.55.55 0 0 1-.55-.551v-29.827a.55.55 0 1 1 1.101 0v29.851a.548.548 0 0 1-.551.527ZM124.922 207.259a.547.547 0 0 1-.544-.55v-29.852a.546.546 0 0 1 .324-.56.55.55 0 0 1 .747.333c.024.073.032.151.024.227v29.852a.55.55 0 0 1-.551.55ZM129.409 207.259a.547.547 0 0 1-.544-.55v-27.294a.55.55 0 0 1 1.071-.228c.024.073.032.151.024.228v27.294a.55.55 0 0 1-.551.55ZM133.902 203.412a.56.56 0 0 1-.389-.158.531.531 0 0 1-.161-.387v-20.889a.55.55 0 1 1 1.095 0v20.889a.544.544 0 0 1-.545.545ZM138.389 198.948a.55.55 0 0 1-.55-.55v-13.863a.551.551 0 1 1 1.095 0v13.863a.55.55 0 0 1-.545.55ZM142.876 194.906a.547.547 0 0 1-.389-.162.547.547 0 0 1-.162-.389v-7.257c0-.146.058-.286.162-.389a.547.547 0 0 1 .778 0 .55.55 0 0 1 .161.389v7.257a.55.55 0 0 1-.55.551Z"/><path fill="#455A64" d="M142.9 195.415a.506.506 0 0 1-.273-.077l-73.021-41.833a.545.545 0 0 1-.313-.556.55.55 0 0 1 .857-.397l73.022 41.833a.552.552 0 0 1-.272 1.03ZM137.726 199.919a.59.59 0 0 1-.272-.071l-67.002-38.387a.55.55 0 0 1 .545-.953l67.001 38.387a.547.547 0 0 1 .269.62.548.548 0 0 1-.541.404ZM132.914 204.649a.533.533 0 0 1-.273-.077L70.885 169.18a.536.536 0 0 1-.26-.33.543.543 0 0 1 .386-.673.554.554 0 0 1 .418.05l61.781 35.392a.55.55 0 0 1-.279 1.03h-.017Z"/><path fill="#C5A32B" d="M66.196 124.003a1.648 1.648 0 0 1-1.514-2.296 1.65 1.65 0 0 1 .71-.794l27.146-15.218a1.648 1.648 0 0 1 2.182.666 1.651 1.651 0 0 1-.566 2.21L67 123.79a1.658 1.658 0 0 1-.805.213Z"/><path fill="#455A64" d="M63.065 125.222a1.096 1.096 0 0 1-1.063-.822 1.101 1.101 0 0 1 .524-1.237l2.682-1.504a1.104 1.104 0 0 1 1.562.385 1.106 1.106 0 0 1-.133 1.263c-.1.114-.221.205-.358.27l-2.675 1.503c-.165.093-.35.142-.539.142Z"/><path fill="#FFA8A7" d="M100.73 106.192c-.722-1.521-1.776-3.942-3.256-4.736l-7.63-4.682-16.29-10.98-9.512 4.504c4.984 5.428 21.114 11.247 21.114 11.247.177.489.399.961.663 1.409h-.047c.112.254 3.776 8.471 4.99 8.346.532-.047.627-.763.592-1.551l-.657-3.178c.81.236 1.55.379 2.09.521.804.213 1.597 1.775 2.018 2.486a1.575 1.575 0 0 0 .984.741 1.583 1.583 0 0 0 1.218-.191l3.184-1.965a1.507 1.507 0 0 0 .705-1.373 1.406 1.406 0 0 0-.166-.598Z"/><path fill="#263238" d="m50.25 56.747-6.21 26.839a7.57 7.57 0 0 0 .633 5.126 7.53 7.53 0 0 0 10.525 3.048l13.982-8.257V56.747H50.25Z"/><path fill="#FFA8A7" d="m53.002 77.92 14.207-5.794a6.826 6.826 0 0 1 9.435 6.298v7.517l-21.505 6.707-2.137-14.727Z"/><path fill="#C5A32B" d="M66.155 72.884s4.493 2.805 5.102 7.464c0 0-2.438 3.9-10.18 3.676 0 0-1.777-6.192-4.82-7.423l-3.255 1.32-.243 15.556 2.214 3.173a2.58 2.58 0 0 1 .196 2.64l-1.841 3.688s3.32 5.706 11.998 5.706a13.323 13.323 0 0 0 8.643-3.433l-.25-9.856s10.993-7.423-4.912-23.524l-2.652 1.013Z"/><path fill="#263238" d="M54.186 50.976s-.823-3.131-1.38-3.078c-.556.053-.49 2.8-.49 2.8s-2.605-.231-2.333.515c.273.746 3.31 1.515 3.31 1.515l.893-1.752Z"/><path fill="#263238" d="M50.137 61.85c1.184 8.843 8.636 8.843 8.636 8.843l15.622-6.872a5.807 5.807 0 0 0 1.539-3.404c.14-.97.14-1.954 0-2.924v-.03c-.504-3.717-3.28-7.695-9.341-8.944a20.004 20.004 0 0 0-4.031-.385c-.652-.002-1.304.03-1.954.095-4.735.462-8.008 2.664-9.577 6.08a11.094 11.094 0 0 0-.782 2.414 15.319 15.319 0 0 0-.112 5.127Z"/><path fill="#FFA8A7" d="M60.532 78.974a3.605 3.605 0 0 0 5.818-2.84v-11.42h-7.576V75.37a4.576 4.576 0 0 0 1.758 3.604Z"/><path fill="#F28F8F" d="M66.35 74.695a13.255 13.255 0 0 1-7.576-7.204v-2.776h7.576v9.98Z"/><path fill="#FFA8A7" d="M64.71 50.792c2.878 0 8.98 1.605 9.69 9.116.711 7.512 0 13.349-3.859 13.91-3.86.563-12.88-2.248-14.088-11.98-1.207-9.731 5.458-11.046 8.258-11.046Z"/><path fill="#F28F8F" d="M69.233 63.093v4.433l2.599-.799-2.599-3.634Z"/><path fill="#263238" d="M65.433 63.856a.906.906 0 1 0 1.811.012.906.906 0 0 0-1.811-.012ZM71.382 63.23a.906.906 0 1 0 1.811 0 .906.906 0 0 0-1.811 0ZM73.388 61.347l-1.775-1.048s.674-.704 1.35-.284a1.236 1.236 0 0 1 .425 1.332Z"/><path fill="#F28F8F" d="M70.458 69.32a3.86 3.86 0 0 1-2.433-.651s-.165 1.278.906 1.527a1.397 1.397 0 0 0 1.527-.876Z"/><path fill="#263238" d="M71.997 53.35s-1.083 10.376-15.195 10.702c0 0-4.262-10.312 4.144-13.662 8.405-3.35 11.051 2.96 11.051 2.96Z"/><path fill="#FFA8A7" d="M59.164 64.425c.906 1.574.675 3.48-.592 4.143-.81.42-3.214-.485-4.143-2.06-.93-1.574-.397-2.918.834-3.628 1.232-.71 2.995-.024 3.901 1.545Z"/><path fill="#F28F8F" d="m55.092 88.333-2.315 5.144a4.44 4.44 0 0 0 1.859-.396l1.024-4.558a.302.302 0 0 0-.568-.19Z"/><path fill="#FFA8A7" d="M77.23 121.15a8.222 8.222 0 0 0-3.12-3.806l-1.337-.876s3.658.84 3.705-.391c.048-1.231-8.678-4.433-8.678-4.433L50.344 98.402s1.231-2.013 2.688-4.943c2.492-.136 3.948-2.16 4.77-4.143a9.572 9.572 0 0 0-1.9-10.365 6.08 6.08 0 0 0-.544-.51 4.296 4.296 0 0 0-1.338-.94l-1.184.48a12.602 12.602 0 0 0-6.659 6.244c-2.237 4.676-5.44 11.839-5.92 15.704-.745 6.002 21.725 15.521 21.725 15.521 1.361 4.735 5.463 6.47 7.263 7.068a3.108 3.108 0 0 1 1.811 1.556 1.578 1.578 0 0 0 2.16.693l3.31-1.776a1.5 1.5 0 0 0 .704-1.841Z"/><path fill="#F28F8F" d="m54.636 93.08 1.024-4.557a.298.298 0 0 0-.26-.361 66.543 66.543 0 0 1-2.368 5.327 4.397 4.397 0 0 0 1.604-.408Z"/></svg>