<svg width="367" height="244" fill="none" xmlns="http://www.w3.org/2000/svg"><path d="M317.164 59.703S263.311 4.54 193.326.28C123.341-3.98 82.53 41.233 63.191 68.196 43.85 95.16-4.4 140.083 1.29 181.22c5.69 41.136 61.475 72.348 141.389 58.636 79.915-13.712 103.084-18.914 139.494-8.509 36.41 10.406 83.697-5.203 84.64-64.31.943-59.108-49.65-107.333-49.65-107.333Z" fill="#C5A32B"/><path opacity=".7" d="M317.164 59.703S263.311 4.54 193.326.28C123.341-3.98 82.53 41.233 63.191 68.196 43.85 95.16-4.4 140.083 1.29 181.22c5.69 41.136 61.475 72.348 141.389 58.636 79.915-13.712 103.084-18.914 139.494-8.509 36.41 10.406 83.697-5.203 84.64-64.31.943-59.108-49.65-107.333-49.65-107.333Z" fill="#fff"/><path d="M338.971 218.614h25.155M20.22 218.614h312.982M8.264 218.614h7.425" stroke="#263238" stroke-linecap="round" stroke-linejoin="round"/><path d="M328.366 158.459a3.35 3.35 0 0 0 4.04-2.458l2.138-8.797a3.35 3.35 0 0 0-2.458-4.04 3.342 3.342 0 0 0-4.034 2.458l-2.143 8.786a3.337 3.337 0 0 0 2.457 4.051Z" fill="#fff" stroke="#263238" stroke-linecap="round" stroke-linejoin="round"/><path d="M331.772 168.733a1.974 1.974 0 0 0 1.705-.312 1.992 1.992 0 0 0 .81-1.532l.885-11.05a2.915 2.915 0 0 0-2.127-2.976 1.98 1.98 0 0 0-2.287.988c-.14.266-.218.561-.228.861l-.891 11.045a2.916 2.916 0 0 0 2.133 2.976Z" fill="#fff" stroke="#263238" stroke-linecap="round" stroke-linejoin="round"/><path d="m308.152 156.514 11.165-2.321a45.53 45.53 0 0 1 11.669 1.279l7.503 1.823a3.09 3.09 0 0 0 3.223-1.176c.239-.327.412-.699.508-1.093l1.572-6.465a3.092 3.092 0 0 0-2.274-3.731l-6.078-1.477a45.29 45.29 0 0 1-13.026-5.429l-7.933-7.487-6.329 26.077Z" fill="#fff" stroke="#263238" stroke-linecap="round" stroke-linejoin="round"/><path d="M331.248 142.106c1.383.482 2.782.901 4.191 1.247l6.068 1.477a3.097 3.097 0 0 1 1.909 1.395c.426.7.557 1.54.365 2.336l-1.572 6.466a3.074 3.074 0 0 1-1.395 1.907 3.084 3.084 0 0 1-2.336.361l-7.503-1.823a41.815 41.815 0 0 0-2.84-.597l3.113-12.769Z" fill="#263238" stroke="#263238" stroke-linecap="round" stroke-linejoin="round"/><path d="m306.665 159.713.463.113a2.479 2.479 0 0 0 2.994-1.822l6.538-26.86a2.478 2.478 0 0 0-1.822-2.994l-.463-.113a2.478 2.478 0 0 0-2.994 1.822l-6.538 26.86a2.478 2.478 0 0 0 1.822 2.994Z" fill="#C5A32B" stroke="#263238" stroke-linecap="round" stroke-linejoin="round"/><path d="m302.498 132.612 2.62 4.134M298.281 149.95l4.223-2.468M302.891 142.158l-5.129-1.247" stroke="#263238" stroke-width="2" stroke-linecap="round" stroke-linejoin="round"/><path d="m329.676 164.494-1.797 1.53a1.35 1.35 0 0 0-.449 1.216 1.327 1.327 0 0 0 .999 1.09l5.675 1.383.356-5.187-4.784-.032Z" fill="#263238" stroke="#263238" stroke-linecap="round" stroke-linejoin="round"/><path d="M338.861 148.907a.78.78 0 0 1 1.425-.217.785.785 0 0 1-.036.865.78.78 0 0 1-1.3-.053.762.762 0 0 1-.089-.595Z" fill="#C5A32B"/><path d="M305.522 182.576v-6.554h1.923a1.9 1.9 0 0 1 .958.214c.239.15.422.372.524.634.123.321.182.663.173 1.006.017.362-.057.722-.215 1.048a1.277 1.277 0 0 1-.613.566 2.16 2.16 0 0 1-.922.178h-.649v2.908h-1.179Zm1.194-3.746h.456c.18.012.36-.021.524-.094a.496.496 0 0 0 .252-.299c.052-.179.074-.364.068-.55a2.486 2.486 0 0 0-.053-.577.493.493 0 0 0-.225-.33 1.102 1.102 0 0 0-.524-.104h-.456l-.042 1.954ZM309.766 182.577v-6.555h1.571c.38-.01.759.043 1.122.157.284.088.529.274.691.524.179.319.263.683.241 1.048.002.238-.023.475-.073.707a1.38 1.38 0 0 1-.246.524 1.114 1.114 0 0 1-.482.341l.911 3.222h-1.221l-.791-2.997h-.524v2.997l-1.199.032Zm1.199-3.747h.367c.19.01.38-.024.556-.099a.602.602 0 0 0 .293-.325c.067-.183.098-.377.089-.571a1.26 1.26 0 0 0-.178-.739.825.825 0 0 0-.692-.246h-.435v1.98ZM316.022 182.665a2.051 2.051 0 0 1-1.106-.257 1.42 1.42 0 0 1-.592-.744 3.435 3.435 0 0 1-.178-1.147v-2.447a3.3 3.3 0 0 1 .178-1.132c.109-.301.318-.557.592-.723a2.59 2.59 0 0 1 2.222 0c.273.168.482.422.592.723.13.363.192.747.183 1.132v2.457c.008.386-.054.769-.183 1.132-.11.307-.318.568-.592.744-.341.19-.727.28-1.116.262Zm0-.88a.624.624 0 0 0 .44-.131.64.64 0 0 0 .189-.351c.032-.162.048-.327.047-.493v-3.012a2.395 2.395 0 0 0-.047-.493.628.628 0 0 0-.189-.346.815.815 0 0 0-.87 0 .636.636 0 0 0-.194.346 2.328 2.328 0 0 0-.047.493v3.012c-.001.166.015.331.047.493.019.136.086.26.189.351a.62.62 0 0 0 .435.131ZM318.772 182.576l.116-6.539h1.236l.928 4.527.969-4.527h1.194l.121 6.539h-.885l-.1-4.548-.927 4.548h-.718l-.949-4.563-.083 4.563h-.902ZM326.082 182.665a2.051 2.051 0 0 1-1.106-.257 1.42 1.42 0 0 1-.587-.744 3.313 3.313 0 0 1-.178-1.147v-2.447c-.01-.385.05-.769.178-1.132.107-.301.314-.557.587-.723a2.09 2.09 0 0 1 1.106-.251c.39-.021.777.066 1.121.251.272.168.478.423.587.723.13.363.192.747.183 1.132v2.457c.008.386-.054.769-.183 1.132a1.465 1.465 0 0 1-.587.744c-.342.19-.73.281-1.121.262Zm0-.88a.624.624 0 0 0 .44-.131.64.64 0 0 0 .189-.351c.036-.162.054-.327.052-.493v-3.012a2.04 2.04 0 0 0-.052-.493.628.628 0 0 0-.189-.346.654.654 0 0 0-.44-.126.63.63 0 0 0-.425.126.596.596 0 0 0-.193.346 1.992 1.992 0 0 0-.053.493v3.012c-.001.166.015.331.047.493a.609.609 0 0 0 .189.351.624.624 0 0 0 .435.131ZM329.477 182.576v-5.659h-1.048v-.896h3.259v.881h-1.048v5.658l-1.163.016ZM332.327 182.576v-6.555h1.179v6.539l-1.179.016ZM336.288 182.665a2.097 2.097 0 0 1-1.105-.256 1.414 1.414 0 0 1-.587-.744 3.295 3.295 0 0 1-.178-1.148v-2.447a3.14 3.14 0 0 1 .178-1.132 1.39 1.39 0 0 1 .587-.723 2.595 2.595 0 0 1 2.226 0c.272.168.479.423.587.723.13.363.192.747.184 1.132v2.458c.007.385-.055.768-.184 1.131a1.455 1.455 0 0 1-.587.744c-.341.191-.73.281-1.121.262Zm0-.88a.622.622 0 0 0 .44-.131.67.67 0 0 0 .194-.351c.033-.162.048-.327.047-.493v-3.012a2.328 2.328 0 0 0-.047-.493.656.656 0 0 0-.194-.346.647.647 0 0 0-.44-.125.62.62 0 0 0-.424.125.597.597 0 0 0-.194.346 1.996 1.996 0 0 0-.052.493v3.012c-.002.166.014.331.047.493a.604.604 0 0 0 .188.351.622.622 0 0 0 .435.131ZM339.06 182.576v-6.555h.833l1.572 3.731v-3.731h.985v6.539h-.775l-1.572-3.908v3.908l-1.043.016Z" fill="#263238"/><path d="m337.881 89.097-2.52-1.928-3.018-2.31-8.462-6.477v-.005l-.01-.005-.063-.048-9.206 6.665-3.165 2.285-2.583 1.875 5.952-31.217 2.835-14.86 10.468.22.781.016.608.01 2.499 13.64 5.884 32.139Z" fill="#C5A32B" stroke="#263238" stroke-linecap="round" stroke-linejoin="round"/><path d="M331.997 56.957a2.06 2.06 0 0 0-1.174-.036c-.524.283-.66 1.52-1.236 1.74-.577.22-1.488-.608-2.096-.446-.608.162-.964 1.346-1.572 1.446-.608.1-1.331-.912-1.949-.875-.618.037-1.221 1.116-1.839 1.085-.618-.032-1.127-1.164-1.729-1.258-.603-.094-1.436.838-2.023.687-.587-.152-.859-1.373-1.43-1.572-.571-.2-1.572.524-2.096.24h-.037l2.809-14.896 10.479.22h1.388l2.505 13.665Z" fill="#263238" stroke="#263238" stroke-linecap="round" stroke-linejoin="round"/><path d="M305.961 37.555c.032-.623-.979-1.341-.885-1.944.094-.602 1.273-.995 1.425-1.572.152-.576-.681-1.514-.466-2.095.215-.582 1.456-.703 1.729-1.253.272-.55-.351-1.619 0-2.132.351-.514 1.572-.388 1.949-.865.377-.476 0-1.655.424-2.096.425-.44 1.614-.052 2.096-.445s.336-1.619.849-1.96c.514-.34 1.572.283 2.133 0 .56-.283.66-1.519 1.236-1.744.576-.226 1.493.607 2.096.445.603-.162.959-1.341 1.572-1.44.613-.1 1.331.906 1.949.874.618-.031 1.216-1.116 1.839-1.084.624.031 1.127 1.163 1.724 1.252.597.089 1.436-.833 2.022-.681.587.152.86 1.372 1.431 1.572.571.199 1.572-.524 2.096-.241.524.282.524 1.514 1.048 1.85.523.335 1.645-.184 2.122.204.476.387.22 1.571.66 2.032.44.462 1.645.163 2.033.64.387.477-.116 1.608.225 2.122.341.513 1.572.497 1.86 1.048.288.55-.451 1.545-.225 2.095.225.55 1.441.818 1.603 1.415.162.597-.765 1.415-.665 2.028.099.613 1.236 1.095 1.268 1.713.031.618-1.048 1.226-1.048 1.85 0 .623.98 1.341.89 1.944-.089.602-1.273.995-1.43 1.571-.157.577.681 1.515.466 2.096-.214.582-1.451.708-1.729 1.253-.277.544.351 1.619 0 2.137-.351.52-1.572.383-1.954.865-.383.482 0 1.656-.424 2.096-.425.44-1.614.052-2.096.44s-.33 1.624-.844 1.96c-.513.335-1.572-.284-2.138 0-.566.282-.66 1.514-1.236 1.739-.577.225-1.493-.608-2.096-.445-.603.162-.964 1.346-1.572 1.446-.608.1-1.326-.912-1.944-.875-.618.036-1.221 1.116-1.844 1.084-.624-.031-1.121-1.163-1.724-1.257-.602-.095-1.436.838-2.022.681-.587-.157-.86-1.367-1.431-1.572-.571-.204-1.572.524-2.122.246-.55-.277-.524-1.52-1.048-1.85-.524-.33-1.645.179-2.096-.203-.45-.383-.22-1.604-.655-2.034-.434-.43-1.65-.162-2.038-.639-.387-.477.116-1.608-.225-2.096-.341-.487-1.572-.523-1.86-1.047-.288-.524.45-1.572.225-2.128-.225-.555-1.435-.812-1.572-1.41-.136-.597.76-1.42.661-2.027-.1-.608-1.237-1.1-1.268-1.718-.032-.619 1-1.227 1.026-1.845Z" fill="#C5A32B" stroke="#263238" stroke-linecap="round" stroke-linejoin="round"/><path d="M327.427 52.191c7.633-2.439 11.843-10.603 9.404-18.236-2.438-7.632-10.603-11.843-18.236-9.404-7.632 2.439-11.843 10.603-9.404 18.236 2.439 7.633 10.604 11.843 18.236 9.404Z" fill="#263238" stroke="#263238" stroke-linecap="round" stroke-linejoin="round"/><path d="M333.747 45.446c3.909-5.931 2.27-13.909-3.661-17.819-5.932-3.91-13.91-2.27-17.82 3.661-3.909 5.932-2.27 13.91 3.661 17.82 5.932 3.909 13.91 2.27 17.82-3.662Z" fill="#fff" stroke="#263238" stroke-linecap="round" stroke-linejoin="round"/><path d="m313.669 36.386.419 1.29h1.357l-1.1.796.419 1.294-1.095-.802-1.1.802.419-1.294-1.095-.797h1.357l.419-1.288ZM318.322 36.386l.419 1.29h1.357l-1.095.796.414 1.294-1.095-.802-1.095.802.419-1.294-1.1-.797h1.357l.419-1.288ZM322.974 36.386l.42 1.29h1.357l-1.095.796.419 1.294-1.101-.802-1.095.802.42-1.294-1.096-.797h1.352l.419-1.288ZM327.633 36.386l.419 1.29h1.357l-1.101.796.42 1.294-1.095-.802-1.101.802.419-1.294-1.095-.797h1.357l.42-1.288ZM332.285 36.386l.419 1.29h1.357l-1.1.796.425 1.294-1.101-.802-1.095.802.419-1.294-1.1-.797h1.357l.419-1.288Z" fill="#C5A32B" stroke="#263238" stroke-width=".5" stroke-linecap="round" stroke-linejoin="round"/><path d="M314.565 103.191a1.967 1.967 0 0 1-.435-.288 5.062 5.062 0 0 1-.451-.44 4.378 4.378 0 0 1-.382-.487h-.147a2.05 2.05 0 0 1-1.105-.257 1.41 1.41 0 0 1-.587-.744 3.29 3.29 0 0 1-.178-1.147v-2.4c-.011-.385.05-.769.178-1.132.106-.301.314-.557.587-.723.338-.184.721-.27 1.105-.251.39-.021.778.066 1.122.251.274.166.483.421.592.723.128.363.188.747.178 1.132v2.457c.001.286-.028.57-.089.849a1.747 1.747 0 0 1-.294.655 1.303 1.303 0 0 1-.524.435l.215.23.225.231c.069.062.143.118.22.168l-.23.738Zm-1.415-2.095a.567.567 0 0 0 .421-.107.543.543 0 0 0 .147-.166.54.54 0 0 0 .071-.209 2.41 2.41 0 0 0 .048-.493v-3.013a2.395 2.395 0 0 0-.048-.492.625.625 0 0 0-.193-.346.677.677 0 0 0-.446-.126.645.645 0 0 0-.435.126.564.564 0 0 0-.188.346 2.327 2.327 0 0 0-.047.492v3.013c-.002.165.014.33.047.493a.61.61 0 0 0 .188.356c.125.093.28.138.435.126ZM317.719 101.997a2.034 2.034 0 0 1-1.126-.267 1.362 1.362 0 0 1-.561-.76 4.054 4.054 0 0 1-.152-1.18V95.37h1.163v4.563c0 .193.014.386.042.577a.81.81 0 0 0 .189.435.574.574 0 0 0 .445.167.568.568 0 0 0 .461-.167.898.898 0 0 0 .184-.435c.032-.191.048-.384.047-.577V95.37h1.152v4.422a4.02 4.02 0 0 1-.152 1.179 1.38 1.38 0 0 1-.555.76c-.345.198-.74.29-1.137.267ZM320.135 101.908l1.31-6.54h1.273l1.31 6.54h-1.106l-.257-1.509h-1.142l-.267 1.509h-1.121Zm1.509-2.27h.89l-.445-2.745-.445 2.746ZM324.651 101.908v-6.54h1.195v5.728h1.572v.822l-2.767-.01ZM328.052 101.908v-6.54h1.178v6.54h-1.178ZM330.891 101.908v-5.66h-1.047v-.88h3.264v.88h-1.048v5.66h-1.169ZM334.622 101.908v-2.494l-1.326-4.045h1.095l.807 2.62.76-2.62h1.09l-1.31 4.045v2.494h-1.116Z" fill="#263238"/><path d="m205.498 15.213 1.619 11.863-7.55 1.797a56.263 56.263 0 0 1-6.471 3.778c-3.06 1.435-5.214 1.975-6.288 1.975-1.074 0-5.035-1.619-5.035-1.619s2.698-14.56 5.764-16.18c3.065-1.619 11.118-3.95 17.961-1.614Z" fill="#fff" stroke="#263238" stroke-linecap="round" stroke-linejoin="round"/><path d="M167.102 14.8s13.497-.86 15.473-.86c1.975 0 6.371 4.894 6.371 4.894s8.048 13.398 7.372 14.2c-1.698 2.011-3.055.555-3.055.555l-.309 1.414s-1.31 1.625-7.959.729c-6.649-.896-8.807-2.903-10.411-3.275-1.603-.372-10.337-2.793-10.337-2.793l2.855-14.865Z" fill="#fff" stroke="#263238" stroke-linecap="round" stroke-linejoin="round"/><path d="m193.263 33.563-2.221-4.286M191.042 35.548l-2.756-4.741" stroke="#263238" stroke-linecap="round" stroke-linejoin="round"/><path d="M201.71 16.288s-13.503-4.134-16.175-1.258c-2.672 2.877-8.451 10.427-7.194 11.328 1.258.901 5.764-2.52 6.811-3.238a12.82 12.82 0 0 0 2.159-1.975 9.995 9.995 0 0 0 9.704 2.515" fill="#fff"/><path d="M201.71 16.288s-13.503-4.134-16.175-1.258c-2.672 2.877-8.451 10.427-7.194 11.328 1.258.901 5.764-2.52 6.811-3.238a12.82 12.82 0 0 0 2.159-1.975 9.995 9.995 0 0 0 9.704 2.515" stroke="#263238" stroke-linecap="round" stroke-linejoin="round"/><path d="M186.882 30.55s-1.295 4.62-.771 5.407a1.742 1.742 0 0 0 1.965.786 3.66 3.66 0 0 0 1.184-.786s.194-3.93-.393-4.915c-.586-.985-1.1-1.672-1.985-.493Z" fill="#fff" stroke="#263238" stroke-linecap="round" stroke-linejoin="round"/><path d="M183.439 31.142s-1.278 4.62-.786 5.407a1.747 1.747 0 0 0 1.97.786 3.8 3.8 0 0 0 1.179-.786s.194-3.935-.393-4.915-1.084-1.671-1.97-.492ZM179.981 31.304s-.98 3.547-.603 4.15a1.334 1.334 0 0 0 1.494.602c.338-.14.645-.345.906-.602 0 0 .152-3.018-.299-3.773-.45-.754-.822-1.278-1.498-.377ZM175.9 31.456s-.771 2.348-.472 2.746a1.149 1.149 0 0 0 1.184.398c.26-.09.501-.224.713-.398 0 0 .12-1.996-.236-2.494-.356-.498-.655-.823-1.189-.252ZM207.908 11.554l-5.108 1.07 4.173 19.923 5.108-1.07-4.173-19.923Z" fill="#fff" stroke="#263238" stroke-linecap="round" stroke-linejoin="round"/><path d="m214.501 9.908-8.175 1.712 4.656 22.226 8.174-1.712-4.655-22.226Z" fill="#C5A32B" stroke="#263238" stroke-linecap="round" stroke-linejoin="round"/><path d="m160.973 31.477 5.108 1.07 4.173-19.923-5.108-1.07-4.173 19.923Z" fill="#fff" stroke="#263238" stroke-linecap="round" stroke-linejoin="round"/><path d="m153.9 32.133 8.174 1.713 4.656-22.226-8.175-1.713-4.655 22.226Z" fill="#263238" stroke="#263238" stroke-linecap="round" stroke-linejoin="round"/><path d="M158.342 47.756a1.95 1.95 0 0 1-1.127-.283 1.488 1.488 0 0 1-.571-.77 3.707 3.707 0 0 1-.163-1.126V43.24a3.88 3.88 0 0 1 .163-1.163c.097-.312.299-.58.571-.76a2.04 2.04 0 0 1 1.127-.262c.362-.017.724.06 1.047.225.242.157.426.39.524.66.111.32.164.657.158.996v.524h-1.143v-.524a3.602 3.602 0 0 0-.031-.498.6.6 0 0 0-.152-.361.575.575 0 0 0-.435-.131.609.609 0 0 0-.445.141.677.677 0 0 0-.184.377 3.401 3.401 0 0 0-.036.524v2.84c-.005.197.012.394.052.587a.578.578 0 0 0 .613.466.522.522 0 0 0 .425-.141.7.7 0 0 0 .157-.378c.026-.173.039-.348.036-.523v-.598h1.143v.524c.01.356-.042.71-.152 1.048a1.333 1.333 0 0 1-.524.702c-.321.18-.687.263-1.053.241ZM162.722 47.757a2.025 2.025 0 0 1-1.127-.268 1.362 1.362 0 0 1-.56-.76 4.084 4.084 0 0 1-.152-1.178v-4.428h1.163v4.564c-.003.193.011.386.042.576a.806.806 0 0 0 .188.44.71.71 0 0 0 .902 0 .903.903 0 0 0 .188-.44c.031-.19.045-.383.042-.576v-4.564h1.158v4.433c.008.399-.045.796-.157 1.179-.086.31-.282.58-.55.76a2.04 2.04 0 0 1-1.137.262ZM167.149 47.757a1.943 1.943 0 0 1-.985-.231 1.419 1.419 0 0 1-.597-.676 2.835 2.835 0 0 1-.225-1.09l1.021-.204c.007.226.038.451.095.67a.994.994 0 0 0 .235.451.563.563 0 0 0 .414.157.478.478 0 0 0 .414-.173.77.77 0 0 0 .121-.44 1.166 1.166 0 0 0-.194-.702 3.16 3.16 0 0 0-.524-.55l-.823-.728a2.57 2.57 0 0 1-.555-.666 1.83 1.83 0 0 1-.204-.906 1.576 1.576 0 0 1 .45-1.195 1.747 1.747 0 0 1 1.237-.419c.263-.008.525.039.77.136.194.086.362.222.487.393.123.174.215.367.273.571.059.221.096.448.11.676l-1.017.173a3.082 3.082 0 0 0-.068-.524.8.8 0 0 0-.188-.382.54.54 0 0 0-.388-.136.528.528 0 0 0-.409.172.664.664 0 0 0-.141.435c-.002.184.045.364.136.524.113.164.247.312.398.44l.812.718c.271.228.505.496.692.797.198.332.298.713.288 1.1a1.62 1.62 0 0 1-.21.833 1.446 1.446 0 0 1-.571.566 1.688 1.688 0 0 1-.854.21ZM170.146 47.652v-5.648h-1.048v-.88h3.259v.88h-1.021v5.648h-1.19ZM174.705 47.757a2.065 2.065 0 0 1-1.106-.262 1.407 1.407 0 0 1-.587-.74 3.316 3.316 0 0 1-.178-1.147v-2.447a3.21 3.21 0 0 1 .178-1.137 1.39 1.39 0 0 1 .587-.723 2.624 2.624 0 0 1 2.227 0c.272.168.479.423.587.723.13.365.192.75.183 1.137v2.453c.008.387-.054.772-.183 1.137a1.482 1.482 0 0 1-.587.744c-.342.19-.73.28-1.121.262Zm0-.88a.65.65 0 0 0 .44-.132c.1-.096.168-.22.194-.356.032-.162.048-.327.047-.492v-3.013a2.327 2.327 0 0 0-.047-.493.668.668 0 0 0-.194-.34.65.65 0 0 0-.44-.126.626.626 0 0 0-.425.126.594.594 0 0 0-.193.34 1.992 1.992 0 0 0-.053.493v3.013c-.001.165.015.33.047.492a.638.638 0 0 0 .189.356c.125.094.279.14.435.131ZM177.461 47.652l.11-6.545h1.237l.932 4.533.964-4.533h1.216l.105 6.545h-.891l-.094-4.548-.933 4.548h-.718l-.943-4.564-.089 4.564h-.896ZM182.968 47.652v-6.529h2.745v.844h-1.572v1.88h1.221v.834h-1.221v2.164h1.572v.807h-2.745ZM186.4 47.652v-6.529h1.571c.379-.01.756.044 1.116.157.286.09.533.274.697.524.176.32.257.684.236 1.048.004.24-.019.478-.068.713-.045.19-.129.368-.246.524a1.148 1.148 0 0 1-.482.346l.911 3.222h-1.194l-.791-2.997h-.551v2.992H186.4Zm1.194-3.747h.372c.18.004.359-.032.524-.105a.577.577 0 0 0 .299-.32c.064-.183.094-.376.089-.57a1.233 1.233 0 0 0-.184-.739.815.815 0 0 0-.691-.246h-.435l.026 1.98ZM192.876 47.652v-6.529h1.194v5.722h1.572v.807h-2.766ZM197.969 47.757a2.065 2.065 0 0 1-1.106-.262 1.407 1.407 0 0 1-.587-.74 3.292 3.292 0 0 1-.178-1.147v-2.447c-.01-.386.05-.772.178-1.137a1.39 1.39 0 0 1 .587-.723 2.616 2.616 0 0 1 2.227 0c.271.168.478.423.587.723.132.364.194.75.183 1.137v2.453c.01.387-.052.772-.183 1.137a1.487 1.487 0 0 1-.587.744c-.342.19-.731.28-1.121.262Zm0-.88a.651.651 0 0 0 .44-.132.64.64 0 0 0 .193-.356c.033-.162.049-.327.048-.492v-3.013a2.328 2.328 0 0 0-.048-.493.625.625 0 0 0-.193-.34.65.65 0 0 0-.44-.126.623.623 0 0 0-.425.126.601.601 0 0 0-.194.34 2.327 2.327 0 0 0-.047.493v3.013c-.003.165.011.33.042.492a.632.632 0 0 0 .189.356c.124.094.279.14.435.131ZM201.589 47.652v-2.5l-1.331-4.029h1.116l.807 2.594.76-2.594h1.09l-1.31 4.045v2.484h-1.132ZM204.025 47.652l1.31-6.545h1.279l1.304 6.545h-1.105l-.257-1.51h-1.142l-.267 1.51h-1.122Zm1.515-2.27h.885l-.445-2.745-.44 2.746ZM208.542 47.652v-6.529h1.195v5.722h1.571v.807h-2.766ZM212.273 47.652v-5.648h-1.048v-.88h3.264v.88h-1.048v5.648h-1.168ZM216.003 47.652v-2.5l-1.325-4.045h1.116l.807 2.594.759-2.594h1.09l-1.31 4.045v2.5h-1.137Z" fill="#263238"/><path d="M51.653 53.976v-5.423l-5.412-.603a12.696 12.696 0 0 0-1.326-3.222l3.422-4.275-3.836-3.804-4.255 3.4a13.017 13.017 0 0 0-3.217-1.346l-.602-5.46H31.02l-.613 5.407a12.857 12.857 0 0 0-3.228 1.331l-4.275-3.421-3.83 3.835 3.405 4.255a13.03 13.03 0 0 0-1.352 3.217l-5.433.602v5.418l5.412.602a12.84 12.84 0 0 0 1.326 3.228l-3.421 4.276 3.835 3.83 4.254-3.406a12.82 12.82 0 0 0 3.217 1.346l.603 5.44h5.423l.597-5.413a12.844 12.844 0 0 0 3.228-1.326l4.275 3.416 3.83-3.83-3.405-4.254a13.034 13.034 0 0 0 1.352-3.218l5.433-.602Zm-17.977 3.715a6.47 6.47 0 1 1-.01-12.942 6.47 6.47 0 0 1 .01 12.942Z" fill="#263238" stroke="#263238" stroke-linecap="round" stroke-linejoin="round"/><path d="m72.936 43.099-.602-3.59-3.668.2a8.776 8.776 0 0 0-1.236-1.986l1.839-3.212-2.96-2.096-2.442 2.725a8.554 8.554 0 0 0-2.28-.524l-1-3.532-3.59.598.205 3.667a8.7 8.7 0 0 0-1.991 1.237l-3.233-1.834-2.096 2.945 2.725 2.436a8.558 8.558 0 0 0-.524 2.28l-3.552 1.047.602 3.584 3.668-.2a8.577 8.577 0 0 0 1.231 1.987l-1.787 3.212 2.96 2.095 2.442-2.724c.733.278 1.5.454 2.28.524l1 3.531 3.59-.597-.205-3.668a8.696 8.696 0 0 0 1.991-1.236l3.207 1.792 2.096-2.966-2.725-2.436a8.77 8.77 0 0 0 .524-2.28l3.531-.98Zm-11.495 4.448a4.339 4.339 0 1 1 2.825-1.765 4.343 4.343 0 0 1-2.81 1.765h-.015Z" fill="#C5A32B" stroke="#263238" stroke-linecap="round" stroke-linejoin="round"/><path d="m64.443 76.113-.603-3.59-3.667.2a8.777 8.777 0 0 0-1.237-1.986l1.792-3.206-2.966-2.096-2.436 2.724a8.868 8.868 0 0 0-2.28-.524l-1.005-3.531-3.584.602.199 3.668a8.906 8.906 0 0 0-1.991 1.237l-3.207-1.787-2.096 2.96 2.725 2.442a8.568 8.568 0 0 0-.524 2.274l-3.537.97.598 3.588 3.667-.204a8.524 8.524 0 0 0 1.237 1.991l-1.792 3.207 2.96 2.095 2.442-2.724c.732.278 1.5.454 2.28.524l1 3.537 3.59-.603-.2-3.668a8.577 8.577 0 0 0 1.986-1.231l3.212 1.787 2.096-2.96-2.725-2.442c.276-.733.452-1.5.524-2.28l3.542-.974Zm-11.49 4.454a4.343 4.343 0 1 1-1.444-8.565 4.343 4.343 0 0 1 1.443 8.565Z" fill="#fff" stroke="#263238" stroke-linecap="round" stroke-linejoin="round"/><path d="M30.585 101.997a1.89 1.89 0 0 1-.985-.231 1.465 1.465 0 0 1-.598-.67 2.873 2.873 0 0 1-.225-1.09l1.048-.205c.008.226.038.451.09.671a.97.97 0 0 0 .235.445.562.562 0 0 0 .414.158.473.473 0 0 0 .414-.173.73.73 0 0 0 .12-.44 1.184 1.184 0 0 0-.194-.703 2.904 2.904 0 0 0-.524-.523l-.838-.76a2.514 2.514 0 0 1-.55-.666 1.86 1.86 0 0 1-.204-.911 1.571 1.571 0 0 1 .45-1.195 1.75 1.75 0 0 1 1.237-.42c.262-.007.523.04.765.142.194.086.362.222.487.393.124.171.216.363.272.566.058.222.097.448.116.676l-1.048.178a3.29 3.29 0 0 0-.068-.524.712.712 0 0 0-.184-.377.522.522 0 0 0-.393-.136.524.524 0 0 0-.408.173.655.655 0 0 0-.142.43 1.01 1.01 0 0 0 .136.523c.114.164.247.312.399.44l.843.708c.27.227.501.496.687.796.2.331.3.714.288 1.101.005.29-.065.578-.205.833-.134.24-.334.438-.576.571a1.722 1.722 0 0 1-.86.22ZM34.719 101.997a2.035 2.035 0 0 1-1.127-.267 1.365 1.365 0 0 1-.56-.76 4.054 4.054 0 0 1-.152-1.18V95.37h1.163v4.563c-.002.193.01.386.037.577.022.16.089.311.193.435a.695.695 0 0 0 .902 0 .9.9 0 0 0 .188-.435c.028-.191.042-.384.042-.577V95.37h1.158v4.422c.009.399-.044.796-.157 1.179-.08.307-.265.576-.524.76a2.04 2.04 0 0 1-1.163.267ZM37.496 101.908v-6.54h1.907c.333-.012.663.062.959.216.238.15.422.371.524.633.123.321.181.663.173 1.007.017.361-.057.722-.215 1.047-.136.252-.352.451-.613.566-.291.126-.606.187-.922.178h-.65v2.908l-1.163-.015Zm1.194-3.747h.456c.18.012.36-.02.524-.094a.482.482 0 0 0 .252-.299c.052-.178.075-.364.068-.55a2.49 2.49 0 0 0-.053-.576.524.524 0 0 0-.225-.33 1.11 1.11 0 0 0-.524-.105h-.456l-.042 1.954ZM41.719 101.908v-6.54h1.923c.333-.012.663.062.959.216.238.15.422.371.524.633.123.321.181.663.172 1.007.018.361-.056.722-.214 1.047-.136.252-.352.451-.613.566-.291.126-.606.187-.922.178h-.645v2.908l-1.184-.015Zm1.2-3.747h.45c.18.012.36-.02.524-.094a.482.482 0 0 0 .252-.299c.052-.178.075-.364.068-.55a2.479 2.479 0 0 0-.053-.576.524.524 0 0 0-.225-.33 1.11 1.11 0 0 0-.524-.105h-.45l-.042 1.954ZM47.755 101.997a2.05 2.05 0 0 1-1.106-.257 1.428 1.428 0 0 1-.592-.744 3.3 3.3 0 0 1-.178-1.147v-2.421c-.01-.385.05-.769.178-1.132a1.4 1.4 0 0 1 .592-.723c.339-.184.721-.27 1.106-.251.388-.022.774.065 1.116.251.273.167.482.422.592.723.128.363.188.747.178 1.132v2.457a3.21 3.21 0 0 1-.178 1.132c-.11.307-.318.568-.592.744a2.1 2.1 0 0 1-1.116.236Zm0-.881a.648.648 0 0 0 .44-.125.671.671 0 0 0 .189-.357 2.42 2.42 0 0 0 .047-.492v-3.013a2.355 2.355 0 0 0-.047-.492.623.623 0 0 0-.189-.346.818.818 0 0 0-.87 0 .63.63 0 0 0-.194.346 2.348 2.348 0 0 0-.047.492v3.013c0 .165.014.33.042.492a.524.524 0 0 0 .629.482ZM50.521 101.908v-6.54h1.572c.38-.009.759.044 1.121.158.285.088.53.273.692.524.179.319.263.682.241 1.048.002.237-.023.475-.073.707-.043.19-.127.37-.246.524a1.105 1.105 0 0 1-.483.34l.912 3.223h-1.194l-.792-2.997h-.524v2.997l-1.226.016Zm1.195-3.747h.372c.19.01.38-.024.555-.1a.598.598 0 0 0 .294-.324c.064-.182.094-.374.089-.566a1.2 1.2 0 0 0-.184-.739.797.797 0 0 0-.686-.246h-.44v1.975ZM55.677 101.908v-5.66H54.63v-.88h3.26v.88h-1.022v5.66h-1.19Z" fill="#263238"/><path d="M24.507 150.688H19.11v16.101h5.397v-16.101Z" fill="#263238" stroke="#263238" stroke-width=".5" stroke-linecap="round" stroke-linejoin="round"/><path d="M32.99 156.478h-5.397v10.312h5.397v-10.312Z" fill="#C5A32B" stroke="#263238" stroke-linecap="round" stroke-linejoin="round"/><path d="M41.473 147.162h-5.397v19.628h5.397v-19.628Z" fill="#263238" stroke="#263238" stroke-width=".5" stroke-linecap="round" stroke-linejoin="round"/><path d="M49.956 151.223h-5.397v15.566h5.397v-15.566Z" fill="#C5A32B" stroke="#263238" stroke-linecap="round" stroke-linejoin="round"/><path d="M58.438 147.665h-5.396v19.125h5.396v-19.125Z" fill="#263238" stroke="#263238" stroke-width=".5" stroke-linecap="round" stroke-linejoin="round"/><path d="M66.916 136.332H61.52v30.458h5.397v-30.458Z" fill="#C5A32B" stroke="#263238" stroke-linecap="round" stroke-linejoin="round"/><path d="M72.984 136.007h3.159M72.984 142.164h3.159M72.984 148.325h3.159M72.984 154.482h3.159M72.984 160.638h3.159M72.984 166.795h3.159" stroke="#263238" stroke-width=".5" stroke-linecap="round" stroke-linejoin="round"/><path d="m22.196 144.752 8.274 4.998 8.598-9.211 8.493.718 8.237-3.269 9.31-12.256" stroke="#263238" stroke-linecap="round" stroke-linejoin="round"/><path d="M23.239 144.752a1.047 1.047 0 1 0-2.095 0 1.047 1.047 0 0 0 2.095 0ZM31.512 149.75a1.047 1.047 0 1 0-2.016.401 1.052 1.052 0 0 0 .968.647 1.046 1.046 0 0 0 1.048-1.048ZM40.11 140.539a1.05 1.05 0 0 0-1.252-1.027 1.047 1.047 0 1 0 1.252 1.027ZM48.604 141.257a1.047 1.047 0 1 0-2.095 0 1.047 1.047 0 0 0 2.095 0ZM56.84 137.825a1.047 1.047 0 1 0-2.094 0 1.047 1.047 0 0 0 2.094 0ZM66.156 125.722a1.05 1.05 0 0 0-.647-.969 1.046 1.046 0 0 0-1.141.228 1.045 1.045 0 0 0-.228 1.142 1.048 1.048 0 0 0 2.016-.401ZM21.064 182.577v-6.555h1.18v6.539l-1.18.016ZM23.25 182.577l.115-6.555h1.231l.933 4.527.969-4.527h1.195l.12 6.539h-.89l-.095-4.532-.927 4.548h-.723l-.944-4.564-.089 4.564h-.896ZM28.73 182.576v-6.554h1.923c.333-.013.663.061.959.215.238.149.421.371.524.634.123.32.181.662.172 1.006a2.17 2.17 0 0 1-.214 1.047 1.282 1.282 0 0 1-.613.566c-.291.126-.606.187-.923.178h-.634v2.908H28.73Zm1.194-3.746h.456c.18.012.36-.02.524-.094a.482.482 0 0 0 .252-.299c.052-.178.075-.364.068-.55a2.477 2.477 0 0 0-.052-.576.492.492 0 0 0-.226-.33 1.114 1.114 0 0 0-.524-.105h-.456l-.042 1.954ZM32.958 182.577v-6.555h1.572c.38-.01.759.043 1.121.157.285.088.53.274.692.524.179.319.263.683.241 1.048a3.21 3.21 0 0 1-.073.707c-.044.19-.128.369-.247.524a1.109 1.109 0 0 1-.482.341l.917 3.222h-1.21l-.802-2.965h-.524v2.997h-1.205Zm1.205-3.747h.367c.19.01.38-.024.556-.099a.602.602 0 0 0 .293-.325c.067-.183.098-.377.089-.571a1.263 1.263 0 0 0-.178-.739.825.825 0 0 0-.692-.246h-.435v1.98ZM39.23 182.666a2.051 2.051 0 0 1-1.105-.257 1.428 1.428 0 0 1-.593-.744 3.432 3.432 0 0 1-.178-1.148v-2.446a3.293 3.293 0 0 1 .178-1.132c.11-.302.318-.557.593-.723a2.573 2.573 0 0 1 2.221 0c.273.167.482.422.592.723.13.363.192.746.184 1.132v2.457c.007.385-.055.768-.184 1.132-.11.306-.318.568-.592.744-.34.191-.726.282-1.116.262Zm0-.881a.623.623 0 0 0 .44-.131.629.629 0 0 0 .189-.351c.032-.162.048-.327.047-.492v-3.013a2.345 2.345 0 0 0-.047-.492.624.624 0 0 0-.189-.346.817.817 0 0 0-.87 0 .625.625 0 0 0-.193.346 2.345 2.345 0 0 0-.047.492v3.013c-.002.165.014.33.047.492.019.136.086.261.188.351a.615.615 0 0 0 .435.131ZM42.971 182.577l-1.32-6.555h1.048l.864 4.627.818-4.627h1.084l-1.315 6.539-1.179.016ZM46.136 182.577v-6.555h2.745v.838H47.31v1.881h1.215v.833H47.31v2.164h1.572v.823l-2.746.016ZM49.573 182.577l.115-6.539h1.242l.928 4.527.969-4.527h1.195l.12 6.539h-.89l-.095-4.548-.927 4.548h-.723l-.949-4.564-.089 4.564h-.896ZM55.059 182.577v-6.555h2.745v.838h-1.572v1.881h1.216v.833h-1.215v2.164h1.571v.823l-2.745.016ZM58.512 182.577v-6.555h.833l1.572 3.731v-3.731h1.016v6.539h-.791l-1.603-3.909v3.909l-1.027.016ZM63.568 182.577v-5.659H62.52v-.896h3.264v.88h-1.048v5.659l-1.168.016Z" fill="#263238"/><path d="M209.857 216h-46.653l6.995-25.753h32.658l7 25.753ZM221.987 216h-70.913v2.615h70.913V216Z" fill="#263238" stroke="#263238" stroke-linecap="round" stroke-linejoin="round"/><path d="M287.377 64.91H85.679v128.041h201.698V64.911Z" fill="#263238" stroke="#263238" stroke-linecap="round" stroke-linejoin="round"/><path d="M280.916 69.794H92.145v118.279h188.771V69.794Z" fill="#B2B2B2" stroke="#263238" stroke-linecap="round" stroke-linejoin="round"/><path d="m149.178 99.64-12.23 2.043 3.857 56.404 17.725 1.43s3.851-21.687 4.071-25.208c.22-3.521-6.287-29.938-6.287-29.938l-7.136-4.732Z" fill="#C5A32B" stroke="#263238" stroke-linecap="round" stroke-linejoin="round"/><path d="M167.249 188.073c.402-1.389.601-2.829.592-4.276-.142-2.095-.697-5.297-.697-5.297l-5.019.419 1.943 9.154h3.181Z" fill="#fff" stroke="#263238" stroke-linecap="round" stroke-linejoin="round"/><path d="M113.428 188.073h50.761c-.136-1.116-.524-3.93-.927-6.754-.551-3.631-4.292-29.064-4.292-29.064l-37.305-3.526s-8.698 16.845-9.909 21.796c-1.21 4.952 1.525 16.62 1.525 16.62l.147.928ZM162.601 61.327s2.861-.66 4.072 3.851c1.21 4.511-.22 6.812.33 9.028s1.734 7.372.298 12.543c-1.435 5.172-6.57 8.908-6.811 10.794l-.22 1.87s-.77.771-3.191.55c-2.421-.22-5.397-1.98-5.397-1.98l.33-3.741s4.192 0 5.177-.77c.985-.77 5.281-8.383 5.612-10.568.33-2.185.55-8.478.22-10.349-.331-1.87-2.62-5.727-3.521-6.057-.902-.33-4.957-3.19-4.957-3.19s5.638-3.411 8.058-1.981Z" fill="#263238" stroke="#263238" stroke-linecap="round" stroke-linejoin="round"/><path d="M165.352 108.662s3.526 1.65 3.636 4.401c.11 2.751-1.875 14.969-1.875 15.855 0 .885-.991 19.151-.991 19.151l2.133 31.82-5.014.282s-4.375-23.536-3.941-26.376c.435-2.839 3.081-16.955 3.301-19.486.22-2.53-.33-13.319.44-16.51.771-3.19 2.311-9.137 2.311-9.137ZM157.818 63.727s5.438 2.222 6.318 6.078c.881 3.856-.44 8.692 0 11.778.441 3.087-3.961 10.789-5.501 12.66-1.541 1.87-5.287 1.21-5.287 1.21l.566 6.167s2.305 7.702 1.97 9.682c-.335 1.981-3.966 4.889-8.582 4.622-5.727-.33-7.493-5.659-7.493-5.659l.77-12.219a36.034 36.034 0 0 0-.215-7.55c-.55-4.511.661-11.338 1.101-12.439.44-1.1 4.516-5.611 7.047-7.372 2.531-1.76 7.482-6.811 7.482-6.811s1.457-.613 1.824-.147Z" fill="#fff" stroke="#263238" stroke-linecap="round" stroke-linejoin="round"/><path d="M140.359 100.357s-16.944 1.572-19.386 3.238 1.1 36.986 1.1 36.986-13.623 29.945-13.209 30.165c.414.22 6.932 5.611 13.869 6.811 6.938 1.2 17.06 2.096 17.06 2.096s3.632-29.724 4.072-32.035c.44-2.31-.991-25.207-.771-28.398.22-3.191-2.735-18.863-2.735-18.863Z" fill="#fff" stroke="#263238" stroke-linecap="round" stroke-linejoin="round"/><path d="M140.847 136.169a29.97 29.97 0 0 0 1.718 3.422M136.503 107.692c.728 6.597 1.85 16.846 2.211 20.671.254 2.33.827 4.615 1.703 6.79M135.848 101.793l.435 3.935" stroke="#263238" stroke-linecap="round" stroke-linejoin="round"/><path d="M157.818 63.727a46.262 46.262 0 0 1-3.668 5.36c-1.918 2.3-9.19 7.021-9.19 7.021s.125 2.557-.388 3.322c-.514.765-2.169.257-2.169.257s-1.148 6.25-.765 10.85c.382 4.601 2.682 5.87 2.043 7.022-.639 1.153-4.668 4.191-10.154 2.038s-8.3-4.344-9.704-7.791c-1.404-3.448 3.516-21.823 7.089-27.697 3.574-5.873 12.13-9.703 17.364-9.064 5.235.64 14.556 3.447 15.321 5.617.765 2.169-5.779 3.065-5.779 3.065Z" fill="#263238" stroke="#263238" stroke-linecap="round" stroke-linejoin="round"/><path d="M141.465 78.042s-4.925 5.48-5.937 11.396c-1.011 5.915 2.028 8.451 3.212 8.96M126.93 88.63a8.057 8.057 0 0 0 .315 3.36M149.958 67.185a31.991 31.991 0 0 1-3.956 3.002c-6.691 4.37-15.629 9.626-18.338 15.761M153.626 60.72s.566 1.77-1.97 4.752" stroke="#5C5C5C" stroke-linecap="round" stroke-linejoin="round"/><path d="M153.914 101.62s9.348 5.611 11.438 7.042c2.091 1.43-1.43 14.859-1.1 17.5.33 2.641 1.32 8.907.33 11.558-.99 2.652-1.54 4.297-1.54 4.297l-1.871 12.108s3.081 23.228 2.971 23.579c-.11.351-10.898 1.76-10.898 1.76s1.98-23.578 3.086-28.514c1.105-4.935 4.715-12.218 3.851-20.361-.865-8.142-6.267-28.969-6.267-28.969Z" fill="#fff" stroke="#263238" stroke-linecap="round" stroke-linejoin="round"/><path d="M162.397 130.579a20.978 20.978 0 0 1-1.886 7.665M159.389 106.126s2.914 15.75 3.06 21.964M163.581 123.521s-.671-5.496-1.572-8.383" stroke="#263238" stroke-linecap="round" stroke-linejoin="round"/><path d="M155.198 78.927c0 .87-.419 1.572-.943 1.572s-.943-.707-.943-1.572c0-.864.419-1.572.943-1.572s.943.687.943 1.572ZM163.209 78.927c0 .87-.419 1.572-.943 1.572s-.948-.707-.948-1.572c0-.864.424-1.572.948-1.572s.943.687.943 1.572Z" fill="#263238"/><path d="M151.394 75.946a6.395 6.395 0 0 1 5.355-.786M163.366 75.946a1.7 1.7 0 0 0-2.206-.315s-1.414 1.892-1.1 3.144M160.217 86.336l-2.997.471M158.342 88.856s-4.412 1.258-7.09-2.049" stroke="#263238" stroke-linecap="round" stroke-linejoin="round"/><path d="m153.354 95.452-4.328-1.398 3.783 4.574.545-3.176ZM231.622 101.494a16.787 16.787 0 0 0-2.232 5.203c-.618 2.845-1.236 6.067-1.236 6.067s3.096-2.478 3.468-2.62c.372-.141-.246-3.217-.246-3.217l2.096-1.734-1.85-3.699Z" fill="#263238" stroke="#263238" stroke-linecap="round" stroke-linejoin="round"/><path d="M232.859 59.76s-3.097 1.117-4.333 3.343c-1.237 2.227-4.459 7.43-3.961 9.164a86.95 86.95 0 0 0 .738 2.479s-4.453 7.802-3.961 8.546c.603.75 1.266 1.45 1.981 2.095 0 0 1.98 9.285 2.85 9.903.87.618 3.343.99 3.343.99l3.589 4.459 19.69-8.027.252-4.333s6.686-8.671 7.55-13.623c.865-4.951-5.449-13.497-12.26-16.84-6.812-3.343-13.99-1.498-15.478 1.845Z" fill="#fff" stroke="#263238" stroke-linecap="round" stroke-linejoin="round"/><path d="M226.456 77.413a5.299 5.299 0 0 0 2.997 1.2" stroke="#263238" stroke-linecap="round" stroke-linejoin="round"/><path d="M248.337 57.906c-6.812-3.343-13.99-1.488-15.478 1.855 0 0 .618.497 2.62.372 2.001-.126 6.691-2.096 7.927-.372 1.237 1.723-3.715 3.222-5.57 5.82-1.854 2.6-1.362 2.725.121 4.716 1.483 1.992 1.734 2.85 1.488 3.715-.246.865-.618 1.609.99 1.86 1.609.252 2.096-3.715 4.58-2.478 2.483 1.237 2.85 4.951 1.98 7.43a5.367 5.367 0 0 1-2.719 3.222s.367 1.609 3.091 2.971a14.34 14.34 0 0 0 5.701 1.362s6.686-8.671 7.55-13.623c.865-4.951-5.47-13.481-12.281-16.85Z" fill="#263238" stroke="#263238" stroke-linecap="round" stroke-linejoin="round"/><path d="M253.047 80.09a7.104 7.104 0 0 1 .461 3.249M238.963 67.222s.875 1.75 5.764 3.85c2.756 1.185 5.349 3.7 7 6.356M252.455 72.477s4.38 2.62 3.668 7.707" stroke="#5C5C5C" stroke-linecap="round" stroke-linejoin="round"/><path d="M228.552 75.055c0 .854-.362 1.572-.807 1.572-.445 0-.802-.697-.802-1.572 0-.875.357-1.572.802-1.572.445 0 .807.718.807 1.572Z" fill="#263238"/><path d="M225.932 71.65s2.227-2.62 4.192.125M225.057 85.764s2.971-.246 4.831-2.095" stroke="#263238" stroke-linecap="round" stroke-linejoin="round"/><path d="m244.271 84.036-1.363.366a12.43 12.43 0 0 1-2.976 4.831" fill="#fff"/><path d="m244.271 84.036-1.363.366a12.43 12.43 0 0 1-2.976 4.831" stroke="#263238" stroke-linecap="round" stroke-linejoin="round"/><path d="M253.178 90.842s-19.318 8.053-20.183 9.043c-.864.991-1.362 1.609-1.362 1.609l1.483 7.927 22.53-14.864-2.468-3.715ZM196.994 145.412l1.074 7.886-5.019 1.194a37.305 37.305 0 0 1-4.318 2.51c-2.028.954-3.463 1.31-4.191 1.31-.729 0-3.343-1.074-3.343-1.074s1.792-9.678 3.825-10.752c2.033-1.074 7.429-2.63 11.972-1.074Z" fill="#fff" stroke="#263238" stroke-linecap="round" stroke-linejoin="round"/><path d="M171.723 148.718s9.432-1.399 10.479-1.545c1.048-.147 3.794 2.143 3.794 2.143s5.329 6.601 5.025 7.083c-.765 1.211-1.598.524-1.598.524l-.063.786s-.582.975-4.229.985c-3.646.011-4.951-.885-5.847-.958-.896-.074-7.959-1.876-7.959-1.876l.398-7.142Z" fill="#fff" stroke="#263238" stroke-linecap="round" stroke-linejoin="round"/><path d="m168.559 148.016 3.463.624-.382 7.807-3.149-.205.068-8.226Z" fill="#fff" stroke="#263238" stroke-linecap="round" stroke-linejoin="round"/><path d="M130.158 103.102s-9.85-.686-11.915.917c-2.064 1.604-1.048 22.798.692 30.474 1.739 7.676 4.123 19.936 5.239 20.507 1.116.572 44.841 2.343 44.841 2.343l.461-9.51-33.727-7.268-2.405-30.012" fill="#fff"/><path d="M130.158 103.102s-9.85-.686-11.915.917c-2.064 1.604-1.048 22.798.692 30.474 1.739 7.676 4.123 19.936 5.239 20.507 1.116.572 44.841 2.343 44.841 2.343l.461-9.51-33.727-7.268-2.405-30.012M189.449 156.923l-1.52-2.138M188.401 158.16l-1.839-2.342" stroke="#263238" stroke-linecap="round" stroke-linejoin="round"/><path d="M194.495 146.156s-8.96-2.75-10.752-.838c-1.792 1.912-5.617 6.932-4.779 7.529.839.598 3.82-1.676 4.538-2.153a8.529 8.529 0 0 0 1.436-1.315 6.641 6.641 0 0 0 6.449 1.676" fill="#fff"/><path d="M194.495 146.156s-8.96-2.75-10.752-.838c-1.792 1.912-5.617 6.932-4.779 7.529.839.598 3.82-1.676 4.538-2.153a8.529 8.529 0 0 0 1.436-1.315 6.641 6.641 0 0 0 6.449 1.676" stroke="#263238" stroke-linecap="round" stroke-linejoin="round"/><path d="M184.629 155.588s-.849 3.075-.524 3.594a1.164 1.164 0 0 0 1.31.524c.291-.124.556-.301.78-.524 0 0 .131-2.62-.262-3.264-.393-.645-.717-1.095-1.304-.33ZM182.339 155.996s-.849 3.07-.524 3.594a1.153 1.153 0 0 0 1.305.524c.293-.122.56-.3.786-.524 0 0 .131-2.619-.262-3.264-.393-.644-.713-1.111-1.305-.33ZM180.039 156.111s-.65 2.358-.398 2.756a.885.885 0 0 0 1 .404c.226-.094.431-.231.603-.404 0 0 .099-2.001-.199-2.504-.299-.503-.556-.854-1.006-.252ZM177.33 156.206s-.524 1.571-.315 1.828a.767.767 0 0 0 .786.262c.173-.059.335-.147.477-.262 0 0 .079-1.331-.157-1.661-.236-.33-.435-.566-.791-.167ZM196.276 144.574l1.195 11.113 3.94-.718-1.43-11.113-3.705.718Z" fill="#fff" stroke="#263238" stroke-linecap="round" stroke-linejoin="round"/><path d="m198.786 143.143 2.389 14.095 16.363-2.148 1.792-16.013-20.544 4.066Z" fill="#C5A32B" stroke="#263238" stroke-linecap="round" stroke-linejoin="round"/><path d="m211.633 155.865 5.905-.775 1.792-16.013-4.312.854-3.385 15.934Z" fill="#263238" stroke="#263238" stroke-linecap="round" stroke-linejoin="round"/><path d="m261.037 188.073-1.336-25.674s5.617-24.626 4.423-38.249c-1.195-13.623-10.396-27.833-10.396-27.833s-21.624 13.497-23.892 15.887c-2.269 2.389-6.324 6.444-7.519 10.269-1.195 3.825-5.853 27.351-5.853 27.351s-4.899 16.489-6.45 26.407c-.943 6.031-.827 9.798-.592 11.831l51.615.011Z" fill="#C5A32B" stroke="#263238" stroke-linecap="round" stroke-linejoin="round"/><path d="M252.916 100.807c1.482-.6 2.93-1.28 4.338-2.038M223.512 127.928c1.865-3.375 4.191-7.383 5.239-8.604 1.981-2.227 16.84-15.352 22.289-17.704M220.724 133.057s.885-1.676 2.096-3.877M234.462 134.346c0 7.681-1.048 15.284-.524 22.887-2.714 9.777-7.602 18.464-11.118 27.638M236.453 118.585s-2.232 3.343-1.985 9.531c.031.76.041 1.797.036 3.029M257.998 122.054s-4.951 38.144-5.449 41.241c-.356 2.216-7.948 14.341-12.234 21.042" stroke="#263238" stroke-linecap="round" stroke-linejoin="round"/><path d="m225.272 177.248-10.128-1.761.66-3.086 9.908 1.766" stroke="#263238" stroke-linecap="round" stroke-linejoin="round"/></svg>