<svg width="574" height="560" fill="none" xmlns="http://www.w3.org/2000/svg"><path fill-rule="evenodd" clip-rule="evenodd" d="M263.178 2.03c75.373 2.48 155.889 9.455 212.638 59.111 54.822 47.97 67.111 125.791 80.5 197.388 11.802 63.108 37.037 142.419-8.486 187.699-49.168 48.906-135.414 1.533-201.832 21.5-34.266 10.301-49.219 51.774-82.82 64.072-46.216 16.914-99.742 42.282-142.835 18.514-43.036-23.736-41.595-85.125-60.317-130.562-20.801-50.485-52.348-95.417-55.259-149.941C.655 192.768-13.46 102.325 40.12 46.802 94.096-9.132 185.481-.528 263.178 2.03Z" fill="#EDE3BF"/><path d="M95.272 252.528c-93.696 49.776-93.696 130.364 0 180.091 93.696 49.727 245.552 49.776 339.219 0 93.666-49.776 93.696-130.354 0-180.091-93.696-49.737-245.552-49.728-339.219 0ZM61.434 170.466l1.473.878 30.422-17.558-1.473-.888-30.422 17.568Z" fill="#FAFAFA"/><path d="m91.855 152.898-28.948 16.709v-30.305l28.948-16.7v30.296Z" fill="#fff"/><path d="m96.13 116.893-36.014 20.789v38.513l36.015-20.799v-38.503Zm-2.8 36.893-30.422 17.568v-32.052l30.421-17.568v32.052Z" fill="#F0F0F0"/><path d="m93.33 153.786-1.474-.888v-30.296l1.473-.868v32.052Z" fill="#E0E0E0"/><path d="m96.13 116.893-1.502-.869-36.015 20.799 1.503.859 36.015-20.789Z" fill="#FAFAFA"/><path d="m58.613 136.823 1.503.859v38.513l-1.503-.869v-38.503Z" fill="#E0E0E0"/><path d="M90.724 151.99 64.04 167.391v-7.701l6.676-15.401 4.148 3.855-1.493 6.452 9.213-19.696 8.14 9.389v7.701Z" fill="#F0F0F0"/><path d="M74.62 136.852a4.361 4.361 0 0 0-1.952 3.416c0 1.259.888 1.776 1.952 1.142a4.368 4.368 0 0 0 1.952-3.416c.02-1.259-.869-1.767-1.952-1.142Z" fill="#F0F0F0"/><path d="m61.434 225.219 1.473.888 30.422-17.568-1.473-.888-30.422 17.568Z" fill="#FAFAFA"/><path d="M91.855 207.651 62.907 224.36v-30.305l28.948-16.689v30.285Z" fill="#fff"/><path d="m96.13 171.646-36.014 20.789v38.503l36.015-20.798v-38.494Zm-2.8 36.893-30.422 17.568v-32.052l30.421-17.568v32.052Z" fill="#F0F0F0"/><path d="m93.33 208.539-1.474-.888v-30.285l1.473-.879v32.052Z" fill="#E0E0E0"/><path d="m96.13 171.646-1.502-.858-36.015 20.788 1.503.869 36.015-20.799Z" fill="#FAFAFA"/><path d="m58.613 191.576 1.503.869v38.503l-1.503-.859v-38.513Z" fill="#E0E0E0"/><path d="M90.724 206.753 64.04 222.154v-7.7l6.676-15.401 4.148 3.845-1.493 6.461 9.213-19.705 8.14 9.399v7.7Z" fill="#F0F0F0"/><path d="M74.62 191.615a4.357 4.357 0 0 0-1.952 3.416c0 1.259.888 1.767 1.952 1.133a4.371 4.371 0 0 0 1.952-3.416c.02-1.289-.869-1.767-1.952-1.133Z" fill="#F0F0F0"/><path d="m107.569 198.213 1.591.947 32.706-18.886-1.591-.946-32.706 18.885Z" fill="#FAFAFA"/><path d="m140.275 179.328-31.115 17.958v-84.278l31.115-17.948v84.268Z" fill="#fff"/><path d="m144.833 88.92-38.718 22.351v93.101l38.718-22.36V88.921Zm-2.928 91.354L109.16 199.16v-86.152l32.745-18.876v86.142Z" fill="#F0F0F0"/><path d="m141.866 180.274-1.591-.946V95.06l1.591-.928v86.142Z" fill="#E0E0E0"/><path d="m144.872 88.92-1.61-.927-38.728 22.351 1.62.927 38.718-22.35Z" fill="#FAFAFA"/><path d="m104.534 110.344 1.62.927v93.101l-1.62-.927v-93.101Z" fill="#E0E0E0"/><path d="m137.943 177.463-26.45 15.265v-76.909l26.45-15.264v76.908Z" fill="#F0F0F0"/><path d="m137.943 177.463-26.45 15.265v-76.909l26.45-15.264v76.908Z" fill="#F0F0F0"/><path d="M111.493 167.059c1.261.093 2.526.093 3.787 0a47.732 47.732 0 0 0 12.873-2.801c3.202-1.181 6.403-2.713 9.76-2.811v16.016l-3.581 2.07a12.07 12.07 0 0 0-4.88-2.723c-5.095-1.347-10.327 1.22-15.558 1.815-.797.088-1.599.127-2.401.117v-11.683ZM111.493 147.93c5.924-1.747 11.985-3.202 16.212-7.545 3.406-3.494 5.006-8.345 6.129-13.098 1.122-4.753 1.883-9.652 4.04-14.035a.771.771 0 0 1 .069-.126v35.389c-.332.488-.664.976-.976 1.464-3.904 5.271-9.614 9.663-16.143 10.004-3.075.156-6.247-.556-9.292-.546l-.039-11.507ZM111.493 130.342a18.039 18.039 0 0 0 5.856-16.406 18.623 18.623 0 0 0-.302-1.318l10.17-5.856c0 .664-.069 1.337-.088 1.952-.108 3.904 0 7.808-.83 11.614a22.775 22.775 0 0 1-11.595 14.972 21.072 21.072 0 0 1-3.221 1.347l.01-6.305ZM400.467 174.555l-1.737 1.044-57.545-33.233 1.737-1.044 57.545 33.233Z" fill="#FAFAFA"/><path d="m342.922 141.322 55.808 32.228V57.015l-55.808-32.208v116.515Z" fill="#fff"/><path d="m337.896 144.26 64.123 37.029V55.112l-64.123-37.03V144.26Zm3.289-120.477 57.584 33.232V175.6l-57.584-33.233V23.782Z" fill="#F5F5F5"/><path d="m341.185 142.366 1.737-1.044V24.807l-1.737-1.024v118.583Z" fill="#E0E0E0"/><path d="M398.73 132.772v2.04l-57.545-33.233 1.737-1.034 55.808 32.227ZM398.73 91.966v2.04l-57.545-33.223 1.737-1.045 55.808 32.228ZM337.896 18.083l1.766-1.015 64.123 37.029-1.766 1.015-64.123-37.03Z" fill="#FAFAFA"/><path d="m403.785 54.097-1.766 1.015V181.29l1.766-1.015V54.097ZM373.373 42.375l-1.776-1.025v118.594l1.776-1.015V42.375Z" fill="#E0E0E0"/><path d="m368.308 39.457 3.289 1.893v118.594l-3.289-1.913V39.457Z" fill="#F5F5F5"/><path d="M337.896 58.88v3.796l64.123 37.03v-3.797l-64.123-37.03ZM337.896 99.676v3.797l64.123 37.02v-3.787l-64.123-37.03Z" fill="#F5F5F5"/><path d="m371.597 78.35 1.776-1.024 25.356 14.64v2.04L371.597 78.35ZM371.597 119.128l1.776-1.025 25.356 14.64v2.05l-27.132-15.665ZM480.948 221.013l-1.747 1.044-57.545-33.233 1.747-1.034 57.545 33.223Z" fill="#FAFAFA"/><path d="m423.403 187.79 55.798 32.217V103.473l-55.798-32.208V187.79Z" fill="#fff"/><path d="m418.367 190.727 64.162 37.03V101.57l-64.162-36.99v126.147Zm3.289-120.487 57.584 33.233v118.584l-57.584-33.184V70.24Z" fill="#F5F5F5"/><path d="m421.656 188.824 1.747-1.034V71.265l-1.747-1.025v118.584Z" fill="#E0E0E0"/><path d="M479.201 179.23v2.04l-57.545-33.223 1.747-1.045 55.798 32.228ZM479.201 138.423v2.05l-57.545-33.233 1.747-1.044 55.798 32.227ZM418.367 64.55l1.767-1.015 64.123 37.029-1.767 1.006-64.123-37.02Z" fill="#FAFAFA"/><path d="m484.257 100.564-1.767 1.006v126.187l1.767-1.015V100.564ZM453.845 88.833l-1.767-1.025v118.594l1.767-1.015V88.833Z" fill="#E0E0E0"/><path d="m448.789 85.924 3.289 1.884v118.594l-3.289-1.903V85.924Z" fill="#F5F5F5"/><path d="M418.367 105.337v3.797l64.123 37.029v-3.797l-64.123-37.029ZM418.367 146.134v3.796l64.123 37.03v-3.797l-64.123-37.029Z" fill="#F5F5F5"/><path d="m452.078 124.808 1.767-1.025 25.356 14.64v2.05l-27.123-15.665ZM452.078 165.595l1.767-1.025 25.356 14.64v2.04l-27.123-15.655Z" fill="#FAFAFA"/><path d="m58.651 318.183 83.253 48.068 241.843-139.626-83.253-48.068L58.651 318.183Z" fill="#455A64"/><path d="m58.651 318.183 83.253 48.068v25.962l-83.253-48.068v-25.962Z" fill="#263238"/><path d="M383.747 226.625v25.961L141.904 392.213v-25.962l241.843-139.626Z" fill="#37474F"/><path d="m50.727 305.183 91.177 52.635 249.739-144.194-91.187-52.645-249.73 144.204Z" fill="#455A64"/><path d="m50.727 305.183 91.177 52.635v8.433l-91.177-52.645v-8.423Z" fill="#263238"/><path d="M391.643 213.624v8.423L141.904 366.251v-8.433l249.739-144.194Z" fill="#37474F"/><path opacity=".3" d="m58.651 324.869 83.253 48.068v-6.686l-83.253-48.068v6.686ZM141.904 372.937h.01l241.833-139.646v-6.666L141.904 366.251v6.686Z" fill="#000"/><path d="m292.589 15.467.791.449v111.771c0 2.548-1.552 5.515-3.465 6.618l-106.286 61.351a2.235 2.235 0 0 1-2.157.234 18.385 18.385 0 0 1-.898-.517 3.033 3.033 0 0 1-1.191-2.782V80.83l113.206-65.363Z" fill="#E0E0E0"/><path d="M182.263 195.637c-.976 0-1.65-.976-1.65-2.597V81.532l112.328-64.855v111.01a7.804 7.804 0 0 1-3.24 6.237l-106.287 61.351a2.277 2.277 0 0 1-1.151.362Z" fill="#FAFAFA"/><path d="M292.502 17.439v110.287a7.454 7.454 0 0 1-3.026 5.856l-106.277 61.323c-.293.182-.63.283-.976.292-.897 0-1.22-1.161-1.22-2.157V81.776L292.502 17.44Zm.878-1.523L180.164 81.308V193.04c0 1.904.859 3.036 2.089 3.036a2.748 2.748 0 0 0 1.366-.42l106.287-61.351c1.952-1.103 3.464-4.07 3.464-6.618V15.916h.01Z" fill="#E0E0E0"/><path d="m193.701 178.566 82.433-47.589V37.115l-82.433 47.6v93.851Z" fill="#E0E0E0"/><path d="m197.088 177.512-.381-.224a2.436 2.436 0 0 1-1.103-1.894V87.115a2.422 2.422 0 0 1 1.094-1.893l79.466-45.97a2.42 2.42 0 0 1 2.196 0l.38.215a2.422 2.422 0 0 1 1.093 1.893v88.279a2.42 2.42 0 0 1-1.093 1.894l-79.476 45.979a2.455 2.455 0 0 1-2.176 0Z" fill="#C5A32B"/><path opacity=".3" d="m197.088 177.512-.381-.224a2.436 2.436 0 0 1-1.103-1.894V87.115a2.422 2.422 0 0 1 1.094-1.893l79.466-45.97a2.42 2.42 0 0 1 2.196 0l.38.215a2.422 2.422 0 0 1 1.093 1.893v88.279a2.42 2.42 0 0 1-1.093 1.894l-79.476 45.979a2.455 2.455 0 0 1-2.176 0Z" fill="#fff"/><path d="M195.585 87.115v88.279a2.417 2.417 0 0 0 1.093 1.952l.371.215a2.459 2.459 0 0 0 1.952.107c-.498.147-.859-.136-.859-.741V88.599c.015-.381.13-.751.332-1.074l-2.547-1.474a2.365 2.365 0 0 0-.342 1.064Z" fill="#C5A32B"/><path d="M198.786 177.395c-.303 0-.342-.361-.342-.517v-88.27a2.131 2.131 0 0 1 .976-1.669l79.457-45.979c.11-.063.234-.1.361-.107.302 0 .341.36.341.507v88.279a2.17 2.17 0 0 1-.976 1.669l-79.466 45.97a.744.744 0 0 1-.351.117Z" fill="#FAFAFA"/><path d="M279.237 41.155a.376.376 0 0 1 .059.244v88.279a1.878 1.878 0 0 1-.839 1.435l-79.466 45.97a.46.46 0 0 1-.234.078.375.375 0 0 1-.059-.244V88.608a1.882 1.882 0 0 1 .839-1.445l79.476-46.008a.38.38 0 0 1 .224-.078m0-.537a.98.98 0 0 0-.488.157l-79.475 45.97a2.431 2.431 0 0 0-1.093 1.951v88.27c0 .488.244.78.605.78.172-.007.34-.057.488-.146l79.475-45.979a2.427 2.427 0 0 0 1.094-1.894V41.36c0-.488-.244-.78-.606-.78v-.04Z" fill="#C5A32B"/><path d="M270.239 53.287a4.16 4.16 0 0 0-1.331 1.4 4.164 4.164 0 0 0-.553 1.85c0 1.2.85 1.679 1.884 1.083a4.146 4.146 0 0 0 1.874-3.25c0-1.2-.839-1.678-1.874-1.083Z" fill="#C5A32B"/><path d="M266.93 56.947a2.992 2.992 0 0 1-1.385 2.303l-12.796 7.379c-.761.449-1.386.136-1.386-.693a2.925 2.925 0 0 1 1.386-2.333l12.796-7.388c.761-.42 1.385-.088 1.385.732Z" fill="#EBEBEB"/><path d="M270.239 62.266a4.172 4.172 0 0 0-1.884 3.29c0 1.2.85 1.688 1.884 1.083a4.146 4.146 0 0 0 1.874-3.25c0-1.23-.839-1.738-1.874-1.123Z" fill="#C5A32B"/><path opacity=".3" d="M270.239 62.266a4.172 4.172 0 0 0-1.884 3.29c0 1.2.85 1.688 1.884 1.083a4.146 4.146 0 0 0 1.874-3.25c0-1.23-.839-1.738-1.874-1.123Z" fill="#000"/><path d="M266.93 65.936a2.92 2.92 0 0 1-1.385 2.293l-12.796 7.389c-.761.439-1.386.127-1.386-.703a2.978 2.978 0 0 1 1.386-2.294l12.796-7.388c.761-.439 1.385-.127 1.385.703Z" fill="#EBEBEB"/><path d="M239.582 107.845V81.972c6.832-3.904 13.117 0 15.294 9.184 2.703 11.302-1.786 28.928-10.092 38.298l-5.202-21.609Z" fill="#C5A32B"/><path d="M238.752 133.417a11.805 11.805 0 0 1-4.187 1.512l4.187-22.233 4.178 17.402a19.994 19.994 0 0 1-4.178 3.319Z" fill="#E6E6E6"/><path d="M238.752 133.417a11.805 11.805 0 0 1-4.187 1.512l4.187-22.233 4.178 17.402a19.994 19.994 0 0 1-4.178 3.319Z" fill="#C5A32B"/><path d="M238.752 133.417a11.805 11.805 0 0 1-4.187 1.512l4.187-22.233 4.178 17.402a19.994 19.994 0 0 1-4.178 3.319Z" fill="#fff" opacity=".8"/><path d="M232.721 136.423c-4.509.175-8.228-3.426-9.828-9.468l14.561-15.674-4.733 25.142Z" fill="#E6E6E6"/><path d="M232.721 136.423c-4.509.175-8.228-3.426-9.828-9.468l14.561-15.674-4.733 25.142Z" fill="#C5A32B"/><path d="M232.721 136.423c-4.509.175-8.228-3.426-9.828-9.468l14.561-15.674-4.733 25.142Z" fill="#fff" opacity=".65"/><path d="M223.176 123.969a30.443 30.443 0 0 1-.547-6.129c0-13.254 6.784-28.04 15.284-33.614v23.854l-14.737 15.889Z" fill="#E6E6E6"/><path d="M223.176 123.969a30.443 30.443 0 0 1-.547-6.129c0-13.254 6.784-28.04 15.284-33.614v23.854l-14.737 15.889Z" fill="#C5A32B"/><path d="M223.176 123.969a30.443 30.443 0 0 1-.547-6.129c0-13.254 6.784-28.04 15.284-33.614v23.854l-14.737 15.889Z" fill="#fff" opacity=".35"/><path d="M250.475 93.303v-.254a.876.876 0 0 1 .253-.449l.976-.566c.098-.058.127.059.069.254a.843.843 0 0 1-.254.44l-.976.575s-.059.02-.068 0Zm1.952-1.152v-.254a.912.912 0 0 1 .263-.439l.976-.576c.088-.058.117.059.068.254a.969.969 0 0 1-.263.45l-.976.565s-.02.02-.039 0h-.029Zm1.952-1.142v-.253a.876.876 0 0 1 .253-.45l.976-.565c.098-.059.127.058.069.253a.843.843 0 0 1-.254.44l-.976.575h-.068Zm1.952-1.142a.308.308 0 0 1 0-.253.784.784 0 0 1 .263-.45l.976-.575c.088-.059.117.058.068.254a.969.969 0 0 1-.263.449l-.976.566c.01 0 .02.004.029.01h-.097Zm1.952-1.151v-.254a.876.876 0 0 1 .253-.449l.976-.566c.088-.059.127.058.069.254a.843.843 0 0 1-.254.439l-.976.576s.078.02.068 0h-.136Zm1.952-1.142a.308.308 0 0 1 0-.254.784.784 0 0 1 .263-.449l.732-.42c.088-.058.127 0 .068.244a.773.773 0 0 1-.263.45l-.732.429h-.068ZM217.729 111.837v-.254a.795.795 0 0 1 .264-.439l.976-.576c.088-.058.117.059.068.254a.968.968 0 0 1-.263.449l-.976.566s-.049.02-.069 0Zm1.952-1.142v-.253a.88.88 0 0 1 .254-.449l.976-.567c.098-.058.127.059.069.244a.845.845 0 0 1-.254.449l-.976.576s-.02.02-.029 0h-.04Zm1.952-1.142a.324.324 0 0 1 0-.253.778.778 0 0 1 .264-.449l.976-.576c.098-.059.127.058.078.254a.986.986 0 0 1-.263.449l-.976.566-.01.009h-.069Zm1.952-1.151v-.254a.884.884 0 0 1 .254-.449l.976-.566c.098-.059.127.058.069.254a.844.844 0 0 1-.254.439l-.976.576s.049.019.039 0h-.108Zm1.952-1.142a.335.335 0 0 1 0-.264.795.795 0 0 1 .264-.439l.976-.576c.098-.058.127.059.078.254a.976.976 0 0 1-.263.449l-.976.566a.051.051 0 0 1 .03-.003.06.06 0 0 1 .028.013h-.137Zm1.952-1.152v-.254a.888.888 0 0 1 .254-.449l.713-.41c.088 0 .127.069.068.254a.782.782 0 0 1-.263.449l-.703.41s.117.02.107 0h-.176ZM248.922 93.947a1.607 1.607 0 0 1 .615-1.298c.332-.195.605.068.605.586a1.61 1.61 0 0 1-.605 1.298c-.341.195-.615-.069-.615-.586Z" fill="#455A64"/><path d="M228.154 105.571a1.62 1.62 0 0 1 .614-1.298c.332-.195.606.069.606.586a1.623 1.623 0 0 1-.606 1.298c-.341.195-.614-.068-.614-.586ZM238.138 131.221a1.616 1.616 0 0 1 .615-1.299c.332-.195.615.069.615.586a1.629 1.629 0 0 1-.615 1.298c-.342.195-.615-.068-.615-.585ZM218.813 145.187v-.254a.983.983 0 0 1 .264-.449l.976-.575c.088-.049.117.058.068.253a.814.814 0 0 1-.263.449l-.976.576h-.069Zm1.952-1.152v-.253a.753.753 0 0 1 .264-.44l.976-.575c.098-.059.127.058.068.253a.846.846 0 0 1-.253.44l-.976.575s-.03.02-.039 0h-.04Zm1.952-1.141v-.254a.978.978 0 0 1 .264-.449l.976-.576c.088-.049.117.068.068.254a.785.785 0 0 1-.263.449l-.976.576h-.069Zm1.952-1.152v-.254a.844.844 0 0 1 .254-.439l.976-.576c.098-.059.127.059.069.254a.802.802 0 0 1-.254.439l-.976.576s.049.019.039 0h-.108Zm1.952-1.142v-.254a.978.978 0 0 1 .264-.449l.976-.576c.088-.048.117.059.068.254a.817.817 0 0 1-.263.449l-.976.576a.06.06 0 0 1 .034-.011.06.06 0 0 1 .034.011h-.137Zm1.425-1.689a.132.132 0 0 1 0-.097v-1.532c.019-.184.086-.359.196-.508.097-.146.185-.146.185 0v1.523a1.117 1.117 0 0 1-.185.517c.029.097-.03.127-.059.097h-.137Zm0-3.064v-1.62a.977.977 0 0 1 .196-.508c.107-.146.185-.146.185 0v1.532a1.12 1.12 0 0 1-.185.518c.029.058-.03.117-.059.058l-.137.02Zm0-3.055a.137.137 0 0 1 0-.098v-1.493c.019-.184.086-.359.196-.507.107-.147.185-.147.185 0v1.493a1.065 1.065 0 0 1-.185.507c.029.098-.03.127-.059.098h-.137Z" fill="#455A64"/><path d="M227.734 130.362a1.604 1.604 0 0 1 .615-1.298c.332-.196.605.068.605.585a1.627 1.627 0 0 1-.605 1.298c-.342.195-.615-.068-.615-.585ZM238.587 139.185a.12.12 0 0 1-.01-.049.12.12 0 0 1 .01-.049v-.908a.975.975 0 0 1 .195-.507c.107-.146.195-.146.186 0v.761l.312-.175c.097 0 .127.058.068.253a.82.82 0 0 1-.263.449l-.4.234-.098-.009Zm1.396-.81a.294.294 0 0 1-.028-.127c0-.044.009-.087.028-.127a.817.817 0 0 1 .263-.449l.976-.566c.098-.059.127.058.078.254a.924.924 0 0 1-.263.439l-.976.576s-.059.019-.078 0Zm-1.396-1.63v-1.62a.975.975 0 0 1 .195-.508c.107-.146.186-.146.186 0v1.532a.98.98 0 0 1-.186.508c-.107.088-.166.146-.195.088Zm3.377.488v-.264a.92.92 0 0 1 .263-.439l.976-.576c.088-.058.127.059.069.254a.825.825 0 0 1-.264.449l-.976.566a.079.079 0 0 1-.033.013.102.102 0 0 1-.035-.003Zm-3.377-3.543a.12.12 0 0 1-.01-.049.12.12 0 0 1 .01-.049v-1.522c.017-.187.084-.366.195-.518.107-.146.186-.146.186 0v1.533a.98.98 0 0 1-.186.507c-.097.098-.166.127-.195.098Zm5.368 2.391a.31.31 0 0 1 0-.254.823.823 0 0 1 .263-.449l.976-.566c.098-.058.127.059.079.254a.867.867 0 0 1-.264.439l-.976.576s-.059.02-.078 0Zm1.952-1.142v-.263a.922.922 0 0 1 .263-.44l.976-.575c.088-.049.127.068.069.253a.815.815 0 0 1-.264.449l-.976.566s-.019.02-.039.01h-.029Zm1.952-1.152a.305.305 0 0 1 0-.253.82.82 0 0 1 .263-.449l.976-.566c.098-.059.127.058.079.253a.924.924 0 0 1-.264.44l-.976.575s.01.02-.01 0h-.068ZM249.908 132.646v-.264a.92.92 0 0 1 .264-.439l.976-.576c.088-.059.127.059.068.254a.823.823 0 0 1-.263.449l-.976.566s-.049.019-.069.01ZM251.899 131.494v-.254a.825.825 0 0 1 .264-.449l.976-.566c.098-.059.127.049.078.244a.908.908 0 0 1-.264.449l-.976.576s-.058.019-.078 0ZM253.881 130.342v-.254a.924.924 0 0 1 .263-.439l.976-.576c.088-.058.127.059.069.254a.75.75 0 0 1-.264.439l-.976.576s-.049.02-.068 0ZM255.872 129.2v-.254a.816.816 0 0 1 .264-.448l.976-.576c.097-.049.126.058.068.253a.877.877 0 0 1-.254.449l-.976.576a.058.058 0 0 1-.078 0Z" fill="#455A64"/><path d="m204.105 124.252 11.4-6.686a1.9 1.9 0 0 0 .8-1.473c0-.567-.352-.82-.791-.567l-11.507 6.569a1.824 1.824 0 0 0-.751 1.532c.029.605.41.879.849.625ZM204.885 157.504l11.4-6.685a1.866 1.866 0 0 0 .8-1.474c0-.566-.351-.81-.79-.566l-11.507 6.568a1.782 1.782 0 0 0-.742 1.533c.02.605.4.878.839.624ZM258.742 132.782l11.399-6.715a1.858 1.858 0 0 0 .801-1.473c0-.567-.352-.811-.781-.567l-11.517 6.569a1.798 1.798 0 0 0-.742 1.542c.03.625.4.898.84.644ZM262.216 93.508l11.449-6.676a1.943 1.943 0 0 0 .8-1.483c0-.557-.351-.81-.79-.557l-11.507 6.569a1.808 1.808 0 0 0-.752 1.532c-.019.595.361.878.8.615Z" fill="#E0E0E0"/><path d="m179.608 84.626-2.635-4.597 115.851-66.885a1.288 1.288 0 0 1 1.356.107 4.14 4.14 0 0 1 1.933 3.24 1.343 1.343 0 0 1-.517 1.192L179.608 84.626Z" fill="#455A64"/><path d="M180.174 83.406a4.147 4.147 0 0 0-1.874-3.211c-1.035-.605-1.874-.117-1.874 1.074a4.143 4.143 0 0 0 1.874 3.25c1.034.556 1.874.078 1.874-1.113Z" fill="#263238"/><path d="M104.554 404.383c8.51 4.968 8.51 13.03 0 17.998-8.511 4.968-22.312 4.977-30.832 0-8.52-4.978-8.511-13.03 0-17.998 8.51-4.967 22.311-4.967 30.832 0ZM364.979 416.71l-50.596-29.221c-3.172-1.835-3.172-4.88.059-6.725l31.378-18.085a12.94 12.94 0 0 1 11.712 0l50.557 29.075c3.231 1.864 3.231 4.88 0 6.754l-31.32 18.232a13.021 13.021 0 0 1-11.79-.03ZM300.017 454.14l-50.752-29.134c-3.182-1.835-3.182-4.88.058-6.724l31.496-18.173a12.951 12.951 0 0 1 11.712 0l50.557 29.075c3.23 1.864 3.23 4.88 0 6.753l-31.32 18.232a13.018 13.018 0 0 1-11.751-.029ZM429.522 379.154 378.77 350.03c-3.172-1.835-3.172-4.88.059-6.734l31.534-18.125a12.94 12.94 0 0 1 11.712 0l50.557 29.066c3.231 1.873 3.231 4.88 0 6.763l-31.31 18.232a13.017 13.017 0 0 1-11.8-.078Z" fill="#E0E0E0"/><path d="M148.434 334.375c24.898 0 45.081-11.654 45.081-26.03 0-14.376-20.183-26.03-45.081-26.03-24.898 0-45.081 11.654-45.081 26.03 0 14.376 20.183 26.03 45.081 26.03ZM76.513 413.587c-6.754-6.968-10.736-24.478-4.128-30.002h33.506c6.578 5.524 2.615 23.024-4.129 29.992l-.185.196-.225.234c-.195.185-.4.361-.615.546l-.166.127c-.156.127-.322.264-.507.391a9.62 9.62 0 0 1-.869.566c-5.553 3.24-14.552 3.24-20.105 0-.307-.17-.6-.363-.879-.576a6.05 6.05 0 0 1-.478-.361 1.589 1.589 0 0 1-.195-.156c-.215-.176-.41-.352-.596-.527l-.263-.264-.166-.166Z" fill="#37474F"/><path d="M102.982 381.36c7.642 4.47 7.642 11.712 0 16.162-7.642 4.451-20.037 4.461-27.68 0-7.641-4.46-7.641-11.712 0-16.162 7.643-4.451 20.038-4.461 27.68 0Z" fill="#455A64"/><path d="M99.302 383.507c5.613 3.279 5.613 8.589 0 11.868-5.612 3.279-14.708 3.279-20.33 0-5.621-3.279-5.612-8.589 0-11.868 5.612-3.28 14.719-3.27 20.33 0Z" fill="#263238"/><path d="M78.973 389.138c5.621-3.269 14.718-3.269 20.33 0a9.403 9.403 0 0 1 3.367 3.124 9.389 9.389 0 0 1-3.367 3.113c-5.612 3.279-14.709 3.279-20.33 0a9.42 9.42 0 0 1-3.358-3.113 9.44 9.44 0 0 1 3.358-3.124Z" fill="#FAFAFA"/><path d="M86.889 344.467c-2.567 2.781-9.702 3.552-12.688-3.972-2.772-7.047-5.759-13.723-6.618-16.319a2.654 2.654 0 0 1 1.708-3.436s.205-3.904 6.774-1.249c6.568 2.655 11.185 6.656 14.113 13.049 2.928 6.393 1.103 11.058-3.29 11.927Z" fill="#C5A32B"/><path opacity=".45" d="M86.889 344.467c-2.567 2.781-9.702 3.552-12.688-3.972-2.772-7.047-5.759-13.723-6.618-16.319a2.654 2.654 0 0 1 1.708-3.436s.205-3.904 6.774-1.249c6.568 2.655 11.185 6.656 14.113 13.049 2.928 6.393 1.103 11.058-3.29 11.927Z" fill="#fff"/><path d="M89.728 354.451c-.12-1.31-.31-2.613-.566-3.904a54.898 54.898 0 0 0-2.177-7.564 55.635 55.635 0 0 0-7.612-14.044 48.082 48.082 0 0 0-5.973-6.774c-.069-.068-.118.088-.079.137a59.219 59.219 0 0 1 9.36 12.932 59.965 59.965 0 0 1 5.417 14.64c.322 1.425.635 2.86.898 4.304.264 1.444.42 2.928.664 4.402 0 .146.254.244.263 0a27.357 27.357 0 0 0-.195-4.129Z" fill="#C5A32B"/><path opacity=".3" d="M89.728 354.451c-.12-1.31-.31-2.613-.566-3.904a54.898 54.898 0 0 0-2.177-7.564 55.635 55.635 0 0 0-7.612-14.044 48.082 48.082 0 0 0-5.973-6.774c-.069-.068-.118.088-.079.137a59.219 59.219 0 0 1 9.36 12.932 59.965 59.965 0 0 1 5.417 14.64c.322 1.425.635 2.86.898 4.304.264 1.444.42 2.928.664 4.402 0 .146.254.244.263 0a27.357 27.357 0 0 0-.195-4.129Z" fill="#000"/><path d="M91.924 342.515c-5.856 1.825-10.277-2.772-8.784-9.994 1.493-7.223 9.097-15.226 11.966-13.069 1.786-1.786 5.719-1.142 7.574 4.714 1.854 5.856.185 20.906-10.756 18.349Z" fill="#C5A32B"/><path opacity=".25" d="M91.924 342.515c-5.856 1.825-10.277-2.772-8.784-9.994 1.493-7.223 9.097-15.226 11.966-13.069 1.786-1.786 5.719-1.142 7.574 4.714 1.854 5.856.185 20.906-10.756 18.349Z" fill="#fff"/><path d="M95.38 323.844a79.692 79.692 0 0 0-3.905 12.961 127.475 127.475 0 0 0-2.274 13.576 212.433 212.433 0 0 0-1.18 26.606c0 2.45 0 4.88.097 7.359s0 5.085.224 7.603c.088.976 1.454.703 1.474-.175.088-4.422-.156-8.863-.195-13.284-.04-4.421 0-8.735.078-13.107.148-8.895.937-17.767 2.362-26.548.43-2.449.888-4.88 1.464-7.31.576-2.43 1.337-5.046 1.952-7.564.078-.127-.04-.254-.098-.117Z" fill="#C5A32B"/><path opacity=".3" d="M95.38 323.844a79.692 79.692 0 0 0-3.905 12.961 127.475 127.475 0 0 0-2.274 13.576 212.433 212.433 0 0 0-1.18 26.606c0 2.45 0 4.88.097 7.359s0 5.085.224 7.603c.088.976 1.454.703 1.474-.175.088-4.422-.156-8.863-.195-13.284-.04-4.421 0-8.735.078-13.107.148-8.895.937-17.767 2.362-26.548.43-2.449.888-4.88 1.464-7.31.576-2.43 1.337-5.046 1.952-7.564.078-.127-.04-.254-.098-.117Z" fill="#000"/><path d="M82.37 363.675c-2.577 2.928-8.482 2.664-12.435-2.538-3.953-5.202-6.334-24.771-.77-23.522 1.18-2.615 16.591 3.66 18.543 16.426 1.406 9.282-5.338 9.634-5.338 9.634Z" fill="#C5A32B"/><path opacity=".25" d="M82.37 363.675c-2.577 2.928-8.482 2.664-12.435-2.538-3.953-5.202-6.334-24.771-.77-23.522 1.18-2.615 16.591 3.66 18.543 16.426 1.406 9.282-5.338 9.634-5.338 9.634Z" fill="#fff"/><path d="M86.928 372.927a27.986 27.986 0 0 0-.752-3.572 74.765 74.765 0 0 0-2.294-7.076 74.17 74.17 0 0 0-6.832-13.498 66.75 66.75 0 0 0-4.88-6.901c0-.058-.097.079-.068.118 1.376 2.01 2.772 3.991 4.011 6.08 1.24 2.089 2.353 4.421 3.436 6.715a92.788 92.788 0 0 1 5.075 13.615c.38 1.327.693 2.674 1.084 3.992.39 1.318.917 2.713 1.259 4.109.058.195.312.273.283 0-.117-1.191-.156-2.391-.322-3.582Z" fill="#C5A32B"/><path opacity=".3" d="M86.928 372.927a27.986 27.986 0 0 0-.752-3.572 74.765 74.765 0 0 0-2.294-7.076 74.17 74.17 0 0 0-6.832-13.498 66.75 66.75 0 0 0-4.88-6.901c0-.058-.097.079-.068.118 1.376 2.01 2.772 3.991 4.011 6.08 1.24 2.089 2.353 4.421 3.436 6.715a92.788 92.788 0 0 1 5.075 13.615c.38 1.327.693 2.674 1.084 3.992.39 1.318.917 2.713 1.259 4.109.058.195.312.273.283 0-.117-1.191-.156-2.391-.322-3.582Z" fill="#000"/><path d="M91.749 360.786c-3.367-.762-3.533-4.812.673-9.76 4.207-4.949 14.826-7.135 15.333-5.037 2.352 0 2.352 7.389-2.859 14.172-5.212 6.783-12.825 5.192-13.147.625Z" fill="#C5A32B"/><path opacity=".25" d="M91.749 360.786c-3.367-.762-3.533-4.812.673-9.76 4.207-4.949 14.826-7.135 15.333-5.037 2.352 0 2.352 7.389-2.859 14.172-5.212 6.783-12.825 5.192-13.147.625Z" fill="#fff"/><path d="M98.356 353.563a27.589 27.589 0 0 0-5.856 5.544 27.081 27.081 0 0 0-3.904 7.047c-.117.292.38.712.507.4a30.99 30.99 0 0 1 9.263-12.923s.029-.097-.01-.068Z" fill="#C5A32B"/><path opacity=".3" d="M98.356 353.563a27.589 27.589 0 0 0-5.856 5.544 27.081 27.081 0 0 0-3.904 7.047c-.117.292.38.712.507.4a30.99 30.99 0 0 1 9.263-12.923s.029-.097-.01-.068Z" fill="#000"/><path d="M95.604 385.439c-4.666 1.884-2.665 7.447 1.883 11.664a20.83 20.83 0 0 0 14.211 5.114c3.133-.225 3.904-.654 3.904-.654a35.58 35.58 0 0 0 0-7.72 14.912 14.912 0 0 0-11-11.849c-7.251-1.971-8.998.664-8.998 3.445Z" fill="#C5A32B"/><path opacity=".45" d="M95.604 385.439c-4.666 1.884-2.665 7.447 1.883 11.664a20.83 20.83 0 0 0 14.211 5.114c3.133-.225 3.904-.654 3.904-.654a35.58 35.58 0 0 0 0-7.72 14.912 14.912 0 0 0-11-11.849c-7.251-1.971-8.998.664-8.998 3.445Z" fill="#fff"/><path d="M108.526 393.647a37.749 37.749 0 0 0-7.154-6.617c-2.655-1.747-6.198-3.24-9.38-2.147-1.239.42-3.162 1.649-2.928 3.182 0 .146.293.527.479.322a11.96 11.96 0 0 1 1.678-1.952 4.975 4.975 0 0 1 2.509-.976 11.634 11.634 0 0 1 6.539 1.493c3.152 1.669 5.7 4.265 8.218 6.754.029.039.058-.039.039-.059Z" fill="#C5A32B"/><path opacity=".3" d="M108.526 393.647a37.749 37.749 0 0 0-7.154-6.617c-2.655-1.747-6.198-3.24-9.38-2.147-1.239.42-3.162 1.649-2.928 3.182 0 .146.293.527.479.322a11.96 11.96 0 0 1 1.678-1.952 4.975 4.975 0 0 1 2.509-.976 11.634 11.634 0 0 1 6.539 1.493c3.152 1.669 5.7 4.265 8.218 6.754.029.039.058-.039.039-.059Z" fill="#000"/><path d="M77.83 361.537c.45-2.118-2.625-7.213-12.19-8.189-9.564-.976-16.738 3.055-18.182 4.939-1.445 1.884-2.177 3.806-.44 4.294 1.738.488 7.711 1.064 11.644 2.87 3.934 1.805 11.898 7.144 17.344 5.563 5.446-1.581 4.538-7.359 1.825-9.477Z" fill="#C5A32B"/><path opacity=".45" d="M77.83 361.537c.45-2.118-2.625-7.213-12.19-8.189-9.564-.976-16.738 3.055-18.182 4.939-1.445 1.884-2.177 3.806-.44 4.294 1.738.488 7.711 1.064 11.644 2.87 3.934 1.805 11.898 7.144 17.344 5.563 5.446-1.581 4.538-7.359 1.825-9.477Z" fill="#fff"/><path d="M85.102 368.945c-4.03-8.335-14.435-10.873-22.936-10.834-2.796.014-5.58.378-8.286 1.084v.097c4.58-.781 9.254-.83 13.85-.146a28.716 28.716 0 0 1 12.687 4.88 17.238 17.238 0 0 1 4.5 5.065c.117.215.273 0 .185-.146Z" fill="#C5A32B"/><path opacity=".3" d="M85.102 368.945c-4.03-8.335-14.435-10.873-22.936-10.834-2.796.014-5.58.378-8.286 1.084v.097c4.58-.781 9.254-.83 13.85-.146a28.716 28.716 0 0 1 12.687 4.88 17.238 17.238 0 0 1 4.5 5.065c.117.215.273 0 .185-.146Z" fill="#000"/><path d="M100.122 350.372c-.117 3.347 4.587 5.29 9.145 2.401 4.558-2.889 9.341-5.71 13.557-6.832 4.216-1.123 6.227-4.539 4.88-6.208-1.347-1.669-3.455-5.856-14.552-4.499-11.097 1.357-15.04 6.383-16.592 9.906-1.552 3.524 1.893 6.198 3.562 5.232Z" fill="#C5A32B"/><path opacity=".45" d="M100.122 350.372c-.117 3.347 4.587 5.29 9.145 2.401 4.558-2.889 9.341-5.71 13.557-6.832 4.216-1.123 6.227-4.539 4.88-6.208-1.347-1.669-3.455-5.856-14.552-4.499-11.097 1.357-15.04 6.383-16.592 9.906-1.552 3.524 1.893 6.198 3.562 5.232Z" fill="#fff"/><path d="M118.199 339.753a12.11 12.11 0 0 0-4.763.498 23.075 23.075 0 0 0-4.08 1.464 22.341 22.341 0 0 0-6.939 5.026 19.564 19.564 0 0 0-1.572 1.854 7.978 7.978 0 0 0-1.18 1.952c-.079.225.243.576.439.352.546-.625.976-1.406 1.473-2.069a22.466 22.466 0 0 1 1.786-2.05 22.719 22.719 0 0 1 4.285-3.367 25.86 25.86 0 0 1 4.734-2.304c.905-.323 1.827-.6 2.762-.829a9.397 9.397 0 0 1 3.025-.42s.078-.049.03-.107Z" fill="#C5A32B"/><path opacity=".3" d="M118.199 339.753a12.11 12.11 0 0 0-4.763.498 23.075 23.075 0 0 0-4.08 1.464 22.341 22.341 0 0 0-6.939 5.026 19.564 19.564 0 0 0-1.572 1.854 7.978 7.978 0 0 0-1.18 1.952c-.079.225.243.576.439.352.546-.625.976-1.406 1.473-2.069a22.466 22.466 0 0 1 1.786-2.05 22.719 22.719 0 0 1 4.285-3.367 25.86 25.86 0 0 1 4.734-2.304c.905-.323 1.827-.6 2.762-.829a9.397 9.397 0 0 1 3.025-.42s.078-.049.03-.107Z" fill="#000"/><path d="M92.13 368.437c-1.562-1.561-5.778-1.2-7.808 3.407-2.03 4.606 2.196 9.623 2.664 11.038 1.952-1.112 3.436-.449 6.832-1.112a8.465 8.465 0 0 0 6.5-8.453c-.156-4.226-1.942-6.988-8.188-4.88Z" fill="#C5A32B"/><path opacity=".45" d="M92.13 368.437c-1.562-1.561-5.778-1.2-7.808 3.407-2.03 4.606 2.196 9.623 2.664 11.038 1.952-1.112 3.436-.449 6.832-1.112a8.465 8.465 0 0 0 6.5-8.453c-.156-4.226-1.942-6.988-8.188-4.88Z" fill="#fff"/><path d="M92.13 367.969a6.257 6.257 0 0 0-2.09 2.098 11.336 11.336 0 0 0-1.337 2.577 10.913 10.913 0 0 0-.585 5.856c0 .078.068 0 .068 0-.159-1.98.176-3.969.976-5.788.373-.826.842-1.605 1.396-2.323.3-.382.627-.744.976-1.083.327-.267.625-.568.888-.898.088-.176-.088-.546-.293-.439Z" fill="#C5A32B"/><path opacity=".3" d="M92.13 367.969a6.257 6.257 0 0 0-2.09 2.098 11.336 11.336 0 0 0-1.337 2.577 10.913 10.913 0 0 0-.585 5.856c0 .078.068 0 .068 0-.159-1.98.176-3.969.976-5.788.373-.826.842-1.605 1.396-2.323.3-.382.627-.744.976-1.083.327-.267.625-.568.888-.898.088-.176-.088-.546-.293-.439Z" fill="#000"/><path d="M84.838 377.748c-.146-3.416-3.903-6.129-9.135-7.7a14.354 14.354 0 0 0-14.806 3.923c-3.855 4.187-5.856 7.808-4.285 8.784 1.572.976 8.56 3.563 13.128 4.988 4.567 1.425 10.55 1.854 15.118-.849 4.568-2.704 4.255-7.428-.02-9.146Z" fill="#C5A32B"/><path opacity=".25" d="M84.838 377.748c-.146-3.416-3.903-6.129-9.135-7.7a14.354 14.354 0 0 0-14.806 3.923c-3.855 4.187-5.856 7.808-4.285 8.784 1.572.976 8.56 3.563 13.128 4.988 4.567 1.425 10.55 1.854 15.118-.849 4.568-2.704 4.255-7.428-.02-9.146Z" fill="#fff"/><path d="M85.132 377.368a14.463 14.463 0 0 0-5.69-1.533 26.22 26.22 0 0 0-5.74.069 36.35 36.35 0 0 0-5.972 1.259c-.976.302-2.03.634-3.026.976-.944.311-1.864.693-2.752 1.142 0 0-.059.127 0 .117.976-.205 1.952-.576 2.86-.869.907-.293 2.04-.615 3.074-.888a39.753 39.753 0 0 1 5.856-1.103 26.34 26.34 0 0 1 5.953 0c1.825.308 3.622.755 5.378 1.337.371.127.225-.39.059-.507Z" fill="#C5A32B"/><path opacity=".3" d="M85.132 377.368a14.463 14.463 0 0 0-5.69-1.533 26.22 26.22 0 0 0-5.74.069 36.35 36.35 0 0 0-5.972 1.259c-.976.302-2.03.634-3.026.976-.944.311-1.864.693-2.752 1.142 0 0-.059.127 0 .117.976-.205 1.952-.576 2.86-.869.907-.293 2.04-.615 3.074-.888a39.753 39.753 0 0 1 5.856-1.103 26.34 26.34 0 0 1 5.953 0c1.825.308 3.622.755 5.378 1.337.371.127.225-.39.059-.507Z" fill="#000"/><path d="M95.72 372.654c-3.767-2.997-2.508-10.18 10.688-10.57 13.195-.391 22.633 3.064 22.214 7.31 2.118 2.128 1.044 8.071-9.643 9.936-10.687 1.864-25.981.927-23.258-6.676Z" fill="#C5A32B"/><path opacity=".25" d="M95.72 372.654c-3.767-2.997-2.508-10.18 10.688-10.57 13.195-.391 22.633 3.064 22.214 7.31 2.118 2.128 1.044 8.071-9.643 9.936-10.687 1.864-25.981.927-23.258-6.676Z" fill="#fff"/><path d="M122.385 369.443a56.785 56.785 0 0 0-11.8-.693 45.786 45.786 0 0 0-10.882 1.249c-.913.245-1.801.572-2.655.976a11.86 11.86 0 0 0-1.162.615c-.302.185-.634.341-.741.693a.363.363 0 0 0 .228.398.375.375 0 0 0 .162.022 14.634 14.634 0 0 0 2.313-1.142 18.75 18.75 0 0 1 2.284-.84 29.124 29.124 0 0 1 4.587-.898 81.898 81.898 0 0 1 11.146-.615c2.167 0 4.324.196 6.491.362.097.029.117-.118.029-.127Z" fill="#C5A32B"/><path opacity=".3" d="M122.385 369.443a56.785 56.785 0 0 0-11.8-.693 45.786 45.786 0 0 0-10.882 1.249c-.913.245-1.801.572-2.655.976a11.86 11.86 0 0 0-1.162.615c-.302.185-.634.341-.741.693a.363.363 0 0 0 .228.398.375.375 0 0 0 .162.022 14.634 14.634 0 0 0 2.313-1.142 18.75 18.75 0 0 1 2.284-.84 29.124 29.124 0 0 1 4.587-.898 81.898 81.898 0 0 1 11.146-.615c2.167 0 4.324.196 6.491.362.097.029.117-.118.029-.127Z" fill="#000"/><path d="M445.343 155.103a17.958 17.958 0 0 1-4.879 12.308l-1.484 1.415a17.987 17.987 0 0 1-25.376-25.288l1.415-1.494a17.984 17.984 0 0 1 19.451-3.43 17.985 17.985 0 0 1 10.873 16.489Z" fill="#fff"/><path d="M427.297 135.622a19.523 19.523 0 0 0-19.421 17.934 19.52 19.52 0 0 0 16.259 20.843l2.206 5.651a1.132 1.132 0 0 0 2.118 0l2.176-5.661a19.52 19.52 0 0 0-3.338-38.767Zm18.047 19.52c0 4.575-1.746 8.976-4.88 12.308l-1.484 1.415a17.984 17.984 0 0 1-24.225-1.067 17.985 17.985 0 0 1-1.151-24.221l1.415-1.494a17.987 17.987 0 0 1 30.325 13.059Z" fill="#E0E0E0"/><path opacity=".7" d="M445.343 155.103a17.958 17.958 0 0 1-4.879 12.308l-1.484 1.415a17.987 17.987 0 0 1-25.376-25.288l1.415-1.494a17.984 17.984 0 0 1 19.451-3.43 17.985 17.985 0 0 1 10.873 16.489Z" fill="#fff"/><path d="M418.113 152.771a2.368 2.368 0 0 0-2.326 2.834 2.366 2.366 0 0 0 3.233 1.728 2.368 2.368 0 0 0 1.465-2.191 2.371 2.371 0 0 0-2.372-2.371Zm18.456 0a2.368 2.368 0 0 0-2.326 2.834 2.366 2.366 0 0 0 3.234 1.728 2.37 2.37 0 0 0-.908-4.562Zm-9.223 0a2.368 2.368 0 0 0-2.326 2.834 2.366 2.366 0 0 0 3.233 1.728 2.368 2.368 0 0 0 1.465-2.191 2.371 2.371 0 0 0-2.372-2.371Z" fill="#C5A32B"/><path d="M315.955 230.187c0 4.574-1.745 8.976-4.88 12.307l-1.483 1.425a17.99 17.99 0 0 1-29.524-12.954 17.99 17.99 0 0 1 4.148-12.344l1.425-1.493a17.973 17.973 0 0 1 19.449-3.434 17.982 17.982 0 0 1 10.865 16.493Z" fill="#fff"/><path d="M297.908 210.706a19.52 19.52 0 0 0-3.162 38.786l2.206 5.651a1.127 1.127 0 0 0 1.059.732 1.128 1.128 0 0 0 1.059-.732l2.176-5.661a19.523 19.523 0 0 0 12.183-7.298 19.524 19.524 0 0 0-2.27-26.359 19.518 19.518 0 0 0-13.251-5.109v-.01Zm18.047 19.52c0 4.574-1.746 8.976-4.88 12.307l-1.484 1.425a17.987 17.987 0 0 1-25.376-25.298l1.425-1.493a17.98 17.98 0 0 1 27.35 3.187 17.987 17.987 0 0 1 2.965 9.872Z" fill="#E0E0E0"/><path opacity=".7" d="M315.955 230.187c0 4.574-1.745 8.976-4.88 12.307l-1.483 1.425a17.99 17.99 0 0 1-29.524-12.954 17.99 17.99 0 0 1 4.148-12.344l1.425-1.493a17.973 17.973 0 0 1 19.449-3.434 17.982 17.982 0 0 1 10.865 16.493Z" fill="#fff"/><path d="M290.628 219.48c.447-.385.916-.744 1.405-1.073a10.324 10.324 0 0 1 1.65-.889 10.676 10.676 0 0 1 4.158-.8 9.309 9.309 0 0 1 2.986.449 6.833 6.833 0 0 1 2.313 1.288 5.778 5.778 0 0 1 1.484 2.021c.36.838.54 1.742.527 2.654a6.476 6.476 0 0 1-1.454 4.295c-.395.5-.851.95-1.357 1.337l-1.406 1.064c-.4.302-.781.627-1.141.976-.304.29-.506.67-.576 1.083l-.43 2.743h-3.181l-.323-3.065a2.478 2.478 0 0 1 .254-1.552c.257-.46.587-.875.976-1.229.434-.385.89-.744 1.367-1.074.498-.339.971-.714 1.415-1.122a5.96 5.96 0 0 0 1.103-1.377 3.57 3.57 0 0 0 .439-1.815 2.732 2.732 0 0 0-.254-1.22 2.579 2.579 0 0 0-.703-.917 3.066 3.066 0 0 0-1.083-.596 4.398 4.398 0 0 0-1.366-.205 6.155 6.155 0 0 0-1.816.234c-.439.133-.864.31-1.269.528-.341.195-.634.37-.868.527a1.243 1.243 0 0 1-.644.234.979.979 0 0 1-.976-.566l-1.23-1.933Zm3.533 20.125c-.003-.381.07-.759.215-1.112a2.62 2.62 0 0 1 .595-.898c.26-.26.568-.465.908-.605a2.706 2.706 0 0 1 1.122-.225c.386-.008.769.069 1.123.225.337.143.645.348.907.605.262.256.47.561.615.898a2.924 2.924 0 0 1 0 2.235 3.054 3.054 0 0 1-.615.898c-.262.251-.57.45-.907.585a2.813 2.813 0 0 1-1.123.225 2.941 2.941 0 0 1-1.122-.225 2.744 2.744 0 0 1-.908-.585 2.828 2.828 0 0 1-.81-2.021Z" fill="#C5A32B"/><path d="M124.337 81.864c0-13.38-15.167-24.292-33.897-24.292-18.729 0-33.916 10.911-33.916 24.292 0 13.381 15.187 24.293 33.916 24.293 1.123 0 2.245 0 3.338-.117 3.71 6.968 10.004 8.159 14.904 7.603a9.172 9.172 0 0 1-5.232-9.341c12.269-3.611 20.887-12.317 20.887-22.438Z" fill="#fff"/><path d="M106.622 114.111a14.179 14.179 0 0 1-13.049-7.7 48.93 48.93 0 0 1-3.133.107c-18.895 0-34.267-11.058-34.267-24.654 0-13.595 15.372-24.644 34.267-24.644 18.896 0 34.268 11.058 34.268 24.644 0 9.955-8.179 18.827-20.926 22.731a8.84 8.84 0 0 0 5.046 8.784.368.368 0 0 1 .205.381.363.363 0 0 1-.312.293c-.698.057-1.399.077-2.099.058Zm-12.844-8.423a.354.354 0 0 1 .313.186 13.666 13.666 0 0 0 13.361 7.505 9.63 9.63 0 0 1-4.353-9.116.331.331 0 0 1 .244-.302c12.551-3.738 20.652-12.415 20.652-22.106 0-13.196-15.05-23.942-33.555-23.942S56.885 68.65 56.885 81.855c0 13.205 15.05 23.941 33.555 23.941 1.084 0 2.196 0 3.319-.117l.02.009Z" fill="#C5A32B"/><path d="M79.1 82.557a3.455 3.455 0 1 1-3.446-3.455 3.447 3.447 0 0 1 3.446 3.455ZM93.886 82.557a3.446 3.446 0 1 1-6.893-.02 3.446 3.446 0 0 1 6.893.02ZM108.721 82.557a3.453 3.453 0 0 1-2.133 3.192 3.455 3.455 0 1 1-1.322-6.647 3.44 3.44 0 0 1 3.194 2.132c.173.42.262.87.261 1.323Z" fill="#C5A32B"/><g opacity=".3" fill="#fff"><path d="M79.1 82.557a3.455 3.455 0 1 1-3.446-3.455 3.447 3.447 0 0 1 3.446 3.455ZM93.886 82.557a3.446 3.446 0 1 1-6.893-.02 3.446 3.446 0 0 1 6.893.02ZM108.722 82.557a3.453 3.453 0 0 1-2.133 3.192 3.455 3.455 0 1 1-1.322-6.647 3.44 3.44 0 0 1 3.194 2.132c.173.42.262.87.261 1.323Z"/></g><path d="M397.412 321.863c-.83 2.225-4.695 1.815-8.843 1.952-3.357.107-7.242-.518-9.369.595-2.128 1.113-2.548 3.699.976 6.647 4.402 3.669 10.219 3.259 13.488 3.581 3.27.323 5.192 1.464 8.15 1.377 3.835-.117 6.08-1.435 6.588-2.538.507-1.103-.069-9.311-1.669-8.911 0 0 .166-.254-5.466-.449-3.933-.127-3.855-2.254-3.855-2.254Z" fill="#263238"/><path d="M406.723 325.064c0-.137.976-7.73.976-7.73s-.156-.664-4.724-.81c-2.245-.078-4.88-1.952-5.095-.176-.214 1.777-.429 5.515-.429 5.515-.83 2.225-4.695 1.815-8.843 1.952h-2.147c-2.215.205-4.236 1.844-1.669 3.396 2.567 1.552 6.452 1.708 10.034 1.825 4.216.137 11.751.293 11.897-3.972Z" fill="#FFA8A7"/><path d="M396.289 273.268c-.342 8.286.79 47.375.79 47.375s3.904 1.903 10.366-.303l4.274-42.427-15.43-4.645Z" fill="#37474F"/><path d="M377.56 331.584c-.742 2.254-6.725 3.22-10.873 3.494-3.348.214-7.252-.264-9.34.907-2.089 1.172-2.43 3.797 1.19 6.608 4.529 3.533 12.435 1.679 15.704 1.884 3.27.205 5.154.897 7.808.868 3.846 0 5.163-1.425 5.632-2.547.468-1.123.898-9.282-.674-8.784 0 0 .147-.264-5.485-.264-3.962-.039-3.962-2.166-3.962-2.166Z" fill="#263238"/><path d="M386.978 334.463c0-.127 3.026-12.132 3.026-12.132a9.173 9.173 0 0 1-7.096 3.728c-2.245 0-4.88-1.776-5.104 0-.225 1.777-.166 3.426-.41 5.066-.244 1.64-5.183 3.211-9.702 3.728-.702.078-2.43.283-3.152.293-2.518.224-5.026 2.206-2.411 3.67 2.616 1.464 9.458 0 13.04 0 4.265.019 11.809-.078 11.809-4.353Z" fill="#FFA8A7"/><path d="M379.677 288.278c-.976 8.589-1.903 32.94-2.117 39.743 0 0 5.699 2.313 11.067.683 0 0 7.516-24.4 6.95-33.603-.264-4.363-15.9-6.823-15.9-6.823Z" fill="#455A64"/><path d="m469.099 357.692-6.178-51.572-5.046-.254 8.686 51.816a.722.722 0 0 0 .342.459 1.95 1.95 0 0 0 1.796.087.617.617 0 0 0 .4-.536Z" fill="#263238"/><path d="M399.89 301.445h-5.055l-7.359 48.702a.634.634 0 0 0 .37.556 2.024 2.024 0 0 0 1.806 0 .71.71 0 0 0 .222-.182.708.708 0 0 0 .129-.257l9.887-48.819Z" fill="#37474F"/><path d="m394.835 301.445-2.099 13.586a19.824 19.824 0 0 0 3.904 2.381l3.231-15.967h-5.036Z" fill="#263238"/><path d="m435.31 374.947-4.753-52.45-5.046-.254 7.242 52.704a.682.682 0 0 0 .341.449 2.006 2.006 0 0 0 1.796.098c.273-.147.41-.342.4-.537l.02-.01Z" fill="#37474F"/><path d="m431.259 330.198-.702-7.662-5.046-.254 1.142 8.296a9.141 9.141 0 0 0 4.606-.38ZM427.492 285.39h-5.056l-7.359 48.702a.613.613 0 0 0 .371.556 1.945 1.945 0 0 0 1.806 0 .657.657 0 0 0 .351-.429l9.887-48.829Z" fill="#263238"/><path d="M391.761 300.439c-.713-3.991 2.538-7.105 8.647-11.233a145.358 145.358 0 0 1 17.705-9.907c5.114-2.352 10.346-2.137 16.895 1.23 9.067 4.626 36.443 21.218 36.443 21.218s-40.923 23.102-48.8 22.068c-7.876-1.035-27.562-13.83-29.114-18.339-1.552-4.51-1.776-5.037-1.776-5.037Z" fill="#C5A32B"/><path d="M391.761 300.439c-.713-3.991 2.538-7.105 8.647-11.233a145.358 145.358 0 0 1 17.705-9.907c5.114-2.352 10.346-2.137 16.895 1.23 9.067 4.626 36.443 21.218 36.443 21.218s-40.923 23.102-48.8 22.068c-7.876-1.035-27.562-13.83-29.114-18.339-1.552-4.51-1.776-5.037-1.776-5.037Z" fill="#fff" opacity=".6"/><path d="M426.604 318.974c-5.856 5.319-12.015.741-21.736-5.564-10.989-7.134-13.107-12.971-13.107-12.971s0 4.373.82 6.423c.819 2.049 2.596 4.372 10.521 9.847 7.925 5.476 13.664 8.199 19.003 9.214l4.206-.576" fill="#C5A32B"/><path opacity=".25" d="M404.868 313.459c-10.989-7.183-13.107-13.02-13.107-13.02s0 4.373.82 6.423c.819 2.049 2.596 4.372 10.521 9.847 7.925 5.476 13.664 8.199 19.003 9.214l4.206-.576.332-6.373c-5.915 5.319-12.054.741-21.775-5.515Z" fill="#fff"/><path d="M458.939 283.682s-34.365-10.366-40.338-12.005c-5.973-1.64-17.432-4.383-20.779-2.928-3.348 1.454-5.046 3.24-5.358 8.071-.059.908 0 5.329 0 5.329s16.592 5.144 30.256 5.144c13.664 0 36.219-3.611 36.219-3.611Z" fill="#37474F"/><path d="M461.378 280.275c2.157 7.359 3.309 16.319-1.844 21.628-3.748 3.904-13.313 12.776-33.848 11.908-9.291-.401-35.321-18.544-35.321-18.544s-9.829-1.552-9.887-5.007c0-.84-.976-1.045-.801-1.952 1.425-7.545 6.159-11.214 12.767-10.687 10.98.888 35.565 7.808 35.565 7.808l33.369-5.154Z" fill="#455A64"/><path d="m421.597 221.178 3.435 14.904 12.62-2.635-4.353-16.485-11.702 4.216Z" fill="#FFA8A7"/><path d="m398.973 238.132 20.116 22.897.088.605-.137.458a.884.884 0 0 1-.449.527l-21.589 10.736a.884.884 0 0 1-.498.088.724.724 0 0 1-.41-.214l-19.52-23.522.137-.459 22.262-11.116Z" fill="#263238"/><path d="M396.641 272.994c.17.028.344.001.498-.078l21.579-10.736a.856.856 0 0 0 .449-.527.634.634 0 0 0-.088-.605l-19.354-23.258-23.063 11.488 19.569 23.521a.64.64 0 0 0 .41.195Z" fill="#455A64"/><path d="m400.105 236.433 19.237 23.132.059.253-.557 1.777a.364.364 0 0 1-.205.214l-21.579 10.736a.533.533 0 0 1-.625-.097l-19.237-23.122.557-1.776 22.35-11.117Z" fill="#F5F5F5"/><path d="m377.755 247.57.117.136 1.542 1.855.293.351 17.285 20.789a.526.526 0 0 0 .615.088l21.589-10.736c.215-.108.283-.323.146-.479l-.127-.146-19.11-22.985-22.165 11.039-.185.088Z" fill="#EBEBEB"/><path d="m397.275 270.837-.556 1.777a.6.6 0 0 0 .341 0l21.58-10.736a.383.383 0 0 0 .125-.086.383.383 0 0 0 .08-.129l.556-1.776a.41.41 0 0 1-.205.224l-21.589 10.736a.553.553 0 0 1-.332-.01Z" fill="#E0E0E0"/><path d="m377.823 247.335 1.718 2.04.264.322 17.255 20.76a.536.536 0 0 0 .625.097l19.334-9.633.479-.234a5.67 5.67 0 0 0 1.717-1.269l.059-.058a.724.724 0 0 0 .068-.118.331.331 0 0 0-.088-.448 4.31 4.31 0 0 1-.976-.82l-18.085-21.755-22.37 11.116Z" fill="#FAFAFA"/><path opacity=".1" d="M380.224 247.462a.297.297 0 0 1 .041.262.316.316 0 0 1-.071.116.304.304 0 0 1-.116.071.494.494 0 0 1-.576-.088c-.127-.146-.059-.341.137-.439a.486.486 0 0 1 .585.078Z" fill="#000"/><path d="M378.028 246.886c0 .127-.068.264-.097.391l.253-.127.059-.225a1.51 1.51 0 0 1 .595-.907.328.328 0 0 1 .235 0 .488.488 0 0 1 .312.195 2.62 2.62 0 0 1 .351 1.776.43.43 0 0 0 .225 0 2.93 2.93 0 0 0-.4-2.01.59.59 0 0 0-.752-.186 1.852 1.852 0 0 0-.781 1.093Z" fill="#C5A32B"/><path d="M377.911 247.433a.118.118 0 0 0 0 .059v-.059Z" fill="#263238"/><path opacity=".1" d="M382.381 246.389c.127.146.059.341-.136.439a.481.481 0 0 1-.576-.078.289.289 0 0 1-.051-.261.28.28 0 0 1 .187-.188.496.496 0 0 1 .576.088Z" fill="#000"/><path d="M380.195 245.813c0 .127-.068.253-.097.39l.253-.127.059-.234c.079-.366.291-.689.595-.908a.544.544 0 0 1 .537.196c.328.533.456 1.166.361 1.786a.451.451 0 0 0 .225 0 2.932 2.932 0 0 0-.4-2.011.587.587 0 0 0-.762-.185c-.384.255-.66.645-.771 1.093Z" fill="#C5A32B"/><path opacity=".1" d="M384.548 245.315a.29.29 0 0 1 .053.122.282.282 0 0 1-.19.317.51.51 0 0 1-.586-.088c-.117-.146-.058-.341.147-.439a.493.493 0 0 1 .576.088Z" fill="#000"/><path d="M382.361 244.739a2.762 2.762 0 0 0-.097.381l.244-.127c0-.068 0-.147.068-.225.08-.363.288-.685.586-.907a.39.39 0 0 1 .234 0 .485.485 0 0 1 .312.195c.324.532.449 1.161.352 1.776.073.02.15.02.224 0a2.927 2.927 0 0 0-.39-2.01.595.595 0 0 0-.762-.186c-.384.26-.659.653-.771 1.103Z" fill="#C5A32B"/><path opacity=".1" d="M386.714 244.232a.287.287 0 0 1 .041.261.29.29 0 0 1-.187.188.504.504 0 0 1-.576-.088c-.127-.147-.058-.342.137-.449a.51.51 0 0 1 .585.088Z" fill="#000"/><path d="M384.518 243.656c0 .127-.068.254-.097.39l.254-.127.058-.224c.074-.368.287-.694.596-.908a.414.414 0 0 1 .234-.049.5.5 0 0 1 .302.205c.334.528.462 1.16.361 1.777a.451.451 0 0 0 .225 0 2.932 2.932 0 0 0-.4-2.011.587.587 0 0 0-.752-.185c-.398.26-.679.667-.781 1.132Z" fill="#C5A32B"/><path opacity=".1" d="M388.832 243.187c.127.147.059.342-.136.439a.472.472 0 0 1-.576-.078.284.284 0 0 1 .137-.449.498.498 0 0 1 .575.088Z" fill="#000"/><path d="M386.685 242.582c0 .127-.068.254-.097.391l.254-.127.058-.235c.08-.365.292-.689.596-.907a.372.372 0 0 1 .224 0 .544.544 0 0 1 .312.195c.328.534.456 1.167.361 1.786h.225a2.934 2.934 0 0 0-.4-2.011.587.587 0 0 0-.761-.195c-.38.265-.653.656-.772 1.103Z" fill="#C5A32B"/><path opacity=".1" d="M391.039 242.075a.292.292 0 0 1-.137.449.509.509 0 0 1-.585-.088c-.118-.147-.059-.342.146-.439a.49.49 0 0 1 .576.078Z" fill="#000"/><path d="M388.833 241.509a2.494 2.494 0 0 0-.098.38l.254-.127a.961.961 0 0 1 .059-.224c.08-.363.288-.685.585-.908a.409.409 0 0 1 .235 0 .492.492 0 0 1 .312.195 2.63 2.63 0 0 1 .351 1.777.451.451 0 0 0 .225 0 2.929 2.929 0 0 0-.391-2.011.593.593 0 0 0-.761-.185 1.871 1.871 0 0 0-.771 1.103Z" fill="#C5A32B"/><path opacity=".1" d="M393.205 241.001c.118.146.059.342-.146.449a.494.494 0 0 1-.576-.088.284.284 0 0 1 .137-.449.509.509 0 0 1 .585.088Z" fill="#000"/><path d="M391.009 240.425c0 .127-.069.254-.098.391l.254-.127.058-.235c.077-.364.29-.685.596-.897a.398.398 0 0 1 .234-.049.523.523 0 0 1 .303.195 2.6 2.6 0 0 1 .361 1.786.447.447 0 0 0 .224 0 2.934 2.934 0 0 0-.4-2.011.589.589 0 0 0-.781-.195 1.817 1.817 0 0 0-.751 1.142Z" fill="#C5A32B"/><path opacity=".1" d="M395.362 239.927c.127.147.059.342-.136.44a.476.476 0 0 1-.537-.108c-.127-.146-.068-.341.136-.439a.5.5 0 0 1 .537.107Z" fill="#000"/><path d="M393.176 239.352c0 .126-.069.253-.098.38l.254-.117.058-.234c.08-.366.292-.689.596-.908a.388.388 0 0 1 .224 0 .502.502 0 0 1 .313.195c.329.534.457 1.167.361 1.786.074.015.15.015.224 0a2.93 2.93 0 0 0-.4-2.01.584.584 0 0 0-.751-.186 1.843 1.843 0 0 0-.781 1.094Z" fill="#C5A32B"/><path opacity=".1" d="M397.529 238.844a.298.298 0 0 1 .053.124.309.309 0 0 1-.009.135.285.285 0 0 1-.068.116.285.285 0 0 1-.113.074.502.502 0 0 1-.585-.088c-.117-.146-.059-.341.146-.439a.48.48 0 0 1 .576.078Z" fill="#000"/><path d="M395.343 238.307a2.76 2.76 0 0 0-.098.391l.244-.127c.108-.431.335-.823.654-1.132a.326.326 0 0 1 .234 0 .484.484 0 0 1 .313.195c.325.531.45 1.161.351 1.776.074.02.151.02.224 0a2.921 2.921 0 0 0-.39-2.01.595.595 0 0 0-.761-.186 1.883 1.883 0 0 0-.771 1.093Z" fill="#C5A32B"/><path opacity=".1" d="M399.696 237.77c.117.147.058.342-.147.44a.478.478 0 0 1-.576-.078.289.289 0 0 1-.051-.261.286.286 0 0 1 .188-.188.51.51 0 0 1 .586.087Z" fill="#000"/><path d="M397.499 237.195c0 .127-.068.253-.098.39l.254-.127.059-.234c.079-.366.291-.689.595-.908a.514.514 0 0 1 .234 0 .579.579 0 0 1 .313.195c.324.536.448 1.168.351 1.787a.447.447 0 0 0 .224 0 2.92 2.92 0 0 0-.4-2.011.574.574 0 0 0-.751-.185 1.849 1.849 0 0 0-.781 1.093Z" fill="#C5A32B"/><g opacity=".3" fill="#000"><path d="M378.028 246.886c0 .127-.068.264-.097.391l.253-.127.059-.225a1.51 1.51 0 0 1 .595-.907.328.328 0 0 1 .235 0 .488.488 0 0 1 .312.195 2.62 2.62 0 0 1 .351 1.776.43.43 0 0 0 .225 0 2.93 2.93 0 0 0-.4-2.01.59.59 0 0 0-.752-.186 1.852 1.852 0 0 0-.781 1.093ZM380.195 245.813c0 .127-.068.253-.097.39l.253-.127.059-.234c.079-.366.291-.689.595-.908a.544.544 0 0 1 .537.196c.328.533.456 1.166.361 1.786a.451.451 0 0 0 .225 0 2.932 2.932 0 0 0-.4-2.011.587.587 0 0 0-.762-.185c-.384.255-.66.645-.771 1.093ZM382.361 244.739a2.762 2.762 0 0 0-.097.381l.244-.127c0-.068 0-.147.068-.225.08-.363.288-.685.586-.907a.39.39 0 0 1 .234 0 .485.485 0 0 1 .312.195c.324.532.449 1.161.352 1.776.073.02.15.02.224 0a2.927 2.927 0 0 0-.39-2.01.595.595 0 0 0-.762-.186c-.384.26-.659.653-.771 1.103ZM384.518 243.656c0 .127-.068.254-.097.39l.254-.127.058-.224c.074-.368.287-.694.596-.908a.414.414 0 0 1 .234-.049.5.5 0 0 1 .302.205c.334.528.462 1.16.361 1.777a.451.451 0 0 0 .225 0 2.932 2.932 0 0 0-.4-2.011.587.587 0 0 0-.752-.185c-.398.26-.679.667-.781 1.132ZM386.685 242.582c0 .127-.068.254-.097.391l.254-.127.058-.235c.08-.365.292-.689.596-.907a.372.372 0 0 1 .224 0 .544.544 0 0 1 .312.195c.328.534.456 1.167.361 1.786h.225a2.934 2.934 0 0 0-.4-2.011.587.587 0 0 0-.761-.195c-.38.265-.653.656-.772 1.103ZM388.833 241.509a2.494 2.494 0 0 0-.098.38l.254-.127a.961.961 0 0 1 .059-.224c.08-.363.288-.685.585-.908a.409.409 0 0 1 .235 0 .492.492 0 0 1 .312.195 2.63 2.63 0 0 1 .351 1.777.451.451 0 0 0 .225 0 2.929 2.929 0 0 0-.391-2.011.593.593 0 0 0-.761-.185 1.871 1.871 0 0 0-.771 1.103ZM391.009 240.425c0 .127-.069.254-.098.391l.254-.127.058-.235c.077-.364.29-.685.596-.897a.398.398 0 0 1 .234-.049.523.523 0 0 1 .303.195 2.6 2.6 0 0 1 .361 1.786.447.447 0 0 0 .224 0 2.934 2.934 0 0 0-.4-2.011.584.584 0 0 0-.781-.195 1.817 1.817 0 0 0-.751 1.142ZM393.176 239.352c0 .126-.069.253-.098.38l.254-.117.058-.234c.08-.366.292-.689.596-.908a.388.388 0 0 1 .224 0 .502.502 0 0 1 .313.195c.329.534.457 1.167.361 1.786.074.015.15.015.224 0a2.93 2.93 0 0 0-.4-2.01.584.584 0 0 0-.751-.186 1.843 1.843 0 0 0-.781 1.094ZM395.343 238.307a2.76 2.76 0 0 0-.098.391l.244-.127c.108-.431.335-.823.654-1.132a.326.326 0 0 1 .234 0 .484.484 0 0 1 .313.195c.325.531.45 1.161.351 1.776.074.02.151.02.224 0a2.921 2.921 0 0 0-.39-2.01.595.595 0 0 0-.761-.186 1.883 1.883 0 0 0-.771 1.093ZM397.5 237.195c0 .127-.068.253-.098.39l.254-.127.059-.234c.079-.366.291-.689.595-.908a.514.514 0 0 1 .234 0 .579.579 0 0 1 .313.195c.324.536.448 1.168.351 1.787a.447.447 0 0 0 .224 0 2.92 2.92 0 0 0-.4-2.011.574.574 0 0 0-.751-.185 1.849 1.849 0 0 0-.781 1.093Z"/></g><path d="m401.91 270.847-1.952.976c-1.259-2.928-2.313-3.66-3.738-6.139-2.225-3.904-4.489-4.255-5.582-4.031-1.093.225.419 2.343 1.776 4.958a33.038 33.038 0 0 1 1.698 4.275l-6.91-8.315s.732 3.728 1.084 5.094c.351 1.367.478 1.845 5.211 6.666.352.352.654.645.928.889 1.512 1.551 3.337 3.045 5.66 5.192 2.323 2.147 4.958 3.777 6.949 4.08l-5.124-13.645Z" fill="#F28F8F"/><path d="m436.794 256.793-25.162-13.928c-1.903-2.469-3.26-4.089-6.022-5.534a7.329 7.329 0 0 0-3.513-.127c-3.543.918-9.653 6.13-5.232 8.872 2.636 1.64 6.559 1.659 8.892 2.489a35.838 35.838 0 0 1 5.29 2.928c6.227 4.148 14.64 10.141 21.355 14.738 2.547 1.737 5.016 3.377 7.808.927 4.528-4.012-3.416-10.365-3.416-10.365Z" fill="#FFA8A7"/><path d="m403.16 241.987-5.544 4.509c.221.063.432.158.625.283l3.201-2.118c1.044-.683 2.313-1.61 2.313-1.61s2.684-.244 3.826-1.113-4.421.049-4.421.049Z" fill="#F28F8F"/><path d="m392.981 245.735-2.704 4.196a.15.15 0 0 0-.032.091.145.145 0 0 0 .112.143.144.144 0 0 0 .096-.009l4.724-1.698-2.196-2.723Z" fill="#FFA8A7"/><path d="m390.424 250.166 4.724-1.699-1.162-1.434-.488.38-3.084 2.606.01.147Z" fill="#F28F8F"/><path d="M390.453 250.156a.144.144 0 0 1-.096.009.145.145 0 0 1-.112-.143.15.15 0 0 1 .032-.091l.527-.819a.843.843 0 0 0 .576.663h.088l-1.015.381Z" fill="#263238"/><path d="m411.661 235.379-.361.293-.429.342-15.694 12.444a2.248 2.248 0 0 1-1.455-.723 2.283 2.283 0 0 1-.741-2l15.674-12.464.83-.664c-.508.459 1.649 3.202 2.176 2.772Z" fill="#455A64"/><path d="m411.661 235.379-.361.293-.429.351-15.694 12.435a2.37 2.37 0 0 1-1.698-.976l16.504-13.293v-.088c.576.761 1.386 1.503 1.678 1.278Z" fill="#37474F"/><path d="m410.305 236.453-.801.644c-.234.185-.781-.185-1.288-.722-.673-.713-1.181-1.777-.878-2.04l.595-.469.215-.165c-.303.253.205 1.327.878 2.03.488.517.976.888 1.259.741 0 0 .02-.009.02-.019Z" fill="#EBEBEB"/><path d="M410.09 236.609c-.537.449-2.694-2.303-2.167-2.752l.81-.644c-.537.449 1.63 3.201 2.157 2.752l-.8.644Z" fill="#37474F"/><path d="m411.661 235.379-.79.635c-.518.449-2.635-2.187-2.216-2.714l.801-.634c-.479.4 1.678 3.143 2.205 2.713Z" fill="#EBEBEB"/><path d="m413.34 234.042-1.678 1.337c-.225.195-.762-.175-1.269-.702-.684-.713-1.201-1.777-.908-2.04l1.679-1.318c.683-.537 1.952.703 2.303 1.747a.897.897 0 0 1-.127.976Z" fill="#F28F8F"/><path opacity=".1" d="M412.169 233.827a2.733 2.733 0 0 1-1.151-2.108.609.609 0 0 1 .273-.497c.693-.332 1.844.829 2.186 1.815a.903.903 0 0 1-.127.976c-.254.215-.703.156-1.181-.186Z" fill="#000"/><path d="M404.009 236.951a8.826 8.826 0 0 0-1.513-.596 5.859 5.859 0 0 0-2.44-.302 1.948 1.948 0 0 0-.888.283 3.026 3.026 0 0 0-.624.742c-.976 1.385-2.558 2.127-3.514 3.494-.849 1.21-1.952 4.753-.976 5.641.586.556 1.815-.791 2.303-1.815.176.81 1.347.507 2.196-1.142l1.581-3.075 3.875-3.23Z" fill="#FFA8A7"/><path d="M399.881 238.795a.983.983 0 0 0-.41.918c.035.409.111.815.224 1.21l.401-.732-.215-1.396Z" fill="#F28F8F"/><path d="M411.632 242.865c-1.561-1.952-1.952-3.904-4.148-4.294-2.196-.391-3.162.068-5.68-.195-3.582-.381-2.03 2.732.976 3.523a7.931 7.931 0 0 0 4.782 0s2.674 4.216 4.07.966ZM439.828 224.39c1.952-.606 6.491-.918 8.931.595 2.44 1.513 4.88 4.314 7.027 11.712 1.688 5.719 5.524 21.101 4.88 26.059-.644 4.958-18.427 8.13-18.427 8.13l-2.411-46.496Z" fill="#FFA8A7"/><path d="M458.363 269.754a50.453 50.453 0 0 1-5.368-12.59c-1.65-10.6 2.069-15.382-1.952-25.62-1.845-4.675-7.662-8.13-12.562-6.94-1.278.313-1.786.332-2.986.644.859 2.47-8.16 5.095-12.298 2.811-1.747.537-10.179 4.285-10.179 4.285-1.787 3.562-2.821 7.622-3.68 15.274-.351 3.114.976 6.51 2.645 9.497a41.384 41.384 0 0 1 5.222 26.02c0 .263-.069.527-.108.791 0 0 7.642 8.53 26.352 5.124 16.67-3.036 17.178-14.191 17.178-14.191a51.54 51.54 0 0 0-2.264-5.105Z" fill="#F0F0F0"/><path d="M401.648 269.617c.527-5.67 1.415-14.435 2.654-23.707 1.201-9.018 2.86-11.077 8.706-13.566 8.482 5.231 5.593 22.038 5.593 22.038s-3.104 17.919-5.037 23.668c-1.259 3.738-3.904 8.013-8.052 6.002-4.148-2.01-4.392-8.764-3.864-14.435Z" fill="#FFA8A7"/><path d="M411.798 206.607s-3.026 4.743-2.635 5.163c.39.42 2.635.781 2.635.781v-5.944Z" fill="#F28F8F"/><path d="M419.567 192.845c-2.626 1.542-7.154 4.373-7.808 14.377-.674 10.277.839 13.781 2.303 15.04.976.859 7.73 1.044 9.604.439 3.152-.976 9.467-5.427 12.395-10.873 3.445-6.402 3.777-14.708-.761-17.714-6.393-4.226-13.518-2.577-15.733-1.269Z" fill="#FFA8A7"/><path d="M428.41 222.828a9.5 9.5 0 0 1-3.904-2.03c-1.308-1.044-3.25-5.573-3.123-6.832.048 0 1.805 1.278 4.148-.976 2.342-2.255 2.41-6.481-.791-7.359-2.274-.644-3.904 1.122-4.753 2.928-.137.293-.322.615-.644.693-.488.107-.849-.439-1.035-.908a4.509 4.509 0 0 0-.781-1.562 4.275 4.275 0 0 1-1.366-2.635c-.032-.858.043-1.717.224-2.557a8.566 8.566 0 0 0-2.332 3.328 5.378 5.378 0 0 1 .058-4.821 9.327 9.327 0 0 0-2.205 4.333 4.81 4.81 0 0 1-1.542-3.064 10.5 10.5 0 0 1 2.928-8.531 18.334 18.334 0 0 1 7.944-4.704 24.509 24.509 0 0 1 8.901-1.025c6.383.391 9.848 3.504 10.834 4.656a9.468 9.468 0 0 1 1.61 4.343c3.836 1.952 3.904 6.754 3.065 10.414-.761 3.211-2.928 6.11-4.997 8.608-1.084 1.298-2.216 2.567-3.25 3.904-.52.632-.993 1.301-1.415 2.001-.615 1.113-1.055 2.059-1.055 2.059a19.8 19.8 0 0 1-6.519-.263Z" fill="#37474F"/><path d="m422.017 223.062-.381-1.552a12.742 12.742 0 0 1-4.07.664c-2.928.156-3.904-.332-3.962-.351.133.155.276.302.429.439.849.722 5.348 1.093 7.984.8Z" fill="#F28F8F"/><path d="M426.271 325.347c3.348-.176 5.974-2.625 13.928-5.944 14.689-6.119 25.698-11.019 29.895-18.71 4.197-7.691 7.173-42.192 6.119-51.806a12.606 12.606 0 0 0-.712-3.191l1.025-.157-2.675-2.274c-2.742-2.244-7.212-.244-10.57 1.581-9.623 5.242-17.138 10.327-23.082 28.685-4.519 13.82-7.447 38.708-13.596 45.443" fill="#C5A32B"/><path opacity=".25" d="m475.501 245.696 1.025-.157-2.675-2.274c-2.742-2.244-7.212-.244-10.579 1.581-9.614 5.242-17.129 10.327-23.073 28.685-4.519 13.82-7.447 38.708-13.596 45.443l-.332 6.373c3.348-.176 5.974-2.625 13.928-5.944 14.689-6.119 25.698-11.019 29.895-18.71 4.197-7.691 7.173-42.192 6.119-51.806a12.606 12.606 0 0 0-.712-3.191Z" fill="#fff"/><path d="M465.82 246.115c-9.614 5.232-18.642 10.951-23.737 29.778-5.046 18.632-8.296 46.907-20.018 50.049 0 0 5.3 2.108 21.531-4.763 5.173-2.176 11.439-6.158 15.557-8.471 8.062-4.529 12.962-8.238 13.733-9.633 4.265-7.652 7.164-42.193 6.119-51.806-1.044-9.614-8.364-7.789-13.185-5.154Z" fill="#C5A32B"/><path d="M465.82 246.115c-9.614 5.232-18.642 10.951-23.737 29.778-5.046 18.632-8.296 46.907-20.018 50.049 0 0 5.3 2.108 21.531-4.763 5.173-2.176 11.439-6.158 15.557-8.471 8.062-4.529 12.962-8.238 13.733-9.633 4.265-7.652 7.164-42.193 6.119-51.806-1.044-9.614-8.364-7.789-13.185-5.154Z" fill="#fff" opacity=".4"/><path d="M331.473 361.898c0-.117 1.855-6.832 1.855-6.832s-.605.615-4.461-.4a21.652 21.652 0 0 1-4.196-1.767l-1.103 4.88c-1.025 1.874-4.431.976-8.169.586-.625-.068-1.269-.176-1.952-.283-2.021-.107-4.041 1.103-1.952 2.821 2.088 1.717 5.543 2.371 8.784 2.928 3.786.741 10.511 1.864 11.194-1.933Z" fill="#F28F8F"/><path d="M304.682 361.283a3.9 3.9 0 0 0-.273 2.05c.068.742 1.903 3.269 5.153 4.812 3.25 1.542 7.262 1.649 9.145 2.186 1.884.537 3.602 1.62 5.856 2.157 2.255.537 4.412.829 6.627-.635a4.87 4.87 0 0 0 .732-2.225c-.39-.361-27.24-8.345-27.24-8.345Z" fill="#263238"/><path d="M322.982 358.472c-1.434.976-4.392.303-7.583-.068-3.006-.342-6.403-1.396-8.452-.693-2.05.703-3.758 3.123-.976 6.217a12.034 12.034 0 0 0 3.855 2.928c3.435 1.23 6.529 1.337 8.784 1.884 2.879.703 4.46 1.952 7.115 2.294 3.455.4 5.631-.488 6.227-1.406.595-.917 1.151-8.345-.332-8.189 0 0-.615 2.401-6.247.069-2.527-.996-2.488-2.499-2.391-3.036Z" fill="#37474F"/><path d="M313.428 362.454s.322-3.132 2.635-3.962c.207-.097.437-.133.663-.103.227.029.44.122.615.269 0 0-2.147.312-2.85 3.982 0 0-.117.244-.585.156-.156-.019-.498-.088-.478-.342ZM319.313 358.902s0-.108-.537-.205a.979.979 0 0 0-.635.068s-1.727.742-2.049 4.021c0 0 0 .391.527.508a.475.475 0 0 0 .377-.029.487.487 0 0 0 .238-.293s.351-3.446 2.079-4.07ZM321.167 358.97s-.097-.205-.498-.195c-.4.01-.634.195-.634.195a5.917 5.917 0 0 0-1.24 4.002s-.058.458.596.507c.654.049.546-.478.546-.478s.225-3.484 1.23-4.031Z" fill="#FAFAFA"/><path d="M332.352 317.881c-2.147 9.086-8.784 36.317-8.784 36.317s4.88 4.372 10.151 2.381c5.631-14.865 15.713-25.015 15.616-35.897l-16.983-2.801Z" fill="#C5A32B"/><path opacity=".4" d="M332.352 317.881c-2.147 9.086-8.784 36.317-8.784 36.317s4.88 4.372 10.151 2.381c5.631-14.865 15.713-25.015 15.616-35.897l-16.983-2.801Z" fill="#000"/><path d="M312.11 371.317c.576-.85 2.743-6.832 2.743-6.832s-2.265 1.288-6.149.37a9.03 9.03 0 0 1-3.806-2.596l-1.66 5.71c-.976 1.903-4.148 1.269-7.886.976-.634-.059-1.278-.147-1.952-.234-2.02-.059-4.011 1.2-1.874 2.869 2.138 1.669 5.603 2.235 8.784 2.723 3.846.576 9.643.225 11.8-2.986Z" fill="#F28F8F"/><path d="M283.093 371.141a4.168 4.168 0 0 0-.254 2.206c.098.8 2.138 3.455 5.671 5.026 3.533 1.571 7.808 1.581 9.867 2.108 2.059.527 3.904 1.65 6.305 2.167 2.401.517 4.753.771 7.105-.859a5.29 5.29 0 0 0 .722-2.411c-.39-.4-29.416-8.237-29.416-8.237Z" fill="#263238"/><path d="M302.623 367.559a7.645 7.645 0 0 1-.712.439 1.96 1.96 0 0 1-.781.156c-.627.054-1.257.054-1.884 0-1.581-.078-3.152-.312-4.733-.458-3.241-.283-6.911-1.328-9.087-.518s-4.168 3.446-1.122 6.686a15.213 15.213 0 0 0 4.089 3.104c3.621 1.512 7.379 1.229 9.76 1.756 3.113.693 4.831 2.021 7.701 2.275 3.708.341 6.031-.664 6.646-1.669.342-.557 0-3.475.43-5.73.4-1.952.292-3.269-.41-3.181-.148.25-.329.48-.537.683a2.344 2.344 0 0 1-.83.654c-.442.21-.907.367-1.386.468a8.352 8.352 0 0 1-2.586.361 1.249 1.249 0 0 1-.703-.224 1.504 1.504 0 0 1-.41-.878 21.663 21.663 0 0 0-.185-.859 1.174 1.174 0 0 0-.156-.449 1.213 1.213 0 0 0-.439-.352 3.9 3.9 0 0 1-1.416-1.073 3.324 3.324 0 0 1-.41-1.337.297.297 0 0 0-.097-.215c-.098-.088-.254 0-.371.058l-.371.303Z" fill="#37474F"/><path d="M292.502 372.146s.263-3.377 2.733-4.324a1.302 1.302 0 0 1 1.376.147s-2.304.39-2.928 4.353c0 0-.117.263-.625.185-.195-.029-.576-.088-.556-.361ZM298.729 368.174s0-.108-.586-.205a1.08 1.08 0 0 0-.683.088s-1.835.849-2.089 4.372c0 0 0 .43.586.527a.5.5 0 0 0 .406-.037.515.515 0 0 0 .248-.324s.292-3.709 2.118-4.421ZM300.73 368.193s-.117-.205-.547-.195c-.429.01-.673.234-.673.234a6.365 6.365 0 0 0-1.23 4.324s-.049.498.644.537c.693.039.586-.527.586-.527s.146-3.748 1.22-4.373Z" fill="#FAFAFA"/><path d="M314.004 326.528c-2.216 6.832-7.886 26.284-10.483 36.288 0 0 4.656 4.187 10.649 3.826 3.172-7.477 17.646-28.178 15.889-37.04-1.113-5.602-7.203-3.972-7.203-3.972l-8.852.898Z" fill="#C5A32B"/><path opacity=".3" d="M314.004 326.528c-2.216 6.832-7.886 26.284-10.483 36.288 0 0 4.656 4.187 10.649 3.826 3.172-7.477 17.646-28.178 15.889-37.04-1.113-5.602-7.203-3.972-7.203-3.972l-8.852.898Z" fill="#000"/><path opacity=".3" d="M328.868 337.781c-2.079-1.454-6.744-4.363-7.291-5.856 0 0 .722 4.685 6.52 7.916l.771-2.06Z" fill="#000"/><path d="m404.761 395.385-6.168-51.572-5.056-.264 8.687 51.826a.664.664 0 0 0 .331.459 1.952 1.952 0 0 0 1.806.088.597.597 0 0 0 .39-.537h.01Z" fill="#263238"/><path d="M335.544 339.128h-5.056l-7.359 48.702a.593.593 0 0 0 .094.335.596.596 0 0 0 .267.222 1.96 1.96 0 0 0 1.806 0 .674.674 0 0 0 .229-.174.665.665 0 0 0 .132-.256l9.887-48.829Z" fill="#37474F"/><path d="m330.488 339.128-2.05 13.596a20.2 20.2 0 0 0 3.904 2.371l3.231-15.967h-5.085Z" fill="#263238"/><path d="m370.973 412.67-4.753-52.441-5.056-.254 7.262 52.704a.704.704 0 0 0 .341.449 1.941 1.941 0 0 0 1.806.088.615.615 0 0 0 .4-.537v-.009Z" fill="#37474F"/><path d="m366.913 367.891-.693-7.662-5.056-.254 1.142 8.287a9.134 9.134 0 0 0 4.607-.371ZM363.145 323.083h-5.055l-7.32 48.702a.588.588 0 0 0 .361.556 1.942 1.942 0 0 0 1.805 0 .632.632 0 0 0 .229-.174.635.635 0 0 0 .132-.255l9.848-48.829Z" fill="#263238"/><path d="M327.345 338.133c-.713-3.992 2.538-7.106 8.657-11.234a143.362 143.362 0 0 1 17.714-9.946c5.115-2.352 10.346-2.137 16.895 1.23 9.096 4.675 36.463 21.277 36.463 21.277s-40.923 23.102-48.8 22.067c-7.876-1.034-27.552-13.839-29.114-18.339-1.561-4.499-1.815-5.055-1.815-5.055Z" fill="#C5A32B"/><path d="M327.345 338.133c-.713-3.992 2.538-7.106 8.657-11.234a143.362 143.362 0 0 1 17.714-9.946c5.115-2.352 10.346-2.137 16.895 1.23 9.096 4.675 36.463 21.277 36.463 21.277s-40.923 23.102-48.8 22.067c-7.876-1.034-27.552-13.839-29.114-18.339-1.561-4.499-1.815-5.055-1.815-5.055Z" fill="#fff" opacity=".6"/><path d="M362.256 356.667c-5.856 5.319-12.014.742-21.726-5.563-10.999-7.135-13.185-12.971-13.185-12.971s0 4.372.82 6.422c.819 2.049 2.596 4.372 10.531 9.847 7.934 5.476 13.664 8.199 19.002 9.214l4.207-.586" fill="#C5A32B"/><path opacity=".25" d="M340.53 351.104c-10.999-7.135-13.185-12.971-13.185-12.971s0 4.372.82 6.422c.819 2.049 2.596 4.372 10.531 9.847 7.934 5.476 13.664 8.199 19.002 9.214l4.207-.586.322-6.363c-5.846 5.319-11.985.712-21.697-5.563Z" fill="#fff"/><path d="M391.761 317.051c-7.603-.771-29.28-6.207-34.57-7.115-10.111-1.728-15.265-1.952-18.173-1.064-2.909.888-5.407 4.158-6.295 7.652a1821.307 1821.307 0 0 1-1.601 6.207s22.224 7.808 33.467 9.126c11.244 1.318 27.172-14.806 27.172-14.806Z" fill="#C5A32B"/><path opacity=".4" d="M391.761 317.051c-7.603-.771-29.28-6.207-34.57-7.115-10.111-1.728-15.265-1.952-18.173-1.064-2.909.888-5.407 4.158-6.295 7.652a1821.307 1821.307 0 0 1-1.601 6.207s22.224 7.808 33.467 9.126c11.244 1.318 27.172-14.806 27.172-14.806Z" fill="#000"/><path d="M391.761 317.051c.43 10.736.059 20.74-5.094 26.137-3.465 3.641-20.896 13.088-32.15 9.37-11.077-3.67-34.013-20.701-36.317-22.448-2.303-1.747-4.392-2.928-4.177-3.621 3.094-10.268 7.623-11.068 16.006-9.223 10.248 2.254 32.755 11.438 32.755 11.438l28.977-11.653Z" fill="#C5A32B"/><path opacity=".3" d="M391.761 317.051c.43 10.736.059 20.74-5.094 26.137-3.465 3.641-20.896 13.088-32.15 9.37-11.077-3.67-34.013-20.701-36.317-22.448-2.303-1.747-4.392-2.928-4.177-3.621 3.094-10.268 7.623-11.068 16.006-9.223 10.248 2.254 32.755 11.438 32.755 11.438l28.977-11.653Z" fill="#000"/><path d="m347.861 260.218 4.197 12.259 13.381-4.109-4.119-14.035-13.459 5.885Z" fill="#F28F8F"/><path d="M339.321 243.812s-3.163 4.577-2.831 5.036c.332.459 2.587.927 2.587.927l.244-5.963Z" fill="#B16668"/><path d="M339.341 246.828a3.79 3.79 0 0 1-3.714-4.529 3.79 3.79 0 0 1 2.981-2.973 3.789 3.789 0 0 1 3.886 1.618c.415.624.635 1.357.633 2.107a3.795 3.795 0 0 1-3.786 3.777Zm0-6.832a3.091 3.091 0 0 0-3.035 3.697 3.09 3.09 0 0 0 4.219 2.255 3.097 3.097 0 0 0 1.909-2.858 3.08 3.08 0 0 0-.892-2.213 3.086 3.086 0 0 0-2.201-.92v.039Z" fill="#263238"/><path d="M348.115 231.163c-6.227 1.161-8.081 3.845-8.882 13.664-.849 10.267.127 13.527 1.445 14.943.888.976 5.953 1.239 8.52.585 3.221-.8 10.512-3.201 14.016-8.296 4.118-5.993 5.348-14.21 1.161-17.685-5.885-4.851-13.732-3.689-16.26-3.211Z" fill="#F28F8F"/><path d="M347.988 260.589c-2.35.525-4.806.307-7.027-.624 1.49.327 3.038.27 4.499-.166 2.548-.713 3.026-1.601 3.026-1.601l-.498 2.391Z" fill="#B16668"/><path d="M338.081 235.184a14.076 14.076 0 0 0 5.944 2.02 12.2 12.2 0 0 0 .879 4.88c.361 1.103 1.649 4.558 3.064 2.655.976-1.366 1.952-2.616 3.904-2.284 3.221.557 3.553 4.675 1.474 7.125-2.079 2.45-3.963 1.454-3.963 1.454s-.292 4.422 2.04 7.555a10.537 10.537 0 0 0 8.374.527c3.084-.976 7.545-4.88 9.184-7.945 4.519-8.364 4.539-16.368-.976-18.837-.507-4.001-3.611-5.856-7.183-6.773-4.938-1.25-10.072 1.844-14.855-.195-.976-.44-1.952-1.045-2.928-1.416a2.034 2.034 0 0 0-1.776 0 2.138 2.138 0 0 0-.761 1.357 3.798 3.798 0 0 0 .185 2.86 8.178 8.178 0 0 0-2.245-.83 2.922 2.922 0 0 0-2.274.508 2.923 2.923 0 0 0-.907 1.952 6.105 6.105 0 0 0 2.82 5.387Z" fill="#263238"/><path d="m368.094 233.72 3.757-2.108a2.154 2.154 0 0 0-2.881-.734 2.157 2.157 0 0 0-.876 2.842ZM347.92 245.071l-12.034-2.245.117-.585 12.024 2.254-.107.576Z" fill="#263238"/><path d="m364.082 263.752-.624-2.021c8.588-4.079 15.703 2.548 20.339 14.172 4.959 12.434 8.013 26.488 8.043 43.686a39.466 39.466 0 0 1-15.528 11.516c-10.356 4.1-24.81 2.362-29.28-8.374 0 0 0-7.164-.323-13.361a62.466 62.466 0 0 0-4.723-18.935c-2.45-5.709-5.681-16.318.976-20.271 1.952-1.152 4.977-2.391 7.632-3.67 6.032 2.001 14.269-.341 13.488-2.742Z" fill="#37474F"/><path d="M345.382 268.905c.732-1.952 2.811-5.544 3.406-5.993 3.055.606 6.211.472 9.204-.39 4.714-1.464 4.88-2.821 4.88-2.821l-.342-1.132s.351-.498 1.62.498a11.71 11.71 0 0 1 2.372 2.82c.478.645.127 3.904-3.318 6.12-3.446 2.215-9.594 1.308-11.917 1.025a22.008 22.008 0 0 1-4.187-.976l-1.718.849Z" fill="#455A64"/><path d="M333.133 323.902c-3.299-1.249-5.319-4.967-5.719-7.378a14.398 14.398 0 0 1 1.366-8.364c1.279-2.196 4.353 15.742 4.353 15.742Z" fill="#37474F"/><path d="M328.712 308.579c.976-5.856 3.075-14.981 5.007-24.458 1.874-9.204 4.431-11.917 9.233-13.918 11.644 6.939 6.412 27.504 6.412 27.504s-5.094 14.425-7.495 20.213c-1.552 3.767-5.495 7.983-9.585 5.621-4.089-2.362-4.509-9.194-3.572-14.962Z" fill="#263238"/><path d="M361.935 363.03c3.347-.166 5.963-2.615 13.917-5.934 14.689-6.119 25.708-11.019 29.905-18.71 4.197-7.691 7.164-42.192 6.119-51.816a12.538 12.538 0 0 0-.722-3.181l1.035-.156-2.674-2.275c-2.753-2.235-7.213-.234-10.58 1.591-9.614 5.232-17.139 10.317-23.083 28.685-4.47 13.81-7.417 38.698-13.595 45.433" fill="#C5A32B"/><path opacity=".25" d="m411.154 283.389 1.035-.156-2.674-2.275c-2.753-2.235-7.213-.234-10.58 1.591-9.614 5.232-17.139 10.317-23.083 28.685-4.47 13.81-7.417 38.698-13.595 45.433l-.322 6.363c3.347-.166 5.963-2.615 13.917-5.934 14.689-6.119 25.708-11.019 29.905-18.71 4.197-7.691 7.164-42.192 6.119-51.816a12.538 12.538 0 0 0-.722-3.181Z" fill="#fff"/><path d="M401.522 283.789c-9.614 5.231-18.652 10.951-23.746 29.778-5.046 18.622-8.296 46.906-20.008 50.049 0 0 5.299 2.108 21.53-4.763 5.163-2.186 11.429-6.168 15.548-8.481 8.071-4.519 12.961-8.238 13.732-9.624 4.265-7.652 7.174-42.192 6.12-51.806-1.054-9.613-8.404-7.779-13.176-5.153Z" fill="#C5A32B"/><path d="M401.522 283.789c-9.614 5.231-18.652 10.951-23.746 29.778-5.046 18.622-8.296 46.906-20.008 50.049 0 0 5.299 2.108 21.53-4.763 5.163-2.186 11.429-6.168 15.548-8.481 8.071-4.519 12.961-8.238 13.732-9.624 4.265-7.652 7.174-42.192 6.12-51.806-1.054-9.613-8.404-7.779-13.176-5.153Z" fill="#fff" opacity=".4"/><path d="M254.701 401.368s0-3.046 2.157-4.07a1.189 1.189 0 0 1 1.249 0s-2.039.507-2.362 4.118c0 0-.087.244-.546.205-.146.03-.488 0-.498-.253Z" fill="#FAFAFA"/><path d="M252.837 398.723c-3.338 0-5.172-.391-9.155-.322-3.006.058-4.099 3.718-.478 6.724a21 21 0 0 0 5.193 2.831c4.723 1.444 8.13.615 10.618.917 3.241.381 4.09 1.288 6.745 1.484 3.464.263 4.733-.283 5.651-1.377 1.083-2.508.4-3.425.771-6.373.205-1.63.097-2.313-.088-2.293-1.074-.108-17.636-1.611-19.257-1.591Z" fill="#455A64"/><path d="M272.016 400.577c.517-1.62 2.079-8.296 2.079-8.296s-2.177 1.542-6.227.976c-2.06-.283-3.446-5.641-3.446-5.641l-1.171 8.93c-.81 2.04-4.753 2.147-8.598 2.186h-1.952c-2.069.147-3.973 1.63-1.62 3.114 2.352 1.483 5.943 1.708 9.252 1.884 3.924.195 10.482.614 11.683-3.153Z" fill="#FFBDA7"/><path d="M267.809 351.357c-1.181 8.95-4.109 41.09-4.109 41.09s5.183 4.08 10.073 1.649c3.982-14.854 11.799-31.232 10.687-41.694l-16.651-1.045Z" fill="#263238"/><path d="M235.045 409.176c-3.338 0-5.173-.391-9.155-.322-3.006.058-4.099 3.718-.469 6.714a20.515 20.515 0 0 0 5.183 2.831c4.724 1.444 8.13.624 10.619.917 3.24.381 4.089 1.298 6.744 1.494 3.474.253 4.733-.293 5.651-1.386 1.083-2.509.4-3.416.771-6.364.205-1.63.098-2.323-.078-2.303-1.083-.098-17.646-1.601-19.266-1.581Z" fill="#455A64"/><path d="M254.223 411.059c.518-1.62 2.079-8.296 2.079-8.296s-2.167 1.542-6.227.976c-2.059-.273-3.445-5.641-3.445-5.641l-1.171 8.93c-.81 2.04-4.744 2.148-8.599 2.196-.644 0-1.308 0-1.952-.048-2.069.146-3.962 1.63-1.62 3.113 2.343 1.484 5.944 1.698 9.262 1.884 3.914.205 10.473.624 11.673-3.114Z" fill="#FFBDA7"/><path d="M250.943 361.449c-1.474 6.832-3.777 32.208-5.309 42.115a16.27 16.27 0 0 0 10.189 1.766c2.333-7.496 13.42-34.111 10.873-42.475-1.611-5.281-7.31-3.124-7.31-3.124l-8.443 1.718Z" fill="#37474F"/><path d="m339.837 432.59-6.197-51.728-5.066-.254 8.716 51.972a.682.682 0 0 0 .341.449 2.03 2.03 0 0 0 1.806.098.615.615 0 0 0 .39-.547l.01.01Z" fill="#263238"/><path d="M270.424 376.187h-5.065l-7.379 48.8a.634.634 0 0 0 .371.556 2.037 2.037 0 0 0 1.806 0 .677.677 0 0 0 .361-.439l9.906-48.917Z" fill="#37474F"/><path d="m265.359 376.187-2.059 13.664a19.625 19.625 0 0 0 3.904 2.381l3.23-16.006-5.075-.039Z" fill="#263238"/><path d="m305.951 449.933-4.763-52.596-5.065-.254 7.281 52.841a.656.656 0 0 0 .332.458 1.946 1.946 0 0 0 1.805.088.613.613 0 0 0 .401-.537h.009Z" fill="#37474F"/><path d="m301.881 405.028-.693-7.691-5.065-.254 1.142 8.315a9.27 9.27 0 0 0 4.616-.37ZM298.065 360.093H293l-7.379 48.8a.636.636 0 0 0 .371.556 2.037 2.037 0 0 0 1.806 0 .67.67 0 0 0 .361-.439l9.906-48.917Z" fill="#263238"/><path d="M262.236 375.172c-.712-3.992 2.548-7.115 8.677-11.254a145.164 145.164 0 0 1 17.763-9.984c5.134-2.352 10.375-2.137 16.943 1.24 9.126 4.684 36.571 21.335 36.571 21.335s-40.992 23.17-48.936 22.136c-7.945-1.035-27.631-13.879-29.202-18.398-1.572-4.519-1.816-5.075-1.816-5.075Z" fill="#C5A32B"/><path d="M262.236 375.172c-.712-3.992 2.548-7.115 8.677-11.254a145.164 145.164 0 0 1 17.763-9.984c5.134-2.352 10.375-2.137 16.943 1.24 9.126 4.684 36.571 21.335 36.571 21.335s-40.992 23.17-48.936 22.136c-7.945-1.035-27.631-13.879-29.202-18.398-1.572-4.519-1.816-5.075-1.816-5.075Z" fill="#fff" opacity=".6"/><path d="M297.216 393.765c-5.856 5.338-12.053.741-21.794-5.573-11.029-7.164-13.186-13.02-13.186-13.02s0 4.392.82 6.451c.82 2.059 2.606 4.382 10.609 9.916 8.003 5.534 13.713 8.228 19.062 9.243l4.216-.576" fill="#C5A32B"/><path opacity=".25" d="M275.422 388.192c-11.029-7.164-13.186-13.02-13.186-13.02s0 4.392.82 6.451c.82 2.059 2.606 4.382 10.609 9.916 8.003 5.534 13.713 8.228 19.062 9.243l4.216-.576.322-6.393c-5.934 5.29-12.102.654-21.843-5.621Z" fill="#fff"/><path d="M321.704 354.032s-16.826-4.88-28.304-7.418c-9.682-2.157-13.606-2.635-17.139-2.45-3.806.186-7.925 1.816-8.51 6.901a561.73 561.73 0 0 0-.752 6.949s19.813 9.574 30.685 10.853c10.873 1.278 24.02-14.835 24.02-14.835Z" fill="#263238"/><path d="M322.28 354.032c3.543 10.238 2.977 20.037-3.231 25.805-3.562 3.309-20.222 12.688-31.105 9.057-10.736-3.552-30.724-22.282-32.959-23.941-2.235-1.659-4.246-2.791-4.041-3.504 2.996-9.935 7.369-10.736 15.489-8.92 9.916 2.176 29.514 13.322 29.514 13.322l26.333-11.819Z" fill="#37474F"/><path d="m289.428 299.649.907 12.912 14.494-1.971-1.591-14.064-13.81 3.123Z" fill="#FFBDA7"/><path d="M282.215 284.599s-3.172 3.719-2.869 4.177a6.667 6.667 0 0 0 1.952 1.123l.917-5.3Z" fill="#F0997A"/><path d="M311.642 275.961a8.957 8.957 0 0 0-4.266-6.285 22.258 22.258 0 0 0-11.341-2.928c-4.655 0-10.101 1.435-12.824 5.544a8.608 8.608 0 0 0-1.425 5.241 8.702 8.702 0 0 0 2.147 5.143c1.142 1.406 2.342 2.762 3.484 4.178 1.142 1.415 1.952 2.928 3.055 4.323a29.08 29.08 0 0 1 1.855 2.518l.107.186a3.753 3.753 0 0 1-1.718-.342s-.283 5.251 3.787 7.701c0 0 4.968 2.088 9.301.293 1.132-1.728 3.602-3.69 6.149-6.989 5.075-6.539 4.822-13.995 1.689-18.583Z" fill="#263238"/><path d="M294.777 292.817a3.245 3.245 0 0 1-2.343 1.093 3.534 3.534 0 0 1-1.708-.342 13.152 13.152 0 0 0 2.762 6.969 9.783 9.783 0 0 1-2.645.752c-2.547.458-7.242-.401-8.061-1.357-1.211-1.445-3.036-5.095-.713-14.757.195-3.036-.176-3.055.107-4.324a9.005 9.005 0 0 1 1.952-3.992c0 1.415 1.708 3.26 3.904 3.426a4.148 4.148 0 0 0-1.054 3.328 8.279 8.279 0 0 0 2.011 3.758.652.652 0 0 0 .195.175c.289.093.599.093.888 0 .976-1.18 2.382-2.527 4.636-1.483 2.567 1.171 2.05 4.47.069 6.754Z" fill="#FFBDA7"/><path d="M283.016 300.127c1.034.742 4.157 1.357 6.539 1.279l-.166-1.806c-.937.375-1.923.612-2.928.703-1.151.12-2.313.061-3.445-.176Z" fill="#F0997A"/><path d="M288.364 290.806a2.29 2.29 0 0 1-1.169-1.317 2.28 2.28 0 0 1 .115-1.757 2.342 2.342 0 0 1 3.123-1.025l-2.069 4.099Z" fill="#263238"/><path d="m304.126 304.373-.126-1.152c8.325-1.513 14.054-1.825 16.728 9.984 1.542 6.832 2.167 14.436 3.055 28.529.439 6.959.351 9.223 1.493 21.97 0 0-3.66 4.665-18.251 5.661-5.856.4-21.726-1.874-24.009-7.584 0 0 .722-12.268.322-18.261a41.465 41.465 0 0 0-3.358-13.547c-.849-2.147-.79-3.572-1.337-5.739-1.483-5.856-2.245-13.195 4.714-15.967 2.04-.81 3.787-1.474 6.52-2.284 5.485 2.821 14.63.8 14.249-1.61Z" fill="#C5A32B"/><path d="M267.594 265.274a25.17 25.17 0 0 1 1.24-7.398c.521-2.215.757-4.488.703-6.764v-2.879c-.205-.751-1.894-.088-2.255 1.767-.195.976-.224 1.103-.498 2.303-.049.186-.302 1.044-.341.381-.049-.976-.108-3.065-.127-3.904a17.243 17.243 0 0 0-.439-2.47c-.147-.8-.303-1.6-.469-2.391a79.45 79.45 0 0 0-.712-3.094.462.462 0 0 0-.451-.37.473.473 0 0 0-.203.048c-1.045.469-1.191 1.513-1.201 2.626 0 .712.098 1.415.127 2.127a739.434 739.434 0 0 0-1.054-5.211 1.184 1.184 0 0 0-.185-.488c-.274-.323-.811-.205-1.162 0a2.119 2.119 0 0 0-.79.917 3.807 3.807 0 0 0-.303 1.474 2.694 2.694 0 0 0-1.035.732 2.93 2.93 0 0 0-.458 2.01v.303c.058.976.097 2.928.156 3.904-.322-1.288-.498-2.313-.732-3.035-.088-.264-.156-.342-.283-.381a.301.301 0 0 0-.264.068 1.956 1.956 0 0 0-.8 1.347 5.61 5.61 0 0 0 .078 1.61c.254 1.796.556 3.602.82 5.398.112.808.138 1.626.078 2.44-.059.702-.107 1.366-.185 2.069a8.512 8.512 0 0 0 .058 3.718c.156.547.381 1.074.556 1.621.368.984.614 2.01.732 3.054 0 .498-.097 2.587-.156 3.709-.078 1.484-.429 12.171-.751 19.52-.244 5.456-.088 6.198 3.025 10.98 1.855 2.86 9.887 14.016 15.616 22.107a50.517 50.517 0 0 1 4.07 6.832c1.162.829 3.631-1.796 5.28-6.12 1.377-3.621 2.206-8.501 1.269-12.171-.937-3.669-3.23-4.479-6.617-8.296a85.098 85.098 0 0 1-9.213-12.688s-3.153-23.248-3.124-25.405Z" fill="#FFBDA7"/><path d="M313.077 318.242a17.78 17.78 0 0 1 4.079-1.396 6.674 6.674 0 0 0 2.928-2.147 7.807 7.807 0 0 0 1.289-6.715 12.987 12.987 0 0 0-3.094-5.446 9.14 9.14 0 0 1 2.976 2.557c-.819-2.928-2.849-5.28-4.353-7.867a14.185 14.185 0 0 1-1.747-3.904 22.128 22.128 0 0 1-.536-4.743c-.127-7.349-.254-10.004-2.928-12.522-.244 3.465-1.855 10.882-12.122 18.632-2.274 1.718-7.115 1.483-8.784-1.025-.342 1.864-.654 3.728-1.035 5.573-.38 1.845-.624 4.099-1.727 5.592a13.539 13.539 0 0 0-2.928 7.301 7.501 7.501 0 0 0 3.396 6.773 5.078 5.078 0 0 1 0-3.767c.576 1.825 1.249 3.787 2.85 4.831 1.806 1.181 4.207.791 6.256 1.464 1.025.332 1.952.918 2.928 1.328 1.901.77 4.008.87 5.973.283 2.801-.898 4.197-3.319 6.579-4.802Z" fill="#263238"/><path d="M296.894 400.157c3.357-.175 5.982-2.635 13.956-5.963 14.728-6.139 25.777-11.048 29.983-18.759 4.207-7.71 7.193-42.319 6.139-51.962a12.56 12.56 0 0 0-.722-3.191l1.034-.157-2.684-2.283c-2.752-2.255-7.232-.244-10.599 1.59-9.653 5.251-17.187 10.346-23.151 28.763-4.489 13.85-7.447 38.806-13.664 45.56" fill="#C5A32B"/><path opacity=".25" d="m346.25 320.291 1.034-.156-2.684-2.284c-2.752-2.254-7.232-.244-10.599 1.591-9.653 5.251-17.187 10.346-23.151 28.763-4.489 13.849-7.447 38.806-13.664 45.56l-.322 6.392c3.358-.175 5.983-2.635 13.957-5.963 14.728-6.139 25.776-11.048 29.983-18.759 4.206-7.71 7.193-42.319 6.139-51.962a12.569 12.569 0 0 0-.693-3.182Z" fill="#fff"/><path d="M336.549 320.682c-9.643 5.251-18.7 10.98-23.814 29.856-5.056 18.69-8.316 47.043-20.057 50.195 0 0 5.309 2.118 21.589-4.772 5.182-2.187 11.458-6.188 15.616-8.501 8.091-4.539 12.99-8.267 13.771-9.653 4.275-7.681 7.184-42.319 6.129-51.962-1.054-9.643-8.403-7.789-13.234-5.163Z" fill="#C5A32B"/><path d="M336.549 320.682c-9.643 5.251-18.7 10.98-23.814 29.856-5.056 18.69-8.316 47.043-20.057 50.195 0 0 5.309 2.118 21.589-4.772 5.182-2.187 11.458-6.188 15.616-8.501 8.091-4.539 12.99-8.267 13.771-9.653 4.275-7.681 7.184-42.319 6.129-51.962-1.054-9.643-8.403-7.789-13.234-5.163Z" fill="#fff" opacity=".4"/><path d="m161.532 300.742 3.885-1.718-1.318-2.703-2.547 2.254-.02 2.167Z" fill="#000"/><path d="M157.121 293.266v3.66c0 .81 3.523 3.387 4.402 3.816v-2.167a14.45 14.45 0 0 1 2.03 3.114c.683 1.171 1.542 3.377 3.426 4.88 2.801 2.254 7.173 3.425 11.653 3.63 4.48.205 7.047-.839 8.325-1.776a2.81 2.81 0 0 0 1.386-3.133c-.273-1.093-31.222-12.024-31.222-12.024Z" fill="#263238"/><path d="m169.174 284.55.068-1.503c.83 0 .908 2.157 2.099 4.08a39.056 39.056 0 0 0 6.236 7.876c4.5 4.06 8.53 6.617 10.541 8.443 2.694 2.44-2.098 6.236-9.409 5.777-3.621-.234-10.052-2.069-11.848-4.167-1.796-2.098-2.88-5.339-4.314-6.832-1.435-1.493-4.539-3.074-5.427-4.88-.478-.976-.205-3.358.108-5.349.292-1.834.37-4.645 1.434-4.411l.069.976c.429.81 1.425 2.137 4.343 2.645 1.464.146 5.817.312 6.1-2.655Z" fill="#455A64"/><path opacity=".15" d="M165.427 287.195c1.395-.107 2.928-.537 3.494-1.757a3.384 3.384 0 0 0 .917 2.928c1.298 1.503 9.458 12.034 9.458 12.034s-7.603-8.696-9.067-10.335c-2.157-2.421-2.85-2.714-4.88-2.802l.078-.068ZM167.222 290.035a.437.437 0 0 1-.488.381.42.42 0 0 1-.3-.16.43.43 0 0 1-.09-.328.449.449 0 0 1 .653-.329.428.428 0 0 1 .211.264.436.436 0 0 1 .014.172ZM169.36 292.319a.437.437 0 0 1-.488.381.431.431 0 0 1-.39-.488.441.441 0 0 1 .787-.219.44.44 0 0 1 .091.326ZM171.497 294.652a.448.448 0 0 1-.795.251.451.451 0 0 1-.045-.502.453.453 0 0 1 .743-.068.438.438 0 0 1 .097.319ZM173.635 296.984a.45.45 0 1 1-.39-.478.44.44 0 0 1 .39.478ZM175.772 299.317a.452.452 0 0 1-.313.395.448.448 0 1 1-.078-.873.437.437 0 0 1 .391.478Z" fill="#000"/><path d="M166.763 290.104a.162.162 0 0 1-.107-.049.165.165 0 0 1-.053-.122.17.17 0 0 1 .013-.067.17.17 0 0 1 .04-.055 7.47 7.47 0 0 1 5.075-1.894.185.185 0 0 1 .166.186.197.197 0 0 1-.195.166 7.182 7.182 0 0 0-4.792 1.786.169.169 0 0 1-.147.049ZM168.901 292.436a.232.232 0 0 1-.108-.058.176.176 0 0 1 0-.244 7.467 7.467 0 0 1 5.076-1.894.186.186 0 0 1 .166.186.199.199 0 0 1-.196.166 7.199 7.199 0 0 0-4.792 1.795.24.24 0 0 1-.146.049ZM171.038 294.769a.157.157 0 0 1-.107-.049.178.178 0 0 1 0-.244 7.407 7.407 0 0 1 5.066-1.893.182.182 0 0 1 .165.185.195.195 0 0 1-.066.12.196.196 0 0 1-.129.046 7.205 7.205 0 0 0-4.792 1.796.197.197 0 0 1-.137.039ZM173.137 297.111a.234.234 0 0 1-.107-.058.172.172 0 0 1 0-.244 7.409 7.409 0 0 1 5.065-1.894.185.185 0 0 1 .166.186.197.197 0 0 1-.195.166 7.197 7.197 0 0 0-4.792 1.795.262.262 0 0 1-.137.049ZM175.313 299.444a.23.23 0 0 1-.107-.059.172.172 0 0 1 0-.244 7.403 7.403 0 0 1 5.065-1.893.184.184 0 0 1 .166.185.196.196 0 0 1-.195.166 7.201 7.201 0 0 0-4.792 1.796.265.265 0 0 1-.137.049ZM128.748 313.342c-.429 3.416-1.122 5.661-2.508 7.603-1.386 1.942-4.05 2.294-6.061 2.001a8.431 8.431 0 0 1-6.978-5.954c-.781-2.303-.488-4.997.263-8.149l15.284 4.499Z" fill="#263238"/><path d="M119.457 287.791c-.976 0-1.581 4.606-2.45 9.184-.976 4.88-2.674 7.583-3.396 10.892-.976 4.577-.81 6.676.683 9.574 1.493 2.899 8.56 6.139 11.712 2.304 2.586-3.133 2.928-6.754 3.006-11.39-.022-3.934.161-7.866.547-11.78.419-3.456.888-6.833.058-7.242-.107.507-.214 1.151-.312 1.639s-.303 2.255-.859 2.245a7.343 7.343 0 0 1 .078-1.308 1.511 1.511 0 0 0-.195-1.132 1.893 1.893 0 0 0-1.064-.546 27.548 27.548 0 0 0-2.928-.606 15.02 15.02 0 0 0-1.474-.156 16.543 16.543 0 0 0-2.596 0 .839.839 0 0 0-.566.439 1.309 1.309 0 0 0-.088.518c-.02.332-.082.66-.185.976 0 .136-.156.292-.293.253-.137-.039-.146-.175-.146-.292 0-.557.136-.976.205-1.601 0-.303.107-.712.136-.976.03-.264.127-.703.127-.995Z" fill="#455A64"/><path opacity=".15" d="M117.202 309.223a.322.322 0 0 0 .283.381.339.339 0 0 0 .333-.529.33.33 0 0 0-.226-.135.34.34 0 0 0-.39.283ZM117.739 306.042a.336.336 0 0 0 .06.253.337.337 0 0 0 .223.137.351.351 0 0 0 .4-.283.34.34 0 0 0-.283-.381.354.354 0 0 0-.4.274ZM118.246 303.045a.342.342 0 0 0 .283.391.353.353 0 0 0 .401-.283.34.34 0 0 0-.062-.25.34.34 0 0 0-.221-.131.344.344 0 0 0-.401.273ZM118.744 300.088a.346.346 0 0 0 .684.107.342.342 0 0 0-.283-.38.364.364 0 0 0-.401.273ZM126.533 301.025a.343.343 0 0 0 .283.381.343.343 0 0 0 .348-.159.35.35 0 0 0 .049-.194.346.346 0 0 0-.228-.307.345.345 0 0 0-.452.279ZM126.025 304.002a.34.34 0 0 0 .283.38.348.348 0 0 0 .4-.273.336.336 0 0 0-.06-.253.337.337 0 0 0-.223-.137.342.342 0 0 0-.4.283ZM125.518 306.998a.34.34 0 0 0 .061.25.34.34 0 0 0 .222.131.338.338 0 0 0 .198-.027.34.34 0 0 0 .132-.514.346.346 0 0 0-.161-.119.34.34 0 0 0-.452.279ZM124.981 310.17a.336.336 0 0 0 .283.391.364.364 0 0 0 .401-.283.342.342 0 0 0-.293-.381.344.344 0 0 0-.391.273ZM121.975 311.507l4.109-22.145-1.279-.098-2.83 22.243Z" fill="#000"/><path d="M117.505 309.448c2.313-.351 6.198.107 7.672.917.02.012.042.02.066.023a.166.166 0 0 0 .07-.005.171.171 0 0 0 .108-.086.17.17 0 0 0 .022-.062.165.165 0 0 0-.006-.066.155.155 0 0 0-.085-.096c-1.571-.869-5.475-1.328-7.896-.976a.17.17 0 0 0-.112.068.17.17 0 0 0-.034.127.186.186 0 0 0 .065.119.176.176 0 0 0 .13.037ZM118.051 306.266h.088c1.796-.693 5.944 0 7.632.918a.184.184 0 0 0 .244-.059.164.164 0 0 0 .018-.132.168.168 0 0 0-.033-.06.146.146 0 0 0-.053-.042c-1.757-.976-6.041-1.679-7.935-.976a.161.161 0 0 0-.098.085.15.15 0 0 0 .001.13.169.169 0 0 0 .047.088.177.177 0 0 0 .089.048ZM118.559 303.27h.097c1.786-.703 5.934 0 7.623.917.04.023.088.029.133.019a.19.19 0 0 0 .111-.077.167.167 0 0 0 .017-.132.174.174 0 0 0-.086-.103c-1.756-.976-6.041-1.678-7.934-.976a.191.191 0 0 0-.092.094.19.19 0 0 0 .045.213.188.188 0 0 0 .086.045ZM119.067 300.313a.147.147 0 0 0 .088 0c1.796-.693 5.944 0 7.632.976a.188.188 0 0 0 .234-.069.18.18 0 0 0 .018-.129.176.176 0 0 0-.076-.105c-1.767-.976-6.052-1.679-7.935-.976a.158.158 0 0 0-.112.15c0 .022.005.044.014.065a.17.17 0 0 0 .056.063.164.164 0 0 0 .081.025ZM127.021 174.936c-2.674 28.157-4.587 66.524-4.587 66.524-.234 2.137-2.479 11.243-3.68 21.784-1.249 11.175-2.469 31.984-2.469 31.984s7.974 4.304 14.513 2.283c0 0 7.447-35.038 10.961-48.126 3.318-12.376 8.569-35.858 8.569-35.858l3.055 23.346s-.556 8.032-.381 13.664c.195 6.539 4.08 38.064 4.08 38.064s8.667 5.114 15.499.195c0 0 .976-43.1 1.171-50.967.41-15.831.791-43.178.469-63.098l-47.2.205Z" fill="#263238"/><path d="M138.401 207.544a884.548 884.548 0 0 1-2.303 20.222c-.41 3.368-.83 6.735-1.279 10.092l-.654 5.046-.341 2.528c-.108.839-.293 1.669-.439 2.499-1.23 6.675-3.163 18.797-4.5 25.454a776.435 776.435 0 0 1-4.265 19.92 771.077 771.077 0 0 1 3.25-20.086c1.162-6.686 3.016-18.817 4.285-25.474.146-.839.341-1.669.449-2.508l.351-2.518.722-5.027c.488-3.357.986-6.711 1.494-10.062a1003.735 1003.735 0 0 1 3.23-20.086ZM169.086 206.099c.645 6.315.976 12.688 1.142 18.993.166 6.305.371 12.688 0 19.022-.371 6.335-.556 16.954-.888 23.288-.332 6.334-.703 12.688-1.181 18.983 0-6.344.065-12.681.195-19.012.127-6.335.381-16.954.606-23.278l.273-4.812.049-1.181v-22.516c-.049-3.172-.127-6.334-.196-9.487ZM150.328 213.527l3.045-15.402s7.906-.976 11.995-4.47c0 0-2.674 4.617-10.14 6.335l-2.997 13.605 1.152 23.278-3.055-23.346Z" fill="#000"/><path d="M166.91 119.733c4.812 1.415 5.427 2.489 14.152 9.858 7.125 6.012 10.931 8.559 10.931 8.559s7.418 8.784 7.74 10.541a9.606 9.606 0 0 1-3.572 8.413c-1.825 1.376-3.904.839-5.915-.205-2.42-1.288-3.63-1.952-4.821-2.664-8.042-4.656-14.494-8.921-14.494-8.921l-4.021-25.581Z" fill="#37474F"/><path d="M218.033 114.228c-1.211-.693-1.406.42-1.816.576 0 0 1.211-1.444-.868-2.635-1.279-.742-1.874 1.044-1.952.81-.078-.234 1.483-3.757 2.693-6.832 1.152-2.928.108-3.757-.37-3.982-.479-.224-.976 0-2.031 2.118-1.054 2.118-4.235 8.569-4.948 9.897-.712 1.327-1.239 1.952-1.727.253a9.774 9.774 0 0 0-1.835-4.109c-1.581-1.63-2.792-.888-2.528.371.371 1.777.371 3.904.664 6.774.156 1.513.205 2.928.39 3.972.586 3.65-1.513 5.349-4.002 8.247-2.03 2.382-4.138 4.324-8.784 9.106-4.44 4.519-3.855 14.465.352 16.807 4.645 2.606 5.914 1.083 10.736-6.393 3.123-4.821 7.271-13.664 8.423-15.723 1.151-2.059 1.551-3.289 3.162-4.304a11.934 11.934 0 0 0 4.363-5.007c.566-1.035 1.649-2.928 2.352-4.47.702-1.542.771-2.626-.108-3.27-1.2-.878-1.522.449-1.649.312-.127-.136 1.152-1.532-.517-2.518Z" fill="#FFA8A7"/><path d="M216.432 121.91c-.41-.576 0-1.65 0-1.65a1.95 1.95 0 0 1-.976.839 1.479 1.479 0 0 1-1.698-.741 2.135 2.135 0 0 1 .224-1.396c-.288.274-.64.472-1.024.576-.654.185-1.25-.225-1.494-.976-.244-.752.644-2.772 1.581-4.587a9.234 9.234 0 0 0-1.425 2.03 4.81 4.81 0 0 0-.819 2.459 5.116 5.116 0 0 0-1.952-1.552c1.669 1.611 2.928 5.993 2.225 8.911a6.45 6.45 0 0 0 .556-5.778 1.303 1.303 0 0 0 1.533-.127 1.553 1.553 0 0 0 .917 1.621 1.533 1.533 0 0 0 1.688 0s-.204.654.664 1.093c.869.439 1.552 0 2.02-.888a1.347 1.347 0 0 1-2.02.166Z" fill="#F28F8F"/><path d="M129.051 121.373s-4.373 3.904-3.211 14.454c.976 9.184 1.464 16.885 1.581 20.447.166 5.466-1.201 23.766-1.201 23.766 7.877 10.15 43.403 9.087 48.01.283v-24.859c0-8.94.254-17.167-.869-22.448-1.513-7.056-3.845-11.214-6.422-13.293l-11.614-3.201-10.629-.517-15.645 5.368Z" fill="#455A64"/><path d="M141.651 111.583c-.693-3.503-4.295-7.076-5.954-10.101-1.659-3.026-2.567-5.183-2.469-7.964a5.983 5.983 0 0 1 1.844-4.539c-.322-6.012 5.73-9.125 9.76-10.228 4.734-1.279 8.619-1.591 13.528.459a10.836 10.836 0 0 1 6.08 5.738 12.91 12.91 0 0 1 .771 5.788 3.536 3.536 0 0 1-.507 1.083c-.137.137-.108.635-.147.83-.071.56-.26 1.1-.556 1.581a5.742 5.742 0 0 1-1.952 1.874c-2.567 1.308-5.426 1.796-8.208 2.45l-3.299.78c-.195 0-1.191.127-1.308.303l-7.583 11.946Z" fill="#263238"/><path d="M137.405 107.191a3.396 3.396 0 0 0 4.138-.244l-.615 10.59c2.079 4.743 7.808 2.713 14.406 10.961 0 0 2.098-3.456.371-10.297l.322-3.553a39.687 39.687 0 0 0 4.177-.302c2.928-.459 4.441-3.065 5.349-6.969.802-3.496.846-7.124.126-10.638-.214-.96-.29-1.947-.224-2.928a13.59 13.59 0 0 0-1.103-6.15c-3.094-2.361-10.141-3.005-16.592 1.152.859 3.904-.566 7.008-3.367 8.57.166 1.044.371 3.699-1.357 3.699-1.249 0-1.376-1.562-2.693-2.928-1.318-1.367-4.314-1.62-5.408.439a6.736 6.736 0 0 0 2.47 8.598Z" fill="#FFA8A7"/><path d="m157.14 94.523 5.329 7.144-4.9 1.279-.429-8.423Z" fill="#F28F8F"/><path d="m153.812 93.371-2.694 1.337a1.58 1.58 0 0 1 .713-2.069 1.451 1.451 0 0 1 1.981.732ZM164.187 93.996l-2.674-1.425a1.45 1.45 0 0 1 .836-.742 1.447 1.447 0 0 1 1.116.078 1.594 1.594 0 0 1 .722 2.089Z" fill="#263238"/><path d="M155.998 114.648c-4.392-.4-7.866-.82-10.228-3.904a27.639 27.639 0 0 1-2.782-5.114 21.47 21.47 0 0 0 2.05 6.441c1.161 1.952 3.904 3.768 10.824 4.168l.136-1.591Z" fill="#F28F8F"/><path d="M154.231 97.041a1.225 1.225 0 0 1-.712 1.15 1.23 1.23 0 1 1-.615-2.34 1.255 1.255 0 0 1 1.206.713c.071.15.113.312.121.477Z" fill="#263238"/><path d="m153.1 104.722 4.88 1.308a2.664 2.664 0 0 1-3.202 1.835 2.478 2.478 0 0 1-1.678-3.143Z" fill="#B16668"/><path d="M156.213 107.826a3.002 3.002 0 0 0-3.211-2.391 2.452 2.452 0 0 0 1.805 2.43c.463.119.95.105 1.406-.039Z" fill="#F28F8F"/><path d="M162.03 95.235a1.257 1.257 0 0 1 1.21 1.299 1.234 1.234 0 0 1-.809 1.087 1.23 1.23 0 1 1-.401-2.386Z" fill="#263238"/><path d="M155.305 128.498a15.086 15.086 0 0 1-2.391-2.021c-1.064-1.142-1.572-1.669-1.952-1.278a26.841 26.841 0 0 0-2.762 4.743c-.469 1.044-.381 1.044-1.825.078a25.53 25.53 0 0 1-6.549-6.305 19.283 19.283 0 0 1-2.606-5.202s1.649-2.274 2.127-3.143c.976-1.678.898-2.371 1.855-2.225v1.21c.166 1.464 2.274 2.782 4.323 4.548 2.05 1.767 5.359 3.455 6.14 4.207.536.517 3.64 5.388 3.64 5.388Z" fill="#37474F"/><path d="M161.17 127.443c-.224.596-2.127-4.079-3.064-3.982-.449 0-1.289 2.353-1.757 3.211-.468.859-.732 1.279-1.044 1.826.566-1.406.722-5.027.839-5.974a16.519 16.519 0 0 0-.468-4.323l.322-3.553h.839c.474.491.911 1.016 1.308 1.571.917 1.494 2.586 4.207 2.928 5.993.328 1.726.361 3.495.097 5.231ZM130.964 120.719c-6.656 2.137-10.99 3.074-13.361 8.013-2.372 4.938-6.432 17.129-8.687 24.517-1.952 6.334-2.928 12.083-1.542 14.962l13.967-5.007 7.593-19.862s6.393-15.84 2.03-22.623Z" fill="#37474F"/><path d="M123.127 153.395c-1.239 1.533-2.606 2.099-5.583 3.289-2.772 1.123-5.963 2.148-7.808 4.988.625-2.684 2.187-3.904 5.651-5.651 3.465-1.747 8.54-3.68 8.54-3.68l-.8 1.054Z" fill="#263238"/><path d="M123.127 153.395c-1.24 1.533-2.606 2.099-5.583 3.289-2.772 1.123-5.963 2.148-7.808 4.988-1.571 2.508-3.25 4.577-2.411 6.51.586 1.327 4.324 2.352 7.916 2.313 3.592-.039 6.188-2.87 9.936-5.241 3.22-2.03 4.88-3.338 4.88-3.338l-6.93-8.521Z" fill="#FFA8A7"/><path d="M128.983 157.124c-1.318-1.328-1.562-2.675-3.523-3.797-1.962-1.122-3.202-1.083-5.29-2.147-2.089-1.064-3.777-1.62-5.358-1.103-1.582.517-1.328 1.415-.147 2.157s3.221 1.737 4.626 2.762c1.406 1.025 2.792 1.62 2.801 3.416a79.937 79.937 0 0 1-.644 8.481c-.38 2.997-.976 5.427-.761 5.749.215.322 1.513.469 2.313-1.2.8-1.669 1.825-7.808 1.825-7.808s.576 4.235.81 7.154c.235 2.918.322 5.143.41 5.768.088.624 2.147.146 2.479-2.05.332-2.196-.088-8.735-.088-8.735l2.821 4.88c1.103 1.952 2.469 4.558 2.928 5.202.459.644 1.767-.498 1.454-2.245-.312-1.747-2.557-6.041-2.557-6.041s2.714 2.84 3.182 3.113c.468.274 1.952.059 1.425-1.874-.322-1.288-1.152-2.118-3.328-4.606-2.177-2.489-2.147-3.534-2.821-4.675-.898-1.445-1.6-1.435-2.557-2.401Z" fill="#FFA8A7"/><path d="M114.811 150.077c-.271.09-.525.225-.752.4a.681.681 0 0 0-.283.703c.251.499.674.891 1.191 1.103l3.016 1.639c.508.299 1 .625 1.474.976.458.322.976.625 1.415.976.504.348.917.814 1.2 1.357a4 4 0 0 1 .254 1.796 78.714 78.714 0 0 1-.556 6.832 66.36 66.36 0 0 1-.557 3.406l-.341 1.689a5.226 5.226 0 0 0-.186 1.688 5.324 5.324 0 0 1 .069-1.708l.224-1.708c.166-1.132.313-2.264.41-3.406.215-2.274.41-4.568.449-6.832a3.54 3.54 0 0 0-.185-1.591 3.34 3.34 0 0 0-1.054-1.201c-.44-.331-.976-.644-1.396-.976-.42-.331-.927-.644-1.406-.976l-2.928-1.756a2.48 2.48 0 0 1-1.18-1.279.765.765 0 0 1 .37-.781c.23-.157.484-.276.752-.351ZM123.575 158.139c2.167.976 4.295 0 4.587-.547-.146 1.493-3.123 2.362-4.587.547ZM137.737 169.987c-.195.283-.81.371-1.356-.088-.547-.458-1.894-1.952-2.509-2.674l-2.703-3.201 1.952 3.592s2.713 2.84 3.182 3.113a1.062 1.062 0 0 0 .89-.036 1.054 1.054 0 0 0 .544-.706Z" fill="#F28F8F"/><path d="m169.233 108.294-1.24-.566s1.035-1.356.449-2.362a8.395 8.395 0 0 0-2.333-2.02c0-.576.059-1.161 0-1.757a16.044 16.044 0 0 1 3.006 2.382 3.092 3.092 0 0 1 .118 4.323Z" fill="#000"/><path d="M168.872 107.328c-.927-.761-1.591-.224-2.762 1.386-1.171 1.61-.771 2.216 0 2.782.771.566 1.649.146 2.557-1.201 1.074-1.513 1.21-2.147.205-2.967Z" fill="#C5A32B"/><path opacity=".1" d="M168.872 107.328c-.927-.761-1.591-.224-2.762 1.386-1.171 1.61-.771 2.216 0 2.782.771.566 1.649.146 2.557-1.201 1.074-1.513 1.21-2.147.205-2.967Z" fill="#000"/></svg>