<svg width="239" height="239" viewBox="0 0 239 239" fill="none" xmlns="http://www.w3.org/2000/svg">
<g filter="url(#filter0_d_991_395)">
<circle cx="112.478" cy="112.729" r="112.056" fill="#F8D65C"/>
</g>
<circle cx="112.813" cy="113.064" r="99.0108" fill="#FFFAE9"/>
<path d="M81.9111 176.705C71.6658 176.705 62.9404 173.102 55.7349 165.896C48.5294 158.691 44.9266 149.965 44.9266 139.72C44.9266 130.038 48.1646 121.677 54.6406 114.638C61.1165 107.599 69.1934 103.688 78.8713 102.904L56.5793 58.1516C55.4534 55.8998 55.539 53.7044 56.836 51.5653C58.133 49.4261 60.074 48.3566 62.6589 48.3566H90.6928C93.2823 48.3566 95.6196 49.0321 97.7047 50.3831C99.7898 51.7341 101.449 53.5355 102.683 55.7872L112.478 75.3772L122.273 55.7872C123.512 53.5355 125.173 51.7341 127.259 50.3831C129.344 49.0321 131.679 48.3566 134.264 48.3566H162.298C164.887 48.3566 166.83 49.4261 168.127 51.5653C169.424 53.7044 169.508 55.8998 168.377 58.1516L146.254 102.567C155.824 103.467 163.847 107.437 170.323 114.476C176.799 121.515 180.034 129.873 180.03 139.551C180.03 149.909 176.427 158.691 169.222 165.896C162.016 173.102 153.234 176.705 142.876 176.705C141.863 176.705 140.821 176.675 139.749 176.617C138.677 176.558 137.637 176.419 136.628 176.198C142.82 172.145 147.661 166.883 151.152 160.411C154.642 153.94 156.387 146.986 156.387 139.551C156.387 127.279 152.136 116.894 143.633 108.396C135.131 99.8984 124.746 95.6472 112.478 95.6427C100.206 95.6427 89.8214 99.8939 81.3234 108.396C72.8254 116.899 68.5742 127.284 68.5697 139.551C68.5697 147.207 70.1459 154.413 73.2983 161.168C76.4507 167.923 81.4045 172.933 88.1597 176.198C87.1464 176.423 86.1038 176.565 85.032 176.624C83.9602 176.682 82.9154 176.709 81.9111 176.705ZM112.478 169.949C104.034 169.949 96.8558 166.993 90.9428 161.08C85.0298 155.167 82.0755 147.991 82.08 139.551C82.08 131.107 85.0365 123.929 90.9495 118.016C96.8626 112.103 104.039 109.149 112.478 109.153C120.922 109.153 128.101 112.11 134.014 118.023C139.927 123.936 142.881 131.112 142.876 139.551C142.876 147.995 139.92 155.174 134.007 161.087C128.094 167 120.918 169.954 112.478 169.949ZM112.478 148.671L120.753 154.919C121.429 155.482 122.104 155.511 122.78 155.007C123.455 154.503 123.681 153.854 123.455 153.062L120.247 142.76L128.522 136.849C129.197 136.286 129.422 135.638 129.197 134.904C128.972 134.17 128.409 133.805 127.508 133.809H117.376L114.167 122.832C113.942 122.044 113.379 121.65 112.478 121.65C111.578 121.65 111.015 122.044 110.789 122.832L107.581 133.809H97.448C96.5473 133.809 95.9844 134.176 95.7592 134.91C95.534 135.645 95.7592 136.291 96.4347 136.849L104.71 142.76L101.501 153.062C101.276 153.85 101.501 154.498 102.177 155.007C102.852 155.516 103.528 155.487 104.203 154.919L112.478 148.671Z" fill="#1A0556"/>
<defs>
<filter id="filter0_d_991_395" x="0.421997" y="0.673096" width="238.112" height="238.112" filterUnits="userSpaceOnUse" color-interpolation-filters="sRGB">
<feFlood flood-opacity="0" result="BackgroundImageFix"/>
<feColorMatrix in="SourceAlpha" type="matrix" values="0 0 0 0 0 0 0 0 0 0 0 0 0 0 0 0 0 0 127 0" result="hardAlpha"/>
<feOffset dx="10" dy="10"/>
<feGaussianBlur stdDeviation="2"/>
<feComposite in2="hardAlpha" operator="out"/>
<feColorMatrix type="matrix" values="0 0 0 0 0 0 0 0 0 0 0 0 0 0 0 0 0 0 0.25 0"/>
<feBlend mode="normal" in2="BackgroundImageFix" result="effect1_dropShadow_991_395"/>
<feBlend mode="normal" in="SourceGraphic" in2="effect1_dropShadow_991_395" result="shape"/>
</filter>
</defs>
</svg>
