<svg width="239" height="239" viewBox="0 0 239 239" fill="none" xmlns="http://www.w3.org/2000/svg">
<g filter="url(#filter0_d_991_320)">
<circle cx="112.281" cy="112.056" r="112.056" fill="#F8D65C"/>
</g>
<circle cx="112.615" cy="112.391" r="99.0108" fill="#FFFAE9"/>
<path d="M106.281 99.6585H119.076C128.122 99.6585 132.645 99.6585 135.453 102.473C138.268 105.282 138.268 109.805 138.268 118.851V157.236C138.268 148.19 138.268 143.667 141.083 140.859C143.885 138.044 148.408 138.044 157.461 138.044C166.507 138.044 171.03 138.044 173.839 140.859C176.654 143.667 176.654 148.19 176.654 157.236V176.429H48.7029C48.7029 167.383 48.7029 162.86 51.5178 160.051C54.3199 157.236 58.843 157.236 67.8955 157.236C76.9416 157.236 81.4647 157.236 84.2732 160.051C87.0881 162.853 87.0881 167.376 87.0881 176.429V118.851C87.0881 109.805 87.0881 105.282 89.903 102.473C92.7051 99.6585 97.2282 99.6585 106.281 99.6585ZM107.215 55.0229C109.646 50.6534 110.861 48.4783 112.678 48.4783C114.495 48.4783 115.711 50.6534 118.142 55.0229L118.769 56.1489C119.46 57.39 119.805 58.0042 120.342 58.4136C120.886 58.8231 121.558 58.9766 122.901 59.2773L124.117 59.5588C128.838 60.6272 131.199 61.1582 131.762 62.9623C132.325 64.7728 130.713 66.6537 127.495 70.4154L126.663 71.3878C125.748 72.4562 125.288 72.9872 125.083 73.6526C124.878 74.3179 124.949 75.028 125.083 76.4547L125.211 77.7534C125.697 82.7755 125.94 85.2897 124.475 86.4029C123.004 87.5224 120.79 86.4988 116.37 84.4644L115.231 83.9398C113.971 83.364 113.344 83.0697 112.678 83.0697C112.013 83.0697 111.386 83.364 110.126 83.9398L108.987 84.4644C104.566 86.4988 102.353 87.5224 100.881 86.4029C99.4097 85.2897 99.6592 82.7755 100.145 77.7534L100.273 76.4547C100.408 75.028 100.478 74.3179 100.273 73.6526C100.069 72.9936 99.6081 72.4562 98.6932 71.3878L97.8615 70.4154C94.6436 66.6537 93.0314 64.7728 93.5944 62.9623C94.1574 61.1582 96.5181 60.6272 101.239 59.5588L102.455 59.2773C103.798 58.9766 104.47 58.8295 105.014 58.4136C105.551 58.0042 105.897 57.39 106.588 56.1489L107.215 55.0229Z" fill="#1A0556"/>
<defs>
<filter id="filter0_d_991_320" x="0.224731" y="0" width="238.112" height="238.112" filterUnits="userSpaceOnUse" color-interpolation-filters="sRGB">
<feFlood flood-opacity="0" result="BackgroundImageFix"/>
<feColorMatrix in="SourceAlpha" type="matrix" values="0 0 0 0 0 0 0 0 0 0 0 0 0 0 0 0 0 0 127 0" result="hardAlpha"/>
<feOffset dx="10" dy="10"/>
<feGaussianBlur stdDeviation="2"/>
<feComposite in2="hardAlpha" operator="out"/>
<feColorMatrix type="matrix" values="0 0 0 0 0 0 0 0 0 0 0 0 0 0 0 0 0 0 0.25 0"/>
<feBlend mode="normal" in2="BackgroundImageFix" result="effect1_dropShadow_991_320"/>
<feBlend mode="normal" in="SourceGraphic" in2="effect1_dropShadow_991_320" result="shape"/>
</filter>
</defs>
</svg>
