<svg width="239" height="239" viewBox="0 0 239 239" fill="none" xmlns="http://www.w3.org/2000/svg">
<g filter="url(#filter0_d_990_216)">
<circle cx="112.056" cy="112.056" r="112.056" fill="#F8D65C"/>
</g>
<circle cx="112.391" cy="112.391" r="99.0108" fill="#FFFAE9"/>
<path fill-rule="evenodd" clip-rule="evenodd" d="M186.171 116.482C188.025 115.571 189.443 113.961 190.11 112.005C190.778 110.05 190.642 107.909 189.732 106.054L169.18 64.0531C168.73 63.134 168.103 62.3126 167.335 61.6358C166.567 60.959 165.674 60.4401 164.705 60.1086C163.737 59.7772 162.713 59.6397 161.691 59.704C160.67 59.7683 159.671 60.0332 158.752 60.4836L144.755 67.3421C142.9 68.2516 141.483 69.8599 140.814 71.8136C140.144 73.7674 140.278 75.907 141.185 77.7624L161.745 119.763C162.195 120.682 162.822 121.503 163.59 122.18C164.358 122.857 165.251 123.376 166.22 123.707C167.188 124.039 168.212 124.176 169.234 124.112C170.255 124.048 171.254 123.783 172.173 123.332L186.171 116.482ZM156.032 72.6574C155.343 72.9952 154.727 73.4654 154.219 74.0412C153.712 74.6171 153.322 75.2872 153.074 76.0135C152.825 76.7397 152.722 77.5079 152.77 78.274C152.819 79.0401 153.017 79.7892 153.355 80.4785C153.693 81.1678 154.163 81.7838 154.739 82.2914C155.315 82.799 155.985 83.1882 156.711 83.4368C157.437 83.6854 158.205 83.7886 158.971 83.7403C159.738 83.6921 160.487 83.4934 161.176 83.1556C162.568 82.4735 163.632 81.2663 164.134 79.7996C164.636 78.3328 164.535 76.7267 163.853 75.3346C163.171 73.9424 161.964 72.8783 160.497 72.3762C159.03 71.8742 157.424 71.9753 156.032 72.6574ZM66.4273 62.3229C64.5565 61.4448 62.4136 61.3456 60.4698 62.0471C58.526 62.7487 56.9403 64.1935 56.0616 66.0639L36.1953 108.4C35.3171 110.27 35.218 112.413 35.9195 114.357C36.621 116.301 38.0659 117.887 39.9363 118.765L54.0508 125.39C55.9215 126.268 58.0644 126.367 60.0082 125.666C61.952 124.964 63.5377 123.519 64.4165 121.649L84.2905 79.3133C84.7251 78.3865 84.9728 77.3833 85.0196 76.3608C85.0664 75.3383 84.9113 74.3165 84.5632 73.354C84.215 72.3914 83.6807 71.5069 82.9907 70.7508C82.3007 69.9948 81.4686 69.382 80.5417 68.9476L66.4273 62.3229ZM51.1359 113.263C51.8336 113.611 52.5939 113.815 53.372 113.865C54.15 113.915 54.9301 113.808 55.6663 113.551C56.4026 113.295 57.0801 112.894 57.6589 112.372C58.2378 111.849 58.7064 111.217 59.037 110.511C59.3677 109.805 59.5538 109.04 59.5843 108.261C59.6149 107.481 59.4893 106.704 59.2149 105.974C58.9406 105.245 58.523 104.577 57.9868 104.011C57.4506 103.445 56.8066 102.992 56.0927 102.679C54.6906 102.031 53.0889 101.964 51.6375 102.493C50.1862 103.022 49.0033 104.104 48.3473 105.502C47.6912 106.901 47.6155 108.502 48.1366 109.956C48.6576 111.41 49.741 112.599 51.1359 113.263Z" fill="#1A0556"/>
<path d="M145.043 84.348L145.152 84.3324H145.175C146.314 84.1842 147.405 83.7859 148.371 83.166C149.337 82.5462 150.154 81.7202 150.764 80.7473L151.894 75.5878C151.76 74.5723 151.428 73.593 150.916 72.706C150.403 71.8189 149.721 71.0416 148.908 70.4184C148.096 69.7951 147.168 69.3383 146.178 69.0738C145.189 68.8094 144.157 68.7427 143.141 68.8774H143.094L142.939 68.9008L142.416 68.9787L140.499 69.2593C138.878 69.5009 136.602 69.8672 133.991 70.3504C128.84 71.2935 122.059 72.7353 116.284 74.6604C112.972 75.7671 109.683 77.8013 106.791 79.9212C103.806 82.1034 100.774 84.7143 97.9219 87.3642C92.8779 92.125 88.0588 97.1185 83.48 102.328C79.1389 107.238 77.9075 115.414 83.3475 121.314C86.0442 124.244 90.5178 128.235 96.5268 130.043C102.98 131.991 110.291 131.134 117.43 125.873L123.049 122.241C123.665 122.709 124.366 123.278 125.153 123.94C127.102 125.577 129.245 127.518 131.264 129.419C133.552 131.58 135.802 133.781 138.013 136.021L138.442 136.449L138.543 136.558L138.574 136.59L139.494 137.54L140.678 138.125C145.199 140.385 149.898 139.45 152.938 138.437C156.188 137.338 159.282 135.545 161.776 133.893C164.906 131.791 167.868 129.452 170.638 126.894L170.794 126.746L170.848 126.699L170.864 126.684C172.364 125.262 173.246 123.302 173.302 121.235C173.357 119.168 172.59 117.164 171.168 115.663C169.745 114.163 167.785 113.288 165.719 113.233C163.652 113.177 161.648 113.945 160.147 115.367L160.139 115.375L160.054 115.453L159.664 115.811C157.611 117.66 155.431 119.364 153.141 120.909C151.53 122.038 149.787 122.964 147.95 123.668L147.771 123.722L147.443 123.395C145.816 121.774 144.169 120.174 142.502 118.594L141.957 118.072C139.751 115.982 137.488 113.955 135.168 111.992C133.009 110.184 130.547 108.267 128.341 107.059C123.407 104.355 118.755 106.467 116.658 107.815L108.529 113.068L108.311 113.232C104.952 115.749 102.676 115.617 101.024 115.118C99.2624 114.588 97.4854 113.364 95.8799 111.844C99.9025 107.302 104.126 102.941 108.537 98.7743C111.124 96.366 113.673 94.1993 115.988 92.5003C118.404 90.7389 120.165 89.7959 121.21 89.4529C125.948 87.8708 131.879 86.5848 136.797 85.6807C139.387 85.2066 141.985 84.7831 144.591 84.4104L145.043 84.348Z" fill="#1A0556"/>
<path fill-rule="evenodd" clip-rule="evenodd" d="M78.9207 73.2653C77.0711 74.0793 75.61 75.5799 74.8456 77.4505C74.0812 79.3212 74.0732 81.4155 74.8233 83.2919C75.5735 85.1683 77.0231 86.68 78.8664 87.5081C80.7097 88.3362 82.8026 88.4159 84.7036 87.7305L84.9063 87.6526L85.5142 87.4188C88.5645 86.2153 91.6304 85.0514 94.7108 83.9272C97.3373 82.9685 99.995 82.0489 102.193 81.3708C103.239 81.0448 104.297 80.7588 105.365 80.5135L105.794 80.5759C106.261 80.6538 106.869 80.7629 107.586 80.9188C109.012 81.2383 110.68 81.6826 112.309 82.1502C114.169 82.6813 116.019 83.2452 117.858 83.8414L118.209 83.9583L118.287 83.9895H118.31C120.263 84.6123 122.381 84.4412 124.208 83.5133C126.035 82.5853 127.424 80.9752 128.072 79.0314C128.721 77.0876 128.578 74.9666 127.674 73.1274C126.77 71.2883 125.179 69.8791 123.244 69.2048L120.835 76.4374L123.252 69.2048L123.197 69.1892L123.088 69.158L122.683 69.0255C120.663 68.3626 118.631 67.739 116.588 67.155C114.727 66.6176 112.85 66.1342 110.961 65.7054C109.071 65.2431 107.138 64.9767 105.193 64.9104C103.736 64.9104 102.255 65.2222 101.289 65.456C100.143 65.721 98.8727 66.0795 97.6023 66.4692C94.8398 67.3397 92.0983 68.2752 89.3799 69.2749C86.1685 70.4457 82.9728 71.659 79.7936 72.9146L79.1545 73.164L78.9207 73.2653ZM67.6509 117.674L67.8925 117.9L68.6017 118.555C72.141 121.84 75.7107 125.093 79.3103 128.313C82.3811 131.056 85.5531 133.831 88.2342 136.044C89.5747 137.159 90.7438 138.086 91.679 138.787C92.3103 139.255 92.7156 139.528 92.926 139.668L115.029 147.953C116.318 148.436 117.711 148.569 119.067 148.339C120.424 148.109 121.696 147.524 122.753 146.644L139.174 132.966C139.956 132.281 140.867 131.76 141.854 131.433C142.84 131.106 143.882 130.98 144.918 131.062C145.954 131.143 146.964 131.431 147.887 131.909C148.81 132.386 149.628 133.044 150.293 133.842C150.959 134.64 151.457 135.564 151.761 136.558C152.064 137.552 152.165 138.596 152.059 139.63C151.952 140.664 151.64 141.666 151.14 142.577C150.641 143.489 149.964 144.291 149.15 144.937L132.737 158.623C129.564 161.266 125.748 163.022 121.677 163.712C117.606 164.402 113.424 164.001 109.558 162.551L86.4884 153.9L86.1221 153.712C83.932 152.621 80.8847 150.205 78.2971 148.054C75.1264 145.408 72.0032 142.706 68.9291 139.949C65.2514 136.659 61.6064 133.334 57.9944 129.973L57.2618 129.295L57.0046 129.061C55.4946 127.649 54.6073 125.695 54.5379 123.629C54.4685 121.563 55.2226 119.554 56.6344 118.044C58.0462 116.534 60 115.647 62.066 115.578C64.132 115.508 66.1409 116.262 67.6509 117.674ZM61.8211 157.337C62.4775 156.551 63.2823 155.902 64.1895 155.427C65.0967 154.953 66.0886 154.662 67.1084 154.57C68.1282 154.479 69.156 154.59 70.133 154.896C71.11 155.202 72.0171 155.698 72.8025 156.355L80.269 162.59C81.3853 163.523 82.7406 164.125 84.1814 164.328L93.8223 165.676C94.8361 165.818 95.8119 166.159 96.6941 166.678C97.5762 167.198 98.3474 167.886 98.9637 168.703C99.5799 169.52 100.029 170.451 100.286 171.442C100.542 172.433 100.601 173.465 100.459 174.479C100.316 175.493 99.9759 176.469 99.4565 177.351C98.9371 178.233 98.2491 179.004 97.4316 179.62C96.6142 180.237 95.6834 180.686 94.6923 180.942C93.7013 181.199 92.6694 181.258 91.6557 181.115L82.0226 179.767C77.6974 179.16 73.6286 177.354 70.2774 174.553L62.811 168.318C62.0235 167.662 61.3731 166.857 60.897 165.95C60.421 165.042 60.1286 164.049 60.0367 163.029C59.9448 162.008 60.0551 160.979 60.3613 160.001C60.6674 159.023 61.1635 158.115 61.8211 157.329V157.337Z" fill="#1A0556"/>
<defs>
<filter id="filter0_d_990_216" x="0" y="0" width="238.112" height="238.112" filterUnits="userSpaceOnUse" color-interpolation-filters="sRGB">
<feFlood flood-opacity="0" result="BackgroundImageFix"/>
<feColorMatrix in="SourceAlpha" type="matrix" values="0 0 0 0 0 0 0 0 0 0 0 0 0 0 0 0 0 0 127 0" result="hardAlpha"/>
<feOffset dx="10" dy="10"/>
<feGaussianBlur stdDeviation="2"/>
<feComposite in2="hardAlpha" operator="out"/>
<feColorMatrix type="matrix" values="0 0 0 0 0 0 0 0 0 0 0 0 0 0 0 0 0 0 0.25 0"/>
<feBlend mode="normal" in2="BackgroundImageFix" result="effect1_dropShadow_990_216"/>
<feBlend mode="normal" in="SourceGraphic" in2="effect1_dropShadow_990_216" result="shape"/>
</filter>
</defs>
</svg>
