<svg width="239" height="239" viewBox="0 0 239 239" fill="none" xmlns="http://www.w3.org/2000/svg">
<g filter="url(#filter0_d_991_377)">
<circle cx="112.193" cy="112.729" r="112.056" fill="#F8D65C"/>
</g>
<circle cx="112.527" cy="113.064" r="99.0108" fill="#FFFAE9"/>
<path fill-rule="evenodd" clip-rule="evenodd" d="M53.8798 67.463C53.8798 64.0028 55.2543 60.6843 57.7011 58.2376C60.1478 55.7908 63.4663 54.4163 66.9265 54.4163H158.254C161.714 54.4163 165.032 55.7908 167.479 58.2376C169.926 60.6843 171.3 64.0028 171.3 67.463V158.79C171.3 162.25 169.926 165.569 167.479 168.016C165.032 170.462 161.714 171.837 158.254 171.837H66.9265C63.4663 171.837 60.1478 170.462 57.7011 168.016C55.2543 165.569 53.8798 162.25 53.8798 158.79V67.463ZM125.239 84.7825C122.936 79.0224 114.684 79.3486 112.831 85.2653L101.402 121.835L98.8714 116.767C98.3241 115.673 97.4832 114.753 96.4429 114.11C95.4025 113.467 94.2038 113.127 92.9808 113.127H79.9732C78.2431 113.127 76.5839 113.814 75.3605 115.037C74.1371 116.261 73.4499 117.92 73.4499 119.65C73.4499 121.38 74.1371 123.039 75.3605 124.263C76.5839 125.486 78.2431 126.173 79.9732 126.173H88.9885L96.8948 141.992C99.5498 147.296 107.313 146.67 109.08 141.014L119.87 106.486L126.087 122.031C127.085 124.536 129.512 126.173 132.206 126.173H145.207C146.937 126.173 148.596 125.486 149.82 124.263C151.043 123.039 151.73 121.38 151.73 119.65C151.73 117.92 151.043 116.261 149.82 115.037C148.596 113.814 146.937 113.127 145.207 113.127H136.576L125.239 84.7825Z" fill="#1A0556"/>
<defs>
<filter id="filter0_d_991_377" x="0.136475" y="0.673096" width="238.112" height="238.112" filterUnits="userSpaceOnUse" color-interpolation-filters="sRGB">
<feFlood flood-opacity="0" result="BackgroundImageFix"/>
<feColorMatrix in="SourceAlpha" type="matrix" values="0 0 0 0 0 0 0 0 0 0 0 0 0 0 0 0 0 0 127 0" result="hardAlpha"/>
<feOffset dx="10" dy="10"/>
<feGaussianBlur stdDeviation="2"/>
<feComposite in2="hardAlpha" operator="out"/>
<feColorMatrix type="matrix" values="0 0 0 0 0 0 0 0 0 0 0 0 0 0 0 0 0 0 0.25 0"/>
<feBlend mode="normal" in2="BackgroundImageFix" result="effect1_dropShadow_991_377"/>
<feBlend mode="normal" in="SourceGraphic" in2="effect1_dropShadow_991_377" result="shape"/>
</filter>
</defs>
</svg>
