<svg width="239" height="239" viewBox="0 0 239 239" fill="none" xmlns="http://www.w3.org/2000/svg">
<g filter="url(#filter0_d_1006_226)">
<circle cx="112.249" cy="112.056" r="112.056" fill="#F8D65C"/>
</g>
<circle cx="112.583" cy="112.391" r="99.0108" fill="#FFFAE9"/>
<path d="M97.2657 94.3957C100.826 90.0865 106.216 87.3315 112.249 87.3315C118.282 87.3315 123.672 90.0865 127.232 94.3957C129.576 97.2377 131.064 100.688 131.521 104.343C131.979 107.999 131.388 111.709 129.817 115.041C128.246 118.373 125.76 121.19 122.649 123.163C119.537 125.136 115.929 126.183 112.245 126.183C108.561 126.183 104.953 125.136 101.842 123.163C98.7309 121.19 96.2448 118.373 94.6737 115.041C93.1027 111.709 92.5116 107.999 92.9692 104.343C93.4269 100.688 94.9145 97.2377 97.2586 94.3957H97.2657ZM138.74 106.758C138.74 102.293 137.638 98.0832 135.688 94.3957H165.231C168.041 94.3957 170.736 95.5121 172.723 97.4993C174.71 99.4865 175.827 102.182 175.827 104.992V108.524C175.827 119.735 167.307 131.214 152.409 135.255C150.878 132.505 148.64 130.214 145.926 128.619C143.212 127.024 140.121 126.184 136.974 126.185H130.263C132.94 123.707 135.076 120.702 136.535 117.359C137.994 114.015 138.744 110.406 138.74 106.758ZM136.974 133.249C138.366 133.245 139.746 133.517 141.033 134.048C142.32 134.579 143.49 135.359 144.475 136.344C145.459 137.329 146.24 138.499 146.771 139.786C147.302 141.073 147.574 142.453 147.57 143.845V147.377C147.57 161.301 134.431 175.634 112.249 175.634C90.0672 175.634 76.9278 161.301 76.9278 147.377V143.845C76.924 142.453 77.1956 141.073 77.7268 139.786C78.258 138.499 79.0384 137.329 80.0231 136.344C81.0078 135.359 82.1774 134.579 83.4647 134.048C84.752 133.517 86.1315 133.245 87.5241 133.249H136.974ZM48.6709 108.524C48.6709 119.735 57.1903 131.214 72.0888 135.255C73.6198 132.505 75.8581 130.214 78.5719 128.619C81.2857 127.024 84.3764 126.184 87.5241 126.185H94.2351C91.5575 123.707 89.422 120.702 87.9631 117.359C86.5041 114.015 85.7534 110.406 85.7581 106.758C85.7581 102.293 86.8601 98.0832 88.8169 94.3957H59.2672C56.4569 94.3957 53.7617 95.5121 51.7745 97.4993C49.7873 99.4865 48.6709 102.182 48.6709 104.992V108.524ZM103.419 67.9049C103.419 62.7526 101.372 57.8114 97.7287 54.1682C94.0855 50.525 89.1443 48.4783 83.992 48.4783C78.8397 48.4783 73.8985 50.525 70.2553 54.1682C66.6121 57.8114 64.5654 62.7526 64.5654 67.9049C64.5654 73.0571 66.6121 77.9984 70.2553 81.6416C73.8985 85.2848 78.8397 87.3315 83.992 87.3315C89.1443 87.3315 94.0855 85.2848 97.7287 81.6416C101.372 77.9984 103.419 73.0571 103.419 67.9049ZM159.932 67.9049C159.932 62.7526 157.886 57.8114 154.242 54.1682C150.599 50.525 145.658 48.4783 140.506 48.4783C135.354 48.4783 130.412 50.525 126.769 54.1682C123.126 57.8114 121.079 62.7526 121.079 67.9049C121.079 73.0571 123.126 77.9984 126.769 81.6416C130.412 85.2848 135.354 87.3315 140.506 87.3315C145.658 87.3315 150.599 85.2848 154.242 81.6416C157.886 77.9984 159.932 73.0571 159.932 67.9049Z" fill="#1A0556"/>
<defs>
<filter id="filter0_d_1006_226" x="0.192749" y="0" width="238.112" height="238.112" filterUnits="userSpaceOnUse" color-interpolation-filters="sRGB">
<feFlood flood-opacity="0" result="BackgroundImageFix"/>
<feColorMatrix in="SourceAlpha" type="matrix" values="0 0 0 0 0 0 0 0 0 0 0 0 0 0 0 0 0 0 127 0" result="hardAlpha"/>
<feOffset dx="10" dy="10"/>
<feGaussianBlur stdDeviation="2"/>
<feComposite in2="hardAlpha" operator="out"/>
<feColorMatrix type="matrix" values="0 0 0 0 0 0 0 0 0 0 0 0 0 0 0 0 0 0 0.25 0"/>
<feBlend mode="normal" in2="BackgroundImageFix" result="effect1_dropShadow_1006_226"/>
<feBlend mode="normal" in="SourceGraphic" in2="effect1_dropShadow_1006_226" result="shape"/>
</filter>
</defs>
</svg>
