<svg width="71" height="71" viewBox="0 0 71 71" fill="none" xmlns="http://www.w3.org/2000/svg">
<path d="M16.1109 0.145832C13.4304 0.716145 11.2632 2.01361 9.49526 4.08099C6.33003 7.80228 5.98784 13.4056 8.68257 17.5118C12.1472 22.8015 19.2048 24.3271 24.4089 20.9195C30.5113 16.9273 31.4238 8.42962 26.291 3.31107C24.8224 1.82825 23.1257 0.87298 20.9585 0.274151C19.8464 -0.0252628 17.2515 -0.0965519 16.1109 0.145832ZM19.3902 5.20736C19.3902 5.84896 19.4187 5.92025 19.8179 6.07708C20.4167 6.31947 21.3007 7.36029 21.5003 8.04466C21.814 9.07122 21.7998 9.07122 20.5308 9.07122C19.6041 9.07122 19.3902 9.02845 19.3902 8.85736C19.3902 8.47239 18.7201 7.9306 18.2496 7.9306C17.665 7.9306 17.1089 8.48665 17.1089 9.07122C17.1089 9.67005 17.665 10.2118 18.2638 10.2118C20.0175 10.2118 21.6714 11.88 21.6714 13.6337C21.6714 14.7886 20.7874 16.2286 19.8179 16.6279C19.4187 16.7847 19.3902 16.856 19.3902 17.4976V18.1962H18.2496H17.1089V17.4976C17.1089 16.856 17.0804 16.7847 16.6812 16.6279C16.0824 16.3855 15.1984 15.3447 14.9988 14.6603C14.6851 13.6337 14.6994 13.6337 15.9683 13.6337C16.8951 13.6337 17.1089 13.6765 17.1089 13.8476C17.1089 14.2326 17.7791 14.7743 18.2496 14.7743C18.8341 14.7743 19.3902 14.2183 19.3902 13.6337C19.3902 13.0349 18.8341 12.4931 18.2353 12.4931C16.4816 12.4931 14.8277 10.8249 14.8277 9.07122C14.8277 7.91634 15.7117 6.4763 16.6812 6.07708C17.0804 5.92025 17.1089 5.84896 17.1089 5.20736V4.50872H18.2496H19.3902V5.20736Z" fill="#C5A32B"/>
<path d="M52.4688 18.1962V20.4775H53.6094H54.75V18.1962V15.915H53.6094H52.4688V18.1962Z" fill="#C5A32B"/>
<path d="M47.9062 21.6181V23.8994H49.0469H50.1875V21.6181V19.3369H49.0469H47.9062V21.6181Z" fill="#C5A32B"/>
<path d="M57.0312 21.6181V23.8994H58.1719H59.3125V21.6181V19.3369H58.1719H57.0312V21.6181Z" fill="#C5A32B"/>
<path d="M10.6221 24.2558C10.2656 24.598 10.2656 24.6265 10.2656 27.3212C10.2656 30.016 10.2656 30.0445 10.6221 30.3867L10.9643 30.7431H19.3906H27.817L28.1592 30.3867C28.5156 30.0445 28.5156 30.016 28.5156 27.3212C28.5156 24.6265 28.5156 24.598 28.1592 24.2558L27.817 23.8994H19.3906H10.9643L10.6221 24.2558ZM14.8281 27.3212V28.4619H13.6875H12.5469V27.3212V26.1806H13.6875H14.8281V27.3212ZM26.2344 27.3212V28.4619H25.0938H23.9531V27.3212V26.1806H25.0938H26.2344V27.3212Z" fill="#C5A32B"/>
<path d="M51.9131 25.2681C50.7582 25.5818 49.7886 26.1521 48.8191 27.1074C46.2099 29.688 46.1244 33.7658 48.6052 36.4747C50.2021 38.2142 52.8256 39.0839 54.9642 38.5849C55.8482 38.3853 56.0763 38.0003 55.9623 36.9167C55.891 36.2324 55.9195 35.9187 56.1048 35.5195C56.8035 34.0652 58.4716 33.7372 59.7406 34.8066C60.7957 35.6906 61.5228 35.3911 62.2785 33.7658C62.5922 33.0956 62.6634 32.7535 62.6634 31.8124C62.6634 30.5577 62.3498 29.7451 61.423 28.5902C59.4554 26.1378 54.7646 24.4982 51.9131 25.2681ZM53.6097 31.8837V33.0244H52.4691H51.3285V31.8837V30.7431H52.4691H53.6097V31.8837Z" fill="#C5A32B"/>
<path d="M38.71 30.7716C37.6549 31.2992 37.7262 31.2279 37.9258 31.5843L38.0826 31.8837H34.4326H30.7969V33.0244V34.165H35.5732H40.3639L40.7061 33.8085C40.9057 33.6232 41.0625 33.3238 41.0625 33.1384C41.0625 32.7107 39.9219 30.3154 39.7223 30.3154C39.6367 30.3296 39.1805 30.5292 38.71 30.7716Z" fill="#C5A32B"/>
<path d="M7.2002 32.2402C6.84375 32.5824 6.84375 32.6109 6.84375 35.3056C6.84375 38.0003 6.84375 38.0288 7.2002 38.371L7.54238 38.7275H15.9688H24.3951L24.7373 38.371C25.0938 38.0288 25.0938 38.0003 25.0938 35.3056C25.0938 32.6109 25.0938 32.5824 24.7373 32.2402L24.3951 31.8837H15.9688H7.54238L7.2002 32.2402ZM11.4062 35.3056V36.4462H10.2656H9.125V35.3056V34.165H10.2656H11.4062V35.3056ZM22.8125 35.3056V36.4462H21.6719H20.5312V35.3056V34.165H21.6719H22.8125V35.3056Z" fill="#C5A32B"/>
<path d="M30.0127 36.8027C29.8131 36.988 29.6562 37.2874 29.6562 37.4728C29.6562 37.8578 30.7826 40.2958 30.968 40.2958C31.0678 40.2958 32.793 39.4689 32.907 39.3691C32.9355 39.3406 32.8928 39.1837 32.793 39.0269L32.6361 38.7275H36.2861H39.9219V37.5869V36.4462H35.1455H30.3549L30.0127 36.8027Z" fill="#C5A32B"/>
<path d="M8.93965 40.0249C8.12695 40.2245 7.0291 40.8234 6.33047 41.465C5.7459 42.0068 4.70508 43.7747 4.70508 44.231C4.70508 44.3878 4.30586 44.4306 2.70898 44.4306C0.769922 44.4306 0.684375 44.4449 0.356445 44.787C0 45.1292 0 45.1578 0 47.8525C0 50.5472 0 50.5757 0.356445 50.9179L0.698633 51.2744H16.3252H31.9375V53.2704V55.2808L31.2959 55.5517C28.2875 56.8349 25.6926 60.0999 25.2934 63.0798L25.1936 63.8212H23.9674C22.2279 63.8212 21.2156 64.0351 19.8326 64.7052C18.8061 65.19 18.4068 65.5036 16.7387 67.1433C15.042 68.8115 14.8281 69.0824 14.8281 69.4958C14.8281 69.8095 14.9422 70.0804 15.1846 70.3085L15.5268 70.665H35.3594H55.192L55.5342 70.3085C55.7766 70.0804 55.8906 69.8095 55.8906 69.4958C55.8906 69.0824 55.6625 68.8115 54.0086 67.1718C51.2854 64.4913 49.8596 63.8355 46.8227 63.8212H45.5252L45.4254 63.0798C45.1973 61.4259 44.0994 59.3015 42.7307 57.8615C41.9322 57.0345 40.5635 56.065 39.5797 55.623L38.7812 55.2665V53.2704V51.2744H54.3936H70.0201L70.3623 50.9179C70.7188 50.5757 70.7188 50.5472 70.7188 47.8525C70.7188 45.1578 70.7188 45.1292 70.3623 44.787C70.0344 44.4449 69.9488 44.4306 68.0098 44.4306C66.4129 44.4306 66.0137 44.3878 66.0137 44.231C66.0137 44.1312 65.7855 43.5894 65.5146 43.0476C64.9016 41.8214 64.0461 40.9945 62.7629 40.3956L61.8076 39.9394H54.75H47.6924L46.7371 40.3956C45.4539 40.9945 44.5984 41.8214 43.9854 43.0476C43.7145 43.5894 43.4863 44.1312 43.4863 44.231C43.4863 44.4021 42.1318 44.4306 35.3594 44.4306C28.5869 44.4306 27.2324 44.4021 27.2324 44.231C27.2324 44.1312 27.0043 43.5894 26.7334 43.0476C26.1203 41.8214 25.2648 40.9945 23.9816 40.3956L23.0264 39.9394L16.2539 39.9109C12.5326 39.8966 9.23906 39.9536 8.93965 40.0249ZM34.2188 47.8525V48.9931H18.25H2.28125V47.8525V46.7119H18.25H34.2188V47.8525ZM68.4375 47.8525V48.9931H52.4688H36.5V47.8525V46.7119H52.4688H68.4375V47.8525Z" fill="#C5A32B"/>
</svg>
