<svg width="24" height="24" viewBox="0 0 24 24" fill="none" xmlns="http://www.w3.org/2000/svg">
<path d="M22.3833 0.333496H1.61668C1.27632 0.333496 0.949895 0.468704 0.709223 0.709376C0.468552 0.950048 0.333344 1.27647 0.333344 1.61683V22.3835C0.333344 22.7239 0.468552 23.0503 0.709223 23.291C0.949895 23.5316 1.27632 23.6668 1.61668 23.6668H12.7933V14.6252H9.76001V11.1252H12.7933V8.50016C12.7305 7.88388 12.8033 7.26131 13.0065 6.67612C13.2098 6.09094 13.5386 5.5573 13.9699 5.11264C14.4012 4.66799 14.9246 4.32308 15.5033 4.10211C16.082 3.88114 16.7021 3.78946 17.32 3.8335C18.2281 3.82791 19.1357 3.87465 20.0383 3.9735V7.1235H18.1833C16.7133 7.1235 16.4333 7.8235 16.4333 8.8385V11.0902H19.9333L19.4783 14.5902H16.4333V23.6668H22.3833C22.5519 23.6668 22.7188 23.6336 22.8745 23.5691C23.0302 23.5046 23.1716 23.4101 23.2908 23.291C23.41 23.1718 23.5045 23.0303 23.569 22.8746C23.6335 22.7189 23.6667 22.552 23.6667 22.3835V1.61683C23.6667 1.4483 23.6335 1.28142 23.569 1.12572C23.5045 0.970018 23.41 0.828544 23.2908 0.709376C23.1716 0.590207 23.0302 0.495678 22.8745 0.431184C22.7188 0.366691 22.5519 0.333496 22.3833 0.333496Z" fill="white"/>
</svg>
