<svg width="79" height="79" viewBox="0 0 79 79" fill="none" xmlns="http://www.w3.org/2000/svg">
<path d="M4.9375 74.0625H14.8915L39.4432 67.2117L63.9949 74.0625H74.0625V22.9594C74.0625 22.2137 73.9156 21.4754 73.6303 20.7865C73.3449 20.0975 72.9267 19.4716 72.3994 18.9443C71.8722 18.4171 71.2462 17.9988 70.5573 17.7135C69.8684 17.4281 69.13 17.2813 68.3844 17.2812H10.6156C9.86996 17.2812 9.1316 17.4281 8.4427 17.7135C7.7538 17.9988 7.12785 18.4171 6.60058 18.9443C6.07332 19.4716 5.65507 20.0975 5.36972 20.7865C5.08437 21.4754 4.9375 22.2137 4.9375 22.9594V74.0625Z" fill="#9B9B9B"/>
<path d="M66.6562 34.5625H64.1875C62.8297 34.5625 61.7188 33.4516 61.7188 32.0938V29.625C61.7188 28.2672 62.8297 27.1562 64.1875 27.1562H66.6562C68.0141 27.1562 69.125 28.2672 69.125 29.625V32.0938C69.125 33.4763 68.0141 34.5625 66.6562 34.5625ZM69.125 44.4375V41.9688C69.125 40.6109 68.0141 39.5 66.6562 39.5H64.1875C62.8297 39.5 61.7188 40.6109 61.7188 41.9688V44.4375C61.7188 45.7953 62.8297 46.9062 64.1875 46.9062H66.6562C68.0141 46.9062 69.125 45.82 69.125 44.4375ZM69.125 56.7812V54.3125C69.125 52.9547 68.0141 51.8438 66.6562 51.8438H64.1875C62.8297 51.8438 61.7188 52.9547 61.7188 54.3125V56.7812C61.7188 58.1391 62.8297 59.25 64.1875 59.25H66.6562C68.0141 59.25 69.125 58.1638 69.125 56.7812ZM17.2812 54.3125V56.7812C17.2812 58.1391 16.1703 59.25 14.8125 59.25H12.3438C10.9859 59.25 9.875 58.1391 9.875 56.7812V54.3125C9.875 52.9547 10.9859 51.8438 12.3438 51.8438H14.8125C16.1703 51.8438 17.2812 52.9547 17.2812 54.3125ZM14.8125 27.1562H12.3438C10.9859 27.1562 9.875 28.2672 9.875 29.625V32.0938C9.875 33.4516 10.9859 34.5625 12.3438 34.5625H14.8125C16.1703 34.5625 17.2812 33.4516 17.2812 32.0938V29.625C17.2812 28.2672 16.1703 27.1562 14.8125 27.1562ZM14.8125 39.5H12.3438C10.9859 39.5 9.875 40.6109 9.875 41.9688V44.4375C9.875 45.7953 10.9859 46.9062 12.3438 46.9062H14.8125C16.1703 46.9062 17.2812 45.7953 17.2812 44.4375V41.9688C17.2812 40.6109 16.1703 39.5 14.8125 39.5Z" fill="#83CBFF"/>
<path d="M64.1875 74.0625H46.8742L39.4284 69.7916L31.9851 74.0625H14.8125V11.0106C14.8125 7.65313 17.5281 4.9375 20.8856 4.9375H58.1144C61.4719 4.9375 64.1875 7.65313 64.1875 11.0106V74.0625Z" fill="#D3D3D3"/>
<path d="M46.9062 74.0625H32.0938V64.8047C32.0938 63.1013 33.4763 61.7188 35.1797 61.7188H43.8203C45.5237 61.7188 46.9309 63.1013 46.9309 64.8294V74.0625H46.9062Z" fill="#1C1C1C"/>
<path d="M35.7969 44.4375H28.3906C27.7241 44.4375 27.1562 43.8944 27.1562 43.2031V38.2409C27.1562 37.5744 27.6994 37.0066 28.3906 37.0066H35.8216C36.4881 37.0066 37.0559 37.5497 37.0559 38.2409V43.2031C37.0495 43.5328 36.914 43.8467 36.6786 44.0775C36.4431 44.3083 36.1266 44.4376 35.7969 44.4375ZM51.8438 43.2278V38.2656C51.8438 37.5991 51.3006 37.0312 50.6094 37.0312H43.2031C42.5366 37.0312 41.9688 37.5744 41.9688 38.2656V43.2278C41.9688 43.8944 42.5119 44.4622 43.2031 44.4622H50.6341C51.3006 44.4375 51.8438 43.8944 51.8438 43.2278ZM37.0312 55.5716V50.6094C37.0312 49.9428 36.4881 49.375 35.7969 49.375H28.3906C27.7241 49.375 27.1562 49.9181 27.1562 50.6094V55.5716C27.1562 56.2381 27.6994 56.8059 28.3906 56.8059H35.8216C36.4881 56.7813 37.0312 56.2381 37.0312 55.5716ZM51.8438 55.5716V50.6094C51.8438 49.9428 51.3006 49.375 50.6094 49.375H43.2031C42.5366 49.375 41.9688 49.9181 41.9688 50.6094V55.5716C41.9688 56.2381 42.5119 56.8059 43.2031 56.8059H50.6341C51.3006 56.7813 51.8438 56.2381 51.8438 55.5716ZM37.0312 18.5403V13.5781C37.0312 12.9116 36.4881 12.3438 35.7969 12.3438H28.3906C27.7241 12.3438 27.1562 12.8869 27.1562 13.5781V18.5403C27.1562 19.2069 27.6994 19.7747 28.3906 19.7747H35.8216C36.4881 19.75 37.0312 19.2069 37.0312 18.5403ZM51.8438 18.5403V13.5781C51.8438 12.9116 51.3006 12.3438 50.6094 12.3438H43.2031C42.5366 12.3438 41.9688 12.8869 41.9688 13.5781V18.5403C41.9688 19.2069 42.5119 19.7747 43.2031 19.7747H50.6341C51.3006 19.75 51.8438 19.2069 51.8438 18.5403ZM37.0312 30.8841V25.9219C37.0312 25.2553 36.4881 24.6875 35.7969 24.6875H28.3906C27.7241 24.6875 27.1562 25.2306 27.1562 25.9219V30.8841C27.1562 31.5506 27.6994 32.1184 28.3906 32.1184H35.8216C36.4881 32.0938 37.0312 31.5506 37.0312 30.8841ZM51.8438 30.8841V25.9219C51.8438 25.2553 51.3006 24.6875 50.6094 24.6875H43.2031C42.5366 24.6875 41.9688 25.2306 41.9688 25.9219V30.8841C41.9688 31.5506 42.5119 32.1184 43.2031 32.1184H50.6341C51.3006 32.0938 51.8438 31.5506 51.8438 30.8841Z" fill="#83CBFF"/>
</svg>
