<svg width="33" height="24" viewBox="0 0 33 24" fill="none" xmlns="http://www.w3.org/2000/svg">
<path d="M13.2 16.9286L21.7635 12L13.2 7.07143V16.9286ZM32.274 4.065C32.4885 4.83714 32.637 5.87214 32.736 7.18643C32.8515 8.50071 32.901 9.63429 32.901 10.62L33 12C33 15.5979 32.736 18.2429 32.274 19.935C31.8615 21.4136 30.9045 22.3664 29.4195 22.7771C28.644 22.9907 27.225 23.1386 25.047 23.2371C22.902 23.3521 20.9385 23.4014 19.1235 23.4014L16.5 23.5C9.5865 23.5 5.28 23.2371 3.5805 22.7771C2.0955 22.3664 1.1385 21.4136 0.726 19.935C0.5115 19.1629 0.363 18.1279 0.264 16.8136C0.1485 15.4993 0.0989999 14.3657 0.0989999 13.38L0 12C0 8.40214 0.264 5.75714 0.726 4.065C1.1385 2.58643 2.0955 1.63357 3.5805 1.22286C4.356 1.00929 5.775 0.861428 7.953 0.762857C10.098 0.647857 12.0615 0.598571 13.8765 0.598571L16.5 0.5C23.4135 0.5 27.72 0.762857 29.4195 1.22286C30.9045 1.63357 31.8615 2.58643 32.274 4.065Z" fill="white"/>
</svg>
