<svg width="30" height="23" viewBox="0 0 30 23" fill="none" xmlns="http://www.w3.org/2000/svg">
<path d="M9.26109 18.5873L3.04766 12.2403C2.71286 11.8983 2.25876 11.7062 1.78528 11.7062C1.31179 11.7062 0.8577 11.8983 0.522896 12.2403C0.188091 12.5823 0 13.0462 0 13.5299C0 13.7693 0.0461779 14.0065 0.135897 14.2277C0.225615 14.449 0.357117 14.65 0.522896 14.8194L8.00766 22.465C8.706 23.1783 9.83408 23.1783 10.5324 22.465L29.4771 3.11316C29.8119 2.77116 30 2.30731 30 1.82365C30 1.33999 29.8119 0.876134 29.4771 0.534134C29.1423 0.192134 28.6882 0 28.2147 0C27.7412 0 27.2871 0.192134 26.9523 0.534134L9.26109 18.5873Z" fill="#8F929B"/>
</svg>
