<svg width="56" height="87" viewBox="0 0 56 87" fill="none" xmlns="http://www.w3.org/2000/svg">
<path d="M26.0391 0.0352898C22.6719 0.54179 18.7652 3.14183 16.3951 6.43409C14.6134 8.91595 13.9433 10.9926 13.9596 13.9472C13.976 15.6524 14.2702 17.8641 14.5971 18.7083C14.6788 18.9109 14.5807 19.0122 14.2211 19.0966C13.3058 19.2992 13.126 19.7044 13.126 21.5278C13.1423 22.9292 13.2241 23.4019 13.7471 25.0227C14.3682 26.9305 15.1365 28.3825 15.6269 28.5344C15.8067 28.602 16.0028 29.0072 16.1826 29.6825C16.624 31.4553 17.1143 32.6202 17.9316 33.9202C21.2661 39.1879 26.4968 41.332 31.1553 39.306C34.8167 37.719 37.9551 33.9034 38.9849 29.8007C39.1647 29.0241 39.3608 28.602 39.557 28.5344C40.0473 28.3825 40.8156 26.9305 41.4367 25.0227C41.9434 23.4019 42.0415 22.9292 42.0415 21.5278C42.0579 19.7044 41.8781 19.2992 40.9627 19.0966C40.6358 19.0122 40.505 18.9109 40.5704 18.7421C40.9954 17.5771 41.2406 15.4836 41.2406 12.8498C41.2406 9.55752 40.9627 8.2575 39.9493 6.78864C39.3935 5.96136 38.2166 4.999 37.7916 4.999C37.6609 4.999 36.9253 4.32367 36.1407 3.49638C33.885 1.16647 31.5639 0.136589 28.2457 0.0184059C27.2977 -0.0153618 26.317 0.00152206 26.0391 0.0352898Z" fill="#C5A32B"/>
<path d="M16.3956 39.2892C13.3879 41.2139 9.26883 43.1217 6.01604 44.084C4.03821 44.675 3.09016 45.1983 2.15845 46.2282C0.196967 48.3893 -0.358786 51.6478 0.213313 57.5232C0.360425 59.1271 0.556573 60.596 0.638301 60.7648C0.850796 61.1363 3.94013 62.7571 6.26122 63.6688C10.9197 65.509 15.1042 66.5389 21.0541 67.3325C23.653 67.6701 31.9893 67.6195 34.7191 67.248C40.2276 66.5052 44.5102 65.4246 48.9235 63.6688C51.2446 62.7402 54.3503 61.1363 54.5464 60.7648C54.6281 60.596 54.8243 59.1271 54.9714 57.5232C55.5435 51.6478 54.9877 48.3893 53.0263 46.2282C52.0619 45.1646 51.1302 44.6581 48.9725 44.0165C45.7524 43.0541 42.14 41.3827 38.9526 39.3905C38.0046 38.7826 37.4488 38.5294 37.3834 38.6645C37.318 38.7658 36.0104 42.9866 34.4576 48.0516C32.9211 53.1166 31.5971 57.3375 31.5317 57.4557C31.4826 57.5739 30.9269 56.1725 30.3057 54.3491L29.1615 51.04L29.5375 50.4322C31.2211 47.6127 31.7278 45.4685 30.9923 44.3373C30.7798 43.9996 30.2567 43.5606 29.799 43.3243C29.1125 42.9697 28.7529 42.9022 27.5924 42.9022C26.4318 42.9022 26.0722 42.9697 25.3857 43.3243C23.604 44.236 23.3752 45.823 24.6174 48.4399C24.9934 49.1997 25.4511 50.0945 25.6636 50.4322L26.0232 51.04L24.9117 54.3154C24.2905 56.1219 23.7675 57.6076 23.7511 57.6414C23.7021 57.7089 23.4079 56.7972 20.3676 46.8698C19.0272 42.4632 17.8667 38.7658 17.8013 38.6476C17.7359 38.5294 17.2782 38.732 16.3956 39.2892Z" fill="#C5A32B"/>
<path d="M7.50384 68.5312C7.40577 68.6663 6.96444 69.6624 6.5231 70.7767L5.72216 72.7858L3.4828 72.9546C1.11268 73.1403 0.949219 73.2079 0.949219 74.0689C0.949219 74.4235 1.27613 74.7949 2.58379 75.9092C3.4828 76.6859 4.21836 77.395 4.21836 77.4794C4.21836 77.5469 4.00586 78.5599 3.72799 79.7249C3.20493 81.9704 3.23762 82.3587 3.90779 82.5782C4.21836 82.6795 5.00295 82.2574 7.73268 80.4846C8.02691 80.282 8.2394 80.3833 9.61244 81.2613C11.6883 82.6119 11.8681 82.6963 12.2278 82.5782C12.8816 82.3587 12.9143 81.9535 12.3912 79.708C12.1297 78.543 11.9008 77.5131 11.9008 77.4456C11.9008 77.3781 12.6364 76.6859 13.5354 75.9092C14.8431 74.7949 15.17 74.4235 15.17 74.0689C15.17 73.2079 15.0065 73.1403 12.62 72.9546L10.397 72.7858L9.62879 70.8273C9.22014 69.7468 8.77881 68.7338 8.64804 68.5818C8.38651 68.261 7.76538 68.2273 7.50384 68.5312Z" fill="#C5A32B"/>
<path d="M46.5374 68.5818C46.4066 68.7338 45.9653 69.7468 45.5567 70.8273L44.7884 72.7858L42.5817 72.9546C41.3722 73.039 40.3424 73.1572 40.2933 73.2079C39.9991 73.5455 39.852 74.0858 39.9991 74.3391C40.0808 74.5079 40.8654 75.2508 41.7154 75.9936C42.5817 76.7365 43.2846 77.4118 43.2846 77.4794C43.2846 77.5638 43.0721 78.5261 42.7942 79.6236C42.5327 80.721 42.3039 81.7171 42.3039 81.8015C42.3039 82.0548 42.9087 82.6626 43.1702 82.6626C43.2846 82.6626 44.2163 82.1223 45.2461 81.4638C46.9133 80.3833 47.1422 80.282 47.4364 80.4846C50.1825 82.2574 50.9671 82.6795 51.2777 82.5782C51.9642 82.3587 51.9805 81.9535 51.4575 79.8093C51.1959 78.695 50.9671 77.682 50.9671 77.5469C50.9671 77.4118 51.7026 76.669 52.6017 75.9092C53.9257 74.7611 54.2362 74.4066 54.2362 74.0352C54.2362 73.2923 53.8603 73.1403 51.5882 72.9546L49.4633 72.7858L48.6623 70.7767C48.221 69.6624 47.7797 68.6662 47.6816 68.5312C47.4201 68.2273 46.7989 68.261 46.5374 68.5818Z" fill="#C5A32B"/>
<path d="M27.0531 72.2624C26.9223 72.3975 26.5791 73.1403 26.2848 73.917C25.9906 74.6936 25.6147 75.5884 25.4512 75.9261L25.157 76.5508L23.1465 76.669C20.9561 76.804 20.4004 77.0066 20.4004 77.682C20.4004 78.1378 20.4331 78.1716 22.3455 79.8599L23.7839 81.1431L23.2936 83.2197C22.7378 85.5159 22.7705 86.1406 23.4243 86.3094C23.7513 86.3938 24.2416 86.1574 25.7127 85.1951L27.5925 83.9964L29.4232 85.1782C30.4203 85.8367 31.3684 86.3769 31.5155 86.3769C31.8587 86.3769 32.3327 85.8535 32.3327 85.4652C32.3327 85.2289 31.6953 82.4093 31.4174 81.4639C31.3684 81.2781 31.8914 80.7041 33.0683 79.6405C34.8663 78.0196 35.0461 77.6989 34.474 77.1079C34.2288 76.8547 33.8039 76.7703 32.0549 76.669L29.9299 76.5508L29.1453 74.5417C28.7204 73.4274 28.2627 72.4144 28.1319 72.2793C27.8377 71.9585 27.3637 71.9585 27.0531 72.2624Z" fill="#C5A32B"/>
</svg>
