<svg width="29" height="33" viewBox="0 0 29 33" fill="#000" xmlns="http://www.w3.org/2000/svg">
<path d="M15.265 0.564218C15.3842 0.441752 15.5268 0.344415 15.6843 0.277952C15.8417 0.211488 16.0109 0.177246 16.1819 0.177246C16.3528 0.177246 16.522 0.211488 16.6795 0.277952C16.8369 0.344415 16.9795 0.441752 17.0987 0.564218C17.3432 0.81524 17.48 1.15179 17.48 1.50219C17.48 1.85258 17.3432 2.18913 17.0987 2.44016L3.39343 16.497L17.0987 30.5567C17.2221 30.683 17.3194 30.8324 17.385 30.9963C17.4507 31.1602 17.4834 31.3354 17.4813 31.512C17.4792 31.6886 17.4424 31.863 17.3729 32.0253C17.3034 32.1876 17.2026 32.3346 17.0762 32.458C16.9559 32.5756 16.8136 32.6683 16.6574 32.7308C16.5012 32.7933 16.3342 32.8244 16.166 32.8223C15.9977 32.8202 15.8315 32.785 15.677 32.7186C15.5224 32.6522 15.3824 32.556 15.265 32.4355L0.690619 17.4786C0.434643 17.216 0.291382 16.8638 0.291382 16.497C0.291382 16.1303 0.434643 15.7781 0.690619 15.5155L15.265 0.564218ZM26.515 0.564218C26.6342 0.441752 26.7768 0.344415 26.9343 0.277952C27.0917 0.211488 27.2609 0.177246 27.4319 0.177246C27.6028 0.177246 27.772 0.211488 27.9295 0.277952C28.0869 0.344415 28.2295 0.441752 28.3487 0.564218C28.5932 0.81524 28.73 1.15179 28.73 1.50219C28.73 1.85258 28.5932 2.18913 28.3487 2.44016L14.6434 16.497L28.3487 30.5567C28.4721 30.683 28.5694 30.8324 28.635 30.9963C28.7007 31.1602 28.7334 31.3354 28.7313 31.512C28.7292 31.6886 28.6924 31.863 28.6229 32.0253C28.5534 32.1876 28.4526 32.3346 28.3262 32.458C28.2059 32.5756 28.0636 32.6683 27.9074 32.7308C27.7512 32.7933 27.5842 32.8244 27.416 32.8223C27.2477 32.8202 27.0815 32.785 26.927 32.7186C26.7724 32.6522 26.6324 32.556 26.515 32.4355L11.9406 17.4786C11.6846 17.216 11.5414 16.8638 11.5414 16.497C11.5414 16.1303 11.6846 15.7781 11.9406 15.5155L26.515 0.564218Z" fill="white"/>
</svg>
