<svg width="8" height="14" viewBox="0 0 8 14" fill="none" xmlns="http://www.w3.org/2000/svg">
<path d="M0.30592 0.308161C0.11004 0.505537 9.19877e-07 0.773199 9.07677e-07 1.05229C8.95478e-07 1.33138 0.11004 1.59904 0.30592 1.79641L5.47795 7.00635L0.30592 12.2163C0.115591 12.4148 0.0102753 12.6807 0.0126561 12.9566C0.0150365 13.2326 0.124923 13.4966 0.318647 13.6917C0.512371 13.8869 0.774434 13.9976 1.04839 14C1.32235 14.0024 1.58628 13.8963 1.78334 13.7045L7.69408 7.75048C7.88996 7.55311 8 7.28544 8 7.00635C8 6.72727 7.88996 6.4596 7.69408 6.26223L1.78334 0.308161C1.5874 0.110846 1.32169 -2.91918e-07 1.04463 -3.04029e-07C0.767573 -3.16139e-07 0.501859 0.110846 0.30592 0.308161Z" fill="white"/>
</svg>
